<?xml version="1.0" encoding="utf-8"?>
<!-- Generator: Adobe Illustrator 23.0.6, SVG Export Plug-In . SVG Version: 6.00 Build 0)  -->
<svg version="1.1" id="Layer_1" xmlns="http://www.w3.org/2000/svg" xmlns:xlink="http://www.w3.org/1999/xlink" x="0px" y="0px"
	 viewBox="0 0 100 208.5" style="enable-background:new 0 0 100 208.5;" xml:space="preserve">
<style type="text/css">
	.st0{fill:#FFFFFF;}
</style>
<title>24-payment</title>
<g>
	<path class="st0" d="M80.4,68.6c-1.4-1.1-3.3-0.8-4.4,0.6c-1.1,1.4-0.8,3.3,0.6,4.4c0,0,0,0,0,0c10.9,8.4,17.2,21,17.2,34.7
		c0,24.1-19.6,43.8-43.8,43.8S6.2,132.4,6.2,108.3c0-23.3,18.4-42.4,41.4-43.7v4.7c0,1.7,1.4,3.1,3.1,3.1c0.5,0,1-0.1,1.5-0.4
		l14.4-8c1.5-0.8,2.1-2.7,1.2-4.2c-0.3-0.5-0.7-0.9-1.2-1.2l-14.4-8c-1.5-0.8-3.4-0.3-4.2,1.2c-0.3,0.5-0.4,1-0.4,1.5v4.9
		C21.2,59.6,0,81.6,0,108.3c0,27.6,22.4,50,50,50s50-22.4,50-50C100,92.6,92.9,78.1,80.4,68.6z M53.8,58.7l4.9,2.7l-4.9,2.7V58.7z"
		/>
	<path class="st0" d="M29.1,110.2c-4.4,3.1-7.2,6.1-8.4,8.9c-0.9,2-1.6,4-1.8,6.2c-0.1,1.1,0.8,2.1,1.9,2.1h24.7
		c1.1,0,2.1-0.9,2.1-2.1c0,0,0,0,0,0v-3.1c0-1.1-0.9-2.1-2.1-2.1c0,0,0,0,0,0H31.4c-1.1,0-1.7-0.6-1.2-1.2c0.3-0.4,0.7-0.7,1.1-1.1
		c0.8-0.7,2.2-1.7,4.3-3.2l3.3-2.3c2.8-2,4.8-3.8,6-5.4c1.9-2.4,2.8-5.2,2.8-8.3c0-4.1-1.3-7.3-4-9.8c-2.6-2.5-6.2-3.7-10.6-3.7
		c-5.6,0-9.6,2.1-11.8,6.3c-0.9,1.8-1.5,4-1.8,6.6c-0.1,1.1,0.8,2.1,1.9,2.1h3.9c1.1,0,2.1-0.9,2.2-2.1c0.2-1.3,0.4-2.4,0.8-3.1
		c0.9-1.9,2.6-2.8,5.1-2.8c1.8,0,3.3,0.6,4.2,1.8c1,1.2,1.5,2.7,1.5,4.4c0,2.2-0.9,4.2-2.6,6C35.4,105.5,33,107.5,29.1,110.2z"/>
	<path class="st0" d="M74.3,85.5h-5.1c-1.1,0-2.6,0.8-3.2,1.8l-13.3,22c-0.6,1-1.1,2.7-1.1,3.9v3.1c0,1.1,0.9,2.1,2.1,2.1
		c0,0,0,0,0,0h12.5c1.1,0,2.1,0.9,2.1,2.1c0,0,0,0,0,0v4.9c0,1.1,0.9,2.1,2.1,2.1h3.9c1.1,0,2.1-0.9,2.1-2.1c0,0,0,0,0,0v-4.9
		c0-1.1,0.9-2.1,2.1-2.1c0,0,0,0,0,0h0.6c1.1,0,2.1-0.9,2.1-2.1c0,0,0,0,0,0v-2.3c0-1.1-0.9-2.1-2.1-2.1h-0.6
		c-1.1,0-2.1-0.9-2.1-2.1c0,0,0,0,0,0V87.6C76.4,86.5,75.5,85.6,74.3,85.5C74.4,85.5,74.3,85.5,74.3,85.5z M68.3,109.8
		c0,1.1-0.9,2.1-2.1,2.1c0,0,0,0,0,0h-6.4c-1.1,0-1.6-0.8-1-1.8l8.4-14.5c0.6-1,1-0.9,1,0.3L68.3,109.8L68.3,109.8z"/>
</g>
</svg>
