<?xml version="1.0" encoding="utf-8"?>
<!-- Generator: Adobe Illustrator 23.0.6, SVG Export Plug-In . SVG Version: 6.00 Build 0)  -->
<svg version="1.1" id="Layer_1" xmlns="http://www.w3.org/2000/svg" xmlns:xlink="http://www.w3.org/1999/xlink" x="0px" y="0px"
	 viewBox="0 0 105.1 226.6" style="enable-background:new 0 0 105.1 226.6;" xml:space="preserve">
<style type="text/css">
	.st0{fill:#FFFFFF;}
</style>
<title>2Asset 1</title>
<g>
	<g id="Layer_1-2">
		<path id="BTC_alt" class="st0" d="M92.4,112.8c-4.5-3.4-10.8-4.7-10.8-4.7s5.4-3.1,7.6-6.2c2.2-3.1,3.3-7.9,3.5-10.4
			c0.2-2.5,0.6-13-7.6-19c-6.3-4.7-13.6-6.5-23.3-7.1V44.1H48.7v20.9h-10V44.1H25.7v20.9H0v13.6h7.6c2.1,0,5.7,0.2,7.3,2
			c1.6,1.7,1.8,2.7,1.8,6c0,3.4,0,52.8,0,54.1s-0.2,2.9-1.3,3.9c-1.1,1-2.2,1.3-4.8,1.3H2.7L0,161.6h25.7v20.9h13.1v-20.9h10v20.9
			h13.1v-21.2c3.4-0.2,6.5-0.5,8.4-0.7c3.7-0.5,12.1-1.5,20-7c7.9-5.5,9.6-14.1,9.8-22.8C100.2,122.1,96.9,116.2,92.4,112.8z
			 M38.8,79.8c0,0,4.2-0.4,8.2-0.3s7.7,0.2,13.1,1.8c5.4,1.6,8.5,5.7,8.7,10.4c0.1,4.8-2,7.9-5.6,10c-3.7,2-8.7,3.1-13.5,3.3
			c-4.8,0.2-10.9,0-10.9,0L38.8,79.8z M68,142.3c-3,1.6-9,3.1-14.8,3.5s-14.5,0.2-14.5,0.2v-28c0,0,8.3-0.4,14.8,0
			c6.5,0.4,11.9,2.1,14.3,3.3c2.4,1.2,6.7,3.9,6.7,10.3C74.6,138.1,71,140.6,68,142.3z"/>
	</g>
</g>
</svg>
