<?xml version="1.0" encoding="utf-8"?>
<!-- Generator: Adobe Illustrator 23.0.6, SVG Export Plug-In . SVG Version: 6.00 Build 0)  -->
<svg version="1.1" id="Layer_1" xmlns="http://www.w3.org/2000/svg" xmlns:xlink="http://www.w3.org/1999/xlink" x="0px" y="0px"
	 viewBox="0 0 100 211.1" style="enable-background:new 0 0 100 211.1;" xml:space="preserve">
<style type="text/css">
	.st0{fill:#FFFFFF;stroke:url(#SVGID_1_);stroke-width:0.1056;stroke-miterlimit:10;}
	.st1{fill:#FFFFFF;}
</style>
<title>cashin</title>
<linearGradient id="SVGID_1_" gradientUnits="userSpaceOnUse" x1="733.0073" y1="252.9216" x2="833.2686" y2="252.9216" gradientTransform="matrix(-1 0 0 -1 833.1379 358.3637)">
	<stop  offset="0" style="stop-color:#E8A423"/>
	<stop  offset="2.200000e-02" style="stop-color:#E9A721"/>
	<stop  offset="0.254" style="stop-color:#F3C113"/>
	<stop  offset="0.492" style="stop-color:#FAD408"/>
	<stop  offset="0.737" style="stop-color:#FEDF02"/>
	<stop  offset="1" style="stop-color:#FFE300"/>
</linearGradient>
<path class="st0" d="M21.4,108.9V72.7h57.1v36.2H100l-50,48.3L0,108.9H21.4z M88.1,113.7H73.8V77.5H26.2v36.2H11.9L50,149.9
	L88.1,113.7z M21.4,63.3h57.1v4.8H21.4V63.3z M21.4,53.7h57.1v4.8H21.4V53.7z"/>
<g id="Layer_1-2-2">
	<path class="st1" d="M63.8,109.1c-0.4-0.9-0.9-1.6-1.6-2.3c-1.1-1.1-2.5-1.9-4-2.2c1.4-0.8,2.6-1.9,3.4-3.3c0.8-1.9,0.8-4.1-0.1-6
		c-0.4-0.9-0.9-1.7-1.6-2.4c-1.2-1-2.6-1.7-4.2-1.9c-1.2-0.1-2.4-0.2-3.7-0.1v-5h-3.9v4.9h-3.4v-4.9h-4v5l-7.9-0.1v4.4
		c1.1-0.1,2.1-0.1,3.2,0c0.9,0.2,1.6,0.8,1.9,1.6c0.1,0.6,0.1,1.2,0,1.8v15.2c0,1-0.8,1.9-1.9,2c-0.3,0.1-3.2,0.1-3.2,0.1v4.4h7.9
		v4.9h4.1v-4.9h3.2v4.9h4.1v-4.9c2.1,0,4.2-0.2,6.3-0.7c2.4-0.7,4.3-2.4,5.1-4.7C63.9,113.1,64.5,110.7,63.8,109.1z M51.3,95
		c2.4,0,3.3,3.5,2.8,5.4c-0.3,1-0.9,1.9-1.8,2.5c-0.7,0.3-1.5,0.4-2.2,0.3h-5.2V95H51.3z M56.3,111.5c-0.1,2.2-1.9,3.9-4.2,4.2
		c-1.5,0.1-3.1,0.1-4.6,0h-2.7v-8.5h4.8c2.2,0,4.5,0,5.9,2.1C56,109.9,56.3,110.7,56.3,111.5L56.3,111.5z"/>
</g>
</svg>
