<?xml version="1.0" encoding="utf-8"?>
<!-- Generator: Adobe Illustrator 23.0.6, SVG Export Plug-In . SVG Version: 6.00 Build 0)  -->
<svg version="1.1" id="Layer_1" xmlns="http://www.w3.org/2000/svg" xmlns:xlink="http://www.w3.org/1999/xlink" x="0px" y="0px"
	 viewBox="0 0 100 119.5" style="enable-background:new 0 0 100 119.5;" xml:space="preserve">
<style type="text/css">
	.st0{fill:#FFFFFF;}
</style>
<title>hashbazaar-unpaid</title>
<g>
	<g>
		<path class="st0" d="M96.4,77c0.6-2,0.5-7-0.1-9c-1.7-5.9-6.1-10.2-12-11.8c-2.5-0.7-2.7-0.9-2.6-3c0.1-2-0.2-5.2-0.8-7.3
			c-2.4-8.5-9.4-14.4-18.4-15.5c-6.5-0.8-13.1,1.4-17.8,6c-1.9,1.9-3.3,4-4.6,6.6c-1.4,2.9-2,3.1-4,1.2c-2-1.9-4.2-2.7-7-2.7
			c-6.5,0-10.9,5-10.4,11.6c0.2,2.1,0,2.3-2.2,2.9c-3,0.7-5,1.7-7.3,3.5c-2.3,1.8-4.5,5.2-5.4,8.4c-0.6,2-0.7,7-0.1,9
			c0.8,3.1,2,5.2,4,7.4c2.3,2.5,4.5,3.8,7.9,4.9l1.5,0.5L49,89.6c22,0.1,32.5,0.1,33.5,0c3.7-0.5,6.6-2,9.3-4.8
			C94.3,82.3,95.4,80.4,96.4,77z"/>
		<path class="st0" d="M93.6,87.2c2.8-2.7,4.6-5.6,5.7-9.3c0.7-2.6,0.9-6.4,0.4-9.1c-1-4.8-3.9-9.4-7.7-12.4
			c-1.5-1.2-4.2-2.6-5.8-3.1L85,53l-0.1-2c-0.2-2.4-0.5-4.7-1.1-6.5c-2.8-8.6-10.2-15.2-19.1-17.1c-1.2-0.3-3.9-0.5-5.5-0.5
			c-0.4,0-0.7,0-1.1,0c-2.8,0.4-3.8,0.6-5.6,1.2c-5.9,1.9-11,6-14.2,11.5l-0.8,1.3l-0.8-0.5c-5.2-3.6-12.4-2.9-17,1.7
			c-2.6,2.6-4.2,6.2-4.2,9.7l0,0.9l-1,0.2c-1.5,0.4-4.4,1.9-6.2,3.2C4.6,58.9,2,62.6,0.7,67.1c-0.7,2.3-0.9,6.4-0.4,8.8
			c0.9,4.3,2.5,7.4,5.5,10.5c2.7,2.8,5.7,4.6,9.6,5.7l1.5,0.4l32.3,0.2c7.5,0,13.3,0.1,17.8,0.1c14,0,15.1,0,16.4-0.3
			C87.4,91.7,90.7,90,93.6,87.2z"/>
	</g>
	<g>
		<path d="M58.4,60.3c-0.4-0.9-1.2-1.6-2-2.1c-0.2-0.1-2.1-1-2.1-0.9l1.1-2.8l-2.3-0.9L52,56.5l-2-0.8l1.1-2.8l-2.3-0.9l-1.1,2.9
			L43.1,53l-1,2.5c0-0.1,1.7,0.7,1.8,0.7c0.4,0.3,0.8,0.8,0.7,1.3c-0.1,0.4-0.2,0.7-0.4,1l-3.4,8.7c-0.2,0.6-0.9,0.8-1.6,0.7
			c-0.2,0-1.9-0.7-1.9-0.7l-1,2.5l4.6,1.8L40,74.5l2.4,0.9l1.1-2.8l1.9,0.7l-1.1,2.8l2.4,0.9l1.1-2.8c0,0,2.5,1,3.8,1
			c1.2,0.2,2.5-0.1,3.4-0.9c0.2-0.2,0.4-0.4,0.6-0.6c0.6-0.9,1.5-2.1,1.5-3.3c0-0.6-0.2-1.2-0.4-1.7c-0.4-0.9-1-1.6-1.8-2.2
			c0,0,1.8-0.2,2.7-1.1c0,0,1.6-1.5,1.3-3.5C58.8,61.5,58.6,60.9,58.4,60.3z M52.1,70.3c-0.6,1.2-2.1,1.9-3.4,1.5
			c-0.9-0.2-1.8-0.7-2.7-1l-1.5-0.6l1.9-4.9l2.8,1.1c1.3,0.5,2.6,1,3,2.5C52.2,69.2,52.3,69.9,52.1,70.3z M53.3,63.4
			c-0.4,0.5-1,0.9-1.6,1.1c-0.5,0.1-0.9-0.1-1.4-0.3L49,63.6c-0.6-0.2-1.2-0.5-1.7-0.7l1.8-4.7l3.8,1.5C54.3,60.2,54,62.4,53.3,63.4
			z"/>
		<path class="st0" d="M52.9,59.6l-3.8-1.5l-1.8,4.7c0.6,0.2,1.2,0.5,1.7,0.7l1.3,0.5c0.4,0.2,0.9,0.4,1.4,0.3
			c0.6-0.1,1.2-0.5,1.6-1.1C54,62.4,54.3,60.2,52.9,59.6z"/>
		<path class="st0" d="M49.1,66.3l-2.8-1.1l-1.9,4.9l1.5,0.6c0.9,0.3,1.8,0.8,2.7,1c1.3,0.4,2.8-0.2,3.4-1.5c0.2-0.4,0.1-1,0-1.4
			C51.8,67.3,50.4,66.8,49.1,66.3z"/>
		<path class="st0" d="M56,46.8c-10.1-3.9-21.4,1.1-25.3,11.1C26.8,68,31.8,79.3,41.8,83.2c10.1,3.9,21.4-1.1,25.3-11.1
			C71,62,66,50.7,56,46.8z M57.5,65.5c-0.9,0.9-2.7,1.1-2.7,1.1c0.8,0.6,1.4,1.3,1.8,2.2c0.2,0.5,0.4,1.1,0.4,1.7
			c0,1.1-0.8,2.4-1.5,3.3c-0.2,0.2-0.4,0.4-0.6,0.6c-0.9,0.8-2.2,1.1-3.4,0.9c-1.3,0-3.8-1-3.8-1l-1.1,2.8l-2.4-0.9l1.1-2.8
			l-1.9-0.7l-1.1,2.8L40,74.5l1.1-2.8l-4.6-1.8l1-2.5c0,0,1.6,0.6,1.9,0.7c0.6,0.1,1.3-0.1,1.6-0.7l3.4-8.7c0.2-0.3,0.3-0.7,0.4-1
			c0.1-0.5-0.3-1.1-0.7-1.3c-0.1-0.1-1.8-0.8-1.8-0.7l1-2.5l4.6,1.8l1.1-2.9l2.3,0.9L50,55.7l2,0.8l1.1-2.8l2.3,0.9l-1.1,2.8
			c0-0.1,1.9,0.8,2.1,0.9c0.8,0.5,1.6,1.2,2,2.1c0.2,0.6,0.4,1.1,0.4,1.7C59.1,64.1,57.5,65.5,57.5,65.5z"/>
	</g>
</g>
</svg>
