<?xml version="1.0" encoding="utf-8"?>
<!-- Generator: Adobe Illustrator 23.0.6, SVG Export Plug-In . SVG Version: 6.00 Build 0)  -->
<svg version="1.1" id="Layer_1" xmlns="http://www.w3.org/2000/svg" xmlns:xlink="http://www.w3.org/1999/xlink" x="0px" y="0px"
	 viewBox="0 0 99.8 173.9" style="enable-background:new 0 0 99.8 173.9;" xml:space="preserve">
<style type="text/css">
	.st0{fill:#FFFFFF;}
	.st1{fill:none;stroke:url(#SVGID_1_);stroke-width:0.9123;stroke-miterlimit:10;}
	.st2{fill:none;stroke:url(#SVGID_2_);stroke-width:0.6843;stroke-miterlimit:10;}
	.st3{fill:none;stroke:url(#SVGID_3_);stroke-width:0.9123;stroke-miterlimit:10;}
	.st4{fill:none;stroke:url(#SVGID_4_);stroke-width:0.6843;stroke-miterlimit:10;}
	.st5{fill:none;stroke:url(#SVGID_5_);stroke-width:0.9123;stroke-miterlimit:10;}
	.st6{fill:none;stroke:url(#SVGID_6_);stroke-width:0.6843;stroke-miterlimit:10;}
	.st7{fill:none;stroke:url(#SVGID_7_);stroke-width:0.9123;stroke-miterlimit:10;}
	.st8{fill:none;stroke:url(#SVGID_8_);stroke-width:0.6843;stroke-miterlimit:10;}
	.st9{fill:#FFFFFF;stroke:url(#SVGID_9_);stroke-width:0.9123;stroke-miterlimit:10;}
	.st10{fill:#FFFFFF;stroke:url(#SVGID_10_);stroke-width:0.6843;stroke-miterlimit:10;}
</style>
<title>hashbazaar-mine</title>
<path class="st0" d="M64.5,106.4l-3.8-5.7c-4.7-7.1-16.4-7.1-21,0l-3.8,5.7L21.6,128h3.5l12.5-20.4l3.3-5.4c4.1-6.7,14.3-6.7,18.4,0
	l3.3,5.4L75.3,128h3.5L64.5,106.4z"/>
<path class="st0" d="M35.2,80.8l3.8,5.7c4.7,7.1,16.4,7.1,21,0l3.8-5.7l14.3-21.6h-3.5L62,79.6L58.7,85c-4.1,6.7-14.3,6.7-18.4,0
	l-3.3-5.4L24.4,59.2h-3.5L35.2,80.8z"/>
<polygon class="st0" points="8.2,30.6 8.2,43.9 10.4,43.9 10.4,32.8 88.8,32.8 88.8,43.9 91.5,43.9 91.5,30.6 "/>
<g>
	<path class="st0" d="M8.9,47.7c-2.7,0-4.9,2.2-4.9,4.9c0,2.7,2.2,4.9,4.9,4.9s4.9-2.2,4.9-4.9l0,0l0,0
		C13.8,49.9,11.6,47.7,8.9,47.7z M8.9,55.5c-1.6,0-2.9-1.3-2.9-2.9s1.3-2.9,2.9-2.9s2.9,1.3,2.9,2.9l0,0
		C11.8,54.2,10.5,55.5,8.9,55.5L8.9,55.5L8.9,55.5L8.9,55.5z"/>
	
		<linearGradient id="SVGID_1_" gradientUnits="userSpaceOnUse" x1="11.2416" y1="770.5251" x2="6.2726" y2="770.5251" gradientTransform="matrix(1 0 0 1 0 -717.9998)">
		<stop  offset="0" style="stop-color:#E8A423"/>
		<stop  offset="2.200000e-02" style="stop-color:#E9A721"/>
		<stop  offset="0.254" style="stop-color:#F3C113"/>
		<stop  offset="0.492" style="stop-color:#FAD408"/>
		<stop  offset="0.737" style="stop-color:#FEDF02"/>
		<stop  offset="1" style="stop-color:#FFE300"/>
	</linearGradient>
	<line class="st1" x1="6.6" y1="50.3" x2="10.9" y2="54.7"/>
	
		<linearGradient id="SVGID_2_" gradientUnits="userSpaceOnUse" x1="11.165" y1="770.5876" x2="6.6366" y2="770.5876" gradientTransform="matrix(1 0 0 1 0 -717.9998)">
		<stop  offset="0" style="stop-color:#E8A423"/>
		<stop  offset="2.200000e-02" style="stop-color:#E9A721"/>
		<stop  offset="0.254" style="stop-color:#F3C113"/>
		<stop  offset="0.492" style="stop-color:#FAD408"/>
		<stop  offset="0.737" style="stop-color:#FEDF02"/>
		<stop  offset="1" style="stop-color:#FFE300"/>
	</linearGradient>
	<line class="st2" x1="10.9" y1="50.5" x2="6.9" y2="54.7"/>
</g>
<g>
	<path class="st0" d="M8.9,130.1c-2.7,0-4.9,2.2-4.9,4.9s2.2,4.9,4.9,4.9s4.9-2.2,4.9-4.9l0,0l0,0C13.8,132.3,11.6,130.1,8.9,130.1
		C8.9,130.1,8.9,130.1,8.9,130.1L8.9,130.1z M8.9,137.9c-1.6,0-2.9-1.3-2.9-2.9s1.3-2.9,2.9-2.9s2.9,1.3,2.9,2.9l0,0
		C11.8,136.6,10.5,137.9,8.9,137.9C8.9,137.9,8.9,137.9,8.9,137.9L8.9,137.9L8.9,137.9z"/>
	
		<linearGradient id="SVGID_3_" gradientUnits="userSpaceOnUse" x1="11.2416" y1="852.9096" x2="6.2726" y2="852.9096" gradientTransform="matrix(1 0 0 1 0 -717.9998)">
		<stop  offset="0" style="stop-color:#E8A423"/>
		<stop  offset="2.200000e-02" style="stop-color:#E9A721"/>
		<stop  offset="0.254" style="stop-color:#F3C113"/>
		<stop  offset="0.492" style="stop-color:#FAD408"/>
		<stop  offset="0.737" style="stop-color:#FEDF02"/>
		<stop  offset="1" style="stop-color:#FFE300"/>
	</linearGradient>
	<line class="st3" x1="6.6" y1="132.7" x2="10.9" y2="137.1"/>
	
		<linearGradient id="SVGID_4_" gradientUnits="userSpaceOnUse" x1="11.165" y1="852.9721" x2="6.6366" y2="852.9721" gradientTransform="matrix(1 0 0 1 0 -717.9998)">
		<stop  offset="0" style="stop-color:#E8A423"/>
		<stop  offset="2.200000e-02" style="stop-color:#E9A721"/>
		<stop  offset="0.254" style="stop-color:#F3C113"/>
		<stop  offset="0.492" style="stop-color:#FAD408"/>
		<stop  offset="0.737" style="stop-color:#FEDF02"/>
		<stop  offset="1" style="stop-color:#FFE300"/>
	</linearGradient>
	<line class="st4" x1="10.9" y1="132.8" x2="6.9" y2="137.1"/>
</g>
<g>
	<path class="st0" d="M90.8,130.1c-2.7,0-4.9,2.2-4.9,4.9c0,2.7,2.2,4.9,4.9,4.9c2.7,0,4.9-2.2,4.9-4.9l0,0
		C95.7,132.3,93.5,130.1,90.8,130.1z M90.8,137.9c-1.6,0-2.9-1.3-2.9-2.9s1.3-2.9,2.9-2.9s2.9,1.3,2.9,2.9l0,0
		C93.8,136.6,92.5,137.9,90.8,137.9C90.8,137.9,90.8,137.9,90.8,137.9L90.8,137.9L90.8,137.9z"/>
	
		<linearGradient id="SVGID_5_" gradientUnits="userSpaceOnUse" x1="93.1736" y1="852.9096" x2="88.2046" y2="852.9096" gradientTransform="matrix(1 0 0 1 0 -717.9998)">
		<stop  offset="0" style="stop-color:#E8A423"/>
		<stop  offset="2.200000e-02" style="stop-color:#E9A721"/>
		<stop  offset="0.254" style="stop-color:#F3C113"/>
		<stop  offset="0.492" style="stop-color:#FAD408"/>
		<stop  offset="0.737" style="stop-color:#FEDF02"/>
		<stop  offset="1" style="stop-color:#FFE300"/>
	</linearGradient>
	<line class="st5" x1="88.5" y1="132.7" x2="92.8" y2="137.1"/>
	
		<linearGradient id="SVGID_6_" gradientUnits="userSpaceOnUse" x1="93.097" y1="852.9721" x2="88.5686" y2="852.9721" gradientTransform="matrix(1 0 0 1 0 -717.9998)">
		<stop  offset="0" style="stop-color:#E8A423"/>
		<stop  offset="2.200000e-02" style="stop-color:#E9A721"/>
		<stop  offset="0.254" style="stop-color:#F3C113"/>
		<stop  offset="0.492" style="stop-color:#FAD408"/>
		<stop  offset="0.737" style="stop-color:#FEDF02"/>
		<stop  offset="1" style="stop-color:#FFE300"/>
	</linearGradient>
	<line class="st6" x1="92.8" y1="132.8" x2="88.8" y2="137.1"/>
</g>
<g>
	<path class="st0" d="M90.8,47.7c-2.7,0-4.9,2.2-4.9,4.9c0,2.7,2.2,4.9,4.9,4.9c2.7,0,4.9-2.2,4.9-4.9l0,0
		C95.7,49.9,93.5,47.7,90.8,47.7z M90.8,55.5c-1.6,0-2.9-1.3-2.9-2.9s1.3-2.9,2.9-2.9s2.9,1.3,2.9,2.9l0,0
		C93.8,54.2,92.5,55.5,90.8,55.5L90.8,55.5L90.8,55.5L90.8,55.5z"/>
	
		<linearGradient id="SVGID_7_" gradientUnits="userSpaceOnUse" x1="93.1736" y1="770.5251" x2="88.2046" y2="770.5251" gradientTransform="matrix(1 0 0 1 0 -717.9998)">
		<stop  offset="0" style="stop-color:#E8A423"/>
		<stop  offset="2.200000e-02" style="stop-color:#E9A721"/>
		<stop  offset="0.254" style="stop-color:#F3C113"/>
		<stop  offset="0.492" style="stop-color:#FAD408"/>
		<stop  offset="0.737" style="stop-color:#FEDF02"/>
		<stop  offset="1" style="stop-color:#FFE300"/>
	</linearGradient>
	<line class="st7" x1="88.5" y1="50.3" x2="92.8" y2="54.7"/>
	
		<linearGradient id="SVGID_8_" gradientUnits="userSpaceOnUse" x1="93.097" y1="770.5876" x2="88.5686" y2="770.5876" gradientTransform="matrix(1 0 0 1 0 -717.9998)">
		<stop  offset="0" style="stop-color:#E8A423"/>
		<stop  offset="2.200000e-02" style="stop-color:#E9A721"/>
		<stop  offset="0.254" style="stop-color:#F3C113"/>
		<stop  offset="0.492" style="stop-color:#FAD408"/>
		<stop  offset="0.737" style="stop-color:#FEDF02"/>
		<stop  offset="1" style="stop-color:#FFE300"/>
	</linearGradient>
	<line class="st8" x1="92.8" y1="50.5" x2="88.8" y2="54.7"/>
</g>
<path class="st0" d="M95.9,43.9H4c-2.2,0-4,1.7-4,3.9c0,0,0,0,0,0v91.6c0,2.2,1.8,3.9,4,3.9c0,0,0,0,0,0h91.9c2.2,0,4-1.7,4-3.9
	c0,0,0,0,0,0V47.8C99.8,45.6,98,43.9,95.9,43.9C95.9,43.9,95.9,43.9,95.9,43.9L95.9,43.9z M97.2,139.4c0,0.7-0.6,1.3-1.4,1.3H4
	c-0.7,0-1.3-0.6-1.4-1.3V47.8c0-0.7,0.6-1.3,1.4-1.3h91.9c0.7,0,1.3,0.6,1.4,1.3L97.2,139.4z"/>
<path class="st0" d="M49.8,47.7C24.5,47.7,4,68.3,4,93.6s20.5,45.8,45.8,45.8s45.8-20.5,45.8-45.8l0,0l0,0
	C95.7,68.3,75.2,47.7,49.8,47.7z M49.8,136.8c-23.9,0-43.2-19.4-43.2-43.2S26,50.3,49.8,50.3s43.2,19.4,43.2,43.2l0,0
	C93.1,117.5,73.7,136.8,49.8,136.8z"/>
<path class="st0" d="M49.8,51.1c-23.5,0-42.5,19-42.5,42.5s19,42.5,42.5,42.5c23.5,0,42.5-19,42.5-42.5l0,0
	C92.3,70.1,73.3,51.1,49.8,51.1C49.8,51.1,49.8,51.1,49.8,51.1z M49.8,133.7c-22.1,0-40.1-17.9-40.1-40.1
	c0-22.1,17.9-40.1,40.1-40.1c22.1,0,40.1,17.9,40.1,40.1l0,0C89.9,115.7,72,133.7,49.8,133.7C49.8,133.7,49.8,133.7,49.8,133.7z"/>
<path class="st0" d="M49.8,57.1c-20.2,0-36.5,16.3-36.5,36.5c0,20.2,16.3,36.5,36.5,36.5s36.5-16.3,36.5-36.5l0,0l0,0
	C86.4,73.4,70,57.1,49.8,57.1z M49.8,128c-19,0-34.4-15.4-34.4-34.4s15.4-34.4,34.4-34.4c19,0,34.4,15.4,34.4,34.4l0,0l0,0
	C84.3,112.6,68.9,128,49.8,128z"/>
<path class="st0" d="M49.8,76.8c-9.3,0-16.8,7.5-16.8,16.8s7.5,16.8,16.8,16.8s16.8-7.5,16.8-16.8l0,0
	C66.6,84.3,59.1,76.8,49.8,76.8L49.8,76.8z M49.8,109.4c-8.8,0-15.9-7.1-15.9-15.9s7.1-15.9,15.9-15.9s15.9,7.1,15.9,15.9l0,0l0,0
	C65.7,102.3,58.6,109.4,49.8,109.4z"/>
<path class="st0" d="M49.8,62.8c-17,0-30.7,13.8-30.7,30.7s13.8,30.7,30.7,30.7c17,0,30.7-13.8,30.7-30.7c0,0,0,0,0,0l0,0
	C80.6,76.6,66.8,62.8,49.8,62.8z M49.8,122.6c-16,0-29-13-29-29s13-29,29-29s29,13,29,29c0,0,0,0,0,0l0,0
	C78.8,109.6,65.9,122.6,49.8,122.6L49.8,122.6z"/>
<path class="st0" d="M49.8,68.1c-14.1,0-25.5,11.4-25.5,25.5S35.8,119,49.8,119s25.5-11.4,25.5-25.5l0,0l0,0
	C75.3,79.5,63.9,68.1,49.8,68.1z M49.8,117.6c-13.3,0-24-10.8-24-24s10.8-24,24-24c13.3,0,24,10.8,24,24l0,0
	C73.9,106.8,63.1,117.6,49.8,117.6z"/>
<path class="st0" d="M49.8,73.2c-11.2,0-20.3,9.1-20.3,20.3s9.1,20.3,20.3,20.3c11.2,0,20.3-9.1,20.3-20.3c0,0,0,0,0,0l0,0
	C70.2,82.3,61.1,73.2,49.8,73.2C49.8,73.2,49.8,73.2,49.8,73.2z M49.8,112.8c-10.6,0-19.2-8.6-19.2-19.2s8.6-19.2,19.2-19.2
	S69,83,69,93.6S60.4,112.8,49.8,112.8L49.8,112.8z"/>
<path class="st0" d="M49.8,83.2c-5.7,0-10.3,4.6-10.3,10.3c0,5.7,4.6,10.3,10.3,10.3c5.7,0,10.3-4.6,10.3-10.3l0,0l0,0
	C60.2,87.9,55.6,83.2,49.8,83.2z M49.8,103.3c-5.4,0-9.8-4.4-9.8-9.8s4.4-9.8,9.8-9.8c5.4,0,9.8,4.4,9.8,9.8l0,0
	C59.6,99,55.2,103.3,49.8,103.3C49.8,103.3,49.8,103.3,49.8,103.3z"/>
<linearGradient id="SVGID_9_" gradientUnits="userSpaceOnUse" x1="88.5053" y1="812.2509" x2="11.0394" y2="812.2509" gradientTransform="matrix(1 0 0 1 0 -717.9998)">
	<stop  offset="0" style="stop-color:#E8A423"/>
	<stop  offset="2.200000e-02" style="stop-color:#E9A721"/>
	<stop  offset="0.254" style="stop-color:#F3C113"/>
	<stop  offset="0.492" style="stop-color:#FAD408"/>
	<stop  offset="0.737" style="stop-color:#FEDF02"/>
	<stop  offset="1" style="stop-color:#FFE300"/>
</linearGradient>
<path class="st9" d="M88,94c0-0.6-0.1-1.1-0.1-1.7c0.1-0.5,0-1-0.2-1.4c-0.1-0.2-0.4-0.4-0.6-0.6c-0.9-0.4-1.4,0-2.1,0.4
	c-0.4,0.3-0.9,0.5-1.4,0.7c-0.9,0.4-1.8,0.7-2.7,1c-2.1,0.8-4.3,1.5-6.4,2.2c-1.6,0.5-3.1,1-4.7,1.5L67.3,97
	c-0.6,0.1-1.1,0.2-1.6,0.4c0.3-1.1,0.4-2.2,0.5-3.4c0.1,0,0.2-0.1,0.4-0.2c3.1-2,5.9-4.3,8.4-6.9c3.1-3.1,5.9-6.5,8.6-10
	c0,0,0.1-0.1,0.1-0.2c0-0.1,0-0.1,0-0.2c-0.1-0.7-0.4-1.4-0.7-2.1c-0.8-1.5-1.7-2.8-2.9-4.1c-0.4-0.4-0.7-0.8-1-1.1
	c-0.4-0.4-0.8-0.8-1.1-1.2c-0.3-0.4-0.6-0.7-1.1-0.9c-0.3-0.1-0.6-0.1-0.9,0c-0.9,0.2-1.1,0.9-1.3,1.7c-0.2,0.5-0.4,1-0.6,1.4
	c-0.4,0.9-0.9,1.7-1.4,2.5c-1.1,2-2.3,3.9-3.5,5.8c-0.9,1.4-1.8,2.8-2.7,4.2c-0.5,0.7-0.9,1.4-1.4,2.1c-0.2,0.2-0.6,0.7-0.8,1.1
	c-0.5-1-1.2-1.9-1.9-2.8c0,0,0-0.1,0.1-0.1c1.1-3.5,1.8-7.1,2-10.7c0.4-4.4,0.4-8.8,0.2-13.2c0-0.1,0-0.1,0-0.2
	c0-0.1-0.1-0.1-0.1-0.2c-0.6-0.5-1.2-0.9-1.9-1.1c-1.5-0.6-3.2-1-4.8-1.3c-0.5,0-1-0.2-1.5-0.2c-0.5-0.1-1.1-0.1-1.7-0.2
	c-0.5-0.1-1-0.1-1.4,0c-0.3,0.1-0.5,0.3-0.7,0.5c-0.5,0.8-0.3,1.4,0.1,2.2c0.2,0.5,0.3,1,0.4,1.5c0.2,0.9,0.4,1.9,0.6,2.8
	c0.4,2.2,0.7,4.5,1,6.7c0.2,1.6,0.4,3.3,0.6,4.9c0.1,0.8,0.2,1.7,0.3,2.5c0,0.3,0,0.9,0.1,1.3c-1-0.4-2.1-0.7-3.2-0.8
	c0-0.1,0-0.2,0-0.2c-1.4-3.4-3.2-6.5-5.4-9.5c-2.5-3.6-5.3-7-8.3-10.2c0-0.1-0.1-0.1-0.1-0.1c-0.1,0-0.1,0-0.2,0
	c-0.7,0-1.5,0.1-2.2,0.4c-1.6,0.5-3.1,1.2-4.5,2.1c-0.4,0.3-0.9,0.5-1.3,0.8c-0.5,0.3-0.9,0.6-1.4,0.9c-0.4,0.2-0.8,0.5-1.1,0.9
	c-0.1,0.3-0.2,0.5-0.2,0.8c0.1,0.9,0.7,1.2,1.4,1.6c0.5,0.2,0.9,0.5,1.3,0.9c0.8,0.6,1.5,1.2,2.3,1.8c1.7,1.4,3.4,2.9,5.1,4.5
	c1.2,1.1,2.4,2.2,3.6,3.3c0.6,0.6,1.2,1.1,1.8,1.7c0.3,0.4,0.7,0.8,1.1,1.2c-1,0.4-2,0.9-3,1.4c-0.1-0.1-0.3-0.2-0.4-0.3
	c-3.2-1.7-6.7-3-10.2-3.8c-4.2-1.1-8.6-1.9-12.9-2.5c-0.1,0-0.1,0-0.2,0c-0.1,0-0.1,0.1-0.2,0.1c-0.6,0.5-1.1,1-1.4,1.7
	c-0.9,1.4-1.6,2.9-2.1,4.5c-0.1,0.5-0.3,1-0.5,1.5c-0.2,0.5-0.3,1.1-0.5,1.6c-0.2,0.4-0.3,0.9-0.3,1.4c0.1,0.3,0.2,0.5,0.4,0.7
	c0.7,0.7,1.3,0.5,2.1,0.3c0.5-0.1,1-0.2,1.5-0.2c1-0.1,1.9-0.1,2.9-0.1c2.3,0,4.5,0,6.8,0.1c1.6,0.1,3.3,0.1,4.9,0.2
	c0.8,0,1.7,0.1,2.5,0.1c0.4,0,1.6,0.3,2,0.1c0.1,0,0.1-0.1,0.1-0.1c0.1-0.1,0.2-0.3,0.3-0.4c-0.7,1.1-1.3,2.4-1.8,3.6
	c-0.3,0-0.6,0-1,0c-3.6,0.8-7,2-10.3,3.6c-4,1.9-7.8,4-11.5,6.4c-0.1,0-0.1,0.1-0.2,0.1c0,0.1-0.1,0.1-0.1,0.2
	c-0.1,0.7-0.1,1.5,0,2.2c0.2,1.6,0.7,3.3,1.3,4.8c0.2,0.5,0.4,1,0.6,1.4c0.2,0.5,0.4,1,0.6,1.6c0.1,0.5,0.4,0.9,0.7,1.2
	c0.2,0.2,0.5,0.3,0.8,0.3c0.9,0.1,1.3-0.5,1.8-1.1c0.3-0.4,0.7-0.8,1.1-1.1c0.7-0.7,1.4-1.3,2.2-1.9c1.7-1.5,3.5-2.9,5.3-4.3
	c1.3-1,2.6-2,3.9-3c0.7-0.5,1.3-1,2-1.5c0.3-0.3,1.4-0.8,1.6-1.2c0-0.1,0-0.1,0-0.2c-0.1-1.2,0-2.4,0.3-3.5c0,0.4-0.1,0.8-0.1,1.1
	c0,1.9,0.3,3.8,1,5.5c-0.3,0.3-0.6,0.6-1,0.9c-2.2,2.9-4.1,6-5.5,9.4c-1.8,4-3.4,8.1-4.7,12.3c-0.1,0.1,0,0.3,0,0.4
	c0.4,0.6,0.8,1.2,1.4,1.7c1.2,1.1,2.6,2.1,4.1,2.8c0.5,0.2,0.9,0.5,1.4,0.7c0.5,0.2,1,0.5,1.5,0.8c0.4,0.3,0.8,0.5,1.3,0.5
	c0.3,0,0.6-0.1,0.8-0.3c0.8-0.5,0.7-1.2,0.7-2c0-0.5,0-1,0.1-1.5c0.1-1,0.3-1.9,0.4-2.9c0.4-2.2,0.8-4.4,1.3-6.7
	c0.3-1.6,0.7-3.2,1.1-4.8c0.2-0.8,0.4-1.6,0.6-2.5c0.1-0.4,0.6-1.5,0.4-1.9c0-0.1-0.1-0.1-0.1-0.2c-1.2-1.2-2.1-2.7-2.6-4.3
	c1.4,2.4,3.3,4.4,5.6,5.8c-0.1,0.5-0.1,0.9-0.2,1.4c0.2,3.6,0.8,7.2,1.8,10.7c1.2,4.2,2.6,8.4,4.3,12.4c0,0.1,0.1,0.1,0.1,0.2
	c0.1,0,0.1,0.1,0.2,0.1c0.7,0.3,1.4,0.4,2.2,0.4c1.7,0.1,3.3-0.1,4.9-0.4c0.5-0.1,1-0.2,1.5-0.3c0.5-0.1,1.1-0.3,1.6-0.3
	c0.5,0,0.9-0.2,1.3-0.5c0.2-0.2,0.4-0.4,0.4-0.7c0.3-0.9-0.2-1.4-0.8-2c-0.3-0.4-0.6-0.8-0.9-1.2c-0.5-0.8-1-1.6-1.5-2.5
	c-1.1-1.9-2.2-3.9-3.3-5.9c-0.8-1.5-1.5-2.9-2.3-4.4c-0.4-0.7-0.8-1.5-1.1-2.3c-0.2-0.4-0.5-1.5-0.9-1.7c-0.1,0-0.1,0-0.2-0.1
	c-1.7-0.2-3.4-0.8-4.9-1.7c2.6,1.1,5.5,1.5,8.3,1.1c0.2,0.3,0.4,0.7,0.6,1c2.5,2.7,5.2,5.1,8.3,7.1c3.6,2.5,7.4,4.7,11.3,6.7
	c0.1,0,0.1,0.1,0.2,0.1c0.1,0,0.1,0,0.2,0c0.7-0.2,1.3-0.6,1.9-1.1c1.3-1,2.5-2.2,3.5-3.5c0.3-0.4,0.6-0.8,0.9-1.2
	c0.3-0.4,0.7-0.9,1-1.3c0.3-0.3,0.6-0.8,0.7-1.2c0-0.3,0-0.6-0.1-0.8c-0.4-0.9-1.1-0.9-1.9-1c-0.5-0.1-1-0.2-1.5-0.4
	c-0.9-0.3-1.8-0.6-2.7-0.9c-2.1-0.8-4.2-1.6-6.3-2.4c-1.5-0.6-3-1.3-4.6-1.9c-0.8-0.3-1.5-0.7-2.3-1c-0.4-0.2-1.4-0.8-1.8-0.8
	c-0.1,0-0.1,0-0.2,0.1c-0.9,0.6-1.8,1-2.8,1.4c2-0.9,3.8-2.2,5.3-3.9c0.3,0.1,0.5,0.2,0.8,0.3c3.6,0.5,7.3,0.5,10.9,0.1
	c4.4-0.4,8.7-1.1,13-2.1c0.1,0,0.1,0,0.2-0.1c0.1,0,0.1-0.1,0.1-0.2c0.4-0.6,0.6-1.3,0.8-2.1c0.3-1.6,0.5-3.3,0.4-4.9
	C88,95.1,88,94.5,88,94z"/>
<linearGradient id="SVGID_10_" gradientUnits="userSpaceOnUse" x1="44.3371" y1="756.5056" x2="55.1693" y2="756.5056" gradientTransform="matrix(1 0 0 1 0 -717.9998)">
	<stop  offset="0" style="stop-color:#E8A423"/>
	<stop  offset="2.200000e-02" style="stop-color:#E9A721"/>
	<stop  offset="0.254" style="stop-color:#F3C113"/>
	<stop  offset="0.492" style="stop-color:#FAD408"/>
	<stop  offset="0.737" style="stop-color:#FEDF02"/>
	<stop  offset="1" style="stop-color:#FFE300"/>
</linearGradient>
<rect x="44.7" y="33.7" class="st10" width="10.1" height="9.6"/>
<polygon class="st0" points="51.8,35.3 47.8,35.3 47.8,37.3 46.5,37.3 46.5,42.5 53.2,42.5 53.2,37.3 51.8,37.3 "/>
<path class="st0" d="M99.8,95.7c0,0.3,0,0.6,0.1,0.9v-1.8C99.8,95.2,99.8,95.5,99.8,95.7z"/>
<path class="st0" d="M-0.1,96.7c0,0.3,0,0.6-0.1,0.9v-1.8C-0.1,96.1-0.1,96.4-0.1,96.7z"/>
</svg>
