<?xml version="1.0" encoding="utf-8"?>
<!-- Generator: Adobe Illustrator 23.0.6, SVG Export Plug-In . SVG Version: 6.00 Build 0)  -->
<svg version="1.1" id="Layer_1" xmlns="http://www.w3.org/2000/svg" xmlns:xlink="http://www.w3.org/1999/xlink" x="0px" y="0px"
	 viewBox="0 0 109.7 230.9" style="enable-background:new 0 0 109.7 230.9;" xml:space="preserve">
<style type="text/css">
	.st0{fill:#FFFFFF;}
	.st1{fill:#FFFFFF;stroke:url(#SVGID_1_);stroke-miterlimit:10;}
	.st2{fill:#FFFFFF;stroke:url(#SVGID_2_);stroke-width:0.75;stroke-miterlimit:10;}
	.st3{fill:#FFFFFF;stroke:url(#SVGID_3_);stroke-miterlimit:10;}
	.st4{fill:#FFFFFF;stroke:url(#SVGID_4_);stroke-width:0.75;stroke-miterlimit:10;}
	.st5{fill:#FFFFFF;stroke:url(#SVGID_5_);stroke-miterlimit:10;}
	.st6{fill:#FFFFFF;stroke:url(#SVGID_6_);stroke-width:0.75;stroke-miterlimit:10;}
	.st7{fill:#FFFFFF;stroke:url(#SVGID_7_);stroke-miterlimit:10;}
	.st8{fill:#FFFFFF;stroke:url(#SVGID_8_);stroke-width:0.75;stroke-miterlimit:10;}
	.st9{fill:#FFFFFF;stroke:url(#SVGID_9_);stroke-miterlimit:10;}
	.st10{fill:#FFFFFF;stroke:url(#SVGID_10_);stroke-width:0.75;stroke-miterlimit:10;}
	.st11{fill:#FFFFFF;stroke:url(#SVGID_11_);stroke-miterlimit:10;}
	.st12{fill:#FFFFFF;stroke:url(#SVGID_12_);stroke-width:0.75;stroke-miterlimit:10;}
	.st13{fill:#FFFFFF;stroke:url(#SVGID_13_);stroke-miterlimit:10;}
	.st14{fill:#FFFFFF;stroke:url(#SVGID_14_);stroke-width:0.75;stroke-miterlimit:10;}
	.st15{fill:#FFFFFF;stroke:url(#SVGID_15_);stroke-miterlimit:10;}
	.st16{fill:#FFFFFF;stroke:url(#SVGID_16_);stroke-width:0.75;stroke-miterlimit:10;}
	.st17{fill:#FFFFFF;stroke:url(#SVGID_17_);stroke-miterlimit:10;}
	.st18{fill:#FFFFFF;stroke:url(#SVGID_18_);stroke-width:0.75;stroke-miterlimit:10;}
	.st19{fill:#FFFFFF;stroke:url(#SVGID_19_);stroke-miterlimit:10;}
</style>
<title>hashbazaar-miners</title>
<g>
	<path class="st0" d="M70.9,83.1l-4.2-6.3c-5.1-7.7-17.9-7.7-23,0l-4.2,6.3l-15.7,23.7h3.9l13.7-22.4l3.6-5.9
		c4.5-7.3,15.7-7.3,20.2,0l3.6,5.9l13.7,22.4h3.9L70.9,83.1z"/>
	<path class="st0" d="M38.7,55l4.2,6.3c5.1,7.7,17.9,7.7,23,0l4.2-6.3l15.7-23.7h-3.9L68.1,53.7l-3.6,5.9c-4.5,7.3-15.7,7.3-20.2,0
		l-3.6-5.9L26.9,31.3H23L38.7,55z"/>
	<polygon class="st0" points="9.2,0 9.2,14.5 11.6,14.5 11.6,2.4 97.5,2.4 97.5,14.5 100.5,14.5 100.5,0 	"/>
	<path class="st0" d="M9.9,18.7c-3,0-5.4,2.4-5.4,5.4s2.4,5.4,5.4,5.4c3,0,5.4-2.4,5.4-5.4c0,0,0,0,0,0l0,0
		C15.3,21.1,12.9,18.7,9.9,18.7z M9.9,27.3c-1.8,0-3.2-1.4-3.2-3.2c0-1.8,1.4-3.2,3.2-3.2c1.8,0,3.2,1.4,3.2,3.2v0l0,0
		C13.2,25.8,11.7,27.3,9.9,27.3C9.9,27.3,9.9,27.3,9.9,27.3L9.9,27.3L9.9,27.3z"/>
	
		<linearGradient id="SVGID_1_" gradientUnits="userSpaceOnUse" x1="12.5142" y1="741.9813" x2="7.0678" y2="741.9813" gradientTransform="matrix(1 0 0 1 -1.151485e-02 -717.9883)">
		<stop  offset="0" style="stop-color:#E8A423"/>
		<stop  offset="2.200000e-02" style="stop-color:#E9A721"/>
		<stop  offset="0.254" style="stop-color:#F3C113"/>
		<stop  offset="0.492" style="stop-color:#FAD408"/>
		<stop  offset="0.737" style="stop-color:#FEDF02"/>
		<stop  offset="1" style="stop-color:#FFE300"/>
	</linearGradient>
	<line class="st1" x1="7.4" y1="21.6" x2="12.1" y2="26.4"/>
	
		<linearGradient id="SVGID_2_" gradientUnits="userSpaceOnUse" x1="12.4302" y1="742.0497" x2="7.4668" y2="742.0497" gradientTransform="matrix(1 0 0 1 -1.151485e-02 -717.9883)">
		<stop  offset="0" style="stop-color:#E8A423"/>
		<stop  offset="2.200000e-02" style="stop-color:#E9A721"/>
		<stop  offset="0.254" style="stop-color:#F3C113"/>
		<stop  offset="0.492" style="stop-color:#FAD408"/>
		<stop  offset="0.737" style="stop-color:#FEDF02"/>
		<stop  offset="1" style="stop-color:#FFE300"/>
	</linearGradient>
	<line class="st2" x1="12.1" y1="21.7" x2="7.7" y2="26.4"/>
	<path class="st0" d="M9.9,109c-3,0-5.4,2.4-5.4,5.4c0,3,2.4,5.4,5.4,5.4c3,0,5.4-2.4,5.4-5.4c0,0,0,0,0,0l0,0
		C15.3,111.4,12.9,109,9.9,109L9.9,109L9.9,109z M9.9,117.6c-1.8,0-3.2-1.4-3.2-3.2c0-1.8,1.4-3.2,3.2-3.2c1.8,0,3.2,1.4,3.2,3.2
		l0,0l0,0C13.2,116.1,11.7,117.6,9.9,117.6L9.9,117.6L9.9,117.6L9.9,117.6z"/>
	
		<linearGradient id="SVGID_3_" gradientUnits="userSpaceOnUse" x1="12.5142" y1="832.2812" x2="7.0678" y2="832.2812" gradientTransform="matrix(1 0 0 1 -1.151485e-02 -717.9883)">
		<stop  offset="0" style="stop-color:#E8A423"/>
		<stop  offset="2.200000e-02" style="stop-color:#E9A721"/>
		<stop  offset="0.254" style="stop-color:#F3C113"/>
		<stop  offset="0.492" style="stop-color:#FAD408"/>
		<stop  offset="0.737" style="stop-color:#FEDF02"/>
		<stop  offset="1" style="stop-color:#FFE300"/>
	</linearGradient>
	<line class="st3" x1="7.4" y1="111.9" x2="12.1" y2="116.7"/>
	
		<linearGradient id="SVGID_4_" gradientUnits="userSpaceOnUse" x1="12.4302" y1="832.3497" x2="7.4668" y2="832.3497" gradientTransform="matrix(1 0 0 1 -1.151485e-02 -717.9883)">
		<stop  offset="0" style="stop-color:#E8A423"/>
		<stop  offset="2.200000e-02" style="stop-color:#E9A721"/>
		<stop  offset="0.254" style="stop-color:#F3C113"/>
		<stop  offset="0.492" style="stop-color:#FAD408"/>
		<stop  offset="0.737" style="stop-color:#FEDF02"/>
		<stop  offset="1" style="stop-color:#FFE300"/>
	</linearGradient>
	<line class="st4" x1="12.1" y1="112" x2="7.7" y2="116.7"/>
	<path class="st0" d="M99.7,109c-3,0-5.4,2.4-5.4,5.4s2.4,5.4,5.4,5.4s5.4-2.4,5.4-5.4l0,0C105.1,111.4,102.7,109,99.7,109z
		 M99.7,117.6c-1.8,0-3.2-1.4-3.2-3.2s1.4-3.2,3.2-3.2c1.8,0,3.2,1.4,3.2,3.2v0l0,0C103,116.1,101.5,117.6,99.7,117.6L99.7,117.6
		L99.7,117.6L99.7,117.6z"/>
	
		<linearGradient id="SVGID_5_" gradientUnits="userSpaceOnUse" x1="102.3182" y1="832.2812" x2="96.8718" y2="832.2812" gradientTransform="matrix(1 0 0 1 -1.151485e-02 -717.9883)">
		<stop  offset="0" style="stop-color:#E8A423"/>
		<stop  offset="2.200000e-02" style="stop-color:#E9A721"/>
		<stop  offset="0.254" style="stop-color:#F3C113"/>
		<stop  offset="0.492" style="stop-color:#FAD408"/>
		<stop  offset="0.737" style="stop-color:#FEDF02"/>
		<stop  offset="1" style="stop-color:#FFE300"/>
	</linearGradient>
	<line class="st5" x1="97.2" y1="111.9" x2="102" y2="116.7"/>
	
		<linearGradient id="SVGID_6_" gradientUnits="userSpaceOnUse" x1="102.2342" y1="832.3497" x2="97.2708" y2="832.3497" gradientTransform="matrix(1 0 0 1 -1.151485e-02 -717.9883)">
		<stop  offset="0" style="stop-color:#E8A423"/>
		<stop  offset="2.200000e-02" style="stop-color:#E9A721"/>
		<stop  offset="0.254" style="stop-color:#F3C113"/>
		<stop  offset="0.492" style="stop-color:#FAD408"/>
		<stop  offset="0.737" style="stop-color:#FEDF02"/>
		<stop  offset="1" style="stop-color:#FFE300"/>
	</linearGradient>
	<line class="st6" x1="102" y1="112" x2="97.5" y2="116.7"/>
	<path class="st0" d="M99.7,18.7c-3,0-5.4,2.4-5.4,5.4s2.4,5.4,5.4,5.4s5.4-2.4,5.4-5.4l0,0C105.1,21.1,102.7,18.7,99.7,18.7z
		 M99.7,27.3c-1.8,0-3.2-1.4-3.2-3.2s1.4-3.2,3.2-3.2c1.8,0,3.2,1.4,3.2,3.2c0,0,0,0,0,0l0,0C103,25.8,101.5,27.3,99.7,27.3
		L99.7,27.3L99.7,27.3z"/>
	
		<linearGradient id="SVGID_7_" gradientUnits="userSpaceOnUse" x1="102.3182" y1="741.9813" x2="96.8718" y2="741.9813" gradientTransform="matrix(1 0 0 1 -1.151485e-02 -717.9883)">
		<stop  offset="0" style="stop-color:#E8A423"/>
		<stop  offset="2.200000e-02" style="stop-color:#E9A721"/>
		<stop  offset="0.254" style="stop-color:#F3C113"/>
		<stop  offset="0.492" style="stop-color:#FAD408"/>
		<stop  offset="0.737" style="stop-color:#FEDF02"/>
		<stop  offset="1" style="stop-color:#FFE300"/>
	</linearGradient>
	<line class="st7" x1="97.2" y1="21.6" x2="102" y2="26.4"/>
	
		<linearGradient id="SVGID_8_" gradientUnits="userSpaceOnUse" x1="102.2342" y1="742.0497" x2="97.2708" y2="742.0497" gradientTransform="matrix(1 0 0 1 -1.151485e-02 -717.9883)">
		<stop  offset="0" style="stop-color:#E8A423"/>
		<stop  offset="2.200000e-02" style="stop-color:#E9A721"/>
		<stop  offset="0.254" style="stop-color:#F3C113"/>
		<stop  offset="0.492" style="stop-color:#FAD408"/>
		<stop  offset="0.737" style="stop-color:#FEDF02"/>
		<stop  offset="1" style="stop-color:#FFE300"/>
	</linearGradient>
	<line class="st8" x1="102" y1="21.7" x2="97.5" y2="26.4"/>
	<path class="st0" d="M105.2,14.5H4.5c-2.4,0-4.3,1.9-4.4,4.3c0,0,0,0,0,0v100.4c0,2.4,2,4.3,4.4,4.3c0,0,0,0,0,0h100.7
		c2.4,0,4.3-1.9,4.4-4.3c0,0,0,0,0,0V18.8C109.6,16.4,107.6,14.5,105.2,14.5C105.2,14.5,105.2,14.5,105.2,14.5L105.2,14.5z
		 M106.7,119.2c0,0.8-0.7,1.5-1.5,1.5H4.5c-0.8,0-1.5-0.6-1.5-1.5V18.8c0-0.8,0.7-1.5,1.5-1.5h100.7c0.8,0,1.5,0.6,1.5,1.5
		L106.7,119.2z"/>
	<path class="st0" d="M54.8,18.7C27.1,18.7,4.6,41.2,4.6,69s22.5,50.2,50.2,50.2s50.2-22.5,50.2-50.2v0l0,0
		C105.1,41.2,82.6,18.7,54.8,18.7z M54.8,116.4C28.6,116.4,7.4,95.2,7.4,69s21.2-47.4,47.4-47.4c26.2,0,47.4,21.2,47.4,47.4
		S81,116.4,54.8,116.4C54.8,116.4,54.8,116.4,54.8,116.4z"/>
	<path class="st0" d="M54.8,22.4C29.1,22.4,8.3,43.3,8.3,69c0,25.7,20.8,46.6,46.6,46.6c25.7,0,46.6-20.8,46.6-46.6v0l0,0
		C101.4,43.3,80.5,22.4,54.8,22.4z M54.8,112.9c-24.3,0-43.9-19.7-43.9-43.9c0-24.3,19.7-43.9,43.9-43.9S98.7,44.7,98.7,69
		S79.1,112.9,54.8,112.9C54.8,112.9,54.8,112.9,54.8,112.9z"/>
	<path class="st0" d="M54.8,29c-22.1,0-40,17.9-40,40s17.9,40,40,40s40-17.9,40-40l0,0l0,0C94.8,46.9,76.9,29,54.8,29z M54.8,106.7
		C34,106.7,17.1,89.8,17.1,69S34,31.2,54.8,31.2S92.6,48.1,92.6,69l0,0l0,0C92.6,89.8,75.7,106.7,54.8,106.7z"/>
	<path class="st0" d="M54.8,50.6c-10.2,0-18.4,8.2-18.4,18.4s8.2,18.4,18.4,18.4S73.2,79.2,73.2,69v0l0,0
		C73.2,58.8,65,50.6,54.8,50.6z M54.8,86.4c-9.6,0-17.4-7.8-17.4-17.4c0-9.6,7.8-17.4,17.4-17.4S72.2,59.4,72.2,69l0,0l0,0
		C72.2,78.6,64.4,86.4,54.8,86.4z"/>
	<path class="st0" d="M54.8,35.3c-18.6,0-33.7,15.1-33.7,33.7s15.1,33.7,33.7,33.7S88.5,87.6,88.5,69l0,0l0,0
		C88.5,50.4,73.4,35.3,54.8,35.3z M54.8,100.8C37.3,100.8,23,86.5,23,69s14.2-31.8,31.8-31.8S86.6,51.4,86.6,69v0l0,0
		C86.6,86.5,72.4,100.8,54.8,100.8L54.8,100.8z"/>
	<path class="st0" d="M54.8,41.1c-15.4,0-27.9,12.5-27.9,27.9s12.5,27.9,27.9,27.9S82.7,84.4,82.7,69v0l0,0
		C82.7,53.6,70.2,41.1,54.8,41.1z M54.8,95.3c-14.5,0-26.3-11.8-26.3-26.3s11.8-26.3,26.3-26.3S81.2,54.4,81.2,69
		S69.4,95.3,54.8,95.3C54.8,95.3,54.8,95.3,54.8,95.3z"/>
	<path class="st0" d="M54.8,46.7c-12.3,0-22.3,10-22.3,22.3s10,22.3,22.3,22.3s22.3-10,22.3-22.3v0l0,0
		C77.1,56.7,67.1,46.7,54.8,46.7C54.8,46.7,54.8,46.7,54.8,46.7z M54.8,90c-11.6,0-21-9.4-21-21c0-11.6,9.4-21,21-21s21,9.4,21,21
		S66.4,90,54.8,90L54.8,90z"/>
	<path class="st0" d="M54.8,57.7c-6.3,0-11.3,5.1-11.3,11.3s5.1,11.3,11.3,11.3c6.3,0,11.3-5.1,11.3-11.3l0,0l0,0
		C66.1,62.7,61.1,57.7,54.8,57.7z M54.8,79.7c-5.9,0-10.7-4.8-10.7-10.7s4.8-10.7,10.7-10.7S65.5,63.1,65.5,69
		C65.5,74.9,60.7,79.7,54.8,79.7C54.8,79.7,54.8,79.7,54.8,79.7z"/>
	
		<linearGradient id="SVGID_9_" gradientUnits="userSpaceOnUse" x1="97.2014" y1="787.7161" x2="12.2926" y2="787.7161" gradientTransform="matrix(1 0 0 1 -1.151485e-02 -717.9883)">
		<stop  offset="0" style="stop-color:#E8A423"/>
		<stop  offset="2.200000e-02" style="stop-color:#E9A721"/>
		<stop  offset="0.254" style="stop-color:#F3C113"/>
		<stop  offset="0.492" style="stop-color:#FAD408"/>
		<stop  offset="0.737" style="stop-color:#FEDF02"/>
		<stop  offset="1" style="stop-color:#FFE300"/>
	</linearGradient>
	<path class="st9" d="M96.6,69.5c0-0.6-0.1-1.2-0.1-1.8c0.1-0.5,0-1.1-0.2-1.5c-0.2-0.3-0.4-0.5-0.7-0.6c-0.9-0.4-1.5,0-2.3,0.5
		c-0.5,0.3-1,0.5-1.5,0.8c-1,0.4-2,0.8-2.9,1.1c-2.3,0.9-4.7,1.6-7,2.4c-1.7,0.6-3.4,1.1-5.2,1.6L74,72.7c-0.6,0.1-1.2,0.3-1.8,0.5
		c0.3-1.2,0.5-2.5,0.5-3.7c0.1-0.1,0.3-0.1,0.4-0.2c3.4-2.2,6.5-4.7,9.2-7.6c3.4-3.4,6.5-7.1,9.4-10.9c0-0.1,0.1-0.1,0.1-0.2
		c0-0.1,0-0.2,0-0.2c-0.1-0.8-0.4-1.6-0.8-2.3c-0.9-1.6-1.9-3.1-3.1-4.4c-0.4-0.4-0.8-0.8-1.1-1.3c-0.4-0.4-0.8-0.9-1.2-1.4
		c-0.3-0.4-0.7-0.8-1.2-1c-0.3-0.1-0.6-0.1-0.9,0c-1,0.3-1.2,1-1.5,1.9c-0.2,0.5-0.4,1.1-0.7,1.6c-0.5,0.9-1,1.9-1.5,2.8
		c-1.2,2.2-2.5,4.3-3.8,6.4c-1,1.5-1.9,3-2.9,4.6c-0.5,0.8-1,1.5-1.5,2.3c-0.2,0.3-0.6,0.7-0.9,1.2c-0.6-1.1-1.3-2.1-2.1-3.1
		c0,0,0.1-0.1,0.1-0.2c1.2-3.8,1.9-7.8,2.2-11.7c0.4-4.8,0.5-9.6,0.2-14.4c0-0.1,0-0.1,0-0.2c0-0.1-0.1-0.1-0.1-0.2
		c-0.6-0.5-1.3-0.9-2.1-1.2c-1.7-0.7-3.5-1.2-5.3-1.4c-0.6,0-1.1-0.2-1.7-0.2c-0.6-0.1-1.2-0.1-1.8-0.3c-0.5-0.1-1-0.2-1.6,0
		c-0.3,0.1-0.6,0.3-0.7,0.6c-0.6,0.9-0.3,1.5,0.1,2.4c0.2,0.5,0.4,1.1,0.5,1.6c0.3,1,0.4,2.1,0.6,3.1c0.4,2.4,0.8,4.9,1.2,7.3
		c0.2,1.8,0.5,3.6,0.7,5.4c0.1,0.9,0.2,1.8,0.3,2.7c0,0.3,0,0.9,0.1,1.5c-1.1-0.4-2.3-0.7-3.5-0.9c0-0.1,0-0.2-0.1-0.2
		c-1.5-3.7-3.5-7.2-5.9-10.4c-2.8-3.9-5.8-7.6-9.1-11.2c0-0.1-0.1-0.1-0.2-0.1c-0.1,0-0.1,0-0.2,0c-0.8,0-1.6,0.1-2.4,0.4
		c-1.7,0.6-3.4,1.3-4.9,2.3c-0.5,0.3-1,0.6-1.4,0.9c-0.5,0.3-1,0.7-1.6,1c-0.5,0.2-0.9,0.6-1.2,1c-0.2,0.3-0.2,0.6-0.2,0.9
		c0.1,1,0.7,1.3,1.6,1.8c0.5,0.3,1,0.6,1.4,0.9c0.9,0.6,1.7,1.3,2.5,2c1.9,1.6,3.8,3.2,5.6,4.9c1.3,1.2,2.7,2.4,4,3.7
		c0.7,0.6,1.3,1.3,2,1.9c0.4,0.4,0.8,0.9,1.2,1.3c-1.1,0.4-2.2,0.9-3.3,1.6c-0.2-0.1-0.3-0.2-0.5-0.4c-3.5-1.8-7.3-3.2-11.2-4.2
		c-4.7-1.2-9.4-2.1-14.2-2.7c-0.1,0-0.1,0-0.2,0c-0.1,0-0.1,0.1-0.2,0.1c-0.6,0.5-1.2,1.1-1.6,1.8c-1,1.5-1.7,3.2-2.3,4.9
		c-0.1,0.5-0.4,1.1-0.5,1.6c-0.2,0.6-0.4,1.2-0.6,1.7c-0.2,0.5-0.3,1-0.3,1.5c0.1,0.3,0.2,0.6,0.4,0.8c0.7,0.7,1.4,0.6,2.3,0.3
		c0.6-0.1,1.1-0.2,1.7-0.2c1.1-0.1,2.1-0.1,3.2-0.1c2.5,0,5,0.1,7.4,0.1c1.8,0.1,3.6,0.1,5.4,0.2c0.9,0,1.8,0.1,2.8,0.2
		c0.5,0,1.7,0.3,2.1,0.1c0.1,0,0.1-0.1,0.2-0.2c0.1-0.2,0.3-0.3,0.4-0.5c-0.8,1.2-1.5,2.6-1.9,4c-0.4,0-0.7,0-1.1,0
		c-3.9,0.9-7.7,2.2-11.3,4c-4.3,2.1-8.5,4.4-12.6,7c-0.1,0-0.1,0.1-0.2,0.1c0,0.1-0.1,0.1-0.1,0.2c-0.2,0.8-0.2,1.6,0,2.4
		c0.3,1.8,0.7,3.6,1.4,5.2c0.2,0.5,0.4,1.1,0.6,1.6c0.2,0.6,0.5,1.1,0.7,1.7c0.1,0.5,0.4,1,0.8,1.4c0.2,0.2,0.6,0.3,0.9,0.3
		c1,0.1,1.5-0.5,2-1.2c0.4-0.4,0.7-0.9,1.2-1.2c0.8-0.7,1.6-1.4,2.4-2.1c1.9-1.6,3.8-3.1,5.8-4.7c1.4-1.1,2.9-2.2,4.3-3.3
		c0.7-0.6,1.5-1.1,2.2-1.7c0.4-0.3,1.5-0.8,1.7-1.3c0-0.1,0-0.1,0-0.2c-0.1-1.3,0-2.6,0.3-3.9c0,0.4-0.1,0.8-0.1,1.2
		c0,2.1,0.4,4.1,1.1,6.1c-0.4,0.3-0.7,0.6-1.1,1c-2.4,3.2-4.5,6.6-6.1,10.3c-2,4.4-3.7,8.9-5.1,13.5c-0.1,0.1-0.1,0.3,0,0.4
		c0.4,0.7,0.9,1.3,1.5,1.9c1.4,1.2,2.9,2.3,4.5,3.1c0.5,0.2,1,0.5,1.5,0.8c0.5,0.3,1.1,0.5,1.6,0.9c0.4,0.3,0.9,0.5,1.5,0.6
		c0.3,0,0.6-0.1,0.9-0.3c0.9-0.6,0.8-1.3,0.7-2.2c0-0.6,0-1.1,0.1-1.7c0.1-1,0.3-2.1,0.5-3.1c0.4-2.4,0.9-4.9,1.4-7.3
		c0.4-1.8,0.8-3.5,1.2-5.3c0.2-0.9,0.4-1.8,0.6-2.7c0.1-0.5,0.6-1.6,0.5-2.1c0-0.1-0.1-0.1-0.1-0.2c-1.3-1.3-2.3-3-2.9-4.7
		c1.5,2.6,3.6,4.8,6.2,6.4c-0.1,0.5-0.1,1-0.2,1.5c0.2,4,0.8,7.9,2,11.8c1.3,4.6,2.9,9.2,4.7,13.6c0,0.1,0.1,0.1,0.1,0.2
		c0.1,0.1,0.1,0.1,0.2,0.1c0.8,0.3,1.6,0.4,2.4,0.4c1.8,0.1,3.6-0.1,5.4-0.5c0.5-0.2,1.1-0.2,1.7-0.4c0.6-0.1,1.2-0.3,1.8-0.4
		c0.5,0,1-0.2,1.5-0.5c0.2-0.2,0.4-0.5,0.5-0.8c0.3-1-0.2-1.5-0.9-2.2c-0.4-0.4-0.7-0.9-1-1.4c-0.6-0.9-1.1-1.8-1.6-2.7
		c-1.3-2.1-2.4-4.3-3.6-6.5c-0.8-1.6-1.7-3.2-2.5-4.8c-0.4-0.8-0.8-1.6-1.2-2.5c-0.2-0.4-0.6-1.7-1-1.9c-0.1,0-0.1-0.1-0.2-0.1
		c-1.9-0.2-3.7-0.8-5.4-1.8c2.9,1.2,6,1.6,9.1,1.2c0.2,0.4,0.5,0.8,0.7,1.1c2.7,2.9,5.8,5.5,9.1,7.8c4,2.7,8.1,5.2,12.4,7.4
		c0.1,0,0.1,0.1,0.2,0.1c0.1,0,0.2,0,0.2,0c0.8-0.3,1.5-0.7,2.1-1.2c1.4-1.1,2.7-2.4,3.8-3.9c0.3-0.5,0.7-0.9,1-1.3
		c0.4-0.5,0.7-1,1.1-1.4c0.4-0.4,0.7-0.8,0.8-1.3c0-0.3,0-0.6-0.1-0.9c-0.4-0.9-1.2-1-2.1-1.1c-0.6-0.1-1.1-0.2-1.6-0.4
		c-1-0.3-2-0.7-3-1c-2.3-0.8-4.6-1.7-6.9-2.7c-1.7-0.7-3.3-1.4-5-2.1c-0.8-0.4-1.7-0.7-2.5-1.1c-0.4-0.2-1.5-0.9-2-0.8
		c-0.1,0-0.1,0-0.2,0.1c-0.9,0.6-2,1.1-3,1.5c2.2-1,4.2-2.4,5.9-4.2c0.3,0.1,0.6,0.2,0.9,0.3c4,0.5,8,0.6,11.9,0.1
		c4.8-0.5,9.5-1.2,14.2-2.3c0.1,0,0.1,0,0.2-0.1c0.1,0,0.1-0.1,0.2-0.2c0.4-0.7,0.7-1.5,0.8-2.3c0.4-1.8,0.5-3.6,0.5-5.4
		C96.6,70.6,96.6,70,96.6,69.5z"/>
	
		<linearGradient id="SVGID_10_" gradientUnits="userSpaceOnUse" x1="48.7895" y1="726.6147" x2="60.6625" y2="726.6147" gradientTransform="matrix(1 0 0 1 -1.151485e-02 -717.9883)">
		<stop  offset="0" style="stop-color:#E8A423"/>
		<stop  offset="2.200000e-02" style="stop-color:#E9A721"/>
		<stop  offset="0.254" style="stop-color:#F3C113"/>
		<stop  offset="0.492" style="stop-color:#FAD408"/>
		<stop  offset="0.737" style="stop-color:#FEDF02"/>
		<stop  offset="1" style="stop-color:#FFE300"/>
	</linearGradient>
	<rect x="49.2" y="3.4" class="st10" width="11.1" height="10.5"/>
	<polygon class="st0" points="56.9,5.1 52.6,5.1 52.6,7.3 51.1,7.3 51.1,13.1 58.5,13.1 58.5,7.3 56.9,7.3 	"/>
	<path class="st0" d="M109.5,71.4c0,0.3,0,0.6,0.1,1v-1.9C109.6,70.7,109.5,71,109.5,71.4z"/>
	<path class="st0" d="M0.1,72.4c0,0.3,0,0.6-0.1,1v-1.9C0,71.7,0.1,72,0.1,72.4z"/>
</g>
<path class="st0" d="M41.2,192.2l6.3-4.2c7.7-5.1,7.7-17.9,0-23l-6.3-4.2l-23.7-15.7v3.9l22.4,13.7l5.9,3.6c7.3,4.5,7.3,15.7,0,20.2
	l-5.9,3.6L17.5,204v3.9L41.2,192.2z"/>
<path class="st0" d="M69.2,160l-6.3,4.2c-7.7,5.1-7.7,17.9,0,23l6.3,4.2l23.7,15.7v-3.9l-22.4-13.7l-5.9-3.6
	c-7.3-4.5-7.3-15.7,0-20.2l5.9-3.6l22.4-13.8v-3.9L69.2,160z"/>
<path class="st0" d="M105.5,131.2c0-3-2.4-5.4-5.4-5.4c-3,0-5.4,2.4-5.4,5.4c0,3,2.4,5.4,5.4,5.4c0,0,0,0,0,0l0,0
	C103.1,136.6,105.5,134.2,105.5,131.2z M96.9,131.2c0-1.8,1.4-3.2,3.2-3.2s3.2,1.4,3.2,3.2c0,1.8-1.4,3.2-3.2,3.2h0l0,0
	C98.4,134.5,96.9,133,96.9,131.2C96.9,131.2,96.9,131.2,96.9,131.2L96.9,131.2L96.9,131.2z"/>
<linearGradient id="SVGID_11_" gradientUnits="userSpaceOnUse" x1="126.8838" y1="734.2928" x2="121.4374" y2="734.2928" gradientTransform="matrix(6.123234e-17 1 -1 6.123234e-17 834.5273 6.9195)">
	<stop  offset="0" style="stop-color:#E8A423"/>
	<stop  offset="2.200000e-02" style="stop-color:#E9A721"/>
	<stop  offset="0.254" style="stop-color:#F3C113"/>
	<stop  offset="0.492" style="stop-color:#FAD408"/>
	<stop  offset="0.737" style="stop-color:#FEDF02"/>
	<stop  offset="1" style="stop-color:#FFE300"/>
</linearGradient>
<line class="st11" x1="102.6" y1="128.7" x2="97.8" y2="133.4"/>
<linearGradient id="SVGID_12_" gradientUnits="userSpaceOnUse" x1="126.7998" y1="734.3613" x2="121.8364" y2="734.3613" gradientTransform="matrix(6.123234e-17 1 -1 6.123234e-17 834.5273 6.9195)">
	<stop  offset="0" style="stop-color:#E8A423"/>
	<stop  offset="2.200000e-02" style="stop-color:#E9A721"/>
	<stop  offset="0.254" style="stop-color:#F3C113"/>
	<stop  offset="0.492" style="stop-color:#FAD408"/>
	<stop  offset="0.737" style="stop-color:#FEDF02"/>
	<stop  offset="1" style="stop-color:#FFE300"/>
</linearGradient>
<line class="st12" x1="102.5" y1="133.4" x2="97.8" y2="129"/>
<path class="st0" d="M15.2,131.2c0-3-2.4-5.4-5.4-5.4c-3,0-5.4,2.4-5.4,5.4s2.4,5.4,5.4,5.4c0,0,0,0,0,0l0,0
	C12.8,136.6,15.2,134.2,15.2,131.2L15.2,131.2L15.2,131.2z M6.6,131.2c0-1.8,1.4-3.2,3.2-3.2c1.8,0,3.2,1.4,3.2,3.2
	c0,1.8-1.4,3.2-3.2,3.2l0,0l0,0C8.1,134.5,6.6,133,6.6,131.2L6.6,131.2L6.6,131.2L6.6,131.2z"/>
<linearGradient id="SVGID_13_" gradientUnits="userSpaceOnUse" x1="126.8838" y1="824.5928" x2="121.4374" y2="824.5928" gradientTransform="matrix(6.123234e-17 1 -1 6.123234e-17 834.5273 6.9195)">
	<stop  offset="0" style="stop-color:#E8A423"/>
	<stop  offset="2.200000e-02" style="stop-color:#E9A721"/>
	<stop  offset="0.254" style="stop-color:#F3C113"/>
	<stop  offset="0.492" style="stop-color:#FAD408"/>
	<stop  offset="0.737" style="stop-color:#FEDF02"/>
	<stop  offset="1" style="stop-color:#FFE300"/>
</linearGradient>
<line class="st13" x1="12.3" y1="128.7" x2="7.5" y2="133.4"/>
<linearGradient id="SVGID_14_" gradientUnits="userSpaceOnUse" x1="126.7998" y1="824.6614" x2="121.8364" y2="824.6614" gradientTransform="matrix(6.123234e-17 1 -1 6.123234e-17 834.5273 6.9195)">
	<stop  offset="0" style="stop-color:#E8A423"/>
	<stop  offset="2.200000e-02" style="stop-color:#E9A721"/>
	<stop  offset="0.254" style="stop-color:#F3C113"/>
	<stop  offset="0.492" style="stop-color:#FAD408"/>
	<stop  offset="0.737" style="stop-color:#FEDF02"/>
	<stop  offset="1" style="stop-color:#FFE300"/>
</linearGradient>
<line class="st14" x1="12.2" y1="133.4" x2="7.5" y2="129"/>
<path class="st0" d="M15.2,221c0-3-2.4-5.4-5.4-5.4s-5.4,2.4-5.4,5.4s2.4,5.4,5.4,5.4l0,0C12.8,226.4,15.2,224,15.2,221z M6.6,221
	c0-1.8,1.4-3.2,3.2-3.2s3.2,1.4,3.2,3.2c0,1.8-1.4,3.2-3.2,3.2h0l0,0C8.1,224.3,6.6,222.8,6.6,221L6.6,221L6.6,221L6.6,221z"/>
<linearGradient id="SVGID_15_" gradientUnits="userSpaceOnUse" x1="216.6878" y1="824.5928" x2="211.2414" y2="824.5928" gradientTransform="matrix(6.123234e-17 1 -1 6.123234e-17 834.5273 6.9195)">
	<stop  offset="0" style="stop-color:#E8A423"/>
	<stop  offset="2.200000e-02" style="stop-color:#E9A721"/>
	<stop  offset="0.254" style="stop-color:#F3C113"/>
	<stop  offset="0.492" style="stop-color:#FAD408"/>
	<stop  offset="0.737" style="stop-color:#FEDF02"/>
	<stop  offset="1" style="stop-color:#FFE300"/>
</linearGradient>
<line class="st15" x1="12.3" y1="218.5" x2="7.5" y2="223.3"/>
<linearGradient id="SVGID_16_" gradientUnits="userSpaceOnUse" x1="216.6038" y1="824.6614" x2="211.6404" y2="824.6614" gradientTransform="matrix(6.123234e-17 1 -1 6.123234e-17 834.5273 6.9195)">
	<stop  offset="0" style="stop-color:#E8A423"/>
	<stop  offset="2.200000e-02" style="stop-color:#E9A721"/>
	<stop  offset="0.254" style="stop-color:#F3C113"/>
	<stop  offset="0.492" style="stop-color:#FAD408"/>
	<stop  offset="0.737" style="stop-color:#FEDF02"/>
	<stop  offset="1" style="stop-color:#FFE300"/>
</linearGradient>
<line class="st16" x1="12.2" y1="223.3" x2="7.5" y2="218.8"/>
<path class="st0" d="M105.5,221c0-3-2.4-5.4-5.4-5.4c-3,0-5.4,2.4-5.4,5.4c0,3,2.4,5.4,5.4,5.4l0,0C103.1,226.4,105.5,224,105.5,221
	z M96.9,221c0-1.8,1.4-3.2,3.2-3.2c1.8,0,3.2,1.4,3.2,3.2c0,1.8-1.4,3.2-3.2,3.2c0,0,0,0,0,0l0,0C98.4,224.3,96.9,222.8,96.9,221
	L96.9,221L96.9,221z"/>
<linearGradient id="SVGID_17_" gradientUnits="userSpaceOnUse" x1="216.6878" y1="734.2928" x2="211.2414" y2="734.2928" gradientTransform="matrix(6.123234e-17 1 -1 6.123234e-17 834.5273 6.9195)">
	<stop  offset="0" style="stop-color:#E8A423"/>
	<stop  offset="2.200000e-02" style="stop-color:#E9A721"/>
	<stop  offset="0.254" style="stop-color:#F3C113"/>
	<stop  offset="0.492" style="stop-color:#FAD408"/>
	<stop  offset="0.737" style="stop-color:#FEDF02"/>
	<stop  offset="1" style="stop-color:#FFE300"/>
</linearGradient>
<line class="st17" x1="102.6" y1="218.5" x2="97.8" y2="223.3"/>
<linearGradient id="SVGID_18_" gradientUnits="userSpaceOnUse" x1="216.6038" y1="734.3613" x2="211.6404" y2="734.3613" gradientTransform="matrix(6.123234e-17 1 -1 6.123234e-17 834.5273 6.9195)">
	<stop  offset="0" style="stop-color:#E8A423"/>
	<stop  offset="2.200000e-02" style="stop-color:#E9A721"/>
	<stop  offset="0.254" style="stop-color:#F3C113"/>
	<stop  offset="0.492" style="stop-color:#FAD408"/>
	<stop  offset="0.737" style="stop-color:#FEDF02"/>
	<stop  offset="1" style="stop-color:#FFE300"/>
</linearGradient>
<line class="st18" x1="102.5" y1="223.3" x2="97.8" y2="218.8"/>
<path class="st0" d="M109.7,226.5V125.8c0-2.4-1.9-4.3-4.3-4.4c0,0,0,0,0,0H5.1c-2.4,0-4.3,2-4.3,4.4c0,0,0,0,0,0v100.7
	c0,2.4,1.9,4.3,4.3,4.4c0,0,0,0,0,0h100.4C107.8,230.9,109.7,228.9,109.7,226.5C109.7,226.5,109.7,226.5,109.7,226.5L109.7,226.5z
	 M5.1,228c-0.8,0-1.5-0.7-1.5-1.5V125.8c0-0.8,0.6-1.5,1.5-1.5h100.4c0.8,0,1.5,0.7,1.5,1.5v100.7c0,0.8-0.6,1.5-1.5,1.5L5.1,228z"
	/>
<path class="st0" d="M105.5,176.1c0-27.7-22.5-50.2-50.2-50.2S5,148.4,5,176.1s22.5,50.2,50.2,50.2h0l0,0
	C83,226.4,105.5,203.9,105.5,176.1z M7.8,176.1c0-26.2,21.2-47.4,47.4-47.4s47.4,21.2,47.4,47.4s-21.2,47.4-47.4,47.4
	S7.8,202.3,7.8,176.1C7.8,176.1,7.8,176.1,7.8,176.1z"/>
<path class="st0" d="M101.8,176.1c0-25.7-20.8-46.6-46.6-46.6c-25.7,0-46.6,20.8-46.6,46.6c0,25.7,20.8,46.6,46.6,46.6h0l0,0
	C80.9,222.7,101.8,201.8,101.8,176.1z M11.3,176.1c0-24.3,19.7-43.9,43.9-43.9c24.3,0,43.9,19.7,43.9,43.9S79.5,220,55.2,220
	S11.3,200.4,11.3,176.1C11.3,176.1,11.3,176.1,11.3,176.1z"/>
<path class="st0" d="M95.3,176.1c0-22.1-17.9-40-40-40c-22.1,0-40,17.9-40,40s17.9,40,40,40l0,0l0,0
	C77.3,216.1,95.3,198.2,95.3,176.1z M17.5,176.1c0-20.9,16.9-37.8,37.8-37.8S93,155.3,93,176.1s-16.9,37.8-37.8,37.8l0,0l0,0
	C34.4,213.9,17.5,197,17.5,176.1z"/>
<path class="st0" d="M73.7,176.1c0-10.2-8.2-18.4-18.4-18.4s-18.4,8.2-18.4,18.4c0,10.2,8.2,18.4,18.4,18.4h0l0,0
	C65.4,194.5,73.7,186.3,73.7,176.1z M37.9,176.1c0-9.6,7.8-17.4,17.4-17.4s17.4,7.8,17.4,17.4c0,9.6-7.8,17.4-17.4,17.4l0,0l0,0
	C45.6,193.5,37.9,185.7,37.9,176.1z"/>
<path class="st0" d="M88.9,176.1c0-18.6-15.1-33.7-33.7-33.7s-33.7,15.1-33.7,33.7s15.1,33.7,33.7,33.7l0,0l0,0
	C73.8,209.8,88.9,194.7,88.9,176.1z M23.5,176.1c0-17.6,14.2-31.8,31.8-31.8c17.6,0,31.8,14.2,31.8,31.8c0,17.6-14.2,31.8-31.8,31.8
	h0l0,0C37.7,207.9,23.5,193.7,23.5,176.1L23.5,176.1z"/>
<path class="st0" d="M83.2,176.1c0-15.4-12.5-27.9-27.9-27.9s-27.9,12.5-27.9,27.9S39.8,204,55.2,204h0l0,0
	C70.7,204,83.2,191.5,83.2,176.1z M28.9,176.1c0-14.5,11.8-26.3,26.3-26.3s26.3,11.8,26.3,26.3c0,14.5-11.8,26.3-26.3,26.3
	S28.9,190.7,28.9,176.1C28.9,176.1,28.9,176.1,28.9,176.1z"/>
<path class="st0" d="M77.5,176.1c0-12.3-10-22.3-22.3-22.3S33,163.8,33,176.1s10,22.3,22.3,22.3h0l0,0
	C67.5,198.4,77.5,188.4,77.5,176.1C77.5,176.1,77.5,176.1,77.5,176.1z M34.2,176.1c0-11.6,9.4-21,21-21s21,9.4,21,21s-9.4,21-21,21
	S34.2,187.7,34.2,176.1L34.2,176.1z"/>
<path class="st0" d="M66.6,176.1c0-6.3-5.1-11.3-11.3-11.3s-11.3,5.1-11.3,11.3c0,6.3,5.1,11.3,11.3,11.3l0,0l0,0
	C61.5,187.4,66.6,182.4,66.6,176.1z M44.6,176.1c0-5.9,4.8-10.7,10.7-10.7s10.7,4.8,10.7,10.7c0,5.9-4.8,10.7-10.7,10.7
	S44.6,182,44.6,176.1C44.6,176.1,44.6,176.1,44.6,176.1z"/>
<linearGradient id="SVGID_19_" gradientUnits="userSpaceOnUse" x1="211.571" y1="780.0277" x2="126.6622" y2="780.0277" gradientTransform="matrix(6.123234e-17 1 -1 6.123234e-17 834.5273 6.9195)">
	<stop  offset="0" style="stop-color:#E8A423"/>
	<stop  offset="2.200000e-02" style="stop-color:#E9A721"/>
	<stop  offset="0.254" style="stop-color:#F3C113"/>
	<stop  offset="0.492" style="stop-color:#FAD408"/>
	<stop  offset="0.737" style="stop-color:#FEDF02"/>
	<stop  offset="1" style="stop-color:#FFE300"/>
</linearGradient>
<path class="st19" d="M54.7,217.9c0.6,0,1.2-0.1,1.8-0.1c0.5,0.1,1.1,0,1.5-0.2c0.3-0.2,0.5-0.4,0.6-0.7c0.4-0.9,0-1.5-0.5-2.3
	c-0.3-0.5-0.5-1-0.8-1.5c-0.4-1-0.8-2-1.1-2.9c-0.9-2.3-1.6-4.7-2.4-7c-0.6-1.7-1.1-3.4-1.6-5.2l-0.8-2.6c-0.1-0.6-0.3-1.2-0.5-1.8
	c1.2,0.3,2.5,0.5,3.7,0.5c0.1,0.1,0.1,0.3,0.2,0.4c2.2,3.4,4.7,6.5,7.6,9.2c3.4,3.4,7.1,6.5,10.9,9.4c0.1,0,0.1,0.1,0.2,0.1
	c0.1,0,0.2,0,0.2,0c0.8-0.1,1.6-0.4,2.3-0.8c1.6-0.9,3.1-1.9,4.4-3.1c0.4-0.4,0.8-0.8,1.3-1.1c0.4-0.4,0.9-0.8,1.4-1.2
	c0.4-0.3,0.8-0.7,1-1.2c0.1-0.3,0.1-0.6,0-0.9c-0.3-1-1-1.2-1.9-1.5c-0.5-0.2-1.1-0.4-1.6-0.7c-0.9-0.5-1.9-1-2.8-1.5
	c-2.2-1.2-4.3-2.5-6.4-3.8c-1.5-1-3-1.9-4.6-2.9c-0.8-0.5-1.5-1-2.3-1.5c-0.3-0.2-0.7-0.6-1.2-0.9c1.1-0.6,2.1-1.3,3.1-2.1
	c0,0,0.1,0.1,0.2,0.1c3.8,1.2,7.8,1.9,11.7,2.2c4.8,0.4,9.6,0.5,14.4,0.2c0.1,0,0.1,0,0.2,0c0.1,0,0.1-0.1,0.2-0.1
	c0.5-0.6,0.9-1.3,1.2-2.1c0.7-1.7,1.2-3.5,1.4-5.3c0-0.6,0.2-1.1,0.2-1.7c0.1-0.6,0.1-1.2,0.3-1.8c0.1-0.5,0.2-1,0-1.6
	c-0.1-0.3-0.3-0.6-0.6-0.7c-0.8-0.6-1.5-0.3-2.4,0.1c-0.5,0.2-1.1,0.4-1.6,0.5c-1,0.3-2.1,0.4-3.1,0.6c-2.4,0.4-4.9,0.8-7.3,1.2
	c-1.8,0.2-3.6,0.5-5.4,0.7c-0.9,0.1-1.8,0.2-2.7,0.3c-0.3,0-0.9,0-1.5,0.1c0.4-1.1,0.7-2.3,0.9-3.5c0.1,0,0.2,0,0.2-0.1
	c3.7-1.5,7.2-3.5,10.4-5.9c3.9-2.8,7.6-5.8,11.2-9.1c0.1,0,0.1-0.1,0.1-0.2c0-0.1,0-0.1,0-0.2c0-0.8-0.1-1.6-0.4-2.4
	c-0.6-1.7-1.3-3.4-2.3-4.9c-0.3-0.5-0.6-1-0.9-1.4c-0.3-0.5-0.7-1-1-1.6c-0.2-0.5-0.6-0.9-1-1.2c-0.3-0.2-0.6-0.2-0.9-0.2
	c-1,0.1-1.3,0.7-1.8,1.6c-0.3,0.5-0.6,1-0.9,1.4c-0.6,0.9-1.3,1.7-2,2.5c-1.6,1.9-3.2,3.8-4.9,5.6c-1.2,1.3-2.4,2.7-3.7,4
	c-0.6,0.7-1.3,1.3-1.9,2c-0.4,0.4-0.9,0.8-1.3,1.2c-0.4-1.1-0.9-2.2-1.6-3.3c0.1-0.2,0.2-0.3,0.4-0.5c1.8-3.5,3.2-7.3,4.2-11.2
	c1.2-4.7,2.1-9.4,2.7-14.2c0-0.1,0-0.1,0-0.2c0-0.1-0.1-0.1-0.1-0.2c-0.5-0.6-1.1-1.2-1.8-1.6c-1.5-1-3.2-1.7-4.9-2.3
	c-0.5-0.1-1.1-0.4-1.6-0.5c-0.6-0.2-1.2-0.4-1.7-0.6c-0.5-0.2-1-0.3-1.5-0.3c-0.3,0.1-0.6,0.2-0.8,0.4c-0.7,0.7-0.6,1.4-0.3,2.3
	c0.1,0.6,0.2,1.1,0.2,1.7C65,140.9,65,142,65,143c0,2.5-0.1,5-0.1,7.4c-0.1,1.8-0.1,3.6-0.2,5.4c0,0.9-0.1,1.8-0.2,2.8
	c0,0.5-0.3,1.7-0.1,2.1c0,0.1,0.1,0.1,0.2,0.2c0.2,0.1,0.3,0.3,0.5,0.4c-1.2-0.8-2.6-1.5-4-1.9c0-0.4,0-0.7,0-1.1
	c-0.9-3.9-2.2-7.7-4-11.3c-2.1-4.3-4.4-8.5-7-12.6c0-0.1-0.1-0.1-0.1-0.2c-0.1,0-0.1-0.1-0.2-0.1c-0.8-0.2-1.6-0.2-2.4,0
	c-1.8,0.3-3.6,0.7-5.2,1.4c-0.5,0.2-1.1,0.4-1.6,0.6c-0.6,0.2-1.1,0.5-1.7,0.7c-0.5,0.1-1,0.4-1.4,0.8c-0.2,0.2-0.3,0.6-0.3,0.9
	c-0.1,1,0.5,1.5,1.2,2c0.4,0.4,0.9,0.7,1.2,1.2c0.7,0.8,1.4,1.6,2.1,2.4c1.6,1.9,3.1,3.8,4.7,5.8c1.1,1.4,2.2,2.9,3.3,4.3
	c0.6,0.7,1.1,1.5,1.7,2.2c0.3,0.4,0.8,1.5,1.3,1.7c0.1,0,0.1,0,0.2,0c1.3-0.1,2.6,0,3.9,0.3c-0.4,0-0.8-0.1-1.2-0.1
	c-2.1,0-4.1,0.4-6.1,1.1c-0.3-0.4-0.6-0.7-1-1.1c-3.2-2.4-6.6-4.5-10.3-6.1c-4.4-2-8.9-3.7-13.5-5.1c-0.1-0.1-0.3-0.1-0.4,0
	c-0.7,0.4-1.3,0.9-1.9,1.5c-1.2,1.4-2.3,2.9-3.1,4.5c-0.2,0.5-0.5,1-0.8,1.5c-0.3,0.5-0.5,1.1-0.9,1.6c-0.3,0.4-0.5,0.9-0.6,1.5
	c0,0.3,0.1,0.6,0.3,0.9c0.6,0.9,1.3,0.8,2.2,0.7c0.6,0,1.1,0,1.7,0.1c1,0.1,2.1,0.3,3.1,0.5c2.4,0.4,4.9,0.9,7.3,1.4
	c1.8,0.4,3.5,0.8,5.3,1.2c0.9,0.2,1.8,0.4,2.7,0.6c0.5,0.1,1.6,0.6,2.1,0.5c0.1,0,0.1-0.1,0.2-0.1c1.3-1.3,3-2.3,4.7-2.9
	c-2.6,1.5-4.8,3.6-6.4,6.2c-0.5-0.1-1-0.1-1.5-0.2c-4,0.2-7.9,0.8-11.8,2c-4.6,1.3-9.2,2.9-13.6,4.7c-0.1,0-0.1,0.1-0.2,0.1
	c-0.1,0.1-0.1,0.1-0.1,0.2c-0.3,0.8-0.4,1.6-0.4,2.4c-0.1,1.8,0.1,3.6,0.5,5.4c0.2,0.5,0.2,1.1,0.4,1.7c0.1,0.6,0.3,1.2,0.4,1.8
	c0,0.5,0.2,1,0.5,1.5c0.2,0.2,0.5,0.4,0.8,0.5c1,0.3,1.5-0.2,2.2-0.9c0.4-0.4,0.9-0.7,1.4-1c0.9-0.6,1.8-1.1,2.7-1.6
	c2.1-1.3,4.3-2.4,6.5-3.6c1.6-0.8,3.2-1.7,4.8-2.5c0.8-0.4,1.6-0.8,2.5-1.2c0.4-0.2,1.7-0.6,1.9-1c0-0.1,0.1-0.1,0.1-0.2
	c0.2-1.9,0.8-3.7,1.8-5.4c-1.2,2.9-1.6,6-1.2,9.1c-0.4,0.2-0.8,0.5-1.1,0.7c-2.9,2.7-5.5,5.8-7.8,9.1c-2.7,4-5.2,8.1-7.4,12.4
	c0,0.1-0.1,0.1-0.1,0.2c0,0.1,0,0.2,0,0.2c0.3,0.8,0.7,1.5,1.2,2.1c1.1,1.4,2.4,2.7,3.9,3.8c0.5,0.3,0.9,0.7,1.3,1
	c0.5,0.4,1,0.7,1.4,1.1c0.4,0.4,0.8,0.7,1.3,0.8c0.3,0,0.6,0,0.9-0.1c0.9-0.4,1-1.2,1.1-2.1c0.1-0.6,0.2-1.1,0.4-1.6
	c0.3-1,0.7-2,1-3c0.8-2.3,1.7-4.6,2.7-6.9c0.7-1.7,1.4-3.3,2.1-5c0.4-0.8,0.7-1.7,1.1-2.5c0.2-0.4,0.9-1.5,0.8-2
	c0-0.1,0-0.1-0.1-0.2c-0.6-0.9-1.1-2-1.5-3c1,2.2,2.4,4.2,4.2,5.9c-0.1,0.3-0.2,0.6-0.3,0.9c-0.5,4-0.6,8-0.1,11.9
	c0.5,4.8,1.2,9.5,2.3,14.2c0,0.1,0,0.1,0.1,0.2c0,0.1,0.1,0.1,0.2,0.2c0.7,0.4,1.5,0.7,2.3,0.8c1.8,0.4,3.6,0.5,5.4,0.5
	C53.6,217.9,54.2,217.9,54.7,217.9z"/>
<path class="st0" d="M52.9,230.8c-0.3,0-0.6,0-1,0.1h1.9C53.5,230.9,53.2,230.8,52.9,230.8z"/>
<path class="st0" d="M51.9,124.4c-0.3,0-0.6,0-1-0.1h1.9C52.5,124.3,52.2,124.4,51.9,124.4z"/>
</svg>
