<?xml version="1.0" encoding="utf-8"?>
<!-- Generator: Adobe Illustrator 23.0.6, SVG Export Plug-In . SVG Version: 6.00 Build 0)  -->
<svg version="1.1" id="Layer_1" xmlns="http://www.w3.org/2000/svg" xmlns:xlink="http://www.w3.org/1999/xlink" x="0px" y="0px"
	 viewBox="0 0 99.5 129.7" style="enable-background:new 0 0 99.5 129.7;" xml:space="preserve">
<style type="text/css">
	.st0{fill:#FFFFFF;}
</style>
<title>kollang</title>
<path class="st0" d="M27.1,30.3l5.1-3.5c1.2-0.8,2.7-0.5,3.5,0.6l63.5,92c0.8,1.2,0.5,2.7-0.6,3.5l-5.1,3.5
	c-1.2,0.8-2.7,0.5-3.5-0.6l-63.5-92C25.7,32.7,26,31.1,27.1,30.3z"/>
<path class="st0" d="M-0.2,68.4c0,0-4.3-80.3,84.3-58.1C84.1,10.3,17,12-0.2,68.4z"/>
<path class="st0" d="M16.9,16.1l7-4.9c2.2-1.5,5.3-1,6.8,1.3l10.1,14.7c1.5,2.2,1,5.3-1.3,6.8l-7,4.9c-2.2,1.5-5.3,1-6.8-1.3
	L15.7,22.9C14.1,20.6,14.7,17.6,16.9,16.1z"/>
</svg>
