<svg xmlns="http://www.w3.org/2000/svg" viewBox="0 0 468.247 385.03">
  <defs>
    <style>
      .cls-1 {
        fill: #647380;
      }

      .cls-2 {
        fill: #e59c40;
      }

      .cls-3 {
        opacity: 0.1;
      }

      .cls-4 {
        fill: #272525;
      }

      .cls-5 {
        fill: #efcd42;
      }

      .cls-6 {
        opacity: 0.08;
      }

      .cls-7 {
        fill: #ccf0ef;
      }
    </style>
  </defs>
  <title>3Asset 1</title>
  <g id="Layer_2" data-name="Layer 2">
    <g id="object">
      <ellipse class="cls-1" cx="234.123" cy="192.515" rx="234.417" ry="192.128" transform="translate(-16.188 21.577) rotate(-5.101)"/>
      <g>
        <g>
          <circle class="cls-2" cx="284.539" cy="251.198" r="74.752" transform="translate(-94.284 274.774) rotate(-45)"/>
          <g class="cls-3">
            <path class="cls-4" d="M284.044,169.714A81.485,81.485,0,1,0,366.022,250.7,81.487,81.487,0,0,0,284.044,169.714ZM284.951,319a67.8,67.8,0,1,1,67.385-68.209A67.8,67.8,0,0,1,284.951,319Z"/>
          </g>
          <path class="cls-5" d="M283.993,161.356a89.844,89.844,0,1,0,90.388,89.3A89.843,89.843,0,0,0,283.993,161.356Zm1,164.593a74.752,74.752,0,1,1,74.3-75.205A74.752,74.752,0,0,1,284.993,325.949Z"/>
        </g>
        <g>
          <path class="cls-5" d="M271.206,257.457a17.106,17.106,0,0,1-4.289,11.918,14.908,14.908,0,0,1-11.532,4.887h-9.667a14.564,14.564,0,0,1-11-5.027,16.045,16.045,0,0,1-4.606-11.285V244.731h6.328v13.922a8.19,8.19,0,0,0,3.305,6.609,10.851,10.851,0,0,0,7.066,2.5H255a10.051,10.051,0,0,0,6.785-2.6,8.425,8.425,0,0,0,3.094-6.5V217.7h6.328Z"/>
          <path class="cls-5" d="M292.475,258.266q-8.014,0-11.285-3.094-2.179-2-2.18-6.574V218.68h6.329v27.141q0,4.4,1.476,5.379.915.6,5.66.738Z"/>
          <path class="cls-5" d="M312.409,247.965a10.92,10.92,0,0,1-2.426,7.1,8.155,8.155,0,0,1-6.609,3.2H289.839v-6.293H301.4q2.637,0,3.656-1.075t1.02-3.789V238.4h6.328ZM299.19,270.4a3.428,3.428,0,0,1-1.178,2.672,4.1,4.1,0,0,1-2.83,1.055,4.894,4.894,0,0,1-3.023-.95,3.336,3.336,0,0,1-1.371-2.777q0-3.516,4.008-3.516Q299.19,266.879,299.19,270.4Zm12.129,0a3.428,3.428,0,0,1-1.178,2.672,4.1,4.1,0,0,1-2.83,1.055,4.894,4.894,0,0,1-3.023-.95,3.336,3.336,0,0,1-1.371-2.777q0-3.516,4.008-3.516Q311.319,266.879,311.319,270.4Z"/>
          <path class="cls-5" d="M341.869,257.176a17.478,17.478,0,0,1-4.359,11.953,14.634,14.634,0,0,1-11.461,5.133h-8.437l-1.019-6.5h7.136a13.807,13.807,0,0,0,7.84-2.179,7.911,7.911,0,0,0,3.8-6.926V238.4h6.5Z"/>
        </g>
      </g>
      <g>
        <g class="cls-6">
          <circle class="cls-4" cx="178.566" cy="136.595" r="89.843" transform="translate(-22.83 36.677) rotate(-11.027)"/>
        </g>
        <g>
          <g>
            <circle class="cls-2" cx="175.327" cy="131.885" r="74.752" transform="translate(-41.905 162.603) rotate(-45)"/>
            <g class="cls-3">
              <path class="cls-4" d="M174.833,50.4a81.485,81.485,0,1,0,81.978,80.989A81.487,81.487,0,0,0,174.833,50.4Zm.906,149.281a67.8,67.8,0,1,1,67.385-68.209A67.8,67.8,0,0,1,175.739,199.682Z"/>
            </g>
            <path class="cls-5" d="M174.782,42.043a89.844,89.844,0,1,0,90.387,89.3A89.843,89.843,0,0,0,174.782,42.043Zm1,164.593a74.752,74.752,0,1,1,74.3-75.2A74.752,74.752,0,0,1,175.781,206.636Z"/>
          </g>
          <path class="cls-5" d="M205.21,136.233q-3.321-4.373-10.115-6.781a16.467,16.467,0,0,0,6.3-6.127,17.044,17.044,0,0,0,2.081-8.674q-.059-9.852-7.059-14.989t-20.3-5.055l-3.2.019-.054-8.927c-.017-2.736-4.967-2.706-4.95.03l.054,8.927-3.218.02-.054-8.928c-.017-2.735-4.967-2.7-4.95.031l.054,8.927-12.993.079a4.344,4.344,0,0,0-3.257,1.182,4.625,4.625,0,0,0-1.11,3.364q.016,2.575,1.4,3.538t6.22.934l2.071-.012.344,56.55-2.072.013q-5.21.031-6.585.949t-1.359,3.43a4.685,4.685,0,0,0,1.118,3.382,4.4,4.4,0,0,0,3.3,1.11l13.37-.081.054,8.927c.017,2.736,4.967,2.706,4.95-.03l-.054-8.927,3.218-.02.054,8.928c.017,2.735,4.967,2.705,4.95-.031l-.054-8.927,1.63-.01,5.4-.032a55.425,55.425,0,0,0,10.665-.85,23.2,23.2,0,0,0,6.825-2.584,22.055,22.055,0,0,0,7.924-7.768,19.845,19.845,0,0,0,2.763-10.436A18.118,18.118,0,0,0,205.21,136.233Zm-27.658-32.6q7.28-.043,11.19,2.914a10.146,10.146,0,0,1,3.943,8.544q.036,5.9-4.246,8.75t-13.194,2.9l-2.133.013q-.071-11.548-.14-23.1Zm-9.53.058q.069,11.549.14,23.1l-3.218.02q-.069-11.549-.14-23.1Zm-2.875,56.57-.156-25.732,3.218-.02.156,25.733Zm27.731-3.15q-4.816,3.012-16.614,3.083l-2.949.018-.156-25.733,3.576-.022q11.61-.071,16.243,2.852t4.673,9.888Q197.693,154.106,192.878,157.114Z"/>
        </g>
      </g>
      <path class="cls-7" d="M182.2,314.216l-18.887-20.763a.949.949,0,0,0-1.649.689L162.3,305.9a71.464,71.464,0,0,1-39.955-28.886,64.794,64.794,0,0,1-9.937-49.617.95.95,0,0,0-.72-1.125l-5.448-1.217a.951.951,0,0,0-1.137.727,72.2,72.2,0,0,0,11.026,55.393,78.93,78.93,0,0,0,44.577,32.048l-6,12.188a.948.948,0,0,0,1.221,1.292l25.942-10.98A.949.949,0,0,0,182.2,314.216Z"/>
      <path class="cls-7" d="M343.337,113.127a78.936,78.936,0,0,0-47.053-28.288l5-12.7a.925.925,0,0,0-1.29-1.159L274.954,84.1a.925.925,0,0,0-.2,1.5l20.6,19.212a.925.925,0,0,0,1.548-.8l-1.6-11.737a71.459,71.459,0,0,1,42.187,25.514,64.791,64.791,0,0,1,13.967,48.66.925.925,0,0,0,.789,1.035l5.577.773a.927.927,0,0,0,1.047-.8A72.208,72.208,0,0,0,343.337,113.127Z"/>
    </g>
  </g>
</svg>
