<svg xmlns="http://www.w3.org/2000/svg" viewBox="0 0 199.591 81.459">
  <defs>
    <style>
      .cls-1 {
        fill: #f9b617;
      }

      .cls-2 {
        fill: #5979a6;
      }

      .cls-3 {
        fill: #8eacc2;
      }

      .cls-4 {
        fill: #196b94;
      }

      .cls-5 {
        fill: #fff;
      }

      .cls-6 {
        fill: #c4d8db;
      }
    </style>
  </defs>
  <title>4Asset 2</title>
  <g id="Layer_2" data-name="Layer 2">
    <g id="object">
      <g>
        <polygon class="cls-1" points="33.754 80.49 23.451 80.49 24.947 31.282 32.59 31.282 33.754 80.49"/>
        <polygon class="cls-1" points="16.983 80.49 6.682 80.49 8.177 31.282 15.82 31.282 16.983 80.49"/>
        <polygon class="cls-2" points="60.296 81.037 60.296 40.149 80 31.282 80 81.201 60.296 81.037"/>
        <polygon class="cls-2" points="79.016 81.037 79.016 40.149 98.721 31.282 98.721 81.201 79.016 81.037"/>
        <polygon class="cls-2" points="97.735 81.037 97.735 40.149 117.439 31.282 117.439 81.201 97.735 81.037"/>
        <polygon class="cls-2" points="116.365 81.037 116.365 40.149 136.07 31.282 136.07 81.201 116.365 81.037"/>
        <polygon class="cls-2" points="135.086 81.037 135.086 40.149 154.79 31.282 154.79 81.201 135.086 81.037"/>
        <polygon class="cls-2" points="153.805 81.037 153.805 40.149 173.51 31.282 173.51 81.201 153.805 81.037"/>
        <rect class="cls-1" x="46.831" y="48.009" width="137.15" height="33.45"/>
        <rect class="cls-3" y="69.193" width="199.591" height="12.266"/>
        <rect class="cls-4" x="56.867" y="55.813" width="8.92" height="8.92"/>
        <rect class="cls-5" x="70.248" y="55.813" width="8.92" height="8.92"/>
        <rect class="cls-4" x="83.628" y="55.813" width="8.92" height="8.92"/>
        <rect class="cls-4" x="97.009" y="55.813" width="8.92" height="8.92"/>
        <rect class="cls-4" x="110.389" y="55.813" width="8.92" height="8.92"/>
        <rect class="cls-4" x="123.769" y="55.813" width="8.92" height="8.92"/>
        <rect class="cls-4" x="137.149" y="55.813" width="8.92" height="8.92"/>
        <rect class="cls-4" x="150.53" y="55.813" width="8.92" height="8.92"/>
        <rect class="cls-5" x="163.91" y="55.813" width="8.92" height="8.92"/>
        <g>
          <path class="cls-6" d="M44.431,14.93a4.145,4.145,0,1,1-4.146-4.146A4.145,4.145,0,0,1,44.431,14.93Z"/>
          <path class="cls-6" d="M48.113,11.016a4.374,4.374,0,1,1-4.374-4.375A4.373,4.373,0,0,1,48.113,11.016Z"/>
          <path class="cls-6" d="M46.732,7.791a3.914,3.914,0,1,1-3.914-3.914A3.914,3.914,0,0,1,46.732,7.791Z"/>
          <path class="cls-6" d="M50.877,5.489a3.454,3.454,0,1,1-3.454-3.454A3.454,3.454,0,0,1,50.877,5.489Z"/>
          <path class="cls-6" d="M50.941,15.125A4.374,4.374,0,1,1,48.359,9.5,4.373,4.373,0,0,1,50.941,15.125Z"/>
          <path class="cls-6" d="M51.753,10.285a4.375,4.375,0,1,1-2.582-5.623A4.375,4.375,0,0,1,51.753,10.285Z"/>
          <path class="cls-6" d="M53.748,5.9A4.375,4.375,0,1,1,51.166.273,4.375,4.375,0,0,1,53.748,5.9Z"/>
        </g>
        <g>
          <path class="cls-6" d="M19.75,17.571A4.145,4.145,0,1,1,15.6,13.426,4.145,4.145,0,0,1,19.75,17.571Z"/>
          <path class="cls-6" d="M23.433,13.657a4.374,4.374,0,1,1-4.374-4.375A4.373,4.373,0,0,1,23.433,13.657Z"/>
          <path class="cls-6" d="M22.052,10.433a3.914,3.914,0,1,1-3.914-3.914A3.914,3.914,0,0,1,22.052,10.433Z"/>
          <path class="cls-6" d="M26.2,8.131a3.454,3.454,0,1,1-3.454-3.454A3.454,3.454,0,0,1,26.2,8.131Z"/>
          <path class="cls-6" d="M26.261,17.767a4.375,4.375,0,1,1-2.582-5.623A4.375,4.375,0,0,1,26.261,17.767Z"/>
          <path class="cls-6" d="M27.072,12.927A4.375,4.375,0,1,1,24.49,7.3,4.375,4.375,0,0,1,27.072,12.927Z"/>
          <path class="cls-6" d="M29.067,8.538a4.375,4.375,0,1,1-2.582-5.623A4.375,4.375,0,0,1,29.067,8.538Z"/>
        </g>
      </g>
    </g>
  </g>
</svg>
