<svg xmlns="http://www.w3.org/2000/svg" viewBox="0 0 536.273 696.287">
  <defs>
    <style>
      .cls-1 {
        fill: #858e37;
      }

      .cls-2 {
        fill: #9bac3a;
      }

      .cls-3 {
        fill: #b3d234;
      }

      .cls-4 {
        fill: #819139;
      }

      .cls-5 {
        fill: #faa819;
      }

      .cls-6 {
        fill: #f58a1f;
      }

      .cls-7 {
        fill: #ffc708;
      }

      .cls-8 {
        fill: #fcee3b;
      }
    </style>
  </defs>
  <title>5Asset 1</title>
  <g id="Layer_2" data-name="Layer 2">
    <g id="Слой_1" data-name="Слой 1">
      <g>
        <g>
          <rect class="cls-1" x="217.906" y="267.976" width="24.231" height="92.061"/>
          <g>
            <g>
              <path class="cls-2" d="M536.267,0,363.95,172.331c-.087.089-.156.161-.25.249l-27,27a.315.315,0,0,0-.056.036l-47.57,47.59c-.018.017-.055.052-.071.07L251.375,284.91l-.022.018-21.319,21.318a130.521,130.521,0,0,1-36.795-70.812c-5.091-29.708-.214-61.445,14.284-90.957,31.507,24.9,48.872,58.274,51.294,90.957V81.464C277.625,66.379,300.3,53.555,326.729,44.15,399.43,18.255,451.737,28.441,536.267,0Z"/>
              <path class="cls-2" d="M492.121,209.557C443.8,345.255,305.68,381.893,230.032,306.244L536.273,0C507.825,84.537,518.013,136.84,492.121,209.557Z"/>
              <path class="cls-3" d="M374.226,76.75s16.523,68.777-10.526,95.822l-27.046,27.047S375.131,122.19,374.226,76.75Z"/>
              <path class="cls-3" d="M303.652,113.892s23,95.735-14.648,133.381l-37.649,37.648S304.911,177.143,303.652,113.892Z"/>
              <path class="cls-3" d="M459.524,162.051s-68.775-16.524-95.824,10.521l-27.046,27.047S414.087,161.145,459.524,162.051Z"/>
              <path class="cls-3" d="M422.384,232.627s-95.735-23-133.38,14.646l-37.649,37.648S359.132,231.365,422.384,232.627Z"/>
            </g>
            <path class="cls-4" d="M258.817,81.464v153.97c-2.422-32.683-19.787-66.06-51.294-90.957C218.833,121.448,235.985,99.789,258.817,81.464Z"/>
          </g>
          <g>
            <path class="cls-3" d="M157.386,117.139C102.782,97.689,63.492,105.347,0,83.975v.006c21.364,63.494,13.715,102.782,33.161,157.4C69.455,343.309,173.2,370.828,230.023,314.006h0C286.9,257.133,259.249,153.29,157.386,117.139Z"/>
            <path class="cls-2" d="M121.718,141.629s-12.413,51.658,7.9,71.974l20.317,20.314S121.036,175.761,121.718,141.629Z"/>
            <path class="cls-2" d="M174.729,169.525s-17.28,71.909,11,100.186l28.277,28.277S173.779,217.033,174.729,169.525Z"/>
            <path class="cls-2" d="M57.645,205.7s51.66-12.412,71.974,7.9l20.317,20.314S91.775,205.018,57.645,205.7Z"/>
            <path class="cls-2" d="M85.541,258.71s71.908-17.276,100.187,11l28.277,28.277S133.051,257.762,85.541,258.71Z"/>
          </g>
        </g>
        <g>
          <path class="cls-5" d="M233.17,337.047v359.24a16.674,16.674,0,0,1-16.7-16.692c0-.287.02-.575.041-.842-.269-.038-.519-.077-.767-.1-.039.287-.075.555-.134.841a16.694,16.694,0,1,1-32.658-6.942c.059-.285.154-.533.211-.82-.228-.077-.48-.154-.708-.229-.113.249-.191.534-.325.782a16.69,16.69,0,1,1-30.5-13.574c.134-.268.269-.516.4-.784-.208-.134-.438-.248-.649-.383-.173.249-.305.5-.478.746a16.7,16.7,0,1,1-27.016-19.638c.171-.23.364-.457.555-.687-.191-.154-.384-.326-.575-.5-.21.211-.4.42-.61.613a16.695,16.695,0,1,1-22.355-24.8c.23-.209.458-.382.69-.555-.155-.21-.287-.42-.44-.631-.25.173-.5.345-.746.5a16.7,16.7,0,1,1-16.692-28.927,7.146,7.146,0,0,1,.762-.383c-.095-.248-.207-.479-.305-.708a6.852,6.852,0,0,1-.8.307,16.688,16.688,0,1,1-10.324-31.74c.266-.1.553-.154.822-.23-.057-.25-.114-.5-.173-.746-.264.038-.535.1-.822.132a16.7,16.7,0,1,1-3.5-33.211c.307-.019.574-.019.862-.038v-.765c-.288-.019-.576-.019-.862-.038a16.7,16.7,0,1,1,3.5-33.213,5.487,5.487,0,0,1,.822.134c.059-.249.116-.5.173-.745-.269-.078-.556-.135-.822-.23a16.7,16.7,0,0,1,10.324-31.76c.27.095.537.21.8.307.1-.229.194-.46.305-.69-.246-.133-.514-.247-.762-.381a16.7,16.7,0,0,1,16.692-28.93c.268.152.5.324.746.479.153-.192.285-.4.44-.613a8.471,8.471,0,0,1-.69-.555,16.693,16.693,0,1,1,22.355-24.8c.209.19.4.4.61.592.191-.153.384-.326.575-.5-.191-.211-.384-.441-.555-.671A16.7,16.7,0,1,1,150.91,375.04c.173.248.325.5.478.745.211-.133.441-.248.649-.382-.13-.268-.265-.518-.383-.784a16.692,16.692,0,1,1,30.5-13.576c.116.268.212.535.307.8.249-.076.48-.172.727-.248-.076-.268-.171-.537-.23-.824a16.694,16.694,0,1,1,32.658-6.939c.059.287.095.572.134.84.267-.019.515-.056.767-.094-.021-.269-.041-.555-.041-.841A16.7,16.7,0,0,1,233.17,337.047Z"/>
          <path class="cls-6" d="M411.793,535.444A16.669,16.669,0,0,1,393.456,550.3a6.125,6.125,0,0,1-.842-.132c-.037.248-.114.5-.153.746.267.076.538.134.8.23A16.694,16.694,0,0,1,382.959,582.9c-.287-.1-.535-.21-.8-.3-.116.229-.212.457-.326.688.269.134.515.249.765.383a16.7,16.7,0,1,1-16.692,28.927c-.25-.151-.5-.323-.746-.5-.135.211-.289.421-.44.631a6.61,6.61,0,0,1,.686.555,16.687,16.687,0,1,1-22.332,24.8c-.228-.193-.421-.4-.613-.593-.189.152-.4.324-.591.5.189.211.384.438.553.668a16.692,16.692,0,1,1-27,19.638c-.171-.249-.325-.5-.478-.746-.229.135-.437.249-.669.383.135.268.289.516.4.784a16.691,16.691,0,1,1-30.5,13.574c-.118-.266-.212-.533-.307-.782-.249.075-.477.152-.725.229.076.287.153.553.21.82A16.694,16.694,0,1,1,250.7,679.5c-.057-.286-.1-.574-.134-.841-.25.019-.5.058-.767.1.02.267.057.555.057.842a16.694,16.694,0,0,1-16.688,16.692V337.047a16.694,16.694,0,0,1,16.688,16.693c0,.286-.018.572-.037.841.251.038.5.075.747.094.057-.268.077-.553.134-.84a16.694,16.694,0,1,1,32.658,6.939c-.057.287-.134.556-.21.824.248.076.476.172.725.248.1-.268.189-.535.307-.8a16.692,16.692,0,1,1,30.5,13.576c-.114.266-.268.535-.4.784.232.134.44.249.669.382.153-.248.307-.5.478-.726a16.686,16.686,0,1,1,27,19.616c-.169.23-.364.46-.553.69.189.172.4.325.591.5a6.107,6.107,0,0,1,.613-.612,16.686,16.686,0,1,1,22.332,24.8,8.43,8.43,0,0,1-.669.555c.134.209.288.421.443.631a5.518,5.518,0,0,1,.726-.479A16.692,16.692,0,1,1,382.6,449.668c-.25.134-.5.248-.748.381.1.23.211.461.309.708a5.468,5.468,0,0,1,.8-.305,16.686,16.686,0,1,1,10.306,31.74c-.266.095-.537.152-.8.23.039.248.116.5.173.745.271-.038.537-.1.8-.134a16.7,16.7,0,1,1,3.5,33.213c-.285.019-.576.019-.86.038,0,.133.02.248.02.382s-.02.249-.02.383c.284.019.575.019.86.038A16.724,16.724,0,0,1,411.793,535.444Z"/>
          <path class="cls-7" d="M371.364,516.68A143.562,143.562,0,1,1,227.808,373.11,143.549,143.549,0,0,1,371.364,516.68Z"/>
          <path class="cls-8" d="M296.209,487.294V475.815a31.476,31.476,0,0,0-31.476-31.473H247.175V428.129H227.8v16.213H211.167V428.129H191.791v16.213H159.4v26.843h17.753v34.631H159.4v25.906h17.753v34.625H159.4v26.847h32.4v12.011h19.376V593.194H227.8v12.011h19.376V593.194h17.558a31.475,31.475,0,0,0,31.476-31.471v-11.48a31.481,31.481,0,0,0-31.476-31.478A31.474,31.474,0,0,0,296.209,487.294Zm-51.256-16.109a17.316,17.316,0,0,1,0,34.631H211.167V471.185Zm0,95.162H211.167V531.722h33.786a17.313,17.313,0,1,1,0,34.625Z"/>
        </g>
      </g>
    </g>
  </g>
</svg>
