<svg xmlns="http://www.w3.org/2000/svg" xmlns:xlink="http://www.w3.org/1999/xlink" viewBox="0 0 121.717 110.946">
  <defs>
    <style>
      .cls-1 {
        fill: url(#linear-gradient);
      }

      .cls-2 {
        fill: url(#linear-gradient-2);
      }

      .cls-3 {
        fill: url(#linear-gradient-3);
      }

      .cls-4 {
        fill: url(#linear-gradient-4);
      }

      .cls-5 {
        fill: url(#linear-gradient-5);
      }

      .cls-6 {
        fill: url(#linear-gradient-6);
      }

      .cls-7 {
        fill: url(#linear-gradient-7);
      }

      .cls-8 {
        fill: url(#linear-gradient-8);
      }

      .cls-9 {
        fill: url(#linear-gradient-9);
      }

      .cls-10 {
        fill: url(#linear-gradient-10);
      }

      .cls-11 {
        fill: url(#linear-gradient-11);
      }

      .cls-12 {
        fill: url(#linear-gradient-12);
      }

      .cls-13 {
        fill: url(#linear-gradient-13);
      }

      .cls-14 {
        fill: url(#linear-gradient-14);
      }

      .cls-15 {
        fill: url(#linear-gradient-15);
      }
    </style>
    <linearGradient id="linear-gradient" y1="69.541" x2="52.999" y2="69.541" gradientUnits="userSpaceOnUse">
      <stop offset="0" stop-color="#e8a423"/>
      <stop offset="0.022" stop-color="#e9a721"/>
      <stop offset="0.254" stop-color="#f3c113"/>
      <stop offset="0.492" stop-color="#fad408"/>
      <stop offset="0.737" stop-color="#fedf02"/>
      <stop offset="1" stop-color="#ffe300"/>
    </linearGradient>
    <linearGradient id="linear-gradient-2" x1="13.178" y1="-498.04" x2="39.82" y2="-498.04" gradientTransform="matrix(1, 0, 0, -1, 0, -428.411)" xlink:href="#linear-gradient"/>
    <linearGradient id="linear-gradient-3" x1="13.178" y1="100.276" x2="17.507" y2="100.276" xlink:href="#linear-gradient"/>
    <linearGradient id="linear-gradient-4" x1="24.107" y1="105.211" x2="28.892" y2="105.211" xlink:href="#linear-gradient"/>
    <linearGradient id="linear-gradient-5" x1="33.151" y1="102.078" x2="37.48" y2="102.078" xlink:href="#linear-gradient"/>
    <linearGradient id="linear-gradient-6" x1="45.908" y1="21.411" x2="88.731" y2="21.411" xlink:href="#linear-gradient"/>
    <linearGradient id="linear-gradient-7" x1="56.557" y1="-449.893" x2="78.083" y2="-449.893" gradientTransform="matrix(1, 0, 0, -1, 0, -428.411)" xlink:href="#linear-gradient"/>
    <linearGradient id="linear-gradient-8" x1="56.299" y1="47.146" x2="60.627" y2="47.146" xlink:href="#linear-gradient"/>
    <linearGradient id="linear-gradient-9" x1="63.928" y1="52.081" x2="68.712" y2="52.081" xlink:href="#linear-gradient"/>
    <linearGradient id="linear-gradient-10" x1="72.972" y1="48.948" x2="77.3" y2="48.948" xlink:href="#linear-gradient"/>
    <linearGradient id="linear-gradient-11" x1="85.841" y1="57.816" x2="121.717" y2="57.816" xlink:href="#linear-gradient"/>
    <linearGradient id="linear-gradient-12" x1="94.762" y1="-486.286" x2="112.797" y2="-486.286" gradientTransform="matrix(1, 0, 0, -1, 0, -428.411)" xlink:href="#linear-gradient"/>
    <linearGradient id="linear-gradient-13" x1="93.852" y1="78.994" x2="98.181" y2="78.994" xlink:href="#linear-gradient"/>
    <linearGradient id="linear-gradient-14" x1="101.481" y1="83.438" x2="105.622" y2="83.438" xlink:href="#linear-gradient"/>
    <linearGradient id="linear-gradient-15" x1="108.282" y1="80.47" x2="111.834" y2="80.47" xlink:href="#linear-gradient"/>
  </defs>
  <title>5Asset 11</title>
  <g id="Layer_2" data-name="Layer 2">
    <g id="Layer_1-2" data-name="Layer 1">
      <g>
        <path class="cls-1" d="M26.5,43.042A26.5,26.5,0,1,0,53,69.541,26.5,26.5,0,0,0,26.5,43.042Zm0,47.911A21.412,21.412,0,1,1,47.911,69.541,21.412,21.412,0,0,1,26.5,90.953Z"/>
        <g id="Layer_1-2-2" data-name="Layer 1-2">
          <path class="cls-2" d="M39.532,72.972a7.5,7.5,0,0,0-1.351-2.148,7.277,7.277,0,0,0-3.4-2.059A7.493,7.493,0,0,0,37.655,65.7a7.214,7.214,0,0,0-.047-5.547,8.5,8.5,0,0,0-1.358-2.212,6.4,6.4,0,0,0-3.568-1.779,21.255,21.255,0,0,0-3.118-.135V51.447H26.232v4.565H23.309V51.447h-3.39v4.666l-6.74-.082v4.09a15.967,15.967,0,0,1,2.707.039,2.044,2.044,0,0,1,1.593,1.486A8.215,8.215,0,0,1,17.5,63.3V77.336a1.987,1.987,0,0,1-1.634,1.881c-.3.074-2.69.072-2.69.057V83.3h6.754V87.81H23.4V83.3h2.709V87.81h3.464V83.318a19.84,19.84,0,0,0,5.367-.678,6.3,6.3,0,0,0,4.311-4.319C39.655,76.753,40.142,74.5,39.532,72.972ZM28.857,60c2.059,0,2.805,3.2,2.354,4.98a4.046,4.046,0,0,1-1.506,2.343,3.03,3.03,0,0,1-1.884.3H23.356V60Q26.106,60,28.857,60Zm4.286,15.245a4.194,4.194,0,0,1-3.621,3.913,31.988,31.988,0,0,1-3.9.028H23.356V71.3h4.077c1.885,0,3.868,0,5.063,1.918A3.73,3.73,0,0,1,33.143,75.242Z"/>
        </g>
        <path class="cls-3" d="M13.893,96.041h-.715v8.47h4.329v-3.927A13.6,13.6,0,0,1,13.893,96.041Z"/>
        <path class="cls-4" d="M24.107,99.476v11.47h4.785V99.476a9.446,9.446,0,0,1-4.785,0Z"/>
        <path class="cls-5" d="M33.151,100.79v5.523H37.48v-8.47H36.091A13.6,13.6,0,0,1,33.151,100.79Z"/>
      </g>
      <g>
        <g>
          <path class="cls-6" d="M67.32,0A21.412,21.412,0,1,0,88.731,21.411,21.412,21.412,0,0,0,67.32,0Zm0,38.711a17.3,17.3,0,1,1,17.3-17.3A17.3,17.3,0,0,1,67.32,38.711Z"/>
          <g id="Layer_1-2-3" data-name="Layer 1-2">
            <path class="cls-7" d="M77.85,24.183a6.073,6.073,0,0,0-1.091-1.735,5.878,5.878,0,0,0-2.746-1.664,6.054,6.054,0,0,0,2.321-2.474,5.829,5.829,0,0,0-.038-4.482,6.923,6.923,0,0,0-1.1-1.786A5.168,5.168,0,0,0,72.315,10.6,17.241,17.241,0,0,0,69.8,10.5v-3.7H67.1V10.48H64.742V6.791H62v3.77L56.557,10.5V13.8a12.911,12.911,0,0,1,2.188.031,1.652,1.652,0,0,1,1.286,1.2,6.61,6.61,0,0,1,.019,1.336V27.709a1.6,1.6,0,0,1-1.32,1.52c-.241.06-2.173.059-2.173.046v3.252h5.456v3.645h2.806V32.527h2.189v3.645h2.8V32.543A16.031,16.031,0,0,0,74.143,32a4.45,4.45,0,0,0,3.1-2.536,4.4,4.4,0,0,0,.381-.954C77.949,27.239,78.343,25.421,77.85,24.183ZM69.224,13.7c1.664,0,2.267,2.585,1.9,4.024a3.268,3.268,0,0,1-1.217,1.892,2.447,2.447,0,0,1-1.523.246H64.78V13.7Q67,13.7,69.224,13.7Zm3.464,12.318a3.388,3.388,0,0,1-2.926,3.161,25.953,25.953,0,0,1-3.156.022H64.78V22.834h3.294c1.523,0,3.126,0,4.091,1.55A3.008,3.008,0,0,1,72.688,26.018Z"/>
          </g>
        </g>
        <g>
          <path class="cls-8" d="M57.013,42.911H56.3v8.47h4.328V47.454A13.627,13.627,0,0,1,57.013,42.911Z"/>
          <path class="cls-9" d="M63.928,46.346v11.47h4.784V46.346a9.442,9.442,0,0,1-4.784,0Z"/>
          <path class="cls-10" d="M72.972,47.66v5.523H77.3v-8.47H75.911A13.6,13.6,0,0,1,72.972,47.66Z"/>
        </g>
      </g>
      <g>
        <g>
          <path class="cls-11" d="M103.779,39.878a17.938,17.938,0,1,0,17.938,17.938A17.938,17.938,0,0,0,103.779,39.878Zm0,32.432a14.494,14.494,0,1,1,14.494-14.494A14.494,14.494,0,0,1,103.779,72.31Z"/>
          <g id="Layer_1-2-4" data-name="Layer 1-2">
            <path class="cls-12" d="M112.6,60.138a5.081,5.081,0,0,0-.914-1.454,4.93,4.93,0,0,0-2.3-1.393,5.07,5.07,0,0,0,1.944-2.073,4.881,4.881,0,0,0-.032-3.755,5.8,5.8,0,0,0-.919-1.5,4.334,4.334,0,0,0-2.415-1.2,14.4,14.4,0,0,0-2.111-.091v-3.1H103.6v3.09h-1.979v-3.09H99.325v3.158l-4.562-.055v2.768a10.767,10.767,0,0,1,1.832.027,1.382,1.382,0,0,1,1.078,1.006,5.565,5.565,0,0,1,.015,1.119v9.5a1.345,1.345,0,0,1-1.105,1.274c-.2.05-1.821.049-1.821.038v2.725h4.571v3.054h2.351V67.129h1.834v3.054h2.344V67.142a13.428,13.428,0,0,0,3.633-.459,4.269,4.269,0,0,0,2.919-2.924A6.554,6.554,0,0,0,112.6,60.138Zm-7.226-8.783c1.394,0,1.9,2.167,1.594,3.372a2.734,2.734,0,0,1-1.02,1.585,2.047,2.047,0,0,1-1.275.206h-3.023V51.359Q103.512,51.359,105.375,51.355Zm2.9,10.32a2.84,2.84,0,0,1-2.451,2.649,21.791,21.791,0,0,1-2.644.018h-1.531V59.008h2.76c1.276,0,2.619,0,3.427,1.3A2.52,2.52,0,0,1,108.277,61.675Z"/>
          </g>
        </g>
        <g>
          <path class="cls-13" d="M94.567,75.249h-.715v7.489h4.329V79.266A12.411,12.411,0,0,1,94.567,75.249Z"/>
          <path class="cls-14" d="M101.481,77.7v11.47h4.141V77.7a7.113,7.113,0,0,1-4.141,0Z"/>
          <path class="cls-15" d="M108.282,79.328v4.9h3.552V76.715h-1.14A11.693,11.693,0,0,1,108.282,79.328Z"/>
        </g>
      </g>
    </g>
  </g>
</svg>
