<svg xmlns="http://www.w3.org/2000/svg" xmlns:xlink="http://www.w3.org/1999/xlink" viewBox="0 0 146.341 97.322">
  <defs>
    <style>
      .cls-1 {
        fill: url(#linear-gradient);
      }

      .cls-2 {
        fill: url(#linear-gradient-2);
      }

      .cls-3 {
        fill: url(#linear-gradient-3);
      }

      .cls-4 {
        fill: url(#linear-gradient-4);
      }

      .cls-5 {
        fill: url(#linear-gradient-5);
      }

      .cls-6 {
        fill: url(#linear-gradient-6);
      }

      .cls-7 {
        fill: url(#linear-gradient-7);
      }

      .cls-8 {
        fill: url(#linear-gradient-8);
      }

      .cls-9 {
        fill: url(#linear-gradient-9);
      }

      .cls-10 {
        fill: url(#linear-gradient-10);
      }

      .cls-11 {
        fill: url(#linear-gradient-11);
      }

      .cls-12 {
        fill: url(#linear-gradient-12);
      }
    </style>
    <linearGradient id="linear-gradient" x1="10.596" y1="426.032" x2="19.433" y2="426.032" gradientTransform="matrix(1, 0, 0, -1, 0, 508.339)" gradientUnits="userSpaceOnUse">
      <stop offset="0" stop-color="#e8a423"/>
      <stop offset="0.022" stop-color="#e9a721"/>
      <stop offset="0.254" stop-color="#f3c113"/>
      <stop offset="0.492" stop-color="#fad408"/>
      <stop offset="0.737" stop-color="#fedf02"/>
      <stop offset="1" stop-color="#ffe300"/>
    </linearGradient>
    <linearGradient id="linear-gradient-2" x1="55.394" y1="426.032" x2="64.23" y2="426.032" xlink:href="#linear-gradient"/>
    <linearGradient id="linear-gradient-3" x1="99.631" y1="425.477" x2="108.468" y2="425.477" xlink:href="#linear-gradient"/>
    <linearGradient id="linear-gradient-4" x1="57.532" y1="67.995" x2="0" y2="67.995" gradientTransform="matrix(1, 0, 0, 1, 0, 0)" xlink:href="#linear-gradient"/>
    <linearGradient id="linear-gradient-5" x1="102.093" y1="67.995" x2="44.56" y2="67.995" gradientTransform="matrix(1, 0, 0, 1, 0, 0)" xlink:href="#linear-gradient"/>
    <linearGradient id="linear-gradient-6" x1="146.341" y1="67.995" x2="88.809" y2="67.995" gradientTransform="matrix(1, 0, 0, 1, 0, 0)" xlink:href="#linear-gradient"/>
    <linearGradient id="linear-gradient-7" x1="40.757" y1="27.241" x2="48.803" y2="27.241" gradientTransform="matrix(1, 0, 0, 1, 0, 0)" xlink:href="#linear-gradient"/>
    <linearGradient id="linear-gradient-8" x1="126.01" y1="27.241" x2="134.055" y2="27.241" gradientTransform="matrix(-1, 0, 0, 1, 260.065, 0)" xlink:href="#linear-gradient"/>
    <linearGradient id="linear-gradient-9" x1="53.549" y1="22.866" x2="70.487" y2="22.866" gradientTransform="matrix(1, 0, 0, 1, 0, 0)" xlink:href="#linear-gradient"/>
    <linearGradient id="linear-gradient-10" x1="78.815" y1="8.469" x2="95.752" y2="8.469" gradientTransform="matrix(1, 0, 0, 1, 0, 0)" xlink:href="#linear-gradient"/>
    <linearGradient id="linear-gradient-11" x1="104.33" y1="22.866" x2="121.268" y2="22.866" gradientTransform="matrix(1, 0, 0, 1, 0, 0)" xlink:href="#linear-gradient"/>
    <linearGradient id="linear-gradient-12" x1="85.36" y1="27.735" x2="89.594" y2="27.735" gradientTransform="matrix(1, 0, 0, 1, 0, 0)" xlink:href="#linear-gradient"/>
  </defs>
  <title>5Asset 6</title>
  <g id="Layer_2" data-name="Layer 2">
    <g id="Layer_1-2" data-name="Layer 1">
      <g>
        <g id="Layer_1-2-2" data-name="Layer 1-2">
          <path class="cls-1" d="M19.337,83.416a2.509,2.509,0,0,0-.448-.712,2.413,2.413,0,0,0-1.127-.683,2.487,2.487,0,0,0,.953-1.015,2.393,2.393,0,0,0-.016-1.84,2.85,2.85,0,0,0-.45-.734,2.136,2.136,0,0,0-1.184-.59,6.957,6.957,0,0,0-1.034-.044V76.277h-1.1v1.514h-.97V76.277H12.832v1.548L10.6,77.8v1.356a5.365,5.365,0,0,1,.9.013.68.68,0,0,1,.529.493,2.781,2.781,0,0,1,.007.548v4.656a.659.659,0,0,1-.542.624c-.1.024-.892.024-.892.019v1.335h2.24v1.5h1.152v-1.5h.9v1.5h1.149v-1.49a6.577,6.577,0,0,0,1.78-.225,1.826,1.826,0,0,0,1.274-1.041,1.845,1.845,0,0,0,.156-.391A3.215,3.215,0,0,0,19.337,83.416Zm-3.541-4.3c.683,0,.931,1.061.781,1.652a1.346,1.346,0,0,1-.5.777,1.006,1.006,0,0,1-.625.1H13.972V79.115Zm1.422,5.056a1.39,1.39,0,0,1-1.2,1.3,10.554,10.554,0,0,1-1.295.009h-.75V82.863h1.352c.625,0,1.283,0,1.679.636A1.234,1.234,0,0,1,17.218,84.169Z"/>
        </g>
        <g id="Layer_1-2-3" data-name="Layer 1-2">
          <path class="cls-2" d="M64.135,83.416a2.531,2.531,0,0,0-.448-.712,2.421,2.421,0,0,0-1.128-.683,2.48,2.48,0,0,0,.953-1.015,2.393,2.393,0,0,0-.016-1.84,2.823,2.823,0,0,0-.45-.734,2.13,2.13,0,0,0-1.183-.59,6.97,6.97,0,0,0-1.035-.044V76.277H59.723v1.514h-.969V76.277H57.629v1.548L55.394,77.8v1.356a5.377,5.377,0,0,1,.9.013.678.678,0,0,1,.528.493,2.706,2.706,0,0,1,.008.548v4.656a.66.66,0,0,1-.542.624c-.1.024-.892.024-.892.019v1.335h2.24v1.5h1.151v-1.5h.9v1.5h1.149v-1.49a6.577,6.577,0,0,0,1.78-.225,1.825,1.825,0,0,0,1.273-1.041,1.848,1.848,0,0,0,.157-.391A3.224,3.224,0,0,0,64.135,83.416Zm-3.541-4.3c.683,0,.93,1.061.781,1.652a1.343,1.343,0,0,1-.5.777,1.006,1.006,0,0,1-.625.1H58.769V79.115Zm1.422,5.056a1.391,1.391,0,0,1-1.2,1.3,10.572,10.572,0,0,1-1.3.009h-.75V82.863h1.353c.625,0,1.283,0,1.679.636A1.243,1.243,0,0,1,62.016,84.169Z"/>
        </g>
        <g id="Layer_1-2-4" data-name="Layer 1-2">
          <path class="cls-3" d="M108.372,83.972a2.5,2.5,0,0,0-.448-.713,2.422,2.422,0,0,0-1.127-.683,2.487,2.487,0,0,0,.953-1.015,2.393,2.393,0,0,0-.016-1.84,2.828,2.828,0,0,0-.45-.733,2.123,2.123,0,0,0-1.184-.59,6.97,6.97,0,0,0-1.034-.045v-1.52h-1.105v1.514h-.97V76.833h-1.124V78.38l-2.235-.027v1.356a5.365,5.365,0,0,1,.9.013.682.682,0,0,1,.529.493,2.79,2.79,0,0,1,.007.549v4.655a.658.658,0,0,1-.542.624c-.1.025-.892.024-.892.019V87.4h2.24v1.5h1.152V87.4h.9v1.5h1.149V87.4a6.577,6.577,0,0,0,1.78-.225,1.824,1.824,0,0,0,1.273-1.041,1.776,1.776,0,0,0,.157-.391A3.212,3.212,0,0,0,108.372,83.972Zm-3.541-4.3c.683,0,.931,1.062.781,1.652a1.343,1.343,0,0,1-.5.777,1.006,1.006,0,0,1-.625.1h-1.481V79.67Q103.919,79.67,104.831,79.668Zm1.422,5.057a1.39,1.39,0,0,1-1.2,1.3,10.554,10.554,0,0,1-1.3.01h-.75V83.418h1.352c.625,0,1.283,0,1.679.636A1.238,1.238,0,0,1,106.253,84.725Z"/>
        </g>
        <path class="cls-4" d="M27.784,38.667,0,67.293V97.322H30.029l8.82-9.629V81.255l-6.894,7.083V69.5L53.742,47.317l.408,10.807,3.382-3.383V38.667ZM30.029,43.5H50.092L28.766,65.737H8.185ZM26.261,93.071H4.242V71.052H26.261Z"/>
        <path class="cls-5" d="M72.344,38.667,44.56,67.293V97.322H74.589l8.82-9.629V81.255l-6.894,7.083V69.5L98.3,47.317l.408,10.807,3.383-3.383V38.667ZM74.589,43.5H94.652L73.327,65.737H52.745ZM70.821,93.071H48.8V71.052H70.821Z"/>
        <path class="cls-6" d="M116.593,38.667,88.809,67.293V97.322h30.029l8.819-9.629v-.165l18.684-20.4V38.667Zm-1.524,54.4H93.051V71.052h22.018Zm2.506-27.334H96.993L118.838,43.5H138.9Zm25.652-.644-15.57,16v.164l-6.893,7.083V69.5L142.55,47.317l.408,10.807.006-.006Z"/>
        <polygon class="cls-7" points="48.803 20.325 40.757 20.325 40.757 34.157 45.556 34.157 45.556 24.418 48.803 24.418 48.803 20.325"/>
        <polygon class="cls-8" points="126.01 20.325 134.055 20.325 134.055 34.157 129.256 34.157 129.256 24.418 126.01 24.418 126.01 20.325"/>
        <path class="cls-9" d="M62.018,14.4a8.469,8.469,0,1,0,8.469,8.469A8.469,8.469,0,0,0,62.018,14.4Zm0,13.691a5.223,5.223,0,1,1,5.223-5.222A5.222,5.222,0,0,1,62.018,28.088Z"/>
        <path class="cls-10" d="M87.283,0a8.469,8.469,0,1,0,8.469,8.469A8.469,8.469,0,0,0,87.283,0Zm0,13.691a5.223,5.223,0,1,1,5.223-5.222A5.222,5.222,0,0,1,87.283,13.691Z"/>
        <path class="cls-11" d="M112.8,14.4a8.469,8.469,0,1,0,8.469,8.469A8.469,8.469,0,0,0,112.8,14.4Zm0,13.691a5.223,5.223,0,1,1,5.223-5.222A5.222,5.222,0,0,1,112.8,28.088Z"/>
        <rect class="cls-12" x="85.36" y="21.313" width="4.234" height="12.844"/>
      </g>
    </g>
  </g>
</svg>
