<svg xmlns="http://www.w3.org/2000/svg" viewBox="0 0 108 108">
  <defs>
    <style>
      .cls-1 {
        fill: #a11d87;
      }

      .cls-2, .cls-3 {
        fill: #fff;
      }

      .cls-3 {
        opacity: 0.1;
      }
    </style>
  </defs>
  <title>8Asset 4</title>
  <g id="Layer_2" data-name="Layer 2">
    <g id="Design">
      <g>
        <path class="cls-1" d="M108,54A54,54,0,1,1,54,0a54,54,0,0,1,54,54Z"/>
        <path class="cls-2" d="M69.211,80.365H39.318A11.117,11.117,0,0,1,28.086,69.393V38.607A11.117,11.117,0,0,1,39.318,27.634H69.211a11.115,11.115,0,0,1,11.23,10.973V69.393a11.115,11.115,0,0,1-11.23,10.972Zm6.713-41.758a6.6,6.6,0,0,0-6.713-6.456H39.318A6.6,6.6,0,0,0,32.6,38.607V69.393a6.6,6.6,0,0,0,6.713,6.454H69.211a6.6,6.6,0,0,0,6.713-6.454V38.607Zm-21.66,29.08A13.687,13.687,0,1,1,67.951,54,13.7,13.7,0,0,1,54.264,67.687Zm0-22.855A9.168,9.168,0,1,0,63.43,54a9.173,9.173,0,0,0-9.166-9.167Zm14.687-2.007a3.2,3.2,0,1,1,3.205-3.2,3.2,3.2,0,0,1-3.205,3.2Z"/>
        <path class="cls-3" d="M54,0A54,54,0,0,0,.525,46.536c6.573-3.293,14.516-3.9,24.09-.464,27.18,9.06,53.539,28.789,81.309,22.752A54,54,0,0,0,54,0Z"/>
      </g>
    </g>
  </g>
</svg>
