<svg xmlns="http://www.w3.org/2000/svg" viewBox="0 0 107.999 108">
  <defs>
    <style>
      .cls-1 {
        fill: #007baa;
      }

      .cls-2, .cls-3 {
        fill: #fff;
      }

      .cls-3 {
        opacity: 0.1;
      }
    </style>
  </defs>
  <title>8Asset 3</title>
  <g id="Layer_2" data-name="Layer 2">
    <g id="Design">
      <g>
        <path class="cls-1" d="M108,54A54,54,0,1,1,54,0a54,54,0,0,1,54,54Z"/>
        <path class="cls-2" d="M32.953,74.633V45.653h9.059v28.98Zm4.308-32.6H37.2c-3.283,0-5.41-2.218-5.41-5.025,0-2.857,2.19-5.028,5.535-5.028s5.4,2.162,5.463,5.023c0,2.808-2.125,5.03-5.526,5.03Zm30.728,32.6V59.642c0-3.928-1.614-6.611-5.158-6.611a5.178,5.178,0,0,0-4.891,3.558,6.367,6.367,0,0,0-.231,2.359V74.633H47.541s.127-26.571,0-28.98H57.709V50.2c.6-1.987,3.854-4.823,9.04-4.823,6.437,0,11.5,4.17,11.5,13.142V74.633Z"/>
        <path class="cls-3" d="M54,0A54,54,0,0,0,.525,46.536c6.572-3.293,14.516-3.9,24.09-.464,27.18,9.061,53.538,28.789,81.307,22.752A53.993,53.993,0,0,0,54,0Z"/>
      </g>
    </g>
  </g>
</svg>
