<svg xmlns="http://www.w3.org/2000/svg" xmlns:xlink="http://www.w3.org/1999/xlink" viewBox="0 0 172.882 146.963">
  <defs>
    <style>
      .cls-1 {
        fill: url(#linear-gradient);
      }

      .cls-2 {
        fill: url(#linear-gradient-2);
      }

      .cls-3 {
        fill: url(#linear-gradient-3);
      }
    </style>
    <linearGradient id="linear-gradient" x1="84.926" y1="190.603" x2="41.732" y2="190.603" gradientTransform="translate(152.187 -109.664) rotate(39.823)" gradientUnits="userSpaceOnUse">
      <stop offset="0" stop-color="#e8a423"/>
      <stop offset="0.022" stop-color="#e9a721"/>
      <stop offset="0.254" stop-color="#f3c113"/>
      <stop offset="0.492" stop-color="#fad408"/>
      <stop offset="0.737" stop-color="#fedf02"/>
      <stop offset="1" stop-color="#ffe300"/>
    </linearGradient>
    <linearGradient id="linear-gradient-2" x1="0" y1="101.543" x2="153.786" y2="101.543" gradientTransform="matrix(1, 0, 0, 1, 0, 0)" xlink:href="#linear-gradient"/>
    <linearGradient id="linear-gradient-3" x1="18.391" y1="43.034" x2="172.882" y2="43.034" gradientTransform="matrix(1, 0, 0, 1, 0, 0)" xlink:href="#linear-gradient"/>
  </defs>
  <title>5Asset 9</title>
  <g id="Layer_2" data-name="Layer 2">
    <g id="Layer_1-2" data-name="Layer 1">
      <g>
        <polygon class="cls-1" points="86.931 33.76 105.422 48.1 93.029 93.894 79.474 83.383 68.374 120.034 67.005 62.116 83.102 72.51 86.931 33.76"/>
        <path class="cls-2" d="M152.407,100.326l-3.662-.781a1.745,1.745,0,0,0-1.955,1.006A66.345,66.345,0,0,1,20.107,78.971l8.924,6.513a2.917,2.917,0,0,0,4.246-3.815l-4.766-8.256-9.14-15.83a2.917,2.917,0,0,0-5.053,0L5.179,73.413.412,81.669a2.918,2.918,0,0,0,4.247,3.815l8.312-6.067a73.492,73.492,0,0,0,140.67,23.309A1.743,1.743,0,0,0,152.407,100.326Z"/>
        <path class="cls-3" d="M168.223,56.708l-9.215,6.726A73.495,73.495,0,0,0,18.681,44.478a3.573,3.573,0,0,0,2.547,4.895h0a3.556,3.556,0,0,0,4.014-2.05A66.346,66.346,0,0,1,151.617,62.375l-7.765-5.667a2.917,2.917,0,0,0-4.247,3.815l4.766,8.255,9.14,15.83a2.917,2.917,0,0,0,5.053,0l9.14-15.83,4.766-8.255A2.917,2.917,0,0,0,168.223,56.708Z"/>
      </g>
    </g>
  </g>
</svg>
