<svg xmlns="http://www.w3.org/2000/svg" viewBox="0 0 46 64">
  <defs>
    <style>
      .cls-1 {
        fill: #f7931e;
      }
    </style>
  </defs>
  <title>8Asset 3</title>
  <g id="Layer_2" data-name="Layer 2">
    <g id="Ebene_1" data-name="Ebene 1">
      <g>
        <path class="cls-1" d="M31,23a8,8,0,1,0-8,8A8.009,8.009,0,0,0,31,23ZM19,23a4,4,0,1,1,4,4A4,4,0,0,1,19,23Z"/>
        <path class="cls-1" d="M22.966,64a2,2,0,0,0,1.5-.677c.882-1,21.6-24.682,21.534-40.3a23,23,0,1,0-46,.009C0,38.641,20.585,62.318,21.462,63.318A2,2,0,0,0,22.966,64ZM23,4A19.105,19.105,0,0,1,42,23.043C42.054,34.867,27.719,53.166,22.971,58.9,18.246,53.161,4,34.872,4,23.034A19.039,19.039,0,0,1,23,4Z"/>
      </g>
    </g>
  </g>
</svg>
