<?xml version="1.0" encoding="utf-8"?>
<!-- Generator: Adobe Illustrator 23.0.1, SVG Export Plug-In . SVG Version: 6.00 Build 0)  -->
<svg version="1.1" id="Layer_1" xmlns="http://www.w3.org/2000/svg" xmlns:xlink="http://www.w3.org/1999/xlink" x="0px" y="0px"
	 viewBox="0 0 815 176" style="enable-background:new 0 0 815 176;" xml:space="preserve">
<style type="text/css">
	.st0{fill:url(#SVGID_1_);stroke:#000000;stroke-width:0.75;stroke-miterlimit:10;}
	.st1{fill:#FAFAFA;}
	.st2{fill:#EAAE0D;}
</style>
<linearGradient id="SVGID_1_" gradientUnits="userSpaceOnUse" x1="101.0917" y1="482.3974" x2="102.0917" y2="482.3974" gradientTransform="matrix(112.2953 0 0 -146.01 -11170.002 70516.3906)">
	<stop  offset="0" style="stop-color:#E9A300"/>
	<stop  offset="1" style="stop-color:#FFE300"/>
</linearGradient>
<path class="st0" d="M293.2,95c-1.4-3.2-3.3-6.1-5.7-8.6c-3.9-4-8.9-6.9-14.3-8.3c0,0,9.3-5.2,12.1-12.3c0,0,5.4-11.7-0.2-22.3
	c-1.7-3.2-3.1-6.3-5.7-8.9c-4-4.1-9.6-6.2-15-7.1c-1.1-0.2-13.1-1-13.1-0.5V8.5h-14v18.3h-12.3V8.5h-14.3v18.7l-28.4-0.3v16.4
	c0-0.4,10.4-0.1,11.4,0.2c3,0.6,6,2.7,6.7,6c0.5,2,0.1,4.5,0.1,6.6v56.4c0,4.1-3.4,6.7-6.9,7.6c-1.3,0.3-11.3,0.3-11.3,0.2v16.2
	h28.5v18.1h14.6v-18.1h11.4v18.1h14.6v-18c0,0,15.7,0,22.6-2.7c0,0,10.1-1.2,16.2-12.6c0.9-1.5,1.5-3.1,2-4.7
	C293.7,110.1,295.8,101.1,293.2,95z M248.2,42.9c8.7,0,11.8,12.8,9.9,20c-0.9,3.8-3.2,7.1-6.4,9.4c-2.4,1.6-5.2,1.2-7.9,1.2H225
	V42.9C232.7,42.9,240.5,42.9,248.2,42.9z M266.3,104.1c-1,8.6-7,14.7-15.3,15.7c-5.4,0.6-11.1,0.1-16.5,0.1H225V88.3h17.2
	c7.9,0,16.3,0,21.3,7.7C264.9,98,266.6,101.5,266.3,104.1z"/>
<path class="st1" d="M362.2,114.2h-33.3l-7.3,24.8h-18.2l34.6-106.6h15.5l34,106.6h-18.1L362.2,114.2z M333.4,99.2h24.5l-12.1-41.8
	L333.4,99.2z"/>
<path class="st1" d="M417.7,124.6h53.8V139H397l-0.1-11.9l52.1-80.3h-51.7V32.4h72.4l0.1,11.6L417.7,124.6z"/>
<path class="st1" d="M542.3,114.2h-33.3l-7.3,24.8h-18.2l34.6-106.6h15.5l34,106.6h-18.1L542.3,114.2z M513.4,99.2h24.5l-12.1-41.8
	L513.4,99.2z"/>
<path class="st1" d="M632.3,114.2h-33.3l-7.3,24.8h-18.2l34.6-106.6h15.5l34,106.6h-18.1L632.3,114.2z M603.4,99.2h24.5l-12.1-41.8
	L603.4,99.2z"/>
<path class="st1" d="M706.3,97.4h-17.9V139h-17.6V32.4h33.7c5.5,0,10.5,0.7,15.1,2.1c4.6,1.3,8.6,3.3,12,6s6,6,7.8,10
	c1.9,4,2.8,8.7,2.8,14.1c0,3.6-0.5,6.9-1.4,9.9c-1,3-2.3,5.6-4,8c-1.7,2.4-3.8,4.5-6.2,6.3c-2.4,1.8-5,3.3-7.9,4.6l22.6,44.8v0.9
	h-18.8L706.3,97.4z M688.4,83.2h16.2c2.9,0,5.6-0.4,8.1-1.2c2.4-0.8,4.6-2,6.3-3.6c1.8-1.5,3.2-3.4,4.1-5.6c1-2.2,1.5-4.8,1.5-7.7
	c0-3-0.5-5.6-1.4-7.9c-0.9-2.3-2.3-4.2-4-5.8c-1.7-1.6-3.8-2.7-6.3-3.6c-2.5-0.8-5.3-1.2-8.3-1.3h-16.1V83.2z"/>
<path class="st2" d="M156,62.4L156,62.4c0-5-4-9-9-9H9c-5,0-9,4-9,9l0,0c0,5,4,9,9,9h138C152,71.4,156,67.4,156,62.4z"/>
<path class="st2" d="M156,113.4L156,113.4c0-5-4-9-9-9H9c-5,0-9,4-9,9l0,0c0,5,4,9,9,9h138C152,122.4,156,118.4,156,113.4z"/>
<path class="st2" d="M56.9,166.5L56.9,166.5c5,0,9-4,9-9v-138c0-5-4-9-9-9l0,0c-5,0-9,4-9,9v138C47.9,162.5,51.9,166.5,56.9,166.5z"
	/>
<path class="st2" d="M109.7,166.5L109.7,166.5c5,0,9-4,9-9v-138c0-5-4-9-9-9l0,0c-5,0-9,4-9,9v138
	C100.7,162.5,104.7,166.5,109.7,166.5z"/>
</svg>
