<svg id="Layer_1" data-name="Layer 1" xmlns="http://www.w3.org/2000/svg" viewBox="0 0 318.974 97.106">
  <defs>
    <style>
      .cls-1 {
        fill: #eaca53;
      }
    </style>
  </defs>
  <title>logo</title>
  <polygon class="cls-1" points="219.97 12.279 219.843 12.248 219.843 12.787 219.97 12.279"/>
  <path class="cls-1" d="M177.773.334H146.622a2.62,2.62,0,0,0-2.491,2.732V32.2h-3.363q-14.79,0-14.789,15.865V79.974c0,.942,1.115,1.7,2.491,1.7h9.87c1.376,0,2.492-.763,2.492-1.7v-23.9q0-7.932,7.488-7.932h29.453a19.769,19.769,0,0,0,2.17-.145c6.485-.7,9.763-4.618,9.763-11.824V12.512Q189.706.335,177.773.334ZM159.365,15.373h11.172q3.934,0,3.934,3.6v7.715a4.579,4.579,0,0,1-.191,1.224c-.411,1.556-1.63,2.373-3.743,2.373H159.365Z"/>
  <path class="cls-1" d="M217.352.334h-9.807c-1.376,0-2.491,1.487-2.491,3.32V56.993q0,8.3-6.6,8.3l-10.532.055a2.573,2.573,0,0,0-2.479,2.647V79.032a2.572,2.572,0,0,0,2.491,2.647H206.2q6.54,0,10.22-4.385,3.427-4.182,3.428-11.061V3.654C219.843,1.821,218.728.334,217.352.334Z"/>
  <path class="cls-1" d="M31.911,1.333H22.105a2.492,2.492,0,0,0-2.491,2.492V52.238q0,7.806-6.6,7.807L2.479,60.1A2.491,2.491,0,0,0,0,62.587v10.39a2.491,2.491,0,0,0,2.491,2.491H20.755a16.136,16.136,0,0,0,4.432-.637,11.838,11.838,0,0,0,5.787-3.489Q34.4,67.406,34.4,60.933V3.825A2.492,2.492,0,0,0,31.911,1.333Z"/>
  <path class="cls-1" d="M71.578,82.19a6.879,6.879,0,0,0-5.014,2.158,7.1,7.1,0,0,0-2.158,5.2,7.418,7.418,0,0,0,2.158,5.3,6.748,6.748,0,0,0,5.014,2.253,7.061,7.061,0,0,0,5.333-2.19,7.463,7.463,0,0,0,2.095-5.363,7.214,7.214,0,0,0-7.428-7.363Z"/>
  <path class="cls-1" d="M89.045,82.19a6.879,6.879,0,0,0-5.015,2.158,7.1,7.1,0,0,0-2.157,5.2,7.422,7.422,0,0,0,2.157,5.3,6.748,6.748,0,0,0,5.015,2.253,7.062,7.062,0,0,0,5.333-2.19,7.467,7.467,0,0,0,2.094-5.363,7.212,7.212,0,0,0-7.427-7.363Z"/>
  <path class="cls-1" d="M103.76,33.387H93.953a2.492,2.492,0,0,0-2.492,2.491V55.666q0,4.824-2.793,6.03a12.072,12.072,0,0,1-3.53.5c-.889.043-1.874.072-3.07.072l-7.554-.126v.126h-.063c-2.867,0-4.883-.75-6.1-2.2a6.6,6.6,0,0,1-1.386-4.4V2.491A2.491,2.491,0,0,0,64.471,0H54.6a2.492,2.492,0,0,0-2.492,2.491v59.9a19.843,19.843,0,0,0,.725,5.42C54.5,73.774,59.222,76.8,67.089,76.8H91.208q15.043,0,15.043-14.725v-26.2A2.491,2.491,0,0,0,103.76,33.387Z"/>
  <path class="cls-1" d="M295.868,32.234a7.123,7.123,0,0,0,5.2-2.221,7.265,7.265,0,0,0,2.221-5.332,7.058,7.058,0,0,0-2.221-5.142,7.41,7.41,0,0,0-12.629,5.142,7.322,7.322,0,0,0,2.19,5.332A7.087,7.087,0,0,0,295.868,32.234Z"/>
  <path class="cls-1" d="M307.23,38.074H285.268q-11.743,0-11.741,10.98V67.017H256.833v.127h-.064q-7.488,0-7.488-6.6V3.094A2.637,2.637,0,0,0,246.79.334h-9.871a2.636,2.636,0,0,0-2.491,2.76V67.271c0,.623.079,1.17.121,1.752q.559,7.755,6.055,10.76a18.189,18.189,0,0,0,8.8,1.9H307.23q11.744,0,11.744-10.918V49.054Q318.974,38.076,307.23,38.074Zm-3.936,22.338a4.655,4.655,0,0,1-4.655,4.654H293.1a4.655,4.655,0,0,1-4.655-4.654V54.87a4.655,4.655,0,0,1,4.655-4.654h5.541a4.655,4.655,0,0,1,4.655,4.654Z"/>
</svg>
