<svg id="Layer_1" data-name="Layer 1" xmlns="http://www.w3.org/2000/svg" viewBox="0 0 85.99 85.99">
  <defs>
    <style>
      .cls-1 {
        fill: #2dab58;
      }

      .cls-2 {
        fill: #f0bd38;
      }

      .cls-3 {
        fill: #e6473a;
      }

      .cls-4 {
        fill: #5782c2;
      }
    </style>
  </defs>
  <title>googleicon</title>
  <g>
    <path class="cls-1" d="M44,70.128A26.142,26.142,0,0,1,18.978,51.56L5.107,63.329a42.983,42.983,0,0,0,66.187,12.02L59.637,64.931A26.017,26.017,0,0,1,44,70.128Z"/>
    <path class="cls-2" d="M17.862,44a26.034,26.034,0,0,1,2-10.042L5.367,22.191a43.019,43.019,0,0,0-.26,41.138L18.978,51.56A26.136,26.136,0,0,1,17.862,44Z"/>
    <path class="cls-3" d="M44,17.862a26.021,26.021,0,0,1,16.511,5.88L72.1,11.357A42.989,42.989,0,0,0,5.367,22.191l14.5,11.762A26.137,26.137,0,0,1,44,17.862Z"/>
    <path class="cls-4" d="M85.2,34.806H44.531V51.56H69.012a26.178,26.178,0,0,1-9.375,13.371L71.294,75.349A42.894,42.894,0,0,0,85.2,34.806Z"/>
  </g>
</svg>
