<svg xmlns="http://www.w3.org/2000/svg" viewBox="0 0 107.999 108">
  <defs>
    <style>
      .cls-1 {
        fill: #2bace3;
      }

      .cls-2, .cls-3 {
        fill: #fff;
      }

      .cls-3 {
        opacity: 0.1;
      }
    </style>
  </defs>
  <title>6Asset 1</title>
  <g id="Layer_2" data-name="Layer 2">
    <g id="Design">
      <g>
        <path class="cls-1" d="M108,54A54,54,0,1,1,54,0a54,54,0,0,1,54,54Z"/>
        <path class="cls-2" d="M76.807,42.626c.02.491.031.991.031,1.482,0,15.121-11.506,32.552-32.546,32.552a32.393,32.393,0,0,1-17.535-5.14,23.643,23.643,0,0,0,2.722.164,22.962,22.962,0,0,0,14.213-4.9,11.441,11.441,0,0,1-10.687-7.95,10.965,10.965,0,0,0,2.154.211,11.4,11.4,0,0,0,3.009-.4A11.448,11.448,0,0,1,29,47.425v-.149a11.305,11.305,0,0,0,5.177,1.434,11.446,11.446,0,0,1-3.536-15.273,32.476,32.476,0,0,0,23.582,11.95,11.183,11.183,0,0,1-.3-2.6,11.441,11.441,0,0,1,19.788-7.827,23,23,0,0,0,7.262-2.777,11.379,11.379,0,0,1-5.029,6.326,22.831,22.831,0,0,0,6.574-1.8,23.152,23.152,0,0,1-5.709,5.923Z"/>
        <path class="cls-3" d="M54,0A54,54,0,0,0,.525,46.536c6.572-3.293,14.516-3.9,24.09-.464,27.18,9.06,53.538,28.789,81.307,22.752A53.993,53.993,0,0,0,54,0Z"/>
      </g>
    </g>
  </g>
</svg>
