<?xml version="1.0" encoding="utf-8"?>
<!-- Generator: Adobe Illustrator 23.0.1, SVG Export Plug-In . SVG Version: 6.00 Build 0)  -->
<svg version="1.1" id="Layer_1" xmlns="http://www.w3.org/2000/svg" xmlns:xlink="http://www.w3.org/1999/xlink" x="0px" y="0px"
	 viewBox="0 0 68 73" style="enable-background:new 0 0 68 73;" xml:space="preserve">
<style type="text/css">
	.st0{fill:none;stroke:#0E2738;stroke-width:1.5;stroke-linecap:round;stroke-linejoin:round;}
	.st1{fill:none;stroke:#FFCB15;stroke-width:2;stroke-linecap:round;}
</style>
<g>
	<g>
		<path class="st0" d="M25.5,66.5L17.4,71l-8.2-4.5L1,71V1l8.2,4.5L17.3,1l8.2,4.5L33.6,1l8.2,4.5L50,1v24.7 M19,20h21 M9,41h14
			 M9,49h12 M19,28h14 M13,20H9 M13,28H9"/>
		<path class="st0" d="M66.5,53c0,10.2-8.3,18.5-18.5,18.5c-10.2,0-18.5-8.3-18.5-18.5S37.8,34.5,48,34.5S66.5,42.8,66.5,53z"/>
	</g>
	<path class="st1" d="M39,49.4l8.5,12.7L56,44"/>
</g>
</svg>
