<svg xmlns="http://www.w3.org/2000/svg" viewBox="0 0 172.999 65.56">
  <defs>
    <style>
      .cls-1 {
        fill: #eaca53;
      }
    </style>
  </defs>
  <title>2Asset 6</title>
  <g id="Layer_2" data-name="Layer 2">
    <g id="Layer_1-2" data-name="Layer 1">
      <g>
        <polygon class="cls-1" points="119.303 8.29 119.235 8.269 119.235 8.633 119.303 8.29"/>
        <path class="cls-1" d="M96.417.226H79.522c-.746,0-1.351.825-1.351,1.844V21.742H76.347q-8.022,0-8.021,10.712v21.54a1.263,1.263,0,0,0,1.351,1.151h5.354a1.263,1.263,0,0,0,1.351-1.151V37.856q0-5.355,4.061-5.355H96.417a8.741,8.741,0,0,0,1.177-.1c3.518-.472,5.3-3.118,5.3-7.983V8.447Q102.889.226,96.417.226ZM86.434,10.379h6.059q2.133,0,2.134,2.428v5.209a3.77,3.77,0,0,1-.1.826,1.857,1.857,0,0,1-2.03,1.6H86.434Z"/>
        <path class="cls-1" d="M117.884.226h-5.319c-.747,0-1.352,1-1.352,2.241V38.479q0,5.6-3.581,5.6l-5.712.037a1.618,1.618,0,0,0-1.344,1.787v7.454a1.616,1.616,0,0,0,1.351,1.787h9.9a6.329,6.329,0,0,0,5.544-2.96,13.391,13.391,0,0,0,1.859-7.468V2.467C119.235,1.229,118.63.226,117.884.226Z"/>
        <path class="cls-1" d="M17.307.9H11.989a1.544,1.544,0,0,0-1.351,1.682V35.268q0,5.269-3.581,5.271l-5.712.034A1.547,1.547,0,0,0,0,42.255V49.27a1.544,1.544,0,0,0,1.351,1.682h9.906a7.158,7.158,0,0,0,2.4-.431A6.345,6.345,0,0,0,16.8,48.166a12.026,12.026,0,0,0,1.86-7.027V2.582A1.544,1.544,0,0,0,17.307.9Z"/>
        <path class="cls-1" d="M38.821,55.49A3.425,3.425,0,0,0,36.1,56.947a5.436,5.436,0,0,0-1.17,3.514,5.7,5.7,0,0,0,1.17,3.578,3.388,3.388,0,0,0,2.719,1.521,3.5,3.5,0,0,0,2.893-1.478,5.768,5.768,0,0,0,1.136-3.621,5.518,5.518,0,0,0-1.136-3.535A3.533,3.533,0,0,0,38.821,55.49Z"/>
        <path class="cls-1" d="M48.294,55.49a3.425,3.425,0,0,0-2.719,1.457,5.436,5.436,0,0,0-1.17,3.514,5.7,5.7,0,0,0,1.17,3.578,3.388,3.388,0,0,0,2.719,1.521,3.5,3.5,0,0,0,2.893-1.478,5.768,5.768,0,0,0,1.136-3.621,5.518,5.518,0,0,0-1.136-3.535A3.533,3.533,0,0,0,48.294,55.49Z"/>
        <path class="cls-1" d="M56.275,22.541H50.956a1.544,1.544,0,0,0-1.351,1.682V37.582q0,3.258-1.515,4.071a5.36,5.36,0,0,1-1.914.337c-.483.029-1.017.049-1.665.049l-4.1-.086v.086h-.034a3.7,3.7,0,0,1-3.31-1.486,5.216,5.216,0,0,1-.751-2.971V1.682A1.544,1.544,0,0,0,34.967,0H29.613a1.544,1.544,0,0,0-1.351,1.682V42.125a16.492,16.492,0,0,0,.393,3.659c.9,4.024,3.465,6.068,7.731,6.068H49.468q8.158,0,8.158-9.941V24.223A1.543,1.543,0,0,0,56.275,22.541Z"/>
        <path class="cls-1" d="M160.468,21.763a3.545,3.545,0,0,0,2.822-1.5,5.561,5.561,0,0,0,1.205-3.6,5.379,5.379,0,0,0-1.205-3.471,3.422,3.422,0,0,0-5.662,0,5.436,5.436,0,0,0-1.187,3.471,5.622,5.622,0,0,0,1.187,3.6A3.528,3.528,0,0,0,160.468,21.763Z"/>
        <path class="cls-1" d="M166.63,25.706H154.719q-6.369,0-6.368,7.412V45.246H139.3v.086h-.034q-4.062,0-4.061-4.457V2.089c0-1.029-.6-1.863-1.352-1.863H128.5c-.746,0-1.351.834-1.351,1.863V45.418c0,.42.043.789.066,1.182q.3,5.236,3.284,7.265a8.29,8.29,0,0,0,4.774,1.28H166.63q6.369,0,6.369-7.371V33.118Q173,25.707,166.63,25.706ZM164.5,40.786c0,1.736-1.13,3.143-2.525,3.143h-3c-1.394,0-2.524-1.407-2.524-3.143V37.045c0-1.735,1.13-3.142,2.524-3.142h3c1.4,0,2.525,1.407,2.525,3.142Z"/>
      </g>
    </g>
  </g>
</svg>
