<svg id="Layer_1" data-name="Layer 1" xmlns="http://www.w3.org/2000/svg" xmlns:xlink="http://www.w3.org/1999/xlink" viewBox="0 0 337.693 337.692">
  <defs>
    <style>
      .cls-1 {
        fill: url(#linear-gradient);
      }

      .cls-2, .cls-3 {
        fill: none;
        stroke-width: 3px;
      }

      .cls-2 {
        stroke: #f7941d;
      }

      .cls-2, .cls-3, .cls-4, .cls-5 {
        stroke-miterlimit: 10;
      }

      .cls-3 {
        stroke: #231f20;
      }

      .cls-4, .cls-5 {
        stroke: #010101;
        stroke-width: 0.75px;
      }

      .cls-4 {
        fill: url(#linear-gradient-2);
      }

      .cls-5 {
        fill: url(#linear-gradient-3);
      }
    </style>
    <linearGradient id="linear-gradient" x1="168.846" y1="7.792" x2="168.846" y2="337.879" gradientUnits="userSpaceOnUse">
      <stop offset="0" stop-color="#323232"/>
      <stop offset="1" stop-color="#1f1f1f"/>
    </linearGradient>
    <linearGradient id="linear-gradient-2" x1="-134.327" y1="586.369" x2="-134.327" y2="585.369" gradientTransform="matrix(112.295, 0, 0, -146.01, 15335.373, 85704.914)" gradientUnits="userSpaceOnUse">
      <stop offset="0" stop-color="#e8a423"/>
      <stop offset="1" stop-color="#ffe300"/>
    </linearGradient>
    <linearGradient id="linear-gradient-3" x1="102.991" y1="97.158" x2="102.991" y2="241.201" gradientTransform="matrix(1, 0, 0, 1, 0, 0)" xlink:href="#linear-gradient-2"/>
  </defs>
  <title>favicon</title>
  <circle class="cls-1" cx="168.846" cy="168.846" r="165.044"/>
  <circle class="cls-2" cx="168.846" cy="168.846" r="165.044"/>
  <circle class="cls-3" cx="168.846" cy="168.847" r="167.346"/>
  <path class="cls-4" d="M306.045,175.62a30.172,30.172,0,0,0-5.69-8.62,30.969,30.969,0,0,0-14.32-8.27s9.33-5.22,12.11-12.29c0,0,5.35-11.65-.2-22.27-1.69-3.23-3.13-6.27-5.72-8.88-4.04-4.09-9.59-6.2-15.04-7.14-1.13-.2-13.14-1-13.14-.54V89.2H250v18.32h-12.32V89.2h-14.29v18.73l-28.41-.33v16.42c0-.41,10.43-.06,11.41.16,2.99.64,5.97,2.72,6.71,5.97.47,2.02.1,4.53.1,6.64v56.36c0,4.12-3.35,6.72-6.89,7.56-1.26.3-11.34.29-11.34.23V217.1h28.47v18.11h14.64V217.1H249.5v18.11h14.6V217.17s15.67,0,22.62-2.72c0,0,10.13-1.24,16.18-12.6a21.254,21.254,0,0,0,1.99-4.74C306.565,190.8,308.615,181.77,306.045,175.62Zm-45-52.1c8.68-.02,11.83,12.85,9.92,20a16.173,16.173,0,0,1-6.35,9.4c-2.4,1.62-5.22,1.22-7.94,1.22h-18.82v-30.6Q249.45,123.555,261.045,123.52Zm18.07,61.21c-1.03,8.62-7.04,14.73-15.26,15.71-5.38.64-11.05.11-16.47.11h-9.53V168.92h17.19c7.94,0,16.31,0,21.34,7.7C277.715,178.65,279.4,182.12,279.115,184.73Z"/>
  <path class="cls-5" d="M166.693,183.815H138.734V153.4h27.959a8.32,8.32,0,1,0,0-16.639H138.734V105.477a8.32,8.32,0,0,0-16.639,0V136.76H89.953V105.477a8.32,8.32,0,0,0-16.639,0V136.76H39.288a8.32,8.32,0,0,0,0,16.639H73.314v30.416H39.288a8.32,8.32,0,0,0,0,16.639H73.314v32.428a8.32,8.32,0,0,0,16.639,0V200.454H122.1v32.428a8.32,8.32,0,0,0,16.639,0V200.454h27.959a8.32,8.32,0,1,0,0-16.639Zm-76.74,0V153.4H122.1v30.416Z"/>
</svg>
