<?xml version="1.0" encoding="utf-8"?>
<!-- Generator: Adobe Illustrator 23.0.1, SVG Export Plug-In . SVG Version: 6.00 Build 0)  -->
<svg version="1.1" id="Layer_1" xmlns="http://www.w3.org/2000/svg" xmlns:xlink="http://www.w3.org/1999/xlink" x="0px" y="0px"
	 viewBox="0 0 20 14" style="enable-background:new 0 0 20 14;" xml:space="preserve">
<style type="text/css">
	.st0{fill:#0E2738;stroke:url(#path_1_);stroke-width:0.25;stroke-miterlimit:10;}
</style>
<linearGradient id="path_1_" gradientUnits="userSpaceOnUse" x1="-0.125" y1="7" x2="20.125" y2="7">
	<stop  offset="0" style="stop-color:#E8A524"/>
	<stop  offset="2.200000e-02" style="stop-color:#E9A823"/>
	<stop  offset="0.254" style="stop-color:#F2C119"/>
	<stop  offset="0.492" style="stop-color:#F9D40C"/>
	<stop  offset="0.737" style="stop-color:#FEDF00"/>
	<stop  offset="1" style="stop-color:#FFE300"/>
</linearGradient>
<path id="path" class="st0" d="M7,8c0.8,0,1.6,0.1,2.4,0.3C7.8,9.2,7,10.3,7,11.8V14H0v-2.5c0-0.8,0.5-1.6,1.3-1.9
	c0.8-0.6,1.8-1,2.8-1.2C5.1,8.2,6,8,7,8z M9.1,5.1C8,6.3,6.2,6.3,5,5.2c0,0-0.1-0.1-0.1-0.1C3.7,4,3.7,2.2,4.8,1
	c0,0,0.1-0.1,0.1-0.1C6-0.3,7.8-0.3,9,0.8c0,0,0.1,0.1,0.1,0.1C10.3,2,10.3,3.8,9.1,5.1C9.2,5,9.1,5.1,9.1,5.1z M10.9,9.8
	C12,9.3,13.3,9,14.5,9c1.2,0,2.5,0.3,3.6,0.8c1.2,0.5,1.9,1.2,1.9,2V14H9v-2.2C9,10.9,9.6,10.3,10.9,9.8L10.9,9.8z M16.3,6.3
	C15.8,6.8,15.2,7,14.5,7C13.1,7,12,5.8,12,4.4c0-0.6,0.3-1.2,0.7-1.7c0.5-0.5,1.1-0.8,1.8-0.8c0.7,0,1.4,0.3,1.8,0.8
	C16.8,3.2,17,3.8,17,4.5C17,5.2,16.7,5.8,16.3,6.3L16.3,6.3z"/>
</svg>
