<svg id="Layer_1" data-name="Layer 1" xmlns="http://www.w3.org/2000/svg" xmlns:xlink="http://www.w3.org/1999/xlink" viewBox="0 0 212.523 123.47">
  <defs>
    <style>
      .cls-1, .cls-10, .cls-11, .cls-12, .cls-13, .cls-14, .cls-15, .cls-17, .cls-18, .cls-2, .cls-20, .cls-21, .cls-3, .cls-4, .cls-5, .cls-6, .cls-7, .cls-8, .cls-9 {
        fill: #fff;
      }

      .cls-10, .cls-11, .cls-12, .cls-13, .cls-14, .cls-15, .cls-17, .cls-18, .cls-2, .cls-20, .cls-21, .cls-3, .cls-4, .cls-5, .cls-6, .cls-7, .cls-8, .cls-9 {
        stroke-miterlimit: 10;
      }

      .cls-2 {
        stroke: url(#linear-gradient);
      }

      .cls-11, .cls-13, .cls-15, .cls-18, .cls-21, .cls-3, .cls-5, .cls-7, .cls-9 {
        stroke-width: 0.75px;
      }

      .cls-3 {
        stroke: url(#linear-gradient-2);
      }

      .cls-4 {
        stroke: url(#linear-gradient-3);
      }

      .cls-5 {
        stroke: url(#linear-gradient-4);
      }

      .cls-6 {
        stroke: url(#linear-gradient-5);
      }

      .cls-7 {
        stroke: url(#linear-gradient-6);
      }

      .cls-8 {
        stroke: url(#linear-gradient-7);
      }

      .cls-9 {
        stroke: url(#linear-gradient-8);
      }

      .cls-10 {
        stroke: url(#linear-gradient-9);
      }

      .cls-11 {
        stroke: url(#linear-gradient-10);
      }

      .cls-12 {
        stroke: url(#linear-gradient-11);
      }

      .cls-13 {
        stroke: url(#linear-gradient-12);
      }

      .cls-14 {
        stroke: url(#linear-gradient-13);
      }

      .cls-15 {
        stroke: url(#linear-gradient-14);
      }

      .cls-16 {
        opacity: 0.75;
      }

      .cls-17 {
        stroke: url(#linear-gradient-15);
      }

      .cls-18 {
        stroke: url(#linear-gradient-16);
      }

      .cls-19 {
        opacity: 0.7;
      }

      .cls-20 {
        stroke: url(#linear-gradient-17);
      }

      .cls-21 {
        stroke: url(#linear-gradient-18);
      }
    </style>
    <linearGradient id="linear-gradient" x1="63.972" y1="99.897" x2="58.525" y2="99.897" gradientTransform="matrix(1, 0, 0, -1, 0, 123.89)" gradientUnits="userSpaceOnUse">
      <stop offset="0" stop-color="#e8a423"/>
      <stop offset="0.022" stop-color="#e9a721"/>
      <stop offset="0.254" stop-color="#f3c113"/>
      <stop offset="0.492" stop-color="#fad408"/>
      <stop offset="0.737" stop-color="#fedf02"/>
      <stop offset="1" stop-color="#ffe300"/>
    </linearGradient>
    <linearGradient id="linear-gradient-2" x1="63.888" y1="99.828" x2="58.924" y2="99.828" xlink:href="#linear-gradient"/>
    <linearGradient id="linear-gradient-3" x1="63.972" y1="9.597" x2="58.525" y2="9.597" xlink:href="#linear-gradient"/>
    <linearGradient id="linear-gradient-4" x1="63.888" y1="9.528" x2="58.924" y2="9.528" xlink:href="#linear-gradient"/>
    <linearGradient id="linear-gradient-5" x1="153.776" y1="9.597" x2="148.329" y2="9.597" xlink:href="#linear-gradient"/>
    <linearGradient id="linear-gradient-6" x1="153.692" y1="9.528" x2="148.728" y2="9.528" xlink:href="#linear-gradient"/>
    <linearGradient id="linear-gradient-7" x1="153.776" y1="99.897" x2="148.329" y2="99.897" xlink:href="#linear-gradient"/>
    <linearGradient id="linear-gradient-8" x1="153.692" y1="99.828" x2="148.728" y2="99.828" xlink:href="#linear-gradient"/>
    <linearGradient id="linear-gradient-9" x1="148.659" y1="54.162" x2="63.75" y2="54.162" xlink:href="#linear-gradient"/>
    <linearGradient id="linear-gradient-10" x1="100.247" y1="115.263" x2="112.12" y2="115.263" xlink:href="#linear-gradient"/>
    <linearGradient id="linear-gradient-11" x1="207.915" y1="17.216" x2="203.513" y2="17.216" xlink:href="#linear-gradient"/>
    <linearGradient id="linear-gradient-12" x1="207.831" y1="17.162" x2="203.842" y2="17.162" xlink:href="#linear-gradient"/>
    <linearGradient id="linear-gradient-13" x1="207.915" y1="87.588" x2="203.513" y2="87.588" xlink:href="#linear-gradient"/>
    <linearGradient id="linear-gradient-14" x1="207.831" y1="87.534" x2="203.842" y2="87.534" xlink:href="#linear-gradient"/>
    <linearGradient id="linear-gradient-15" x1="202.958" y1="51.946" x2="160.553" y2="51.946" xlink:href="#linear-gradient"/>
    <linearGradient id="linear-gradient-16" x1="165.038" y1="99.563" x2="174.456" y2="99.563" xlink:href="#linear-gradient"/>
    <linearGradient id="linear-gradient-17" x1="-69.775" y1="50.945" x2="-112.171" y2="50.945" gradientTransform="translate(-60.206 123.89) rotate(180)" xlink:href="#linear-gradient"/>
    <linearGradient id="linear-gradient-18" x1="-107.692" y1="98.563" x2="-98.274" y2="98.563" gradientTransform="translate(-60.206 123.89) rotate(180)" xlink:href="#linear-gradient"/>
  </defs>
  <title>hashbazaar-mine</title>
  <g id="Layer_1-2" data-name="Layer 1-2">
    <g>
      <g>
        <path class="cls-1" d="M122.39,83.061l-4.158-6.28c-5.121-7.736-17.925-7.736-23.047,0l-4.158,6.28L75.346,106.745h3.865L92.96,84.361l3.645-5.935c4.491-7.31,15.717-7.31,20.207,0l3.646,5.935,13.749,22.384h3.864Z" transform="translate(0 0)"/>
        <path class="cls-1" d="M90.183,54.987l4.158,6.28c5.122,7.735,17.925,7.735,23.047,0l4.158-6.28L137.227,31.3h-3.864L119.614,53.686l-3.646,5.935c-4.49,7.311-15.716,7.311-20.207,0l-3.645-5.935L78.366,31.3H74.5Z" transform="translate(0 0)"/>
        <polygon class="cls-1" points="60.65 0 60.65 14.511 63.023 14.511 63.023 2.394 149.001 2.394 149.001 14.511 151.923 14.511 151.923 0 60.65 0"/>
        <g>
          <path class="cls-1" d="M61.408,18.7a5.361,5.361,0,1,0,5.361,5.361h0A5.361,5.361,0,0,0,61.408,18.7Zm0,8.582a3.221,3.221,0,1,1,3.221-3.221h0a3.221,3.221,0,0,1-3.219,3.223h0Z" transform="translate(0 0)"/>
          <line class="cls-2" x1="58.882" y1="21.584" x2="63.615" y2="26.402"/>
          <line class="cls-3" x1="63.615" y1="21.721" x2="59.197" y2="26.402"/>
        </g>
        <g>
          <path class="cls-1" d="M61.408,109a5.361,5.361,0,1,0,5.361,5.361h0a5.36,5.36,0,0,0-5.36-5.36Zm0,8.581a3.221,3.221,0,1,1,3.221-3.221h0a3.221,3.221,0,0,1-3.218,3.224h0Z" transform="translate(0 0)"/>
          <line class="cls-4" x1="58.882" y1="111.884" x2="63.615" y2="116.702"/>
          <line class="cls-5" x1="63.615" y1="112.021" x2="59.197" y2="116.702"/>
        </g>
        <g>
          <path class="cls-1" d="M151.212,109a5.361,5.361,0,1,0,5.36,5.362v0A5.362,5.362,0,0,0,151.212,109Zm0,8.581a3.221,3.221,0,1,1,3.221-3.221h0a3.221,3.221,0,0,1-3.218,3.224h0Z" transform="translate(0 0)"/>
          <line class="cls-6" x1="148.686" y1="111.884" x2="153.419" y2="116.702"/>
          <line class="cls-7" x1="153.419" y1="112.021" x2="149.001" y2="116.702"/>
        </g>
        <g>
          <path class="cls-1" d="M151.212,18.7a5.361,5.361,0,1,0,5.36,5.362h0A5.362,5.362,0,0,0,151.212,18.7Zm0,8.582a3.221,3.221,0,1,1,3.221-3.221h0a3.221,3.221,0,0,1-3.219,3.223h0Z" transform="translate(0 0)"/>
          <line class="cls-8" x1="148.686" y1="21.584" x2="153.419" y2="26.402"/>
          <line class="cls-9" x1="153.419" y1="21.721" x2="149.001" y2="26.402"/>
        </g>
        <path class="cls-1" d="M156.71,14.511H56.015a4.331,4.331,0,0,0-4.365,4.3V119.17a4.331,4.331,0,0,0,4.362,4.3h100.7a4.33,4.33,0,0,0,4.365-4.3V18.806a4.33,4.33,0,0,0-4.365-4.3Zm1.484,104.659a1.473,1.473,0,0,1-1.484,1.46H56.015a1.473,1.473,0,0,1-1.484-1.46V18.806a1.475,1.475,0,0,1,1.484-1.461h100.7a1.473,1.473,0,0,1,1.484,1.461Z" transform="translate(0 0)"/>
        <path class="cls-1" d="M106.287,18.749a50.239,50.239,0,1,0,50.238,50.24h0A50.239,50.239,0,0,0,106.287,18.749Zm0,97.643a47.4,47.4,0,1,1,47.4-47.4A47.4,47.4,0,0,1,106.287,116.392Z" transform="translate(0 0)"/>
        <path class="cls-1" d="M106.287,22.436a46.552,46.552,0,1,0,46.551,46.553h0A46.552,46.552,0,0,0,106.287,22.436Zm0,90.477a43.925,43.925,0,1,1,43.925-43.925A43.925,43.925,0,0,1,106.287,112.913Z" transform="translate(0 0)"/>
        <path class="cls-1" d="M106.287,28.973A40.015,40.015,0,1,0,146.3,68.99v0A40.015,40.015,0,0,0,106.287,28.973Zm0,77.772a37.757,37.757,0,1,1,37.757-37.757h0A37.8,37.8,0,0,1,106.287,106.745Z" transform="translate(0 0)"/>
        <path class="cls-1" d="M106.287,50.572A18.416,18.416,0,1,0,124.7,68.991v0A18.416,18.416,0,0,0,106.287,50.572Zm0,35.792a17.377,17.377,0,1,1,17.376-17.378v0A17.4,17.4,0,0,1,106.287,86.364Z" transform="translate(0 0)"/>
        <path class="cls-1" d="M106.287,35.3a33.685,33.685,0,1,0,33.685,33.685h0A33.685,33.685,0,0,0,106.287,35.3Zm0,65.469a31.785,31.785,0,1,1,31.784-31.786v0a31.82,31.82,0,0,1-31.784,31.787Z" transform="translate(0 0)"/>
        <path class="cls-1" d="M106.287,41.072A27.916,27.916,0,1,0,134.2,68.991v0A27.917,27.917,0,0,0,106.287,41.072Zm0,54.257a26.341,26.341,0,1,1,26.341-26.341A26.341,26.341,0,0,1,106.287,95.329Z" transform="translate(0 0)"/>
        <path class="cls-1" d="M106.287,46.705A22.283,22.283,0,1,0,128.57,68.988h0A22.282,22.282,0,0,0,106.287,46.705Zm0,43.309a21.026,21.026,0,1,1,21.026-21.026A21.026,21.026,0,0,1,106.287,90.014Z" transform="translate(0 0)"/>
        <path class="cls-1" d="M106.287,57.661a11.327,11.327,0,1,0,11.327,11.327h0A11.328,11.328,0,0,0,106.287,57.661Zm0,22.015a10.688,10.688,0,1,1,10.688-10.688A10.688,10.688,0,0,1,106.287,79.676Z" transform="translate(0 0)"/>
        <path class="cls-10" d="M148.082,69.484c-.035-.609-.07-1.218-.061-1.828a2.936,2.936,0,0,0-.249-1.538,1.535,1.535,0,0,0-.7-.616c-.941-.447-1.54-.026-2.312.488a10.193,10.193,0,0,1-1.514.758c-.964.428-1.959.78-2.947,1.148-2.323.864-4.676,1.648-7.035,2.408q-2.576.831-5.164,1.622l-2.647.8a11.293,11.293,0,0,0-1.8.471,17.722,17.722,0,0,0,.5-3.718c.138-.053.273-.111.411-.165a50.385,50.385,0,0,0,9.22-7.585A109.151,109.151,0,0,0,143.2,50.814a.6.6,0,0,0,.109-.184.567.567,0,0,0,.006-.232,6.645,6.645,0,0,0-.811-2.271,22.179,22.179,0,0,0-3.13-4.449c-.4-.388-.752-.847-1.136-1.255-.417-.445-.836-.889-1.221-1.361a2.929,2.929,0,0,0-1.179-1.019,1.551,1.551,0,0,0-.934-.021c-1.008.263-1.2.971-1.457,1.86a10.185,10.185,0,0,1-.673,1.554c-.463.948-1,1.857-1.52,2.774-1.224,2.155-2.523,4.268-3.841,6.367q-1.44,2.292-2.913,4.562-.753,1.159-1.516,2.312c-.172.259-.609.741-.894,1.18a17.772,17.772,0,0,0-2.068-3.065c.028-.05.054-.1.081-.151a50.248,50.248,0,0,0,2.187-11.738,109.191,109.191,0,0,0,.2-14.414.6.6,0,0,0-.035-.21.57.57,0,0,0-.145-.182,6.65,6.65,0,0,0-2.081-1.219,22.26,22.26,0,0,0-5.257-1.4c-.558-.038-1.121-.165-1.677-.231-.6-.073-1.211-.144-1.811-.258a2.929,2.929,0,0,0-1.557-.022,1.529,1.529,0,0,0-.729.584c-.6.85-.293,1.513.079,2.361a10.224,10.224,0,0,1,.484,1.623c.254,1.024.428,2.065.618,3.1.447,2.438.811,4.891,1.15,7.346q.37,2.682.7,5.368.168,1.371.325,2.745c.035.306.01.946.072,1.463a17.616,17.616,0,0,0-3.535-.922c-.017-.083-.036-.166-.053-.249a50.3,50.3,0,0,0-5.869-10.4A109.024,109.024,0,0,0,94.043,29.6a.584.584,0,0,0-.162-.139.56.56,0,0,0-.228-.046,6.64,6.64,0,0,0-2.377.4,22.171,22.171,0,0,0-4.924,2.31c-.453.329-.965.593-1.434.9-.51.334-1.02.669-1.553.967a2.954,2.954,0,0,0-1.207.984,1.53,1.53,0,0,0-.183.916c.084,1.039.748,1.347,1.578,1.758a10.276,10.276,0,0,1,1.414.932c.853.621,1.655,1.307,2.468,1.979,1.909,1.58,3.765,3.226,5.6,4.889q2.007,1.815,3.987,3.661,1.011.942,2.013,1.894a14.191,14.191,0,0,0,1.23,1.271A17.664,17.664,0,0,0,97,53.86c-.157-.126-.317-.246-.474-.372A50.349,50.349,0,0,0,85.353,49.3a109.526,109.526,0,0,0-14.16-2.7.592.592,0,0,0-.214,0,.568.568,0,0,0-.2.11,6.64,6.64,0,0,0-1.561,1.838,22.173,22.173,0,0,0-2.288,4.935c-.135.543-.358,1.075-.519,1.611-.177.584-.352,1.169-.568,1.739a2.931,2.931,0,0,0-.293,1.53,1.533,1.533,0,0,0,.45.817c.732.742,1.439.551,2.339.333a10.23,10.23,0,0,1,1.682-.2c1.053-.073,2.108-.063,3.163-.071,2.478-.017,4.957.051,7.434.143q2.7.1,5.408.242,1.38.074,2.759.157c.474.029,1.711.34,2.138.1a.536.536,0,0,0,.155-.156c.118-.159.252-.3.376-.454a17.7,17.7,0,0,0-1.934,3.987c-.353.01-.7.026-1.058.035A50.336,50.336,0,0,0,77.2,67.277a109.462,109.462,0,0,0-12.582,7.035.615.615,0,0,0-.165.136.6.6,0,0,0-.085.216,6.651,6.651,0,0,0-.015,2.412,22.161,22.161,0,0,0,1.42,5.25c.246.5.417,1.054.638,1.569.24.56.481,1.121.682,1.7a2.949,2.949,0,0,0,.76,1.36,1.534,1.534,0,0,0,.87.339c1.038.1,1.457-.5,2.006-1.249a10.18,10.18,0,0,1,1.163-1.231c.76-.732,1.575-1.4,2.378-2.086,1.887-1.607,3.83-3.148,5.786-4.669q2.138-1.662,4.3-3.291,1.1-.831,2.215-1.654c.382-.282,1.529-.839,1.7-1.3a.541.541,0,0,0,.018-.219,13.655,13.655,0,0,1,.332-3.855c-.028.414-.063.826-.063,1.247a17.713,17.713,0,0,0,1.084,6.067c-.353.32-.706.639-1.063.955a50.32,50.32,0,0,0-6.07,10.282,109.09,109.09,0,0,0-5.115,13.476.449.449,0,0,0,.034.431,6.616,6.616,0,0,0,1.539,1.856,22.224,22.224,0,0,0,4.463,3.11c.511.227,1,.539,1.5.792.545.274,1.09.549,1.614.861A2.917,2.917,0,0,0,88,107.37a1.523,1.523,0,0,0,.884-.3c.858-.592.793-1.322.734-2.246a10.288,10.288,0,0,1,.1-1.691c.112-1.049.3-2.087.48-3.126.414-2.444.911-4.874,1.432-7.3q.569-2.646,1.177-5.283.312-1.347.634-2.691c.111-.461.631-1.625.471-2.087a.556.556,0,0,0-.127-.18,13.493,13.493,0,0,1-2.9-4.7,17.865,17.865,0,0,0,6.171,6.378q-.1.762-.215,1.521A50.273,50.273,0,0,0,98.8,97.444a108.973,108.973,0,0,0,4.744,13.612.581.581,0,0,0,.105.186.565.565,0,0,0,.2.122,6.655,6.655,0,0,0,2.372.433,22.153,22.153,0,0,0,5.417-.487c.538-.154,1.11-.227,1.656-.355.593-.14,1.187-.28,1.789-.378a2.917,2.917,0,0,0,1.472-.512,1.531,1.531,0,0,0,.485-.8c.276-1-.242-1.521-.882-2.192a10.141,10.141,0,0,1-1.01-1.359c-.589-.875-1.108-1.794-1.642-2.7-1.254-2.137-2.435-4.319-3.593-6.509q-1.266-2.394-2.5-4.8-.627-1.233-1.244-2.469c-.211-.424-.561-1.651-.981-1.9a.538.538,0,0,0-.212-.056,13.482,13.482,0,0,1-5.387-1.821,17.312,17.312,0,0,0,9.081,1.174c.235.376.472.75.7,1.128a50.37,50.37,0,0,0,9.072,7.763,109.13,109.13,0,0,0,12.384,7.378.57.57,0,0,0,.2.075.546.546,0,0,0,.23-.034,6.634,6.634,0,0,0,2.1-1.193,22.22,22.22,0,0,0,3.837-3.855c.313-.464.7-.888,1.04-1.336.365-.489.73-.978,1.128-1.44a2.938,2.938,0,0,0,.8-1.338,1.54,1.54,0,0,0-.141-.923c-.434-.947-1.164-1.01-2.085-1.112a10.223,10.223,0,0,1-1.647-.392c-1.014-.292-2-.662-3-1.016-2.335-.832-4.641-1.743-6.937-2.677q-2.506-1.02-5-2.077-1.272-.54-2.539-1.091c-.435-.189-1.492-.9-1.974-.826a.51.51,0,0,0-.2.093,13.707,13.707,0,0,1-3.033,1.488,17.837,17.837,0,0,0,5.854-4.225c.285.095.572.184.857.279a50.3,50.3,0,0,0,11.939.116A109.451,109.451,0,0,0,146.489,79.1a.621.621,0,0,0,.2-.071.584.584,0,0,0,.154-.174,6.67,6.67,0,0,0,.839-2.262,22.213,22.213,0,0,0,.461-5.419C148.086,70.62,148.113,70.043,148.082,69.484Z" transform="translate(0 0)"/>
        <rect class="cls-11" x="100.622" y="3.392" width="11.123" height="10.469"/>
        <polygon class="cls-1" points="108.383 5.12 104.077 5.12 104.077 7.255 102.601 7.255 102.601 13.055 109.921 13.055 109.921 7.255 108.397 7.255 108.383 5.12"/>
      </g>
      <g>
        <path class="cls-1" d="M205.838,102.551a4.178,4.178,0,1,0,4.178,4.178h0a4.177,4.177,0,0,0-4.176-4.178Zm0,6.688a2.51,2.51,0,1,1,2.51-2.51h0A2.51,2.51,0,0,1,205.838,109.239Z" transform="translate(0 0)"/>
        <line class="cls-12" x1="203.87" y1="104.797" x2="207.558" y2="108.551"/>
        <line class="cls-13" x1="207.558" y1="104.904" x2="204.115" y2="108.551"/>
      </g>
      <g>
        <path class="cls-1" d="M205.838,32.179a4.178,4.178,0,1,0,4.178,4.178h0a4.177,4.177,0,0,0-4.176-4.178Zm0,6.688a2.511,2.511,0,1,1,2.51-2.512v0A2.51,2.51,0,0,1,205.838,38.867Z" transform="translate(0 0)"/>
        <line class="cls-14" x1="203.87" y1="34.424" x2="207.558" y2="38.179"/>
        <line class="cls-15" x1="207.558" y1="34.532" x2="204.115" y2="38.179"/>
      </g>
      <g class="cls-16">
        <path class="cls-1" d="M182.377,82.334l-3.24-4.894c-3.991-6.028-13.97-6.028-17.961,0l-.12.182v3.1l1.227-2a9.391,9.391,0,0,1,15.747,0l2.841,4.626,10.715,17.443H194.6Z" transform="translate(0 0)"/>
        <path class="cls-1" d="M190.928,42,180.214,59.442l-2.842,4.625a9.39,9.39,0,0,1-15.747,0l-.569-.926v2.907c4.28,5.3,13.6,5.082,17.423-.7l3.24-4.894L193.94,42Z" transform="translate(0 0)"/>
        <polygon class="cls-1" points="161.056 17.604 161.056 19.47 203.115 19.47 203.115 28.912 205.393 28.912 205.393 17.604 161.056 17.604"/>
        <path class="cls-1" d="M209.123,28.912H161.056v2.209h48.067a1.149,1.149,0,0,1,1.157,1.139v78.215a1.148,1.148,0,0,1-1.157,1.137H161.056v2.21h48.067a3.374,3.374,0,0,0,3.4-3.347V32.26A3.375,3.375,0,0,0,209.123,28.912Z" transform="translate(0 0)"/>
        <path class="cls-1" d="M169.827,32.215a39.232,39.232,0,0,0-8.771,1v2.271a36.943,36.943,0,1,1,0,71.764v2.271a39.15,39.15,0,1,0,8.771-77.3Z" transform="translate(0 0)"/>
        <path class="cls-1" d="M169.827,35.089a36.321,36.321,0,0,0-8.771,1.074V38.28a34.231,34.231,0,1,1,0,66.174v2.117a36.279,36.279,0,1,0,8.771-71.482Z" transform="translate(0 0)"/>
        <path class="cls-1" d="M169.827,40.183a31.148,31.148,0,0,0-8.771,1.26v1.835a29.424,29.424,0,1,1,0,56.178v1.836a31.184,31.184,0,1,0,8.771-61.109Z" transform="translate(0 0)"/>
        <path class="cls-1" d="M169.828,57.016a14.27,14.27,0,0,0-8.772,3.01v1.043a13.542,13.542,0,1,1,0,20.6v1.044a14.346,14.346,0,1,0,8.772-25.693Z" transform="translate(0 0)"/>
        <path class="cls-1" d="M169.828,45.116a26.189,26.189,0,0,0-8.772,1.507v1.584a24.77,24.77,0,1,1,0,46.321v1.584a26.252,26.252,0,1,0,8.772-51Z" transform="translate(0 0)"/>
        <path class="cls-1" d="M169.828,49.612a21.648,21.648,0,0,0-8.772,1.847v1.377a20.528,20.528,0,1,1,0,37.062v1.378a21.755,21.755,0,1,0,8.772-41.664Z" transform="translate(0 0)"/>
        <path class="cls-1" d="M169.828,54a17.254,17.254,0,0,0-8.772,2.4v1.15a16.386,16.386,0,1,1,0,27.634v1.153A17.359,17.359,0,1,0,169.828,54Z" transform="translate(0 0)"/>
        <path class="cls-1" d="M161,71.367a8.983,8.983,0,0,0,.056.97V70.4A8.927,8.927,0,0,0,161,71.367Z" transform="translate(0 0)"/>
        <path class="cls-1" d="M169.828,62.54a8.826,8.826,0,0,0-8.772,7.857v1.94a8.826,8.826,0,1,0,8.772-9.8Zm0,17.156a8.329,8.329,0,1,1,8.329-8.329h0a8.339,8.339,0,0,1-8.329,8.333Z" transform="translate(0 0)"/>
        <path class="cls-17" d="M202.4,71.754c-.027-.475-.054-.949-.048-1.425a2.281,2.281,0,0,0-.193-1.2,1.2,1.2,0,0,0-.547-.48c-.734-.349-1.2-.02-1.8.38a7.978,7.978,0,0,1-1.18.591c-.751.333-1.527.608-2.3.894-1.81.673-3.644,1.284-5.482,1.877q-2.008.646-4.025,1.264-1.03.315-2.063.621a8.756,8.756,0,0,0-1.406.367,13.829,13.829,0,0,0,.387-2.9c.107-.042.213-.087.319-.129a39.167,39.167,0,0,0,7.186-5.912,85.148,85.148,0,0,0,7.338-8.5.33.33,0,0,0,.085-.325,5.227,5.227,0,0,0-.632-1.77,17.307,17.307,0,0,0-2.44-3.466c-.313-.3-.586-.66-.885-.979-.325-.346-.651-.692-.952-1.061a2.29,2.29,0,0,0-.919-.793,1.188,1.188,0,0,0-.727-.016c-.786.2-.933.756-1.136,1.449a7.92,7.92,0,0,1-.524,1.211c-.361.739-.779,1.447-1.185,2.162-.954,1.679-1.966,3.326-2.993,4.961q-1.122,1.786-2.27,3.556-.588.9-1.182,1.8c-.133.2-.474.578-.7.92a13.855,13.855,0,0,0-1.612-2.388c.022-.039.042-.079.063-.118a39.219,39.219,0,0,0,1.7-9.148,85.242,85.242,0,0,0,.154-11.233.482.482,0,0,0-.027-.164.454.454,0,0,0-.113-.141,5.176,5.176,0,0,0-1.622-.95,17.321,17.321,0,0,0-4.1-1.088c-.434-.03-.873-.129-1.307-.18-.472-.057-.944-.112-1.411-.2a2.275,2.275,0,0,0-1.214-.017,1.194,1.194,0,0,0-.568.455c-.47.662-.228,1.179.062,1.84a8.1,8.1,0,0,1,.377,1.265c.2.8.333,1.609.482,2.417.348,1.9.632,3.812.9,5.725q.29,2.09.546,4.183.132,1.069.253,2.139c.027.239.008.738.056,1.141A13.716,13.716,0,0,0,172,57.67c-.013-.065-.027-.129-.041-.194a39.2,39.2,0,0,0-4.574-8.1,82.68,82.68,0,0,0-6.332-7.847V54.451c.518.475,1.04.947,1.554,1.426s1.048.982,1.569,1.477a11.191,11.191,0,0,0,.958.99,13.867,13.867,0,0,0-2.541,1.234l-.37-.289c-.381-.208-.779-.385-1.17-.574V82.036a14.045,14.045,0,0,0,1.578,1.143q-.079.594-.168,1.186a39.239,39.239,0,0,0,1.527,9.178,85.33,85.33,0,0,0,3.7,10.609.448.448,0,0,0,.082.144.423.423,0,0,0,.154.095,5.192,5.192,0,0,0,1.849.338A17.331,17.331,0,0,0,174,104.35c.419-.121.865-.178,1.29-.278.462-.108.925-.218,1.4-.294a2.282,2.282,0,0,0,1.146-.4,1.189,1.189,0,0,0,.378-.622c.216-.783-.189-1.185-.687-1.708a8.051,8.051,0,0,1-.787-1.059c-.459-.682-.864-1.4-1.28-2.107-.977-1.666-1.9-3.366-2.8-5.073q-.986-1.864-1.944-3.744-.489-.96-.969-1.924c-.165-.331-.438-1.287-.765-1.482a.418.418,0,0,0-.166-.044,10.513,10.513,0,0,1-4.2-1.419,13.509,13.509,0,0,0,7.078.915c.183.293.367.585.547.879a39.23,39.23,0,0,0,7.07,6.05,85.147,85.147,0,0,0,9.651,5.75.476.476,0,0,0,.155.058.461.461,0,0,0,.18-.027,5.2,5.2,0,0,0,1.633-.929,17.359,17.359,0,0,0,2.99-3c.244-.362.549-.692.81-1.042.285-.381.569-.762.88-1.122a2.293,2.293,0,0,0,.622-1.042,1.194,1.194,0,0,0-.111-.72c-.338-.738-.907-.787-1.624-.867a7.966,7.966,0,0,1-1.284-.305c-.79-.228-1.561-.516-2.335-.792-1.819-.648-3.617-1.358-5.406-2.086q-1.953-.8-3.9-1.618-.992-.422-1.979-.851c-.339-.147-1.163-.7-1.539-.644a.409.409,0,0,0-.155.073,10.675,10.675,0,0,1-2.364,1.16,13.9,13.9,0,0,0,4.57-3.3c.222.074.445.143.667.217a39.2,39.2,0,0,0,9.3.091,85.191,85.191,0,0,0,11.089-1.8.348.348,0,0,0,.277-.191,5.2,5.2,0,0,0,.653-1.762,17.269,17.269,0,0,0,.36-4.224C202.4,72.639,202.423,72.19,202.4,71.754Z" transform="translate(0 0)"/>
        <rect class="cls-18" x="165.413" y="20.247" width="8.668" height="8.159"/>
        <polygon class="cls-1" points="171.461 21.594 168.106 21.594 168.106 23.258 166.955 23.258 166.955 27.778 172.66 27.778 172.66 23.258 171.472 23.258 171.461 21.594"/>
      </g>
      <g class="cls-19">
        <path class="cls-1" d="M30.148,83.334l3.24-4.894c3.991-6.028,13.969-6.028,17.961,0l.12.182v3.1l-1.227-2a9.391,9.391,0,0,0-15.747,0l-2.841,4.626L20.939,101.791H17.927Z" transform="translate(0 0)"/>
        <path class="cls-1" d="M21.6,43,32.311,60.442l2.841,4.625a9.391,9.391,0,0,0,15.748,0l.569-.926v2.907c-4.28,5.3-13.6,5.082-17.423-.7l-3.241-4.894L18.585,43Z" transform="translate(0 0)"/>
        <polygon class="cls-1" points="51.469 18.604 51.469 20.47 9.41 20.47 9.41 29.912 7.132 29.912 7.132 18.604 51.469 18.604"/>
        <path class="cls-1" d="M3.4,29.912H51.469v2.209H3.4A1.15,1.15,0,0,0,2.245,33.26v78.215A1.149,1.149,0,0,0,3.4,112.612H51.469v2.21H3.4A3.374,3.374,0,0,1,0,111.475V33.26A3.375,3.375,0,0,1,3.4,29.912Z" transform="translate(0 0)"/>
        <path class="cls-1" d="M42.7,33.215a39.24,39.24,0,0,1,8.772,1v2.271a36.943,36.943,0,1,0,0,71.764v2.271a39.15,39.15,0,1,1-8.772-77.3Z" transform="translate(0 0)"/>
        <path class="cls-1" d="M42.7,36.089a36.323,36.323,0,0,1,8.772,1.074V39.28a34.231,34.231,0,1,0,0,66.174v2.117A36.279,36.279,0,1,1,42.7,36.089Z" transform="translate(0 0)"/>
        <path class="cls-1" d="M42.7,41.183a31.155,31.155,0,0,1,8.772,1.26v1.835a29.424,29.424,0,1,0,0,56.178v1.836A31.184,31.184,0,1,1,42.7,41.183Z" transform="translate(0 0)"/>
        <path class="cls-1" d="M42.7,58.016a14.27,14.27,0,0,1,8.772,3.01v1.043a13.542,13.542,0,1,0,0,20.6v1.044a14.346,14.346,0,1,1-8.772-25.7Z" transform="translate(0 0)"/>
        <path class="cls-1" d="M42.7,46.116a26.189,26.189,0,0,1,8.772,1.507v1.584a24.77,24.77,0,1,0,0,46.321v1.584a26.252,26.252,0,1,1-8.772-51Z" transform="translate(0 0)"/>
        <path class="cls-1" d="M42.7,50.612a21.648,21.648,0,0,1,8.772,1.847v1.377a20.528,20.528,0,1,0,0,37.062v1.378A21.755,21.755,0,1,1,42.7,50.612Z" transform="translate(0 0)"/>
        <path class="cls-1" d="M42.7,55a17.254,17.254,0,0,1,8.772,2.4v1.15a16.386,16.386,0,1,0,0,27.634v1.153A17.359,17.359,0,1,1,42.7,55Z" transform="translate(0 0)"/>
        <path class="cls-1" d="M51.525,72.367a8.983,8.983,0,0,1-.056.97V71.4A8.927,8.927,0,0,1,51.525,72.367Z" transform="translate(0 0)"/>
        <path class="cls-1" d="M33.87,72.367a8.826,8.826,0,0,0,17.6.97V71.4a8.826,8.826,0,0,0-17.6.97Zm.5,0A8.33,8.33,0,1,1,42.7,80.7a8.329,8.329,0,0,1-8.33-8.333Z" transform="translate(0 0)"/>
        <path class="cls-20" d="M10.126,72.754c.027-.475.054-.949.047-1.425a2.292,2.292,0,0,1,.194-1.2,1.2,1.2,0,0,1,.547-.48c.734-.349,1.2-.02,1.8.38a7.978,7.978,0,0,0,1.18.591c.751.333,1.527.608,2.3.894,1.81.673,3.644,1.284,5.482,1.877q2.007.646,4.025,1.264,1.029.315,2.063.621a8.756,8.756,0,0,1,1.406.367,13.829,13.829,0,0,1-.387-2.9c-.107-.042-.213-.087-.32-.129A39.194,39.194,0,0,1,21.278,66.7a85.158,85.158,0,0,1-7.339-8.5.486.486,0,0,1-.084-.144.425.425,0,0,1,0-.181,5.227,5.227,0,0,1,.632-1.77,17.3,17.3,0,0,1,2.439-3.466c.314-.3.586-.66.885-.979.326-.346.652-.692.952-1.061a2.3,2.3,0,0,1,.919-.793,1.2,1.2,0,0,1,.728-.016c.786.2.932.756,1.136,1.449a7.728,7.728,0,0,0,.524,1.211c.361.739.779,1.447,1.184,2.162.955,1.679,1.967,3.326,2.994,4.961q1.122,1.786,2.27,3.556.586.9,1.181,1.8c.134.2.475.578.7.92A13.827,13.827,0,0,1,32,63.464c-.022-.039-.042-.079-.064-.118a39.219,39.219,0,0,1-1.7-9.148,85.242,85.242,0,0,1-.154-11.233.459.459,0,0,1,.027-.164.454.454,0,0,1,.113-.141,5.176,5.176,0,0,1,1.622-.95,17.321,17.321,0,0,1,4.1-1.088c.434-.03.873-.129,1.307-.18.471-.057.944-.112,1.411-.2a2.275,2.275,0,0,1,1.214-.017,1.191,1.191,0,0,1,.567.455c.471.662.229,1.179-.061,1.84A7.967,7.967,0,0,0,40,43.784c-.2.8-.334,1.609-.482,2.417-.349,1.9-.632,3.812-.9,5.725q-.29,2.09-.546,4.183-.132,1.069-.253,2.139c-.028.239-.009.738-.057,1.141a13.791,13.791,0,0,1,2.755-.719c.013-.065.028-.129.041-.194a39.2,39.2,0,0,1,4.574-8.1,82.974,82.974,0,0,1,6.333-7.847V55.451c-.518.475-1.04.947-1.554,1.426s-1.048.982-1.569,1.477a11.191,11.191,0,0,1-.958.99,13.867,13.867,0,0,1,2.541,1.234c.122-.1.247-.192.37-.289.381-.208.779-.385,1.17-.574V83.036a14.045,14.045,0,0,1-1.578,1.143c.052.4.109.791.168,1.186a39.239,39.239,0,0,1-1.527,9.178,85.33,85.33,0,0,1-3.7,10.609.48.48,0,0,1-.082.144.447.447,0,0,1-.154.095,5.192,5.192,0,0,1-1.849.338,17.357,17.357,0,0,1-4.222-.379c-.419-.121-.865-.178-1.29-.278-.463-.108-.925-.218-1.4-.294a2.272,2.272,0,0,1-1.146-.4,1.189,1.189,0,0,1-.378-.622c-.216-.783.189-1.185.687-1.708a8.051,8.051,0,0,0,.787-1.059c.459-.682.864-1.4,1.28-2.107.977-1.666,1.9-3.366,2.8-5.073q.986-1.864,1.944-3.744.489-.96.969-1.924c.165-.331.438-1.287.765-1.482a.418.418,0,0,1,.166-.044,10.5,10.5,0,0,0,4.2-1.419,13.485,13.485,0,0,1-7.077.915c-.183.293-.367.585-.548.879a39.224,39.224,0,0,1-7.069,6.05,85.147,85.147,0,0,1-9.651,5.75.482.482,0,0,1-.156.058.454.454,0,0,1-.179-.027,5.184,5.184,0,0,1-1.633-.929,17.365,17.365,0,0,1-2.991-3c-.243-.362-.548-.692-.809-1.042-.285-.381-.569-.762-.88-1.122a2.293,2.293,0,0,1-.622-1.042,1.194,1.194,0,0,1,.111-.72c.338-.738.906-.787,1.624-.867a7.966,7.966,0,0,0,1.284-.305c.79-.228,1.56-.516,2.334-.792,1.82-.648,3.617-1.358,5.406-2.086q1.954-.8,3.9-1.618.991-.422,1.979-.851c.339-.147,1.162-.7,1.539-.644a.425.425,0,0,1,.155.073,10.733,10.733,0,0,0,2.363,1.16,13.9,13.9,0,0,1-4.562-3.293c-.222.074-.446.143-.668.217a39.2,39.2,0,0,1-9.3.091,85.191,85.191,0,0,1-11.089-1.8.49.49,0,0,1-.157-.055.46.46,0,0,1-.12-.136,5.2,5.2,0,0,1-.653-1.762,17.269,17.269,0,0,1-.36-4.224C10.123,73.639,10.1,73.19,10.126,72.754Z" transform="translate(0 0)"/>
        <rect class="cls-21" x="38.443" y="21.247" width="8.668" height="8.159"/>
        <polygon class="cls-1" points="41.063 22.594 44.419 22.594 44.419 24.258 45.57 24.258 45.57 28.778 39.865 28.778 39.865 24.258 41.053 24.258 41.063 22.594"/>
      </g>
    </g>
  </g>
</svg>
