<?xml version="1.0" encoding="utf-8"?>
<!-- Generator: Adobe Illustrator 23.0.1, SVG Export Plug-In . SVG Version: 6.00 Build 0)  -->
<svg version="1.1" id="Layer_1" xmlns="http://www.w3.org/2000/svg" xmlns:xlink="http://www.w3.org/1999/xlink" x="0px" y="0px"
	 viewBox="0 0 199 108.3" style="enable-background:new 0 0 199 108.3;" xml:space="preserve">
<style type="text/css">
	.st0{fill:#0E2738;stroke:#FFFFFF;stroke-miterlimit:10;}
	.st1{fill:url(#SVGID_1_);}
	.st2{fill:url(#SVGID_2_);}
	.st3{fill:#FFFFFF;}
</style>
<rect x="55.7" y="12.3" class="st0" width="87.1" height="83.5"/>
<title>5Asset 10</title>
<g>
	<g id="Layer_1-2">
		<g>
			
				<linearGradient id="SVGID_1_" gradientUnits="userSpaceOnUse" x1="55.689" y1="53.7473" x2="143.918" y2="53.7473" gradientTransform="matrix(1 0 0 -1 0 107.8898)">
				<stop  offset="0" style="stop-color:#E8A423"/>
				<stop  offset="2.200000e-02" style="stop-color:#E9A721"/>
				<stop  offset="0.254" style="stop-color:#F3C113"/>
				<stop  offset="0.492" style="stop-color:#FAD408"/>
				<stop  offset="0.737" style="stop-color:#FEDF02"/>
				<stop  offset="1" style="stop-color:#FFE300"/>
			</linearGradient>
			<path class="st1" d="M139.4,10H60.2c-2.5,0-4.5,2-4.5,4.5v79.1c0,2.5,2,4.5,4.5,4.5h79.1c2.5,0,4.5-2,4.5-4.5V14.6
				C143.9,12.1,141.9,10,139.4,10z M139.4,89.2c0,2.5-2,4.5-4.5,4.5H64.8c-2.5,0-4.5-2-4.5-4.5V19.1c0-2.5,2-4.5,4.5-4.5h70.1
				c2.5,0,4.5,2,4.5,4.5V89.2z"/>
			
				<linearGradient id="SVGID_2_" gradientUnits="userSpaceOnUse" x1="-2.003374e-02" y1="53.7468" x2="198.9613" y2="53.7468" gradientTransform="matrix(1 0 0 -1 0 107.8898)">
				<stop  offset="0" style="stop-color:#E8A423"/>
				<stop  offset="2.200000e-02" style="stop-color:#E9A721"/>
				<stop  offset="0.254" style="stop-color:#F3C113"/>
				<stop  offset="0.492" style="stop-color:#FAD408"/>
				<stop  offset="0.737" style="stop-color:#FEDF02"/>
				<stop  offset="1" style="stop-color:#FFE300"/>
			</linearGradient>
			<path class="st2" d="M194.2,83.3c-2,0-3.8,1.3-4.5,3.2h-10.7l-5.1-5.6h-17.1v-0.5h-6.3v-4h6.3v-1.7h7.8c0.5,1.9,2.5,3,4.4,2.4
				s3-2.5,2.4-4.4s-2.5-3-4.4-2.4c-1.2,0.3-2.1,1.3-2.4,2.4h-7.8v-0.2h-6.3v-4.3h6.3v-1l17.1,0.3l2.3,2.5c-1,1.7-0.4,3.9,1.4,4.8
				s3.9,0.4,4.8-1.4c1-1.7,0.4-3.9-1.4-4.8c-1.1-0.6-2.5-0.6-3.6,0.1l-3.5-3.4h-17.1v-1h-6.3v-4h6.3v-0.9h15.8l5.9,5.9h12.3
				c0.6,1.9,2.6,2.9,4.4,2.3c1.9-0.6,2.9-2.6,2.3-4.4c-0.6-1.9-2.6-2.9-4.4-2.3c-0.8,0.3-1.5,0.8-1.9,1.5h-12.2l-5.1-5.6h-17.1v-0.3
				h-6.3v-4h6.3v-1.3H183c0.6,1.9,2.5,2.9,4.4,2.4c1.9-0.6,2.9-2.5,2.4-4.4c-0.6-1.9-2.5-2.9-4.4-2.4c-1.1,0.3-2,1.2-2.4,2.4h-26.2
				v-0.5h-6.3v-4.2h6.3v-0.4h13.9l6.9-6.9h13.3c0.6,1.9,2.5,2.9,4.4,2.4s2.9-2.5,2.4-4.4c-0.6-1.9-2.5-2.9-4.4-2.4
				c-1.2,0.4-2.1,1.3-2.4,2.5h-13l-6.6,6.6h-14.3v-1.3h-6.3v-4.1h6.3v-0.8h7.7c0.8,1.8,2.8,2.6,4.6,1.9c1.8-0.8,2.6-2.8,1.9-4.6
				c-0.8-1.8-2.8-2.6-4.6-1.9c-1,0.4-1.8,1.3-2.1,2.4h-7.6v-0.8h-6.3v-4.1h6.3v-1.2h26.3l5.5-5.5c1.6,1.1,3.8,0.7,4.9-0.9
				c1.1-1.6,0.7-3.8-0.9-4.9s-3.8-0.7-4.9,0.9c-0.7,1-0.9,2.4-0.3,3.6l-0.1,0l-5,4.7h-25.6v-0.4h-6.3v-17L142.8,0H59.4L49.1,10.3
				v14.1h-6.9v0.7H26.3l-5.9-5.9H9.3c-0.8-2.5-3.4-3.9-6-3.1c-2.5,0.8-3.9,3.4-3.1,6s3.4,3.9,6,3.1c1.4-0.4,2.6-1.6,3.1-3h10.7
				l5.1,5.6h17.1v0.5h6.9v4h-6.9V34h-7.8c-0.5-1.9-2.5-3-4.4-2.4c-1.9,0.5-3,2.5-2.4,4.4c0.5,1.9,2.5,3,4.4,2.4
				c1.2-0.3,2.1-1.3,2.4-2.4h7.8v0.2h6.9v4.3h-6.9v1L25,41.1l-2.3-2.5c1-1.7,0.4-3.9-1.4-4.8s-3.9-0.4-4.8,1.4
				c-1,1.7-0.4,3.9,1.4,4.8c1.1,0.6,2.5,0.6,3.6-0.1l3.5,3.4h17.1v1h6.9v4h-6.9v0.9H26.3l-5.9-5.9H8.1c-0.6-1.9-2.6-2.9-4.4-2.3
				c-1.9,0.6-2.9,2.6-2.3,4.4s2.6,2.9,4.4,2.3c0.8-0.3,1.5-0.8,1.9-1.5h12.2l5.1,5.6h17.1v0.3h6.9v4h-6.9v1.3H16
				c-0.6-1.9-2.5-2.9-4.4-2.4c-1.9,0.6-2.9,2.5-2.4,4.4s2.5,2.9,4.4,2.4c1.1-0.3,2-1.2,2.4-2.4h26.2V60h6.9v4.2h-6.9v0.4H28.3
				l-6.9,6.9H8.1c-0.6-1.9-2.5-2.9-4.4-2.4c-1.9,0.6-2.9,2.5-2.4,4.4s2.5,2.9,4.4,2.4c1.2-0.4,2.1-1.3,2.4-2.5h13l6.6-6.6h14.3V68
				h6.9v4.1h-6.9v0.8h-7.7c-0.8-1.8-2.8-2.6-4.6-1.9s-2.6,2.8-1.9,4.6s2.8,2.6,4.6,1.9c1-0.4,1.8-1.3,2.1-2.4h7.6v0.8h6.9V80h-6.9
				v1.2H15.8l-5.5,5.5c-1.6-1.1-3.8-0.7-5,0.9c-1.1,1.6-0.7,3.8,0.9,5s3.8,0.7,5-0.9c0.7-1.1,0.9-2.4,0.3-3.6l0.1,0l5-4.7h25.6v0.4
				h6.9v17.3l7.9,7.1h85.3l8.2-6.7V84.2h6.3v-0.7h15.8l5.9,5.9h11.1c0.8,2.5,3.4,3.9,5.9,3.1s3.9-3.4,3.1-5.9
				C198.1,84.6,196.3,83.3,194.2,83.3L194.2,83.3z M168,71.8c1.1,0,1.9,0.9,1.9,1.9c0,1.1-0.9,1.9-1.9,1.9c-1.1,0-1.9-0.9-1.9-1.9
				C166.1,72.6,166.9,71.8,168,71.8z M179.3,69.8c1.1,0,1.9,0.9,1.9,1.9c0,1.1-0.9,1.9-1.9,2c-1.1,0-1.9-0.9-1.9-1.9c0,0,0,0,0,0
				C177.3,70.7,178.2,69.8,179.3,69.8z M194.2,62.4c1.1,0,1.9,0.9,1.9,1.9c0,1.1-0.9,1.9-1.9,1.9c-1.1,0-1.9-0.9-1.9-1.9
				c0,0,0,0,0,0C192.3,63.2,193.1,62.4,194.2,62.4L194.2,62.4z M186.4,48.2c1.1,0,1.9,0.9,1.9,1.9c0,1.1-0.9,1.9-1.9,2
				s-1.9-0.9-1.9-1.9c0,0,0,0,0,0C184.4,49.1,185.3,48.2,186.4,48.2z M194.2,34.2c1.1,0,1.9,0.9,1.9,1.9c0,1.1-0.9,1.9-1.9,1.9
				c-1.1,0-1.9-0.9-1.9-1.9c0,0,0,0,0,0C192.3,35.1,193.1,34.2,194.2,34.2C194.2,34.2,194.2,34.2,194.2,34.2z M167.8,32.4
				c1.1,0,1.9,0.9,1.9,1.9c0,1.1-0.9,1.9-1.9,1.9c-1.1,0-1.9-0.9-1.9-1.9c0,0,0,0,0,0C165.9,33.2,166.7,32.4,167.8,32.4
				C167.8,32.4,167.8,32.4,167.8,32.4L167.8,32.4z M190.7,17.1c1.1,0,1.9,0.9,1.9,1.9c0,1.1-0.9,1.9-1.9,2s-1.9-0.9-1.9-1.9
				c0,0,0,0,0,0C188.7,18,189.6,17.1,190.7,17.1z M4.7,23.2c-1.4,0-2.6-1.2-2.6-2.6c0-1.4,1.2-2.6,2.6-2.6c1.4,0,2.6,1.2,2.6,2.6
				C7.4,22,6.2,23.2,4.7,23.2C4.7,23.2,4.7,23.2,4.7,23.2z M31,36.9c-1.1,0-2-0.9-2-1.9c0-1.1,0.9-2,1.9-2c1.1,0,2,0.9,2,1.9
				c0,0,0,0,0,0C32.9,36,32,36.9,31,36.9z M19.7,38.8c-1.1,0-1.9-0.9-1.9-1.9c0-1.1,0.9-1.9,1.9-1.9s1.9,0.9,1.9,1.9c0,0,0,0,0,0
				C21.6,38,20.8,38.8,19.7,38.8C19.7,38.8,19.7,38.8,19.7,38.8z M4.7,46.3c-1.1,0-1.9-0.9-1.9-2c0-1.1,0.9-1.9,2-1.9
				c1.1,0,1.9,0.9,1.9,1.9C6.7,45.4,5.8,46.3,4.7,46.3C4.7,46.3,4.7,46.3,4.7,46.3z M12.6,60.4c-1.1,0-1.9-0.9-1.9-1.9
				c0-1.1,0.9-1.9,1.9-1.9s1.9,0.9,1.9,1.9c0,0,0,0,0,0C14.6,59.5,13.7,60.4,12.6,60.4z M4.7,74.4c-1.1,0-1.9-0.9-1.9-2
				c0-1.1,0.9-1.9,2-1.9c1.1,0,1.9,0.9,1.9,1.9C6.7,73.5,5.8,74.4,4.7,74.4C4.7,74.4,4.7,74.4,4.7,74.4z M31.2,76.3
				c-1.1,0-1.9-0.9-1.9-1.9c0-1.1,0.9-1.9,1.9-1.9c1.1,0,1.9,0.9,1.9,1.9c0,0,0,0,0,0C33.1,75.4,32.2,76.3,31.2,76.3z M8.3,91.5
				c-1.1,0-1.9-0.9-1.9-1.9c0-1.1,0.9-1.9,1.9-1.9s1.9,0.9,1.9,1.9c0,0,0,0,0,0C10.2,90.7,9.4,91.5,8.3,91.5
				C8.3,91.5,8.3,91.5,8.3,91.5z M145.3,97.1c0.1,3-2.2,5.5-5.2,5.6H59.5c-3-0.1-5.3-2.6-5.2-5.6v-86c-0.1-3,2.2-5.5,5.2-5.6h80.5
				c3,0.1,5.3,2.6,5.2,5.6V97.1z M194.2,90.6c-1.4,0-2.6-1.2-2.6-2.6c0-1.4,1.2-2.6,2.6-2.6c1.4,0,2.6,1.2,2.6,2.6l0,0
				C196.8,89.5,195.7,90.6,194.2,90.6C194.2,90.6,194.2,90.6,194.2,90.6L194.2,90.6z"/>
		</g>
	</g>
</g>
<circle class="st3" cx="72.5" cy="83.8" r="3.9"/>
</svg>
