<?xml version="1.0" encoding="utf-8"?>
<!-- Generator: Adobe Illustrator 23.0.1, SVG Export Plug-In . SVG Version: 6.00 Build 0)  -->
<svg version="1.1" id="Layer_1" xmlns="http://www.w3.org/2000/svg" xmlns:xlink="http://www.w3.org/1999/xlink" x="0px" y="0px"
	 viewBox="0 0 221.2 52" style="enable-background:new 0 0 221.2 52;" xml:space="preserve">
<style type="text/css">
	.st0{fill:#4E4E4E;}
	.st1{fill:url(#Path_91_1_);stroke:#000000;stroke-width:0.25;stroke-miterlimit:10;}
	.st2{fill:#EAAE0D;stroke:#000000;stroke-width:0.25;stroke-miterlimit:10;}
</style>
<path class="st0" d="M108.1,35.6h-9.6l-2.1,7.6h-5.2l9.9-32.8h4.4l9.7,32.8h-5.2L108.1,35.6z M99.9,31h7l-3.5-12.9L99.9,31z"/>
<path class="st0" d="M124,38.8h15.4v4.4h-21.4l0-3.6l14.9-24.7h-14.8v-4.5H139l0,3.6L124,38.8z"/>
<path class="st0" d="M159.8,35.6h-9.6l-2.1,7.6h-5.2l9.9-32.8h4.4l9.7,32.8h-5.2L159.8,35.6z M151.5,31h7L155,18.1L151.5,31z"/>
<path class="st0" d="M185.6,35.6H176l-2.1,7.6h-5.2l9.9-32.8h4.4l9.7,32.8h-5.2L185.6,35.6z M177.3,31h7l-3.5-12.9L177.3,31z"/>
<path class="st0" d="M206.8,30.4h-5.1v12.8h-5V10.4h9.7c1.6,0,3,0.2,4.3,0.6c1.3,0.4,2.5,1,3.4,1.8c1,0.8,1.7,1.8,2.2,3.1
	c0.5,1.2,0.8,2.7,0.8,4.3c0,1.1-0.1,2.1-0.4,3c-0.3,0.9-0.7,1.7-1.1,2.5c-0.5,0.7-1.1,1.4-1.8,1.9c-0.7,0.6-1.4,1-2.3,1.4l6.5,13.8
	v0.3h-5.4L206.8,30.4z M201.7,26h4.6c0.8,0,1.6-0.1,2.3-0.4c0.7-0.3,1.3-0.6,1.8-1.1c0.5-0.5,0.9-1,1.2-1.7c0.3-0.7,0.4-1.5,0.4-2.4
	c0-0.9-0.1-1.7-0.4-2.4c-0.3-0.7-0.6-1.3-1.1-1.8s-1.1-0.8-1.8-1.1c-0.7-0.2-1.5-0.4-2.4-0.4h-4.6V26z"/>
<g id="Layer_1-2_1_" transform="translate(431.524 1081.254)">
	
		<linearGradient id="Path_91_1_" gradientUnits="userSpaceOnUse" x1="-619.7531" y1="-667.2536" x2="-618.7531" y2="-667.2536" gradientTransform="matrix(33.617 0 0 -43.414 20457.7559 -30023.4727)">
		<stop  offset="0" style="stop-color:#E9A300"/>
		<stop  offset="1" style="stop-color:#FFE300"/>
	</linearGradient>
	<path id="Path_91" class="st1" d="M-343.2-1051.3c-0.4-0.9-1-1.8-1.7-2.6c-1.2-1.2-2.7-2-4.3-2.5c0,0,2.8-1.6,3.6-3.7
		c0.9-2.1,0.9-4.5-0.1-6.6c-0.4-1-1-1.9-1.7-2.6c-1.2-1.2-2.8-1.9-4.5-2.1c-1.3-0.1-2.6-0.2-3.9-0.2v-5.5h-4.2v5.4h-3.7v-5.4h-4.3
		v5.6l-8.5-0.1v4.9c1.1-0.1,2.3-0.1,3.4,0c1,0.2,1.7,0.8,2,1.8c0.1,0.7,0.1,1.3,0,2v16.8c-0.1,1.1-0.9,2.1-2.1,2.2
		c-0.4,0.1-3.4,0.1-3.4,0.1v4.8h8.5v5.4h4.4v-5.4h3.4v5.4h4.4v-5.4c0,0,4.7,0,6.8-0.8c2.1-0.4,3.9-1.8,4.8-3.7
		c0.3-0.4,0.5-0.9,0.6-1.4C-343.1-1046.8-342.5-1049.5-343.2-1051.3z M-356.7-1066.8c2.6,0,3.5,3.8,3,5.9c-0.3,1.1-0.9,2.1-1.9,2.8
		c-0.7,0.4-1.6,0.5-2.4,0.4h-5.6v-9.1C-361.3-1066.8-359-1066.8-356.7-1066.8z M-351.3-1048.6c-0.2,2.4-2.1,4.4-4.6,4.7
		c-1.6,0.1-3.3,0.1-4.9,0h-2.9v-9.4h5.1c2.4,0,4.9,0,6.4,2.3C-351.6-1050.3-351.3-1049.5-351.3-1048.6L-351.3-1048.6z"/>
</g>
<path class="st2" d="M47.5,32.7H39v-9.5h8.5c1.5,0,2.7-1.2,2.7-2.7c0-1.5-1.2-2.7-2.7-2.7H39v-11c0-1.5-1.2-2.7-2.7-2.7
	s-2.7,1.2-2.7,2.7v11H23.2v-11c0-1.5-1.2-2.7-2.7-2.7s-2.7,1.2-2.7,2.7v11H6.2c-1.5,0-2.7,1.2-2.7,2.7c0,1.5,1.2,2.7,2.7,2.7h11.6
	v9.5H6.2c-1.5,0-2.7,1.2-2.7,2.7c0,1.5,1.2,2.7,2.7,2.7h11.6v9.7c0,1.5,1.2,2.7,2.7,2.7s2.7-1.2,2.7-2.7v-9.7h10.4v9.7
	c0,1.5,1.2,2.7,2.7,2.7s2.7-1.2,2.7-2.7v-9.7h8.5c1.5,0,2.7-1.2,2.7-2.7C50.2,33.9,49,32.7,47.5,32.7z M23.2,32.7v-9.5h10.4v9.5
	H23.2z"/>
</svg>
