<?xml version="1.0" encoding="utf-8"?>
<!-- Generator: Adobe Illustrator 23.0.1, SVG Export Plug-In . SVG Version: 6.00 Build 0)  -->
<svg version="1.1" id="master-artboard" xmlns="http://www.w3.org/2000/svg" xmlns:xlink="http://www.w3.org/1999/xlink" x="0px"
	 y="0px" viewBox="0 0 690.4 202.9" style="enable-background:new 0 0 690.4 202.9;" xml:space="preserve">
<style type="text/css">
	.st0{clip-path:url(#SVGID_2_);fill:url(#XMLID_3_);}
	.st1{clip-path:url(#SVGID_4_);fill:#DEF1F0;}
	.st2{clip-path:url(#SVGID_6_);fill:url(#XMLID_4_);}
	.st3{fill:url(#XMLID_5_);}
	.st4{fill:url(#XMLID_6_);}
	.st5{fill:url(#XMLID_7_);}
	.st6{fill:url(#XMLID_8_);}
	.st7{fill:#392B4F;}
</style>
<g>
	<g id="XMLID_1_">
		<g id="XMLID_11_">
			<g>
				<defs>
					<rect id="SVGID_1_" x="385.3" width="202.7" height="202.9"/>
				</defs>
				<clipPath id="SVGID_2_">
					<use xlink:href="#SVGID_1_"  style="overflow:visible;"/>
				</clipPath>
				
					<radialGradient id="XMLID_3_" cx="-213.9417" cy="2836.7896" r="3.1199" gradientTransform="matrix(41.3644 0 0 -41.4093 9310.958 117576.75)" gradientUnits="userSpaceOnUse">
					<stop  offset="0" style="stop-color:#DDF1EF"/>
					<stop  offset="0.406" style="stop-color:#8EDADA"/>
					<stop  offset="0.8121" style="stop-color:#44C5C6"/>
					<stop  offset="1" style="stop-color:#27BDBE"/>
				</radialGradient>
				<path id="XMLID_15_" class="st0" d="M332.3-22.2h258.1v258.4H332.3V-22.2z"/>
			</g>
			<g>
				<defs>
					<rect id="SVGID_3_" x="385.3" width="202.7" height="202.9"/>
				</defs>
				<clipPath id="SVGID_4_">
					<use xlink:href="#SVGID_3_"  style="overflow:visible;"/>
				</clipPath>
				<path id="XMLID_14_" class="st1" d="M368.6,224.6c64.2,20.3,183.2,8.6,251.9,22c5.5,1,8.8-42.8,4.9-45.2
					c-49.1-36.1-163-52.1-259.9-23c-3.7,0.2-3.7,37.1-3.6,40.2C361.9,221.8,364.4,224.8,368.6,224.6z"/>
			</g>
			<g>
				<defs>
					<rect id="SVGID_5_" x="385.3" width="202.7" height="202.9"/>
				</defs>
				<clipPath id="SVGID_6_">
					<use xlink:href="#SVGID_5_"  style="overflow:visible;"/>
				</clipPath>
				
					<linearGradient id="XMLID_4_" gradientUnits="userSpaceOnUse" x1="294.81" y1="203.2154" x2="358.1781" y2="203.2154" gradientTransform="matrix(4.1828 0.2315 6.279619e-02 -3.4572 -883.7951 832.2033)">
					<stop  offset="0" style="stop-color:#E1F2F1"/>
					<stop  offset="1" style="stop-color:#27BDBE"/>
				</linearGradient>
				<path id="XMLID_13_" class="st2" d="M368.6,224.6c60.4,17.5,175.8,11.9,251.9,22c5.5,0.7,8.5-23,4.6-25.4
					c-48.9-45.2-161.2-67.5-259.6-39.9c-3.6,0.2-3.8,34.1-3.7,37.3C361.9,221.8,364.4,224.8,368.6,224.6z"/>
			</g>
		</g>
		
			<linearGradient id="XMLID_5_" gradientUnits="userSpaceOnUse" x1="206.6358" y1="310.0015" x2="206.6358" y2="321.9315" gradientTransform="matrix(3.4503 0 0 -3.4503 -71.2505 1110.9802)">
			<stop  offset="0" style="stop-color:#AEA8B7"/>
			<stop  offset="1" style="stop-color:#CFCCD5"/>
		</linearGradient>
		<path id="XMLID_10_" class="st3" d="M685.5,0.2c-3.4,0-12.5,0-22.3,0c-5.5,0-9.8,2.4-12.6,4.6l-20.8,20.8
			C618.2,36.7,610.4,40,593.3,40c1.9,0,4.1,0,4.1,0l-4.3,1.4c0,0,12.1,0,29.7,0c28.5,0,35.6-3.5,48.2-15.9l0,0l17.5-17.6
			c0,0,0.1,0,0.1-0.1C692.1,4.2,690.1,0.2,685.5,0.2z"/>
		
			<linearGradient id="XMLID_6_" gradientUnits="userSpaceOnUse" x1="157.9418" y1="271.7131" x2="213.9368" y2="327.7081" gradientTransform="matrix(3.4503 0 0 -3.4503 -71.2505 1110.9802)">
			<stop  offset="0" style="stop-color:#938A9E"/>
			<stop  offset="0.156" style="stop-color:#726588"/>
			<stop  offset="0.3765" style="stop-color:#48356B"/>
			<stop  offset="0.4863" style="stop-color:#382260"/>
		</linearGradient>
		<path id="XMLID_9_" class="st4" d="M670.4,23.7c-12.6,12.4-19.6,16-48.1,16c-7.3,0-16.4,0-26.9,0c-0.8,0-1.5,0.1-2.3,0.1
			c-1.2,0-2,0-2.4,0c-28.5,0-40.7,8.4-55.4,23.2l-71.5,71.6l0,0L449.2,149l21.5,10.7l8.5,2.9c3.3-0.9,6.8-2.9,10.5-6.4l0.1,0
			l0.1-0.2c0.1-0.1,0.1-0.1,0.1-0.1c0.1-0.1,0.2-0.2,0.4-0.4h0.1l99.7-99.7c11.6-11.1,25.5-14.3,32.5-14.3c2.3,0-1.8,0,0.1,0
			c28.5,0,35.6-3.5,48.2-15.9l13.8-13.9c2.6-2.6,5.7-5.1,5.7-7.8L670.4,23.7z"/>
		
			<linearGradient id="XMLID_7_" gradientUnits="userSpaceOnUse" x1="138.1183" y1="292.6465" x2="158.3334" y2="272.4315" gradientTransform="matrix(3.4503 0 0 -3.4503 -71.2505 1110.9802)">
			<stop  offset="0" style="stop-color:#AEA8B7"/>
			<stop  offset="1" style="stop-color:#CFCCD5"/>
		</linearGradient>
		<path id="XMLID_578_" class="st5" d="M473.5,154.2l-22.3-22.3h0l-6.3-6.3v0.1l-9.1-9.1l0,0l0,0l-3.2-3.2h-0.1
			c-0.2-0.2-0.3-0.3-0.4-0.4c0-0.1-0.1-0.1-0.1-0.1l-0.2-0.2l-0.1,0c-5.8-5.7-11-7.2-16.2-7.2c-0.1,0-2.6,0-4.8,0
			c-1.7,0-3.4,0-3.4,0h-6.1l-10.8,13.5l15.4,15.4h0l17.3,17.3l0,0l4,4h0.1c0.1,0.1,0.3,0.3,0.4,0.4c0.1,0,0.1,0.1,0.2,0.1l0.1,0.2
			l0.1,0c5.9,5.7,11.1,7.2,16.2,7.2c0.1,0,2.6,0,4.8,0c1.8,0,3.4,0,3.4,0h13.2c0,0,1,0,2.3,0c2.3,0,5.7,0,5.8,0
			c5.3,0,10.6-1.5,16.6-7.5c0-0.1,0.6-0.7,0.6-0.7l0.4-0.5C487.9,157.9,477.7,158.3,473.5,154.2z"/>
		
			<linearGradient id="XMLID_8_" gradientUnits="userSpaceOnUse" x1="134.0057" y1="279.6115" x2="134.0057" y2="291.4969" gradientTransform="matrix(3.4503 0 0 -3.4503 -71.2505 1110.9802)">
			<stop  offset="0" style="stop-color:#938A9E"/>
			<stop  offset="0.156" style="stop-color:#726588"/>
			<stop  offset="0.3765" style="stop-color:#48356B"/>
			<stop  offset="0.4863" style="stop-color:#382260"/>
		</linearGradient>
		<path id="XMLID_577_" class="st6" d="M430.5,111.2c-5.9-6-9.7-5.9-15-5.9c-0.1,0-3.5,0-5.8,0c-1.3,0-2.3,0-2.3,0h-6.1
			c0,0-1.6,0-3.4,0c-2.2,0-4.7,0-4.8,0c-5.2,0-10.4,1.5-16.3,7.2l-0.1,0l-0.1,0.2c-0.1,0-0.1,0.1-0.1,0.1c-0.1,0.1-0.2,0.2-0.4,0.4
			h-0.1l-4,4l0,0l-9.4,9.4l0,0l-8,8l0,0l-2.6,2.6l-1.6,1.6c-3.6,4.2-0.5,7.5,2.9,7.6h24c3.8-0.1,6.6-1,10.1-4.1l5.6-5.6v0.1
			l22.8-22.8c4.2-4.1,13.9-3.2,17.2,0C433.2,113.9,430.5,111.2,430.5,111.2z"/>
	</g>
	<g>
		<path class="st7" d="M0,134h8.1v39.4H0V134z"/>
		<path class="st7" d="M39.9,168.3c0.4-1,0.6-2.1,0.6-3.2c0-1.3-0.3-2.6-0.8-3.9c-0.6-1.3-1.5-2.7-2.6-4.1l-10.5-12.2l-6.3,5.9
			l10.1,11.6c0.4,0.4,0.6,0.8,0.6,1.3c0,0.8-0.6,1.2-1.7,1.2H14l0.3,8.7h16.5c1.6,0,3-0.2,4.3-0.7c1.2-0.4,2.2-1.1,3.1-1.8
			C38.9,170.2,39.5,169.3,39.9,168.3z"/>
		<path class="st7" d="M83.9,148.9c-1-1-2.1-1.7-3.5-2.1c-1.4-0.4-2.9-0.6-4.5-0.6c-1.7,0-3.3,0.3-4.6,1c-1.3,0.6-2.4,1.4-3.3,2.4
			c-0.9,1-1.6,2.1-2,3.3s-0.7,2.4-0.7,3.5c0,2.2,0.3,4.1,0.8,5.6c0.5,1.5,1.7,2.8,3.4,3.8c-0.6-0.2-1.1-0.4-1.5-0.5
			c-0.4-0.1-0.8-0.2-1.3-0.3c-0.4-0.1-0.9-0.1-1.5-0.2c-0.5,0-1.2,0-2,0h-2.4h-0.7c-1.1,0-2-0.3-2.7-0.8c-0.7-0.6-1.1-1.5-1.1-2.7
			v-6.6h-8.1v17.9c0,1-0.2,1.9-0.5,2.8c-0.3,0.9-0.8,1.7-1.6,2.5c-0.7,0.7-1.7,1.3-2.9,1.7c-1.2,0.4-2.7,0.7-4.5,0.7h-2.4l0.3,8.7
			h4.2c2.2,0,4.2-0.4,6.1-1.3c1.9-0.9,3.4-2.1,4.8-3.6c1.3-1.5,2.4-3.3,3.1-5.2c0.7-2,1.1-4.1,1.1-6.2v-0.8c0.6,0.7,1.3,1.2,2,1.4
			c0.7,0.2,1.5,0.3,2.2,0.3h0.7h14c4.2,0,7.3-1,9.3-3c2-2,3-4.7,3-8.2v-3.5c0-2.4-0.3-4.4-0.8-6C85.6,151.1,84.9,149.8,83.9,148.9z
			 M79.3,160.8c0,0.5,0,1-0.1,1.7c-0.1,0.7-0.2,1.2-0.4,1.5c-1.3-0.7-2.4-1.3-3.3-1.9c-0.8-0.6-1.5-1.1-1.9-1.5
			c-0.4-0.5-0.7-0.9-0.8-1.3c-0.1-0.4-0.2-0.8-0.2-1.2c0-0.7,0.2-1.4,0.6-2.1c0.4-0.7,1.2-1,2.4-1c0.7,0,1.3,0.1,1.8,0.4
			c0.5,0.3,0.8,0.6,1.1,1c0.3,0.4,0.5,0.9,0.6,1.4c0.1,0.6,0.2,1.1,0.2,1.7L79.3,160.8L79.3,160.8z"/>
		<path class="st7" d="M71.6,133.9H80v7.7h-8.4V133.9z"/>
		<path class="st7" d="M128.6,171.6c0,1.1-0.1,2.2-0.4,3.2c-0.3,1-0.7,1.9-1.3,2.7c-0.6,0.8-1.5,1.4-2.6,1.9
			c-1.1,0.4-2.4,0.7-4.1,0.7h-2.8c-1.6,0-2.9-0.2-3.9-0.6c-1-0.4-1.9-0.9-2.5-1.6s-1.1-1.6-1.3-2.5c-0.3-1-0.4-2.1-0.4-3.3v-11.2h-8
			v11.6c0,5.1,1.3,9.1,3.9,12c2.6,2.9,6.3,4.4,11.1,4.4h4.2c2.5,0,4.7-0.4,6.7-1.3c2-0.9,3.7-2.1,5.1-3.6c1.4-1.5,2.5-3.3,3.2-5.4
			c0.7-2.1,1.1-4.4,1.1-6.8v-17.1h-8V171.6z"/>
		<path class="st7" d="M113.5,146.1h8.4v7.7h-8.4V146.1z"/>
		<path class="st7" d="M143.6,134h8.1v39.4h-8.1V134z"/>
		<path class="st7" d="M177.4,136l19.9-7.4l-1.1-5.6l-19.2,7L177.4,136z"/>
		<path class="st7" d="M197.7,168.7c0.5-1.1,0.8-2.4,0.8-4c0-0.9-0.1-1.7-0.3-2.5c-0.2-0.8-0.4-1.6-0.8-2.4c-0.4-0.8-1-1.7-1.6-2.6
			c-0.7-0.9-1.5-1.9-2.5-2.9l-8-8.1l15-5.3l-1.7-8l-21,7.7v9.1l10.9,10.8c0.6,0.5,0.9,1,1.1,1.4s0.3,0.9,0.3,1.5
			c0,0.3-0.1,0.7-0.3,1c-0.2,0.3-0.7,0.4-1.4,0.4h-15h-0.7c-1.1,0-2-0.3-2.7-0.8c-0.7-0.6-1.1-1.5-1.1-2.7v-6.6h-8.1v17.9
			c0,1-0.2,1.9-0.5,2.8c-0.3,0.9-0.8,1.7-1.6,2.5c-0.7,0.7-1.7,1.3-2.9,1.7c-1.2,0.4-2.7,0.7-4.5,0.7h-2.4l0.3,8.7h4.2
			c2.2,0,4.2-0.4,6.1-1.3c1.9-0.9,3.4-2.1,4.8-3.6s2.4-3.3,3.1-5.2c0.7-2,1.1-4.1,1.1-6.2v-0.8c0.6,0.7,1.3,1.2,2,1.4
			c0.7,0.2,1.5,0.3,2.2,0.3h0.7H189c1.3,0,2.5-0.2,3.7-0.5c1.1-0.3,2.1-0.8,3-1.5C196.5,170.7,197.2,169.8,197.7,168.7z"/>
		<path class="st7" d="M230.8,180.3h7.7v7.4h-7.7V180.3z"/>
		<path class="st7" d="M221.1,180.3h7.7v7.4h-7.7V180.3z"/>
		<path class="st7" d="M249.7,161.1c0,1.2-0.3,2.1-0.8,2.7c-0.5,0.6-1.4,0.8-2.6,0.8h-6h-1.4c-1.2,0-2.2-0.3-3-0.8
			c-0.8-0.6-1.1-1.5-1.1-2.7v-6.6h-8.1v6.6c0,1.2-0.3,2.1-0.8,2.7c-0.6,0.6-1.4,0.8-2.7,0.8H219h-0.7c-1.1,0-2-0.3-2.7-0.8
			c-0.7-0.6-1.1-1.5-1.1-2.7v-6.6h-8.1v17.9c0,1-0.2,1.9-0.5,2.8c-0.3,0.9-0.8,1.7-1.6,2.5c-0.7,0.7-1.7,1.3-2.9,1.7
			c-1.2,0.4-2.7,0.7-4.5,0.7h-2.4l0.3,8.7h4.2c2.2,0,4.2-0.4,6.1-1.3c1.9-0.9,3.4-2.1,4.8-3.6c1.3-1.5,2.4-3.3,3.1-5.2
			c0.7-2,1.1-4.1,1.1-6.2v-0.8c0.6,0.7,1.3,1.2,2,1.4c0.7,0.2,1.5,0.3,2.2,0.3h0.7h4.2c1.4,0,2.7-0.2,3.9-0.7
			c1.2-0.5,2.4-1.5,3.5-3.1c1.1,1.6,2.2,2.6,3.6,3.1c1.3,0.5,2.8,0.7,4.4,0.7h1.7h6.7c3.5,0,6.2-1,8-2.9c1.9-1.9,2.8-4.8,2.8-8.7
			v-7.3h-8.1L249.7,161.1L249.7,161.1z"/>
		<path class="st7" d="M241.7,180.3h8.4v7.7h-8.4V180.3z"/>
		<path class="st7" d="M293,140.2h7.7v7.4H293V140.2z"/>
		<path class="st7" d="M302.5,154.5v6.6c0,1.2-0.3,2.1-0.8,2.7s-1.4,0.8-2.6,0.8h-6l0,0h-0.7c-1.4,0-2.4-0.3-3-0.8
			c-0.6-0.6-1.1-1.5-1.6-2.7l-6.3-17.5l-7.6,3.2c1.2,3.3,2.1,6,2.8,7.9c0.7,2,1.2,3.5,1.6,4.5c0.3,1.1,0.6,1.8,0.7,2.2
			c0.1,0.4,0.1,0.8,0.1,1.1c0,0.5-0.2,1-0.6,1.4c-0.4,0.4-1.2,0.7-2.5,0.7h-13l0.3,8.7H277c1.6,0,3-0.3,4.4-0.8
			c1.3-0.6,2.4-1.6,3.3-3c1.1,1.6,2.2,2.6,3.6,3.1c1.3,0.5,2.7,0.7,4.1,0.7h0.7l0,0h6.7c3.5,0,6.2-1,8-2.9s2.8-4.8,2.8-8.7v-7.3
			L302.5,154.5L302.5,154.5z"/>
		<path class="st7" d="M302.8,140.2h7.7v7.4h-7.7V140.2z"/>
		<g>
			<path class="st7" d="M166.1,85.2c-1.2-1.6-3.5-2.5-6.8-2.5h-4.2v-3.9c0-2.1,1.1-3.2,3.2-3.2h7.6l-0.3-8.7h-7.3
				c-1.7,0-3.3,0.3-4.7,0.8c-1.4,0.6-2.6,1.4-3.5,2.4c-1,1-1.7,2.2-2.2,3.6c-0.5,1.4-0.8,2.9-0.8,4.6v13h10.9c1.4,0,2.1,0.7,2.1,2.1
				c0,1.4-0.8,2.5-2.4,3.3c-1.6,0.8-4,1.2-7.4,1.2h-3.5c-1.6,0-2.9-0.2-3.9-0.6c-1-0.4-1.9-0.9-2.5-1.6c-0.6-0.7-1.1-1.6-1.3-2.5
				c-0.3-1-0.4-2.1-0.4-3.3V78.8h-8v11.6c0,5.1,1.3,9.1,3.9,12c2.6,2.9,6.3,4.4,11.1,4.4h5.7c2.4,0,4.7-0.4,6.7-1.1
				c2.1-0.7,3.8-1.8,5.3-3.1c1.5-1.3,2.6-2.9,3.5-4.6c0.8-1.8,1.2-3.7,1.2-5.8C167.9,89.1,167.3,86.8,166.1,85.2z"/>
			<path class="st7" d="M171.4,106.8c2.2,0,4.3-0.4,6.1-1.3c1.9-0.9,3.5-2.1,4.9-3.6c1.4-1.5,2.5-3.3,3.3-5.2c0.8-2,1.2-4.1,1.2-6.2
				V72.5h-8.1v17.9c0,1-0.2,1.9-0.5,2.8c-0.3,0.9-0.8,1.7-1.5,2.5c-0.7,0.7-1.6,1.3-2.7,1.7s-2.5,0.7-4,0.7h-0.7l0.4,8.7
				L171.4,106.8L171.4,106.8z"/>
			<path class="st7" d="M193.8,52h8.1v39.4h-8.1V52z"/>
			<path class="st7" d="M214,101.8c1.3-1.5,2.4-3.3,3.1-5.2c0.7-2,1.1-4.1,1.1-6.2v-0.8c0.6,0.7,1.3,1.2,2,1.4s1.5,0.3,2.2,0.3h0.7
				l0,0l0,0h16.1c1.3,0,2.5-0.2,3.7-0.5c1.1-0.3,2.1-0.8,3-1.5c0.8-0.7,1.5-1.6,2-2.7c0.5-1.1,0.8-2.4,0.8-4c0-0.9-0.1-1.7-0.3-2.5
				c-0.2-0.8-0.4-1.6-0.8-2.4c-0.4-0.8-1-1.7-1.6-2.6c-0.7-0.9-1.5-1.9-2.5-2.9l-8-8.1l15-5.3l-1.7-8l-21,7.7v9.1l10.9,10.8
				c0.6,0.5,0.9,1,1.1,1.4c0.2,0.4,0.3,0.9,0.3,1.5c0,0.3-0.1,0.7-0.3,1c-0.2,0.3-0.7,0.4-1.4,0.4h-15l0,0l0,0h-0.7
				c-1.1,0-2-0.3-2.7-0.8c-0.7-0.6-1.1-1.5-1.1-2.7v-6.6h-8.1v17.9c0,1-0.2,1.9-0.5,2.8c-0.3,0.9-0.8,1.7-1.6,2.5
				c-0.7,0.7-1.7,1.3-2.9,1.7c-1.2,0.4-2.7,0.7-4.5,0.7h-2.4l0.3,8.7h4.2c2.2,0,4.2-0.4,6.1-1.3C211.1,104.5,212.7,103.3,214,101.8z
				"/>
			<path class="st7" d="M210.2,57.9h8.4v7.7h-8.4V57.9z"/>
			<path class="st7" d="M247.5,46.7l-1.1-5.6l-19.2,7l0.4,6L247.5,46.7z"/>
			<path class="st7" d="M244.8,98.1l0.3,8.7h4.2c2.2,0,4.2-0.4,6.1-1.3c1.9-0.9,3.5-2.1,4.9-3.6c1.4-1.5,2.5-3.3,3.2-5.2
				c0.8-2,1.2-4.1,1.2-6.2V72.5h-8.1v17.9c0,1-0.2,1.9-0.5,2.8c-0.3,0.9-0.8,1.7-1.6,2.5c-0.7,0.7-1.7,1.3-2.9,1.7
				c-1.2,0.4-2.7,0.7-4.5,0.7L244.8,98.1L244.8,98.1z"/>
			<path class="st7" d="M274.4,89.3c0.8,0.8,1.8,1.3,2.9,1.6c1.1,0.3,2.3,0.5,3.5,0.5h3.5l0,0l0,0h16.1c1.3,0,2.5-0.2,3.7-0.5
				c1.1-0.3,2.1-0.8,3-1.5c0.8-0.7,1.5-1.6,2-2.7s0.8-2.4,0.8-4c0-0.9-0.1-1.7-0.3-2.5c-0.2-0.8-0.4-1.6-0.8-2.4s-1-1.7-1.6-2.6
				c-0.7-0.9-1.5-1.9-2.5-2.9l-8-8.1l15-5.3l-1.7-8l-21,7.7v9.1l10.9,10.8c0.6,0.5,0.9,1,1.1,1.4c0.2,0.4,0.3,0.9,0.3,1.5
				c0,0.3-0.1,0.7-0.3,1c-0.2,0.3-0.7,0.4-1.4,0.4h-15l0,0l0,0h-1.7c-1.9,0-2.8-1.1-2.8-3.2V52h-8.1v29.6c0,1.9,0.2,3.4,0.7,4.7
				C272.9,87.5,273.6,88.5,274.4,89.3z"/>
		</g>
	</g>
</g>
</svg>
