<svg xmlns="http://www.w3.org/2000/svg" viewBox="0 0 50.9 67.14">
  <defs>
    <style>
      .cls-1 {
        fill: #373939;
      }
    </style>
  </defs>
  <g id="Android" transform="translate(-42.5 -0.041)">
    <g id="Group_4" data-name="Group 4" transform="translate(42.5 0.041)">
      <path id="Path_14" data-name="Path 14" class="cls-1" d="M46.6,179.1a3.948,3.948,0,0,0-2.9,1.194,3.88,3.88,0,0,0-1.194,2.854v17.077a4.077,4.077,0,0,0,4.1,4.1,3.857,3.857,0,0,0,2.878-1.194,3.982,3.982,0,0,0,1.17-2.9V183.148a3.861,3.861,0,0,0-1.194-2.854A3.926,3.926,0,0,0,46.6,179.1Z" transform="translate(-42.5 -157.144)"/>
      <path id="Path_15" data-name="Path 15" class="cls-1" d="M146.263,6.1,148.7.908a.558.558,0,0,0-.175-.788.441.441,0,0,0-.681.239L145.376,5.6a15.036,15.036,0,0,0-13.781,0L129.119.358a.445.445,0,0,0-.681-.239.563.563,0,0,0-.175.788L130.7,6.1a16.089,16.089,0,0,0-5.9,6.09,17.15,17.15,0,0,0-2.2,8.55h31.709a17.15,17.15,0,0,0-2.2-8.55A16.038,16.038,0,0,0,146.263,6.1Zm-14.08,7.571a1.191,1.191,0,0,1-.939.454,1.178,1.178,0,0,1-.928-.454,1.669,1.669,0,0,1-.382-1.087,1.616,1.616,0,0,1,.382-1.087,1.164,1.164,0,0,1,.928-.454,1.2,1.2,0,0,1,.939.454,1.646,1.646,0,0,1,.392,1.087A1.547,1.547,0,0,1,132.183,13.673Zm14.452,0a1.13,1.13,0,0,1-.928.454,1.2,1.2,0,0,1-.939-.454,1.574,1.574,0,0,1-.392-1.087,1.624,1.624,0,0,1,.392-1.087,1.213,1.213,0,0,1,.939-.454,1.193,1.193,0,0,1,.928.454,1.693,1.693,0,0,1,.382,1.087A1.637,1.637,0,0,1,146.635,13.673Z" transform="translate(-113.035 -0.041)"/>
      <path id="Path_16" data-name="Path 16" class="cls-1" d="M124,211.839a4.561,4.561,0,0,0,1.092,3.093,3.389,3.389,0,0,0,2.669,1.266H130.3l.031,9.016a4.287,4.287,0,0,0,1.03,2.9,3.138,3.138,0,0,0,2.463,1.194,3.188,3.188,0,0,0,2.5-1.194,4.266,4.266,0,0,0,1.03-2.9v-9h4.729v9a4.287,4.287,0,0,0,1.03,2.9,3.222,3.222,0,0,0,5.008,0,4.266,4.266,0,0,0,1.03-2.9v-9h2.566a3.359,3.359,0,0,0,2.638-1.266,4.561,4.561,0,0,0,1.092-3.093V185.4H124Z" transform="translate(-114.267 -162.17)"/>
      <path id="Path_17" data-name="Path 17" class="cls-1" d="M446.448,179.1a4.036,4.036,0,0,0-4.048,4.048v17.077a3.948,3.948,0,0,0,1.194,2.9,3.88,3.88,0,0,0,2.854,1.194,4.077,4.077,0,0,0,4.1-4.1V183.148a3.857,3.857,0,0,0-1.194-2.878A4.021,4.021,0,0,0,446.448,179.1Z" transform="translate(-399.644 -157.144)"/>
    </g>
  </g>
</svg>
