<svg xmlns="http://www.w3.org/2000/svg" viewBox="0 0 34.136 45.028">
  <defs>
    <style>
      .cls-1 {
        fill: #fff;
      }
    </style>
  </defs>
  <g id="Android" transform="translate(-42.5 -0.041)">
    <g id="Group_4" data-name="Group 4" transform="translate(42.5 0.041)">
      <path id="Path_14" data-name="Path 14" class="cls-1" d="M45.247,179.1a2.648,2.648,0,0,0-1.946.8,2.6,2.6,0,0,0-.8,1.914v11.453a2.734,2.734,0,0,0,2.747,2.747,2.587,2.587,0,0,0,1.93-.8,2.67,2.67,0,0,0,.785-1.946V181.815a2.589,2.589,0,0,0-.8-1.914A2.633,2.633,0,0,0,45.247,179.1Z" transform="translate(-42.5 -164.375)"/>
      <path id="Path_15" data-name="Path 15" class="cls-1" d="M138.47,4.106,140.1.622a.374.374,0,0,0-.118-.529.3.3,0,0,0-.457.16L137.875,3.77a10.084,10.084,0,0,0-9.242,0L126.972.254a.3.3,0,0,0-.457-.16.378.378,0,0,0-.118.529l1.633,3.484a10.79,10.79,0,0,0-3.957,4.084,11.5,11.5,0,0,0-1.474,5.734h21.266a11.5,11.5,0,0,0-1.474-5.734A10.756,10.756,0,0,0,138.47,4.106Zm-9.443,5.078a.8.8,0,0,1-.63.3.79.79,0,0,1-.623-.3,1.12,1.12,0,0,1-.256-.729,1.084,1.084,0,0,1,.256-.729.78.78,0,0,1,.623-.3.8.8,0,0,1,.63.3,1.1,1.1,0,0,1,.263.729A1.037,1.037,0,0,1,129.027,9.183Zm9.692,0a.758.758,0,0,1-.623.3.8.8,0,0,1-.63-.3,1.056,1.056,0,0,1-.263-.729,1.089,1.089,0,0,1,.263-.729.814.814,0,0,1,.63-.3.8.8,0,0,1,.623.3,1.135,1.135,0,0,1,.256.729A1.1,1.1,0,0,1,138.719,9.183Z" transform="translate(-116.185 -0.041)"/>
      <path id="Path_16" data-name="Path 16" class="cls-1" d="M124,203.131a3.059,3.059,0,0,0,.732,2.074,2.273,2.273,0,0,0,1.79.849h1.7l.021,6.047a2.875,2.875,0,0,0,.691,1.946,2.1,2.1,0,0,0,1.652.8,2.138,2.138,0,0,0,1.679-.8,2.861,2.861,0,0,0,.691-1.946v-6.039h3.172V212.1a2.875,2.875,0,0,0,.691,1.946,2.161,2.161,0,0,0,3.358,0,2.861,2.861,0,0,0,.691-1.946v-6.039h1.721a2.252,2.252,0,0,0,1.769-.849,3.059,3.059,0,0,0,.732-2.074V185.4H124Z" transform="translate(-117.473 -169.821)"/>
      <path id="Path_17" data-name="Path 17" class="cls-1" d="M445.115,179.1a2.707,2.707,0,0,0-2.715,2.715v11.453a2.648,2.648,0,0,0,.8,1.946,2.6,2.6,0,0,0,1.914.8,2.734,2.734,0,0,0,2.747-2.747V181.815a2.587,2.587,0,0,0-.8-1.93A2.7,2.7,0,0,0,445.115,179.1Z" transform="translate(-413.726 -164.375)"/>
    </g>
  </g>
</svg>
