<svg xmlns="http://www.w3.org/2000/svg" viewBox="0 0 79.482 103.888">
  <defs>
    <style>
      .cls-1 {
        fill: none;
        stroke: #311476;
        stroke-width: 3px;
      }
    </style>
  </defs>
  <g id="Android" transform="translate(-41 1.464)">
    <g id="Group_4" data-name="Group 4" transform="translate(42.5 0.041)">
      <path id="Path_14" data-name="Path 14" class="cls-1" d="M48.655,179.1a5.932,5.932,0,0,0-4.36,1.794,5.83,5.83,0,0,0-1.794,4.289v25.659A6.127,6.127,0,0,0,48.655,217a5.8,5.8,0,0,0,4.324-1.794,5.983,5.983,0,0,0,1.758-4.36V185.183a5.8,5.8,0,0,0-1.794-4.289A5.9,5.9,0,0,0,48.655,179.1Z" transform="translate(-42.5 -146.109)"/>
      <path id="Path_15" data-name="Path 15" class="cls-1" d="M158.157,9.149l3.658-7.805a.838.838,0,0,0-.264-1.184.663.663,0,0,0-1.023.359l-3.7,7.877a22.593,22.593,0,0,0-20.708,0L132.4.518a.668.668,0,0,0-1.023-.359.846.846,0,0,0-.264,1.184l3.658,7.805A24.176,24.176,0,0,0,125.9,18.3a25.77,25.77,0,0,0-3.3,12.848h47.646a25.77,25.77,0,0,0-3.3-12.848A24.1,24.1,0,0,0,158.157,9.149ZM137,20.525a1.79,1.79,0,0,1-1.41.682,1.771,1.771,0,0,1-1.395-.682,2.508,2.508,0,0,1-.574-1.633,2.428,2.428,0,0,1,.574-1.633,1.749,1.749,0,0,1,1.395-.682,1.8,1.8,0,0,1,1.41.682,2.474,2.474,0,0,1,.589,1.633A2.324,2.324,0,0,1,137,20.525Zm21.715,0a1.7,1.7,0,0,1-1.395.682,1.8,1.8,0,0,1-1.41-.682,2.365,2.365,0,0,1-.589-1.633,2.44,2.44,0,0,1,.589-1.633,1.823,1.823,0,0,1,1.41-.682,1.793,1.793,0,0,1,1.395.682,2.544,2.544,0,0,1,.574,1.633A2.46,2.46,0,0,1,158.714,20.525Z" transform="translate(-108.227 -0.041)"/>
      <path id="Path_16" data-name="Path 16" class="cls-1" d="M124,225.127a6.853,6.853,0,0,0,1.641,4.647,5.092,5.092,0,0,0,4.01,1.9h3.809l.046,13.548a6.442,6.442,0,0,0,1.548,4.36,4.715,4.715,0,0,0,3.7,1.794,4.79,4.79,0,0,0,3.762-1.794,6.41,6.41,0,0,0,1.548-4.36v-13.53h7.106v13.53a6.442,6.442,0,0,0,1.548,4.36,4.841,4.841,0,0,0,7.524,0,6.41,6.41,0,0,0,1.548-4.36v-13.53h3.855a5.046,5.046,0,0,0,3.963-1.9,6.853,6.853,0,0,0,1.641-4.647V185.4H124Z" transform="translate(-109.376 -150.495)"/>
      <path id="Path_17" data-name="Path 17" class="cls-1" d="M448.483,179.1a6.065,6.065,0,0,0-6.083,6.083v25.659a5.932,5.932,0,0,0,1.794,4.36A5.83,5.83,0,0,0,448.483,217a6.127,6.127,0,0,0,6.155-6.155V185.183a5.8,5.8,0,0,0-1.794-4.324A6.042,6.042,0,0,0,448.483,179.1Z" transform="translate(-378.156 -146.109)"/>
    </g>
  </g>
</svg>
