<svg xmlns="http://www.w3.org/2000/svg" viewBox="0 0 1339.833 530.648">
  <defs>
    <style>
      .cls-1 {
        fill: #e8e7e7;
      }
    </style>
  </defs>
  <path id="Union_1" data-name="Union 1" class="cls-1" d="M874.194,499.575a220.935,220.935,0,0,1-28.142,1.773c-48.857,0-90.561-15.575-106.966-37.5-22.574,12.807-60.639,21.218-103.8,21.218-7.341,0-14.538-.244-21.533-.711-17.508,16.363-53.2,27.569-94.385,27.569-34.656,0-65.427-7.937-84.742-20.2-18.168,6.051-40.567,9.622-64.8,9.622-53.644,0-98.312-17.507-107.964-40.661-27.725,6.072-63.6,9.733-102.8,9.733C71.22,470.421,0,452.02,0,429.32c0-7.448,7.668-14.434,21.076-20.458V0H1305.711V415.385c21.2,7.659,34.122,17.831,34.122,28.992,0,21.9-49.761,39.994-114.217,42.767-17.454,24.83-92.689,43.5-182.855,43.5C968.409,530.648,904.213,517.952,874.194,499.575Z" transform="translate(1339.833 530.648) rotate(180)"/>
</svg>
