<svg xmlns="http://www.w3.org/2000/svg" viewBox="0 0 50 48.763">
  <defs>
    <style>
      .cls-1 {
        fill: #373939;
        fill-rule: evenodd;
      }
    </style>
  </defs>
  <path id="Github" class="cls-1" d="M25,0a25,25,0,0,0-7.905,48.721c1.25.22,1.719-.532,1.719-1.187,0-.6-.029-2.563-.029-4.658-6.279,1.157-7.905-1.533-8.408-2.939-.283-.718-1.5-2.939-2.563-3.53-.874-.469-2.124-1.626-.029-1.655,1.968-.029,3.374,1.812,3.843,2.563,2.251,3.779,5.845,2.72,7.28,2.061A5.268,5.268,0,0,1,20.5,36.03c-5.562-.625-11.377-2.783-11.377-12.344a9.711,9.711,0,0,1,2.563-6.719,9.005,9.005,0,0,1,.249-6.626s2.095-.654,6.875,2.563a23.544,23.544,0,0,1,12.5,0c4.78-3.252,6.875-2.563,6.875-2.563a8.979,8.979,0,0,1,.249,6.626A9.681,9.681,0,0,1,41,23.687c0,9.595-5.845,11.719-11.406,12.344a5.911,5.911,0,0,1,1.689,4.624c0,3.345-.029,6.03-.029,6.875,0,.654.469,1.436,1.719,1.187A25.012,25.012,0,0,0,25,0Z"/>
</svg>
