<svg xmlns="http://www.w3.org/2000/svg" viewBox="0 0 36.035 35.144">
  <defs>
    <style>
      .cls-1 {
        fill: #fff;
        fill-rule: evenodd;
      }
    </style>
  </defs>
  <path id="Github" class="cls-1" d="M18.018,0a18.019,18.019,0,0,0-5.7,35.113c.9.158,1.239-.384,1.239-.855,0-.429-.021-1.848-.021-3.357-4.526.834-5.7-1.1-6.06-2.118A6.542,6.542,0,0,0,5.63,26.238C5,25.9,4.1,25.066,5.609,25.045a3.606,3.606,0,0,1,2.769,1.848,3.849,3.849,0,0,0,5.247,1.485,3.8,3.8,0,0,1,1.147-2.411c-4.008-.45-8.2-2.006-8.2-8.9a7,7,0,0,1,1.848-4.842A6.49,6.49,0,0,1,8.6,7.453s1.51-.472,4.955,1.848a16.968,16.968,0,0,1,9.009,0c3.445-2.344,4.955-1.848,4.955-1.848a6.471,6.471,0,0,1,.179,4.775,6.977,6.977,0,0,1,1.848,4.842c0,6.915-4.212,8.446-8.221,8.9A4.26,4.26,0,0,1,22.543,29.3c0,2.411-.021,4.346-.021,4.955,0,.472.338,1.035,1.239.855A18.026,18.026,0,0,0,18.018,0Z"/>
</svg>
