<svg xmlns="http://www.w3.org/2000/svg" viewBox="0 0 171.563 93.365">
  <defs>
    <style>
      .cls-1 {
        fill: #311476;
      }
    </style>
  </defs>
  <g id="Group_37" data-name="Group 37" transform="translate(-1027.016 -2232)">
    <path id="Path_29" data-name="Path 29" class="cls-1" d="M127.844,10.028H59.606a3.929,3.929,0,0,0-3.917,3.917V82.183A3.928,3.928,0,0,0,59.606,86.1h68.238a3.928,3.928,0,0,0,3.917-3.917V13.945a3.929,3.929,0,0,0-3.917-3.917Zm0,68.238a3.928,3.928,0,0,1-3.917,3.917h-60.4a3.928,3.928,0,0,1-3.917-3.917v-60.4a3.929,3.929,0,0,1,3.917-3.917h60.4a3.929,3.929,0,0,1,3.917,3.917Z" transform="translate(1019.359 2230.618)"/>
    <path id="Path_30" data-name="Path 30" class="cls-1" d="M167.453,71.8a4.092,4.092,0,0,0-3.868,2.758h-9.2l-4.416-4.828H135.193V69.3h-5.418V65.891h5.418V64.383h6.73a3.047,3.047,0,1,0,0-1.649h-6.73v-.159h-5.418V58.828h5.418v-.844l14.772.232,1.955,2.165a3.063,3.063,0,1,0,1.045-1.1l-3-2.91H135.193v-.862h-5.418V52.027h5.418v-.761h13.64l5.11,5.11h10.605a3.051,3.051,0,1,0,.328-2.556H154.387l-4.416-4.828H135.193v-.284h-5.418V45.259h5.418v-1.1h22.564a3.047,3.047,0,1,0,0-1.768H135.193v-.448h-5.418v-3.6h5.418v-.327h11.972l5.944-5.944h11.428a3.051,3.051,0,1,0-.039-1.626H153.252l-5.691,5.691H135.193V35.026h-5.418V31.5h5.418v-.733h6.681a3.051,3.051,0,1,0-.148-1.931h-6.533v-.653h-5.418V24.665h5.418v-1H157.9l4.755-4.755a3.06,3.06,0,1,0-1-1.183l-.044-.04-4.329,4.02H135.193v-.362h-5.418V6.692L123.083,0h-71.9L42.322,8.861V21.033H36.348v.617H22.709L17.6,16.54H8a4.1,4.1,0,1,0-.04,2.555h9.2l4.416,4.828H36.348v.431h5.973v3.42H36.348v1.509h-6.73a3.046,3.046,0,1,0,0,1.649h6.73v.16h5.973v3.742H36.348v.845l-14.772-.233-1.952-2.164a3.06,3.06,0,1,0-1.044,1.1l3,2.91H36.348v.862h5.973v3.485H36.348v.761H22.709l-5.11-5.11H6.992a3.05,3.05,0,1,0-.327,2.556H17.155l4.416,4.828H36.348v.285h5.973V48.4H36.348v1.1H13.787a3.046,3.046,0,1,0,0,1.768H36.348v.447h5.973v3.6H36.348v.326H24.377l-5.944,5.945H7.005a3.052,3.052,0,1,0,.038,1.626H18.293l5.691-5.691H36.348v1.111h5.973v3.522H36.348v.733H29.667a3.051,3.051,0,1,0,.148,1.93h6.533v.654h5.973v3.521H36.348v1H13.639L8.884,74.746a3.063,3.063,0,1,0,1,1.183l.045.041,4.328-4.02H36.348v.362h5.973V87.238l6.843,6.128h73.559l7.054-5.762V72.628h5.416v-.617h13.64l5.11,5.11h9.6a4.094,4.094,0,1,0,3.908-5.317Zm-22.6-9.926a1.68,1.68,0,1,1-1.68,1.68,1.68,1.68,0,0,1,1.68-1.68Zm9.722-1.7a1.68,1.68,0,1,1-1.68,1.68,1.68,1.68,0,0,1,1.68-1.68Zm12.875-6.42a1.68,1.68,0,1,1-1.681,1.68,1.68,1.68,0,0,1,1.681-1.68Zm-6.781-12.169a1.68,1.68,0,1,1-1.68,1.68,1.68,1.68,0,0,1,1.68-1.68ZM167.453,29.5a1.68,1.68,0,1,1-1.681,1.68,1.68,1.68,0,0,1,1.681-1.68Zm-22.772-1.6a1.68,1.68,0,1,1-1.68,1.68,1.68,1.68,0,0,1,1.68-1.68Zm19.725-13.156a1.68,1.68,0,1,1-1.68,1.68,1.68,1.68,0,0,1,1.68-1.68ZM4.091,20.021a2.257,2.257,0,1,1,2.257-2.259A2.257,2.257,0,0,1,4.091,20.021Zm22.6,11.761a1.68,1.68,0,1,1,1.677-1.68,1.68,1.68,0,0,1-1.677,1.68Zm-9.722,1.693a1.68,1.68,0,1,1,1.68-1.68A1.68,1.68,0,0,1,16.965,33.475ZM4.091,39.9a1.68,1.68,0,1,1,1.683-1.68A1.68,1.68,0,0,1,4.091,39.9Zm6.78,12.172a1.68,1.68,0,1,1,1.68-1.68,1.68,1.68,0,0,1-1.68,1.68Zm-6.78,12.09a1.68,1.68,0,1,1,1.683-1.68A1.68,1.68,0,0,1,4.091,64.157Zm22.772,1.6a1.68,1.68,0,1,1,1.68-1.68A1.68,1.68,0,0,1,26.863,65.762ZM7.137,78.92a1.68,1.68,0,1,1,1.68-1.68,1.68,1.68,0,0,1-1.68,1.68Zm118.136,4.828a4.677,4.677,0,0,1-4.5,4.808H51.329a4.677,4.677,0,0,1-4.5-4.808V9.615a4.677,4.677,0,0,1,4.5-4.808H120.77a4.677,4.677,0,0,1,4.5,4.808Zm42.18-5.595a2.257,2.257,0,1,1,2.257-2.257,2.257,2.257,0,0,1-2.257,2.257Z" transform="translate(1027.034 2232)"/>
  </g>
</svg>
