<?xml version="1.0" encoding="utf-8"?>
<!-- Generator: Adobe Illustrator 23.0.6, SVG Export Plug-In . SVG Version: 6.00 Build 0)  -->
<svg version="1.1" id="Layer_1" xmlns="http://www.w3.org/2000/svg" xmlns:xlink="http://www.w3.org/1999/xlink" x="0px" y="0px"
	 viewBox="0 0 1000 1000" style="enable-background:new 0 0 1000 1000;" xml:space="preserve">
<style type="text/css">
	.st0{fill:url(#SVGID_1_);}
	.st1{fill:#F6B817;}
	.st2{fill:#F9EC31;}
</style>
<g>
	<linearGradient id="SVGID_1_" gradientUnits="userSpaceOnUse" x1="226.7" y1="500" x2="773.3" y2="500">
		<stop  offset="8.612040e-02" style="stop-color:#F6B817"/>
		<stop  offset="0.4345" style="stop-color:#F9EC31"/>
		<stop  offset="1" style="stop-color:#F6B817"/>
	</linearGradient>
	<path class="st0" d="M540.7,611.5l-9.6-4.2v-356c0-14.9-19-27.5-41.5-27.5s-41.5,12.6-41.5,27.5v356l-9.6,4.2
		c-45.7,20.2-75.2,65.6-75.2,115.5c0,69.6,56.6,126.3,126.3,126.3c69.6,0,126.3-56.6,126.3-126.3
		C615.9,677.1,586.4,631.8,540.7,611.5L540.7,611.5z M670.1,535.8l-5-4.8V148c0-37.5-19.5-73.7-53.6-99.5
		C578.6,23.7,535.4,10,489.6,10s-89,13.7-121.8,38.5c-34.1,25.8-53.6,62.1-53.6,99.5v383l-5,4.8c-52.4,49.4-82.5,119.1-82.5,191.3
		c0,70.2,27.4,136.3,77,185.9s115.7,77,185.9,77s136.3-27.4,185.9-77c49.7-49.7,77-115.7,77-185.9
		C752.6,654.9,722.5,585.2,670.1,535.8L670.1,535.8z M489.6,947.1c-121.3,0-220.1-98.7-220.1-220.1c0-65.8,29.1-127.6,79.8-169.6
		l7.8-6.4V148c0-25.8,15.2-50.9,41.6-68.9c24.9-16.9,57.2-26.2,90.9-26.2s66,9.3,90.9,26.2C607,97,622.1,122.2,622.1,148v403.1
		l7.8,6.4c50.7,42,79.8,103.8,79.8,169.6C709.7,848.4,611,947.1,489.6,947.1L489.6,947.1z M715.6,175.7h40.9
		c9.3,0,16.8-6.1,16.8-13.6s-7.5-13.6-16.8-13.6h-40.9c-9.3,0-16.8,6.1-16.8,13.6S706.4,175.7,715.6,175.7L715.6,175.7z
		 M756.5,207.9h-40.9c-9.3,0-16.8,6.1-16.8,13.6s7.5,13.6,16.8,13.6h40.9c9.3,0,16.8-6.1,16.8-13.6S765.8,207.9,756.5,207.9
		L756.5,207.9z M756.5,267.2h-40.9c-9.3,0-16.8,6.1-16.8,13.6s7.5,13.6,16.8,13.6h40.9c9.3,0,16.8-6.1,16.8-13.6
		C773.3,273.3,765.8,267.2,756.5,267.2L756.5,267.2z M756.5,326.6h-40.9c-9.3,0-16.8,6.1-16.8,13.6s7.5,13.6,16.8,13.6h40.9
		c9.3,0,16.8-6.1,16.8-13.6S765.8,326.6,756.5,326.6L756.5,326.6z M756.5,385.9h-40.9c-9.3,0-16.8,6.1-16.8,13.6s7.5,13.6,16.8,13.6
		h40.9c9.3,0,16.8-6.1,16.8-13.6S765.8,385.9,756.5,385.9L756.5,385.9z M756.5,445.3h-40.9c-9.3,0-16.8,6.1-16.8,13.6
		s7.5,13.6,16.8,13.6h40.9c9.3,0,16.8-6.1,16.8-13.6S765.8,445.3,756.5,445.3L756.5,445.3z"/>
</g>
<rect x="-368.3" y="482.5" class="st1" width="16.5" height="16.5"/>
<rect x="-318.9" y="482.5" class="st2" width="16.5" height="16.5"/>
<rect x="-342" y="482.5" class="st1" width="16.5" height="16.5"/>
<rect x="-294.6" y="482.5" class="st2" width="16.5" height="16.5"/>
</svg>
