<?xml version="1.0" encoding="utf-8"?>
<!-- Generator: Adobe Illustrator 23.0.6, SVG Export Plug-In . SVG Version: 6.00 Build 0)  -->
<svg version="1.1" id="Layer_1" xmlns="http://www.w3.org/2000/svg" xmlns:xlink="http://www.w3.org/1999/xlink" x="0px" y="0px"
	 viewBox="0 0 1000 1000" style="enable-background:new 0 0 1000 1000;" xml:space="preserve">
<style type="text/css">
	.st0{fill:url(#SVGID_1_);}
	.st1{fill:url(#SVGID_2_);}
	.st2{fill:#F6B817;}
	.st3{fill:#F9EC31;}
</style>
<g transform="translate(0.000000,442.000000) scale(0.100000,-0.100000)">
	<linearGradient id="SVGID_1_" gradientUnits="userSpaceOnUse" x1="100.0145" y1="-218.9439" x2="1079.9633" y2="-218.9439">
		<stop  offset="2.175220e-02" style="stop-color:#F6B817"/>
		<stop  offset="0.4945" style="stop-color:#F9EC31"/>
		<stop  offset="1" style="stop-color:#F6B817"/>
	</linearGradient>
	<path class="st0" d="M4482.6,3611.3c-406-40.2-934.5-174.3-1330.9-335.1C1531.6,2613.6,403.6,1163.9,145.1-590.2
		C36-1329.4,127.9-2204.5,388.3-2924.6c153.2-421.3,463.4-1007.3,584.1-1103c72.8-55.5,164.7-49.8,239.4,17.2
		c51.7,46,63.2,68.9,61.3,130.2c-1.9,42.1-17.2,97.7-36.4,126.4c-17.2,26.8-26.8,57.5-21.1,67c5.7,9.6,90,63.2,185.8,118.7
		c139.8,80.4,180,114.9,203,166.6c34.5,84.2,19.2,158.9-44,218.3c-80.4,74.7-178.1,59.4-375.3-57.4c-90-53.6-170.4-97.7-176.2-97.7
		c-38.3,0-250.9,509.4-339,815.8c-86.2,296.8-170.4,787.1-170.4,986.2v70.9l229.8,7.7c220.2,5.7,231.7,7.7,281.5,59.4
		c42.1,42.1,53.6,70.9,53.6,136c0,155.1-90,203-390.7,203h-180L507-885.1c24.9,331.3,107.2,727.7,222.1,1070.5
		c57.5,176.2,218.3,551.5,254.7,599.4c21.1,26.8,46,17.2,204.9-74.7c212.6-122.6,275.8-130.2,367.7-47.9
		c51.7,46,63.2,68.9,63.2,132.1c0,99.6-36.4,137.9-243.2,258.5c-93.8,53.6-168.5,105.3-168.5,114.9c0,28.7,197.2,298.7,360,494.1
		c237.5,283.4,524.7,543.9,863.7,779.4l143.6,99.6l91.9-157c49.8-88.1,113-181.9,137.9-210.6c88.1-101.5,270-63.2,316,65.1
		c24.9,70.8,3.8,139.8-101.5,321.7c-49.8,84.3-88.1,158.9-88.1,168.5c0,26.8,348.5,183.8,593.6,268.1
		c379.2,130.2,896.2,233.6,1164.3,233.6h114.9l7.7-229.8c5.7-220.2,7.7-231.7,59.4-281.5c70.9-72.8,185.8-70.8,260.4,1.9
		c47.9,47.9,49.8,61.3,55.5,279.6l7.7,229.8h114.9c268.1,0,785.1-103.4,1164.3-233.6c241.3-82.3,593.6-241.3,593.6-268.1
		c0-7.7-44-93.8-97.7-187.7c-107.2-187.7-122.6-270-61.3-352.4c38.3-53.6,124.5-91.9,174.2-76.6c93.8,30.6,130.2,68.9,231.7,241.3
		l109.1,187.7l143.6-99.6c339-235.5,626.2-496,863.7-779.4c164.7-197.2,360-465.3,360-494.1c0-9.6-67-55.5-147.4-101.5
		c-80.4-47.9-170.4-105.3-199.2-128.3c-128.3-109.2-65.1-308.3,101.5-325.5c72.7-7.7,103.4,3.8,264.2,97.7
		c159,91.9,183.8,101.5,204.9,74.7c36.4-47.9,197.2-423.2,254.7-599.4c114.9-342.8,197.3-739.2,222.1-1070.5l13.4-174.3h-180
		c-300.6,0-390.7-47.9-390.7-203c0-65.1,11.5-93.8,53.6-136c49.8-51.7,61.3-53.6,281.5-59.4l229.8-7.7v-70.9
		c0-172.3-72.8-622.4-147.4-898.1c-82.4-312.2-317.9-903.9-360-903.9c-5.7,0-86.2,44-178.1,97.7
		c-197.3,118.7-294.9,132.1-375.4,57.4c-65.1-61.3-78.5-137.9-40.2-220.2c24.9-53.6,72.8-91.9,203-166.6
		c93.8-55.5,176.2-107.2,181.9-116.8c5.8-9.6-3.8-40.2-23-67c-65.1-101.5-21.1-273.8,78.5-300.7c95.8-26.8,159-11.5,214.5,53.6
		c84.2,95.7,243.2,365.8,363.8,618.5c549.6,1154.7,631.9,2439.7,235.5,3646.1C9047.9,2108,7406.7,3425.5,5489.8,3611.3
		C5248.5,3636.2,4720,3634.3,4482.6,3611.3z"/>
	<linearGradient id="SVGID_2_" gradientUnits="userSpaceOnUse" x1="4022.4189" y1="-843.7919" x2="4431.1274" y2="-843.7919">
		<stop  offset="2.175220e-02" style="stop-color:#F6B817"/>
		<stop  offset="0.4945" style="stop-color:#F9EC31"/>
		<stop  offset="1" style="stop-color:#F6B817"/>
	</linearGradient>
	<path class="st1" d="M6782.4,51.3l-1254.3-496l-76.6,46c-124.5,70.9-271.9,105.3-453.9,105.3c-861.7,0-1300.3-1043.7-693.2-1654.6
		c197.2-197.2,411.7-287.2,695.1-287.2s497.9,90,695.1,287.2c162.8,162.8,260.4,383,285.3,633.9c5.7,55.5,103.4,141.7,1068.5,926.8
		c584.3,475,1063,873.3,1061.1,881c-1.9,9.6-3.8,26.8-3.8,36.4c-1.9,11.5-19.2,19.2-36.4,17.2
		C8050.2,547.3,7471.8,323.3,6782.4,51.3z M5239-731.9c296.8-130.2,429-509.4,281.5-800.5c-212.6-413.6-829.2-413.6-1041.8,0
		c-134,264.3-38.3,609,214.5,766C4846.4-672.5,5070.5-657.2,5239-731.9z"/>
</g>
<rect x="-175.2" y="306.8" class="st2" width="16.5" height="16.5"/>
<rect x="-125.9" y="306.8" class="st3" width="16.5" height="16.5"/>
<rect x="-149" y="306.8" class="st2" width="16.5" height="16.5"/>
<rect x="-101.5" y="306.8" class="st3" width="16.5" height="16.5"/>
</svg>
