<svg xmlns="http://www.w3.org/2000/svg" xmlns:xlink="http://www.w3.org/1999/xlink" viewBox="0 0 101.979 101.387">
  <defs>
    <style>
      .cls-1, .cls-2 {
        fill: none;
        stroke: #311476;
        stroke-width: 2px;
      }

      .cls-2 {
        stroke-miterlimit: 10;
      }

      .cls-3 {
        clip-path: url(#clip-path);
      }
    </style>
    <clipPath id="clip-path">
      <path id="Path_68" data-name="Path 68" class="cls-1" d="M0,0H99.979V100.231H0Z"/>
    </clipPath>
  </defs>
  <g id="hashbazaar_windows" transform="translate(0.5 0.582)">
    <g id="Layer_1" data-name="Layer 1" transform="translate(0.5 0.574)">
      <path id="Path_22" data-name="Path 22" class="cls-2" d="M19.592,8.44Q46.643,4.3,73.759.574q.019,23.757.012,47.494c-18.057.07-36.112.343-54.179.4q-.019-20.027,0-40.029Z" transform="translate(26.208 -0.574)"/>
      <path id="Path_23" data-name="Path 23" class="cls-2" d="M.5,9.787c13.58-2.1,27.217-3.907,40.852-5.61q.019,19.7.024,39.385c-13.625,0-27.25.194-40.876.161Z" transform="translate(-0.5 4.469)"/>
      <g id="Mask_Group_1" data-name="Mask Group 1" class="cls-3">
        <path id="Path_24" data-name="Path 24" class="cls-2" d="M.5,22.383c13.613-.046,27.226.173,40.842.149,0,13.169.034,26.336,0,39.5C27.75,60.019,14.125,58.255.5,56.412Z" transform="translate(-0.5 29.942)"/>
        <path id="Path_25" data-name="Path 25" class="cls-2" d="M19.552,22.6H73.8q.036,23.685,0,47.379c-18.033-2.7-36.1-5.21-54.167-7.66Q19.6,42.464,19.552,22.6Z" transform="translate(26.166 30.255)"/>
      </g>
    </g>
  </g>
</svg>
