<?xml version="1.0" encoding="utf-8"?>
<!-- Generator: Adobe Illustrator 23.0.6, SVG Export Plug-In . SVG Version: 6.00 Build 0)  -->
<svg version="1.1" id="Layer_1" xmlns="http://www.w3.org/2000/svg" xmlns:xlink="http://www.w3.org/1999/xlink" x="0px" y="0px"
	 viewBox="0 0 53.8 60.6" style="enable-background:new 0 0 53.8 60.6;" xml:space="preserve">
<style type="text/css">
	.st0{fill:#373939;}
	.st1{fill:none;stroke:#707070;stroke-width:0.912;stroke-miterlimit:10;}
	.st2{fill:none;stroke:#707070;stroke-width:0.684;stroke-miterlimit:10;}
	.st3{fill:#373939;stroke:#707070;stroke-width:0.912;stroke-miterlimit:10;}
	.st4{fill:#373939;stroke:#707070;stroke-width:0.684;stroke-miterlimit:10;}
	.st5{fill:none;}
</style>
<path id="Path_112" class="st0" d="M34.8,40.7l-2-3.1c-2.5-3.8-8.8-3.8-11.3,0l-2,3.1l-7.7,11.6h1.9l6.7-11l1.8-2.9
	c1.8-2.7,5.4-3.5,8.1-1.8c0.7,0.5,1.3,1.1,1.8,1.8l1.8,2.9l6.8,11h1.9L34.8,40.7z"/>
<path id="Path_113" class="st0" d="M19,27l2,3.1c2.5,3.8,8.8,3.8,11.3,0l2-3.1l7.7-11.6h-1.9l-6.8,11l-1.8,2.9
	c-1.8,2.7-5.4,3.5-8.1,1.8c-0.7-0.5-1.3-1.1-1.8-1.8L20,26.3l-6.8-11h-1.9L19,27z"/>
<path id="Path_114" class="st0" d="M4.5,0v7.1h1.2v-6h42.1v6h1.5V0H4.5z"/>
<g id="Group_79" transform="translate(2.057 39.791)">
	<path id="Path_115" class="st0" d="M2.8-30.6c-1.5,0-2.6,1.2-2.6,2.6c0,1.5,1.2,2.6,2.6,2.6s2.6-1.2,2.6-2.6l0,0l0,0
		C5.5-29.4,4.3-30.6,2.8-30.6z M2.8-26.4c-0.9,0-1.6-0.7-1.6-1.6c0-0.9,0.7-1.6,1.6-1.6s1.6,0.7,1.6,1.6l0,0
		C4.4-27.1,3.7-26.4,2.8-26.4z"/>
	<line id="Line_10" class="st1" x1="1.6" y1="-29.2" x2="3.9" y2="-26.8"/>
	<line id="Line_11" class="st2" x1="3.9" y1="-29.1" x2="1.8" y2="-26.8"/>
</g>
<g id="Group_80" transform="translate(2.057 84.08)">
	<path id="Path_116" class="st0" d="M2.8-30.6c-1.5,0-2.6,1.2-2.6,2.6c0,1.5,1.2,2.6,2.6,2.6s2.6-1.2,2.6-2.6l0,0
		C5.5-29.4,4.3-30.6,2.8-30.6z M2.8-26.4c-0.9,0-1.6-0.7-1.6-1.6c0-0.9,0.7-1.6,1.6-1.6c0.9,0,1.6,0.7,1.6,1.6l0,0
		C4.4-27.1,3.7-26.4,2.8-26.4z"/>
	<line id="Line_12" class="st1" x1="1.6" y1="-29.2" x2="3.9" y2="-26.8"/>
	<line id="Line_13" class="st2" x1="3.9" y1="-29.1" x2="1.8" y2="-26.8"/>
</g>
<g id="Group_81" transform="translate(46.077 84.08)">
	<path id="Path_117" class="st0" d="M2.8-30.6c-1.5,0-2.6,1.2-2.6,2.6c0,1.5,1.2,2.6,2.6,2.6c1.5,0,2.6-1.2,2.6-2.6l0,0
		C5.5-29.4,4.3-30.6,2.8-30.6z M2.8-26.4c-0.9,0-1.6-0.7-1.6-1.6c0-0.9,0.7-1.6,1.6-1.6c0.9,0,1.6,0.7,1.6,1.6l0,0
		c0,0.8-0.6,1.5-1.4,1.6C2.9-26.4,2.9-26.4,2.8-26.4z"/>
	<line id="Line_14" class="st1" x1="1.6" y1="-29.2" x2="3.9" y2="-26.8"/>
	<line id="Line_15" class="st2" x1="3.9" y1="-29.1" x2="1.8" y2="-26.8"/>
</g>
<g id="Group_82" transform="translate(46.077 39.791)">
	<path id="Path_118" class="st0" d="M2.8-30.6c-1.5,0-2.6,1.2-2.6,2.6c0,1.5,1.2,2.6,2.6,2.6c1.5,0,2.6-1.2,2.6-2.6l0,0
		C5.5-29.4,4.3-30.6,2.8-30.6z M2.8-26.4c-0.9,0-1.6-0.7-1.6-1.6c0-0.9,0.7-1.6,1.6-1.6c0.9,0,1.6,0.7,1.6,1.6l0,0
		c0,0.8-0.6,1.5-1.4,1.6C2.9-26.4,2.9-26.4,2.8-26.4z"/>
	<line id="Line_16" class="st1" x1="1.6" y1="-29.2" x2="3.9" y2="-26.8"/>
	<line id="Line_17" class="st2" x1="3.9" y1="-29.1" x2="1.8" y2="-26.8"/>
</g>
<path id="Path_119" class="st0" d="M51.7,7.1H2.3c-1.2,0-2.1,0.9-2.1,2.1c0,0,0,0,0,0l0,0v49.2c0,1.2,1,2.1,2.1,2.1c0,0,0,0,0,0
	h49.4c1.2,0,2.1-0.9,2.1-2.1c0,0,0,0,0,0l0,0V9.2C53.8,8.1,52.8,7.2,51.7,7.1z M52.4,58.5c0,0.4-0.3,0.7-0.7,0.7c0,0,0,0,0,0H2.3
	c-0.4,0-0.7-0.3-0.8-0.7V9.2c0-0.4,0.3-0.7,0.7-0.7c0,0,0,0,0,0h49.4c0.4,0,0.7,0.3,0.8,0.7L52.4,58.5z"/>
<path id="Path_120" class="st0" d="M26.9,9.2c-13.6,0-24.7,11-24.7,24.6c0,13.6,11,24.7,24.6,24.7s24.7-11,24.7-24.6c0,0,0,0,0,0
	l0,0C51.5,20.3,40.6,9.2,27,9.2C26.9,9.2,26.9,9.2,26.9,9.2z M26.9,57.1C14,57.1,3.6,46.7,3.6,33.9C3.6,21,14,10.6,26.8,10.6
	S50.1,21,50.1,33.8l0,0C50.2,46.6,39.8,57,27,57.1C27,57.1,26.9,57.1,26.9,57.1z"/>
<path id="Path_121" class="st0" d="M26.9,11C14.3,11,4,21.2,4,33.9s10.2,22.8,22.8,22.8s22.8-10.2,22.8-22.8l0,0
	C49.7,21.3,39.5,11,26.9,11C26.9,11,26.9,11,26.9,11z M26.9,55.4C15,55.4,5.3,45.8,5.3,33.9C5.3,22,15,12.3,26.9,12.3
	c11.9,0,21.5,9.6,21.5,21.5l0,0C48.4,45.8,38.8,55.4,26.9,55.4C26.9,55.4,26.9,55.4,26.9,55.4z"/>
<path id="Path_122" class="st0" d="M26.9,14.2C16,14.2,7.3,23,7.3,33.9S16,53.5,26.9,53.5s19.6-8.8,19.6-19.6l0,0
	c0-10.8-8.7-19.6-19.5-19.6C27,14.2,26.9,14.2,26.9,14.2z M26.9,52.4c-10.2,0-18.5-8.3-18.5-18.5s8.3-18.5,18.5-18.5
	c10.2,0,18.5,8.3,18.5,18.5l0,0c0,10.2-8.2,18.5-18.3,18.5C27,52.4,26.9,52.4,26.9,52.4z"/>
<path id="Path_123" class="st0" d="M26.9,24.8c-5,0-9,4-9,9s4,9,9,9s9-4,9-9l0,0l0,0C35.9,28.9,31.9,24.8,26.9,24.8
	C26.9,24.8,26.9,24.8,26.9,24.8z M26.9,42.4c-4.7,0-8.5-3.8-8.5-8.5s3.8-8.5,8.5-8.5c4.7,0,8.5,3.8,8.5,8.5c0,0,0,0,0,0l0,0
	C35.4,38.5,31.6,42.3,26.9,42.4C26.9,42.4,26.9,42.4,26.9,42.4z"/>
<path id="Path_124" class="st0" d="M26.9,17.3c-9.1,0-16.5,7.4-16.5,16.5s7.4,16.5,16.5,16.5s16.5-7.4,16.5-16.5l0,0
	C43.4,24.7,36,17.3,26.9,17.3C26.9,17.3,26.9,17.3,26.9,17.3z M26.9,49.4c-8.6,0-15.6-7-15.6-15.6s7-15.6,15.6-15.6
	c8.6,0,15.6,7,15.6,15.6l0,0C42.5,42.5,35.5,49.4,26.9,49.4C26.9,49.4,26.9,49.4,26.9,49.4z"/>
<path id="Path_125" class="st0" d="M26.9,20.2c-7.6,0-13.7,6.2-13.7,13.7s6.2,13.7,13.7,13.7c7.6,0,13.7-6.2,13.7-13.7l0,0
	C40.6,26.3,34.4,20.1,26.9,20.2z M26.9,46.8C19.7,46.8,14,41,14,33.9C14,26.7,19.7,21,26.9,21c7.1,0,12.9,5.8,12.9,12.9l0,0
	C39.8,41,34,46.7,26.9,46.8C26.9,46.8,26.9,46.8,26.9,46.8z"/>
<path id="Path_126" class="st0" d="M26.9,22.9c-6,0-10.9,4.9-10.9,10.9s4.9,10.9,10.9,10.9s10.9-4.9,10.9-10.9l0,0
	c0-6-4.8-10.9-10.8-10.9C27,22.9,26.9,22.9,26.9,22.9z M26.9,44.2c-5.7,0-10.3-4.6-10.3-10.3s4.6-10.3,10.3-10.3s10.3,4.6,10.3,10.3
	l0,0C37.2,39.6,32.6,44.2,26.9,44.2z"/>
<path id="Path_127" class="st0" d="M26.9,28.3c-3.1,0-5.5,2.5-5.5,5.5c0,3.1,2.5,5.5,5.5,5.5c3.1,0,5.5-2.5,5.5-5.5l0,0
	C32.4,30.8,30,28.3,26.9,28.3C26.9,28.3,26.9,28.3,26.9,28.3z M26.9,39.1c-2.9,0-5.3-2.4-5.3-5.3c0-2.9,2.4-5.3,5.3-5.3
	c2.9,0,5.3,2.4,5.3,5.3c0,0,0,0,0,0l0,0C32.2,36.7,29.8,39.1,26.9,39.1C26.9,39.1,26.9,39.1,26.9,39.1z"/>
	<g>
		<animateTransform
	    attributeName="transform"
	    type="rotate"
	    from="0 26.7 33.9"
	    to="360 26.7 33.9"
	    dur="3s"
	    repeatCount="indefinite" />
<path id="Path_128" class="st3" d="M47.4,34.1c0-0.3-0.1-0.6-0.1-0.9c0-0.3,0-0.5-0.1-0.8c-0.1-0.1-0.2-0.2-0.3-0.3
	c-0.5-0.2-0.8,0-1.1,0.2c-0.2,0.2-0.5,0.3-0.8,0.4c-0.5,0.2-1,0.4-1.5,0.5c-1.1,0.4-2.3,0.8-3.4,1.2c-0.9,0.3-1.7,0.5-2.5,0.8
	l-1.3,0.5c-0.3,0-0.6,0.1-0.9,0.2c0.1-0.6,0.2-1.2,0.3-1.8c0.1,0,0.1-0.1,0.2-0.1c1.6-1.1,3.2-2.3,4.5-3.7c1.7-1.7,3.2-3.5,4.6-5.4
	c0,0,0-0.1,0.1-0.1v-0.1c-0.1-0.4-0.2-0.8-0.4-1.1c-0.4-0.8-0.9-1.5-1.6-2.2c-0.2-0.2-0.4-0.4-0.5-0.6c-0.2-0.2-0.4-0.4-0.6-0.6
	c-0.1-0.2-0.4-0.4-0.6-0.5c-0.2-0.1-0.3-0.1-0.5,0c-0.5,0.1-0.6,0.5-0.7,0.9c-0.1,0.3-0.2,0.5-0.3,0.8c-0.2,0.5-0.5,0.9-0.8,1.3
	c-0.6,1.1-1.2,2.1-1.9,3.1L35.8,28c-0.3,0.4-0.5,0.8-0.8,1.1c-0.2,0.2-0.3,0.4-0.4,0.6c-0.3-0.5-0.6-1-1-1.5c0,0,0-0.1,0.1-0.1
	c0,0,0,0,0,0c0.6-1.9,1-3.8,1.1-5.8c0.2-2.4,0.2-4.7,0.1-7.1v-0.1c0-0.1-0.1-0.1-0.1-0.1c-0.3-0.3-0.6-0.5-1-0.6
	c-0.8-0.3-1.7-0.5-2.6-0.7c-0.3,0-0.5-0.1-0.8-0.1c-0.3-0.1-0.6-0.1-0.9-0.1c-0.2-0.1-0.5-0.1-0.8,0c-0.1,0.1-0.3,0.2-0.4,0.3
	c-0.2,0.4-0.2,0.8,0.1,1.2c0.1,0.3,0.2,0.5,0.2,0.8c0.1,0.5,0.2,1,0.3,1.5c0.2,1.2,0.4,2.4,0.5,3.6c0.1,0.9,0.2,1.8,0.3,2.6
	c0.1,0.4,0.1,0.9,0.2,1.3c0,0.2,0,0.5,0.1,0.7c-0.5-0.2-1.1-0.4-1.7-0.4v-0.1c-0.8-1.8-1.7-3.5-2.9-5.1c-1.4-1.9-2.8-3.8-4.5-5.5
	c0,0,0-0.1-0.1-0.1c0,0,0,0,0,0h-0.1c-0.4,0-0.8,0.1-1.2,0.2c-0.9,0.3-1.7,0.6-2.4,1.1c-0.2,0.2-0.5,0.3-0.7,0.4
	c-0.3,0.2-0.5,0.3-0.8,0.5c-0.2,0.1-0.4,0.3-0.6,0.5c-0.1,0.1-0.1,0.3-0.1,0.4c0.1,0.5,0.4,0.6,0.8,0.9c0.3,0.1,0.5,0.3,0.7,0.5
	c0.4,0.3,0.8,0.6,1.2,1c0.9,0.8,1.8,1.6,2.7,2.4l1.9,1.8c0.3,0.3,0.6,0.6,1,0.9c0.2,0.2,0.4,0.4,0.6,0.6c-0.5,0.2-1.1,0.5-1.6,0.8
	c-0.1-0.1-0.2-0.1-0.2-0.2c-1.7-0.9-3.6-1.6-5.5-2c-2.3-0.6-4.6-1-6.9-1.3H9.6c-0.1,0-0.1,0.1-0.1,0.1c-0.3,0.2-0.6,0.6-0.8,0.9
	c-0.5,0.8-0.9,1.6-1.1,2.4c-0.1,0.3-0.2,0.5-0.3,0.8c-0.1,0.3-0.2,0.6-0.3,0.9c-0.1,0.2-0.2,0.5-0.2,0.8C7,28.8,7,29,7.2,29.1
	c0.4,0.4,0.7,0.3,1.1,0.2c0.3-0.1,0.5-0.1,0.8-0.1c0.5,0,1-0.1,1.6-0.1c1.2,0,2.4,0,3.7,0.1c0.9,0.1,1.8,0.1,2.6,0.1
	c0.4,0,0.9,0.1,1.3,0.1c0.2,0,0.9,0.2,1.1,0.1c0,0,0.1,0,0.1-0.1c0,0,0,0,0,0c0.1-0.1,0.1-0.2,0.2-0.2c-0.4,0.6-0.7,1.3-1,1.9h-0.5
	c-1.9,0.4-3.8,1.1-5.5,1.9c-2.1,1-4.2,2.2-6.2,3.4c-0.1,0-0.1,0.1-0.1,0.1c0,0.1-0.1,0.1-0.1,0.1c-0.1,0.4-0.1,0.8,0,1.2
	c0.1,0.9,0.4,1.8,0.7,2.6c0.1,0.3,0.2,0.5,0.3,0.8c0.1,0.3,0.2,0.5,0.3,0.9c0.1,0.2,0.2,0.5,0.4,0.6c0.1,0.1,0.3,0.2,0.4,0.2
	c0.5,0.1,0.7-0.3,1-0.6c0.2-0.2,0.4-0.4,0.6-0.6c0.4-0.4,0.8-0.7,1.2-1c0.9-0.8,1.9-1.6,2.8-2.3l2.1-1.6c0.4-0.3,0.7-0.5,1.1-0.8
	c0.2-0.2,0.8-0.4,0.9-0.6V35c-0.1-0.6,0-1.3,0.2-1.9c0,0.2-0.1,0.4-0.1,0.6c0,1,0.2,2,0.5,3c-0.2,0.2-0.3,0.3-0.5,0.5
	c-1.2,1.5-2.2,3.2-3,5.1c-1,2.1-1.8,4.4-2.5,6.6c-0.1,0.1,0,0.2,0,0.2c0.2,0.3,0.5,0.6,0.8,0.9c0.7,0.6,1.4,1.1,2.2,1.5
	c0.3,0.1,0.5,0.3,0.8,0.4c0.3,0.1,0.5,0.3,0.8,0.4c0.2,0.2,0.4,0.3,0.7,0.3c0.2,0,0.3-0.1,0.4-0.2c0.4-0.3,0.4-0.6,0.4-1.1
	c0-0.3,0-0.5,0.1-0.8c0.1-0.5,0.2-1,0.2-1.6c0.2-1.2,0.4-2.4,0.7-3.6c0.2-0.9,0.4-1.7,0.6-2.6c0.1-0.4,0.2-0.9,0.3-1.3
	c0.1-0.2,0.3-0.8,0.2-1c0-0.1-0.1-0.1-0.1-0.1c-0.6-0.6-1.1-1.4-1.4-2.3c0.7,1.3,1.8,2.3,3,3.1c-0.1,0.3-0.1,0.5-0.1,0.8
	c0.1,1.9,0.4,3.9,1,5.8c0.6,2.3,1.4,4.5,2.3,6.7c0,0.1,0.1,0.1,0.1,0.1c0.1,0,0.1,0.1,0.1,0.1c0.4,0.2,0.8,0.2,1.2,0.2
	c0.9,0,1.8,0,2.6-0.2l0.8-0.2c0.3-0.1,0.6-0.1,0.9-0.2c0.3,0,0.5-0.1,0.7-0.3c0.1-0.1,0.2-0.2,0.2-0.4c0.2-0.5-0.1-0.8-0.4-1.1
	l-0.5-0.6c-0.3-0.4-0.5-0.9-0.8-1.3c-0.6-1-1.2-2.1-1.8-3.2c-0.4-0.8-0.8-1.6-1.2-2.4c-0.2-0.4-0.4-0.8-0.6-1.2
	c-0.1-0.2-0.3-0.8-0.5-0.9c-0.1,0-0.1,0-0.1-0.1c-0.9-0.1-1.8-0.4-2.6-0.9c1.4,0.6,2.9,0.8,4.5,0.6c0.1,0.2,0.2,0.4,0.3,0.5
	c1.3,1.5,2.8,2.7,4.5,3.8c1.9,1.3,4,2.5,6.1,3.6c0.1,0,0.1,0.1,0.1,0.1H39c0.4-0.1,0.7-0.3,1-0.6c0.7-0.5,1.3-1.2,1.9-1.9l0.5-0.6
	c0.2-0.2,0.4-0.5,0.5-0.7c0.2-0.2,0.3-0.4,0.4-0.6c0-0.1,0-0.3-0.1-0.4c-0.2-0.5-0.6-0.5-1-0.5c-0.3,0-0.5-0.1-0.8-0.2l-1.4-0.5
	l-3.4-1.3c-0.8-0.3-1.6-0.7-2.5-1c-0.4-0.2-0.8-0.4-1.2-0.5c-0.3-0.2-0.6-0.3-1-0.4c-0.1,0-0.1,0-0.1,0.1c-0.5,0.3-1,0.6-1.5,0.8
	c1.1-0.5,2.1-1.2,2.8-2.1c0.2,0.1,0.3,0.1,0.4,0.2c1.9,0.3,3.9,0.3,5.9,0.1c2.4-0.2,4.7-0.6,7-1.1c0.1,0,0.1,0,0.1-0.1
	c0.1,0,0.1-0.1,0.1-0.1c0.2-0.3,0.4-0.7,0.4-1.1c0.2-0.9,0.3-1.8,0.2-2.6C47.4,34.7,47.4,34.3,47.4,34.1z"/>
</g>
<rect id="Rectangle_63" x="24.1" y="1.7" class="st4" width="5.4" height="5.2"/>
<path id="Path_129" class="st0" d="M27.9,2.5h-2.1v1.1h-0.7v2.8h3.6V3.6h-0.8L27.9,2.5z"/>
<path id="Path_130" class="st0" d="M53.7,35c0,0.2,0,0.3,0.1,0.5v-1C53.8,34.7,53.7,34.8,53.7,35z"/>
<path id="Path_131" class="st0" d="M0.1,35.5c0,0.2,0,0.3-0.1,0.5v-1C0,35.2,0.1,35.4,0.1,35.5z"/>
<circle class="st5" cx="26.7" cy="33.9" r="7.9"/>
</svg>
