<?xml version="1.0" encoding="utf-8"?>
<!-- Generator: Adobe Illustrator 23.0.6, SVG Export Plug-In . SVG Version: 6.00 Build 0)  -->
<svg version="1.1" id="Layer_1" xmlns="http://www.w3.org/2000/svg" xmlns:xlink="http://www.w3.org/1999/xlink" x="0px" y="0px"
	 viewBox="0 0 1000 1000" style="enable-background:new 0 0 1000 1000;" xml:space="preserve">
<style type="text/css">
	.st0{fill:url(#SVGID_1_);}
	.st1{fill:#F6B817;}
	.st2{fill:#F9EC31;}
</style>
<linearGradient id="SVGID_1_" gradientUnits="userSpaceOnUse" x1="10" y1="500.05" x2="990.1" y2="500.05">
	<stop  offset="8.008466e-03" style="stop-color:#F6B817"/>
	<stop  offset="0.4604" style="stop-color:#F9EC31"/>
	<stop  offset="1" style="stop-color:#F6B817"/>
</linearGradient>
<path class="st0" d="M941.3,611.9c-14.9-8.8-31.2-13.2-48.8-13.2l-98.7,0V402.5h98.7c10.7,0,21.1-1.8,31-5.2c10-3.5,19-8,27-13.8
	c8-5.8,15.1-12.7,21.2-20.7s10.7-17.2,13.8-27.5s4.6-20.5,4.6-30.4c0-27.5-9.6-50.9-28.7-70c-19.2-19.1-42.1-28.7-68.9-28.7h-98.7
	v-97.5c0-17.6-4.2-34.1-12.6-49.4C772.8,44,760.9,32,745.6,23.2C730.3,14.4,713.8,10,696.2,10c-26.8,0-49.7,9.6-68.9,28.7
	c-19.1,19.1-28.7,42.5-28.7,70v97.5H402.5v-97.5c0-27.5-9.6-50.9-28.7-70C354.6,19.6,331.7,10,304.9,10c-27.5,0-50.9,9.6-70.1,28.7
	c-19.1,19.1-28.7,42.5-28.7,70v97.5h-97.4c-17.6,0-34.1,4.4-49.4,13.2C44,228.2,32,240.1,23.2,255C14.4,269.9,10,286.5,10,304.9
	c0,26.8,9.6,49.7,28.7,68.9c19.1,19.1,42.5,28.7,70,28.7h97.4v196.1l-97.4,0c-27.5,0-50.9,9.6-70,28.7C19.6,646.5,10,669.4,10,696.2
	c0,17.6,4.4,34,13.2,49.3s20.8,27.2,36.1,35.8c15.3,8.4,31.8,12.6,49.4,12.6h97.4v98.6c0,17.6,4.4,33.9,13.2,48.8
	c8.8,15,20.7,26.8,35.6,35.6c14.9,8.8,31.5,13.2,49.9,13.2c17.6,0,33.9-4.4,48.8-13.2c15-8.8,26.8-20.7,35.6-35.6
	c8.8-14.9,13.2-31.2,13.2-48.8h0.1v-98.6h196.1v98.5c0,26.8,9.6,49.8,28.7,68.9c19.2,19.1,42.1,28.7,68.9,28.7s49.8-9.6,68.9-28.6
	c19.1-19.2,28.7-42.1,28.7-68.9v-98.6h98.7c26.8,0,49.8-9.6,68.9-28.7c19.1-19.2,28.7-42.1,28.7-68.9c0-17.6-4.4-33.9-13.2-48.8
	C968.1,632.5,956.2,620.7,941.3,611.9z M402.5,598.6V402.5h196.1v196.2L402.5,598.6z"/>
<rect x="-194.5" y="463.9" class="st1" width="16.5" height="16.5"/>
<rect x="-145.1" y="463.9" class="st2" width="16.5" height="16.5"/>
<rect x="-168.2" y="463.9" class="st1" width="16.5" height="16.5"/>
<rect x="-120.7" y="463.9" class="st2" width="16.5" height="16.5"/>
</svg>
