<svg xmlns="http://www.w3.org/2000/svg" viewBox="0 0 16.006 16">
  <defs>
    <style>
      .cls-1 {
        fill: #f7931e;
      }
    </style>
  </defs>
  <title>8Asset 1</title>
  <g id="Layer_2" data-name="Layer 2">
    <g id="Layer_1-2" data-name="Layer 1">
      <path class="cls-1" d="M11.307,16c-1.943,0-4.967-2.335-6.966-4.334-.621-.621-6-6.126-3.826-8.3L3.265.329A1,1,0,0,1,3.987,0,1.055,1.055,0,0,1,4.72.3l3,3.06a1,1,0,0,1,.194,1.12L7.033,6.389a4.706,4.706,0,0,0,1.085,1.5,4.758,4.758,0,0,0,1.5,1.087l1.908-.881a1,1,0,0,1,1.119.194l3.06,3a1,1,0,0,1-.029,1.455l-3.061,2.773A1.8,1.8,0,0,1,11.307,16ZM2,4.7c-.042.631,1.121,2.918,3.753,5.55C8.341,12.837,10.558,14,11.307,14h0l2.237-2.028L11.738,10.2l-1.207.557A1.417,1.417,0,0,1,9.705,11c-1.2,0-2.6-1.3-3-1.7s-1.7-1.791-1.7-3a1.424,1.424,0,0,1,.246-.828l.556-1.206L4.035,2.458Z"/>
    </g>
  </g>
</svg>
