<svg xmlns="http://www.w3.org/2000/svg" xmlns:xlink="http://www.w3.org/1999/xlink" viewBox="0 0 40 48.418">
  <defs>
    <style>
      .cls-1 {
        fill: url(#linear-gradient);
      }

      .cls-2 {
        fill: #fff;
      }

      .cls-3 {
        fill: url(#linear-gradient-2);
      }

      .cls-4 {
        fill: url(#linear-gradient-3);
      }

      .cls-5 {
        fill: url(#linear-gradient-4);
      }
    </style>
    <linearGradient id="linear-gradient" x1="28.408" y1="49.518" x2="4.455" y2="8.03" gradientUnits="userSpaceOnUse">
      <stop offset="0.015" stop-color="#f7b917"/>
      <stop offset="0.137" stop-color="#f7be1a"/>
      <stop offset="0.288" stop-color="#f8ce22"/>
      <stop offset="0.454" stop-color="#f9e72f"/>
      <stop offset="0.488" stop-color="#f9ed32"/>
      <stop offset="0.557" stop-color="#f9e12c"/>
      <stop offset="0.714" stop-color="#f8cb20"/>
      <stop offset="0.864" stop-color="#f7be19"/>
      <stop offset="1" stop-color="#f7b917"/>
    </linearGradient>
    <linearGradient id="linear-gradient-2" x1="14.947" y1="14.42" x2="23.369" y2="14.42" xlink:href="#linear-gradient"/>
    <linearGradient id="linear-gradient-3" x1="19.363" y1="11.588" x2="20.257" y2="11.588" xlink:href="#linear-gradient"/>
    <linearGradient id="linear-gradient-4" x1="17.357" y1="11.588" x2="18.252" y2="11.588" xlink:href="#linear-gradient"/>
  </defs>
  <title>2Asset 13</title>
  <g id="Layer_2" data-name="Layer 2">
    <g id="Layer_1-2" data-name="Layer 1">
      <path id="path3" class="cls-1" d="M38.546,38.2h0a4.6,4.6,0,0,1-.682-1.867,3.707,3.707,0,0,0-1-2.12l0,0a2.535,2.535,0,0,0-.38-.276,2.475,2.475,0,0,0-.389-.188,10.94,10.94,0,0,0-.35-7.478,25.106,25.106,0,0,0-4.4-7.038c-1.61-2.032-3.185-3.96-3.154-6.808C28.236,8.071,28.666.011,21.017,0q-.466,0-.974.04c-8.548.688-6.28,9.719-6.407,12.742A10.931,10.931,0,0,1,11.51,18.9a30.226,30.226,0,0,0-5.494,9.144,10.922,10.922,0,0,0-.583,5.042c-.078.069-.151.142-.221.216-.525.561-.913,1.239-1.344,1.7a4.167,4.167,0,0,1-1.611.782A2.893,2.893,0,0,0,.51,37.148h0l0,0a2.428,2.428,0,0,0-.263,1.174,7.442,7.442,0,0,0,.111,1.118,4.914,4.914,0,0,1,.078,1.965,3.793,3.793,0,0,0-.212,3,2.543,2.543,0,0,0,1.9,1.162c1.64.342,3.861.257,5.611,1.185l.151-.284-.149.285a7.977,7.977,0,0,0,5.289.981,3.432,3.432,0,0,0,2.45-1.912c1.185-.006,2.486-.508,4.57-.623,1.414-.114,3.18.5,5.212.39a2.777,2.777,0,0,0,.234.634l0,.005A3.8,3.8,0,0,0,29.3,48.4a6.908,6.908,0,0,0,4.563-2.64l-.246-.207.248.2c1.279-1.551,3.4-2.193,4.81-3.042A2.277,2.277,0,0,0,40,40.99C40.041,40.219,39.588,39.354,38.546,38.2Z"/>
      <path id="path5" class="cls-2" d="M39.355,40.954c-.027.476-.372.83-1.01,1.214-1.273.768-3.53,1.436-4.971,3.182a6.313,6.313,0,0,1-4.122,2.414,3.09,3.09,0,0,1-3.187-1.824l0,0v0a5.187,5.187,0,0,1,.109-3.424,22.95,22.95,0,0,0,.94-3.842v0a20.553,20.553,0,0,1,.394-3.658A2.839,2.839,0,0,1,28.8,33.015l.094-.049a2.9,2.9,0,0,0,1.78,2.787c1.191.314,2.907-.708,3.632-1.542.145,0,.286-.013.424-.016a2.227,2.227,0,0,1,1.714.5v0h0a3.306,3.306,0,0,1,.791,1.776,4.707,4.707,0,0,0,.828,2.152h0C39.062,39.73,39.382,40.477,39.355,40.954Z"/>
      <path id="path7" class="cls-2" d="M15.155,44.475v.007a2.7,2.7,0,0,1-2.274,2.63,7.413,7.413,0,0,1-4.846-.924h0c-1.957-1.037-4.286-.934-5.78-1.246a1.924,1.924,0,0,1-1.458-.826,3.3,3.3,0,0,1,.247-2.493l0-.006,0-.005a4.971,4.971,0,0,0-.053-2.264,3.2,3.2,0,0,1,.084-1.9l0,0a2.178,2.178,0,0,1,1.4-1.065,4.456,4.456,0,0,0,1.85-.936l0,0,0,0c.513-.541.9-1.22,1.349-1.7a1.761,1.761,0,0,1,1.336-.68h.019a2.159,2.159,0,0,1,.32.027A3.317,3.317,0,0,1,9.423,34.6l1.848,3.368h0a23.3,23.3,0,0,0,2.411,3.309C14.562,42.433,15.243,43.59,15.155,44.475Z"/>
      <path id="path9" class="cls-2" d="M24.371,13.077A1.79,1.79,0,0,0,23.4,12.3h0a15.034,15.034,0,0,1-2.137-.881,4.523,4.523,0,0,0-2.45-.844,2.915,2.915,0,0,0-.944.161,4.629,4.629,0,0,0-1.7,1.187h0a4.52,4.52,0,0,1-.36.274c-.21.153-.524.383-.975.722a.981.981,0,0,0-.393,1.151,2.781,2.781,0,0,0,1.39,1.446h0a9.992,9.992,0,0,1,1.239,1.01,2.768,2.768,0,0,0,.654.405,2.665,2.665,0,0,0,.905.2,3.5,3.5,0,0,0,2.042-.526,9.332,9.332,0,0,1,1.57-.882h0A3.3,3.3,0,0,0,24.4,14.015,1.125,1.125,0,0,0,24.371,13.077Z"/>
      <path id="path11" class="cls-3" d="M21.555,14.715a6.76,6.76,0,0,1-3.011,1.019,4.156,4.156,0,0,1-2.586-1c-.312-.247-.565-.492-.755-.671-.331-.261-.292-.627-.156-.617.228.029.263.329.406.463.194.182.438.417.732.651a3.791,3.791,0,0,0,2.359.921,6.506,6.506,0,0,0,2.828-.969,15.111,15.111,0,0,0,1.313-.923c.315-.231.3-.51.564-.48s.067.309-.3.626A8.121,8.121,0,0,1,21.555,14.715Z"/>
      <path id="path13" class="cls-2" d="M35.073,33.554c-.122-.005-.243,0-.36,0H34.68c.3-.957-.367-1.663-2.154-2.471-1.853-.815-3.33-.735-3.579.919-.016.086-.029.175-.039.264a2.879,2.879,0,0,0-.418.186,3.513,3.513,0,0,0-1.609,2.4,20.764,20.764,0,0,0-.412,3.777h0a14.589,14.589,0,0,1-.644,2.738c-3.035,2.166-7.248,3.1-10.826.662-.242-.383-.52-.763-.806-1.137-.183-.24-.371-.477-.557-.712a2.258,2.258,0,0,0,.931-.174,1.178,1.178,0,0,0,.643-.664,2.668,2.668,0,0,0-.7-2.36,12.8,12.8,0,0,0-3.618-3.076h0a5.117,5.117,0,0,1-2.324-2.824,6.33,6.33,0,0,1-.03-3.328,19.729,19.729,0,0,1,2.575-5.594c.218-.161.078.3-.821,1.966-.8,1.525-2.31,5.045-.249,7.793A16.328,16.328,0,0,1,11.35,26.1c1.142-2.588,3.53-7.077,3.719-10.654.1.071.434.3.584.383h0a10.824,10.824,0,0,1,1.193.978,2.947,2.947,0,0,0,1.767.686c.077.005.153.007.227.007a3.944,3.944,0,0,0,2.018-.58,10.39,10.39,0,0,1,1.5-.851h0a4.032,4.032,0,0,0,2.109-1.418,48.829,48.829,0,0,0,3.515,9.051,21.112,21.112,0,0,1,2.23,6.11,3.714,3.714,0,0,1,1.035.132c1.3-3.376-1.1-7.012-2.2-8.024-.444-.432-.465-.625-.245-.616a11.63,11.63,0,0,1,3.331,5.576,7.157,7.157,0,0,1,.037,3.376c.136.056.274.118.415.184C34.672,31.461,35.445,32.346,35.073,33.554Z"/>
      <path id="path15" class="cls-2" d="M24.469,9.766a3.657,3.657,0,0,1-.31,1.55,3.012,3.012,0,0,1-.435.725c-.057-.028-.117-.055-.179-.08-.215-.092-.405-.168-.576-.232s-.3-.108-.441-.156a1.92,1.92,0,0,0,.369-.439,2.331,2.331,0,0,0,.174-.843c0-.012,0-.023,0-.037a2.324,2.324,0,0,0-.12-.817,1.515,1.515,0,0,0-.376-.637.77.77,0,0,0-.539-.245h-.029a.792.792,0,0,0-.524.208,1.509,1.509,0,0,0-.423.608,2.34,2.34,0,0,0-.175.844c0,.012,0,.023,0,.036a2.443,2.443,0,0,0,.034.484,6.155,6.155,0,0,0-1.229-.417,4,4,0,0,1-.034-.461V9.812a3.593,3.593,0,0,1,.3-1.549,2.752,2.752,0,0,1,.869-1.14,1.926,1.926,0,0,1,1.2-.427h.021a1.93,1.93,0,0,1,1.185.4,2.712,2.712,0,0,1,.89,1.123,3.622,3.622,0,0,1,.337,1.5.143.143,0,0,0,0,.041Z"/>
      <path id="path17" class="cls-2" d="M17.917,10.334c-.057.016-.112.034-.167.052a3.393,3.393,0,0,0-.8.383,2.171,2.171,0,0,0,.008-.518c0-.011,0-.019,0-.029a2.276,2.276,0,0,0-.165-.666,1.289,1.289,0,0,0-.335-.491.549.549,0,0,0-.371-.156l-.04,0a.542.542,0,0,0-.381.223,1.291,1.291,0,0,0-.244.541,2.162,2.162,0,0,0-.045.711c0,.01,0,.019,0,.029a2.2,2.2,0,0,0,.164.667,1.259,1.259,0,0,0,.335.489.8.8,0,0,0,.068.054c-.142.11-.238.188-.355.274l-.268.2a2.447,2.447,0,0,1-.558-.83,3.736,3.736,0,0,1-.31-1.323v0a3.713,3.713,0,0,1,.156-1.35,2.311,2.311,0,0,1,.579-1.013,1.241,1.241,0,0,1,.844-.407l.073,0a1.261,1.261,0,0,1,.813.31,2.355,2.355,0,0,1,.69.942,3.671,3.671,0,0,1,.308,1.323v0a3.957,3.957,0,0,1,0,.588Z"/>
      <path id="path28396-7" class="cls-4" d="M19.365,11.508c.037.117.225.1.335.154s.172.158.28.161.263-.036.276-.138c.018-.134-.179-.22-.3-.269a.646.646,0,0,0-.525-.011c-.035.019-.073.065-.061.1Z"/>
      <path id="path5461" class="cls-5" d="M18.249,11.508c-.036.117-.225.1-.334.154s-.173.158-.28.161-.263-.036-.276-.138c-.018-.134.179-.22.3-.269a.643.643,0,0,1,.524-.011c.035.019.073.065.061.1Z"/>
    </g>
  </g>
</svg>
