<?xml version="1.0" encoding="utf-8"?>
<!-- Generator: Adobe Illustrator 23.0.6, SVG Export Plug-In . SVG Version: 6.00 Build 0)  -->
<svg version="1.1" id="Layer_1" xmlns="http://www.w3.org/2000/svg" xmlns:xlink="http://www.w3.org/1999/xlink" x="0px" y="0px"
	 viewBox="0 0 1000 1000" style="enable-background:new 0 0 1000 1000;" xml:space="preserve">
<style type="text/css">
	.st0{fill:url(#SVGID_1_);}
	.st1{fill:#F6B817;}
	.st2{fill:#F9EC31;}
</style>
<g>
	<linearGradient id="SVGID_1_" gradientUnits="userSpaceOnUse" x1="10" y1="499.95" x2="990" y2="499.95">
		<stop  offset="0.1269" style="stop-color:#F7D124"/>
		<stop  offset="0.5007" style="stop-color:#F9EC31"/>
		<stop  offset="1" style="stop-color:#F6B817"/>
	</linearGradient>
	<path class="st0" d="M206.9,502.5c0-97.4,47.8-183.5,121.1-236.7l-34.3-49C205,280.8,147,384.8,147,502.4
		c0,109.7,50.2,207.7,128.8,272.3l38.6-45.8C248.8,675.4,206.9,593.9,206.9,502.5z M78.9,502.5c0-130.6,59.9-247,153.4-324.1h-99.2
		C56.6,264.8,10,378.2,10,502.5c0,121.9,44.7,233.3,118.5,319h97.2C135.9,744.4,78.9,630.2,78.9,502.5z M500,273
		c-126.9,0-229.8,102.7-229.8,229.5S373.1,732,500,732s229.7-102.7,229.7-229.5C729.7,375.8,626.9,273,500,273z M500,544.8
		c-24.5,0-44.4-19.9-44.4-44.4c0-24.5,19.9-44.4,44.4-44.4s44.4,19.9,44.4,44.4C544.4,525,524.5,544.8,500,544.8z M708.2,218.3
		L673.6,267C745.9,320.4,793,405.8,793,502.5c0,90.6-41.2,171.6-105.9,225.2l38.8,45.5c77.6-64.7,127-161.9,127-270.7
		C852.9,385.7,795.8,282.5,708.2,218.3z M866.9,178.5h-99.3c93.5,77.1,153.4,193.4,153.4,324c0,127.7-57.1,241.9-147,319h97.5
		c73.8-85.7,118.5-197.1,118.5-319C990,378.2,943.4,264.8,866.9,178.5z"/>
</g>
<rect x="-216.7" y="313.8" class="st1" width="16.5" height="16.5"/>
<rect x="-167.3" y="313.8" class="st2" width="16.5" height="16.5"/>
<rect x="-190.4" y="313.8" class="st1" width="16.5" height="16.5"/>
<rect x="-142.9" y="313.8" class="st2" width="16.5" height="16.5"/>
</svg>
