<?xml version="1.0" encoding="utf-8"?>
<!-- Generator: Adobe Illustrator 23.0.6, SVG Export Plug-In . SVG Version: 6.00 Build 0)  -->
<svg version="1.1" id="Layer_1" xmlns="http://www.w3.org/2000/svg" xmlns:xlink="http://www.w3.org/1999/xlink" x="0px" y="0px"
	 viewBox="0 0 1000 1000" style="enable-background:new 0 0 1000 1000;" xml:space="preserve">
<style type="text/css">
	.st0{fill:#373939;}
	.st1{fill:#F6B817;}
	.st2{fill:#F9EC31;}
</style>
<path class="st0" d="M941.2,620.9c-14.9-8.8-31.2-13.2-48.8-13.2h-98.7V411.5h98.7c10.7,0,21.1-1.8,31-5.2c10-3.5,19-8,27-13.8
	s15.1-12.7,21.2-20.7s10.7-17.2,13.8-27.5s4.6-20.5,4.6-30.4c0-27.5-9.6-50.9-28.7-70c-19.2-19.1-42.1-28.7-68.9-28.7h-98.7v-97.5
	c0-17.6-4.2-34.1-12.6-49.4S760.8,41,745.5,32.2C730.2,23.4,713.7,19,696.1,19c-26.8,0-49.7,9.6-68.9,28.7
	c-19.1,19.1-28.7,42.5-28.7,70v97.5H402.4v-97.5c0-27.5-9.6-50.9-28.7-70C354.5,28.6,331.6,19,304.8,19c-27.5,0-50.9,9.6-70.1,28.7
	c-19.1,19.1-28.7,42.5-28.7,70v97.5h-97.4c-17.6,0-34.1,4.4-49.4,13.2S31.9,249.1,23.1,264S9.9,295.5,9.9,313.9
	c0,26.8,9.6,49.7,28.7,68.9c19.1,19.1,42.5,28.7,70,28.7H206v196.1h-97.4c-27.5,0-50.9,9.6-70,28.7c-19.1,19.2-28.7,42.1-28.7,68.9
	c0,17.6,4.4,34,13.2,49.3s20.8,27.2,36.1,35.8c15.3,8.4,31.8,12.6,49.4,12.6H206v98.6c0,17.6,4.4,33.9,13.2,48.8
	c8.8,15,20.7,26.8,35.6,35.6s31.5,13.2,49.9,13.2c17.6,0,33.9-4.4,48.8-13.2c15-8.8,26.8-20.7,35.6-35.6
	c8.8-14.9,13.2-31.2,13.2-48.8h0.1v-98.6h196.1v98.5c0,26.8,9.6,49.8,28.7,68.9c19.2,19.1,42.1,28.7,68.9,28.7s49.8-9.6,68.9-28.6
	c19.1-19.2,28.7-42.1,28.7-68.9v-98.6h98.7c26.8,0,49.8-9.6,68.9-28.7c19.1-19.2,28.7-42.1,28.7-68.9c0-17.6-4.4-33.9-13.2-48.8
	C968,641.5,956.1,629.7,941.2,620.9z M402.4,607.6V411.5h196.1v196.2L402.4,607.6z"/>
<rect x="-194.5" y="463.9" class="st1" width="16.5" height="16.5"/>
<rect x="-145.1" y="463.9" class="st2" width="16.5" height="16.5"/>
<rect x="-168.2" y="463.9" class="st1" width="16.5" height="16.5"/>
<rect x="-120.7" y="463.9" class="st2" width="16.5" height="16.5"/>
</svg>
