<svg xmlns="http://www.w3.org/2000/svg" xmlns:xlink="http://www.w3.org/1999/xlink" viewBox="0 0 40 47.273">
  <defs>
    <style>
      .cls-1 {
        fill: url(#linear-gradient);
      }

      .cls-2 {
        fill: url(#linear-gradient-2);
      }

      .cls-3 {
        fill: url(#linear-gradient-3);
      }

      .cls-4 {
        fill: url(#linear-gradient-4);
      }
    </style>
    <linearGradient id="linear-gradient" y1="24.332" x2="5.824" y2="24.332" gradientUnits="userSpaceOnUse">
      <stop offset="0.015" stop-color="#f7b917"/>
      <stop offset="0.137" stop-color="#f7be1a"/>
      <stop offset="0.288" stop-color="#f8ce22"/>
      <stop offset="0.454" stop-color="#f9e72f"/>
      <stop offset="0.488" stop-color="#f9ed32"/>
      <stop offset="0.557" stop-color="#f9e12c"/>
      <stop offset="0.714" stop-color="#f8cb20"/>
      <stop offset="0.864" stop-color="#f7be19"/>
      <stop offset="1" stop-color="#f7b917"/>
    </linearGradient>
    <linearGradient id="linear-gradient-2" x1="6.847" y1="7.415" x2="33.125" y2="7.415" xlink:href="#linear-gradient"/>
    <linearGradient id="linear-gradient-3" x1="6.96" y1="31.562" x2="33.038" y2="31.562" xlink:href="#linear-gradient"/>
    <linearGradient id="linear-gradient-4" x1="34.177" y1="24.332" x2="40" y2="24.332" xlink:href="#linear-gradient"/>
  </defs>
  <title>2Asset 10</title>
  <g id="Layer_2" data-name="Layer 2">
    <g id="Layer_1-2" data-name="Layer 1">
      <g>
        <path class="cls-1" d="M2.926,15.312a2.823,2.823,0,0,0-2.074.853A2.788,2.788,0,0,0,0,18.21V30.426A2.822,2.822,0,0,0,.852,32.5a2.822,2.822,0,0,0,2.074.852,2.778,2.778,0,0,0,2.06-.852,2.849,2.849,0,0,0,.838-2.074V18.21a2.788,2.788,0,0,0-.852-2.045A2.791,2.791,0,0,0,2.926,15.312Z"/>
        <path class="cls-2" d="M26.449,4.346,28.466.625a.374.374,0,0,0-.142-.568.394.394,0,0,0-.568.17L25.711,3.978a14.253,14.253,0,0,0-11.421,0L12.245.227a.394.394,0,0,0-.568-.17.373.373,0,0,0-.142.568l2.017,3.721A12.459,12.459,0,0,0,8.666,8.707,11.02,11.02,0,0,0,6.847,14.83H33.125a11.019,11.019,0,0,0-1.818-6.123A12.511,12.511,0,0,0,26.449,4.346ZM14.787,9.759a1.067,1.067,0,0,1-.781.327,1.018,1.018,0,0,1-.767-.327,1.132,1.132,0,0,1,0-1.563,1.022,1.022,0,0,1,.767-.326,1.1,1.1,0,0,1,.781,1.889Zm11.974,0a1.019,1.019,0,0,1-.766.327A1.108,1.108,0,0,1,26,7.87a1.021,1.021,0,0,1,.766.326,1.132,1.132,0,0,1,0,1.563Z"/>
        <path class="cls-3" d="M6.96,34.773A3.1,3.1,0,0,0,10.085,37.9h2.1l.029,6.45a2.824,2.824,0,0,0,.852,2.074,2.789,2.789,0,0,0,2.045.852,2.909,2.909,0,0,0,2.926-2.926V37.9H21.96v6.449a2.926,2.926,0,1,0,5.851,0V37.9h2.131a2.985,2.985,0,0,0,2.188-.909,3.017,3.017,0,0,0,.908-2.216V15.852H6.96Z"/>
        <path class="cls-4" d="M37.074,15.312a2.811,2.811,0,0,0-2.045.839,2.778,2.778,0,0,0-.852,2.059V30.426a2.822,2.822,0,0,0,.852,2.074,2.789,2.789,0,0,0,2.045.852A2.909,2.909,0,0,0,40,30.426V18.21a2.778,2.778,0,0,0-.852-2.059A2.848,2.848,0,0,0,37.074,15.312Z"/>
      </g>
    </g>
  </g>
</svg>
