<svg xmlns="http://www.w3.org/2000/svg" xmlns:xlink="http://www.w3.org/1999/xlink" viewBox="0 0 53.316 53.019">
  <defs>
    <style>
      .cls-1 {
        fill: #373939;
      }

      .cls-2 {
        fill: #231f20;
        stroke: #707070;
        stroke-miterlimit: 10;
      }

      .cls-3 {
        clip-path: url(#clip-path);
      }
    </style>
    <clipPath id="clip-path">
      <rect id="Rectangle_50" data-name="Rectangle 50" class="cls-1" width="52.316" height="52.442"/>
    </clipPath>
  </defs>
  <g id="hashbazaar-windows" transform="translate(0 -0.022)">
    <path id="Path_94" data-name="Path 94" class="cls-2" d="M19.6,4.74C29.009,3.235,38.419,1.98,47.954.6V25.441c-9.409,0-18.819.125-28.354.251Z" transform="translate(4.863 0)"/>
    <path id="Path_95" data-name="Path 95" class="cls-2" d="M.5,7.086C7.651,5.956,14.677,5.078,21.828,4.2V24.775c-7.151,0-14.3.125-21.328.125Z" transform="translate(0 0.917)"/>
    <g id="Group_67" data-name="Group 67" transform="translate(0.5 0.6)">
      <g id="Group_66" data-name="Group 66" class="cls-3">
        <path id="Path_96" data-name="Path 96" class="cls-2" d="M.5,22.4c7.151,0,14.177.125,21.328.125v20.7c-7.151-1-14.177-2.007-21.328-2.886Z" transform="translate(-0.5 4.95)"/>
        <path id="Path_97" data-name="Path 97" class="cls-2" d="M19.6,22.6H47.954V47.315c-9.409-1.38-18.819-2.76-28.354-4.015Z" transform="translate(4.363 5.001)"/>
      </g>
    </g>
  </g>
</svg>
