<?xml version="1.0" encoding="utf-8"?>
<!-- Generator: Adobe Illustrator 23.0.6, SVG Export Plug-In . SVG Version: 6.00 Build 0)  -->
<svg version="1.1" id="Capa_1" xmlns="http://www.w3.org/2000/svg" xmlns:xlink="http://www.w3.org/1999/xlink" x="0px" y="0px"
	 viewBox="0 0 512 512" style="enable-background:new 0 0 512 512;" xml:space="preserve">
<style type="text/css">
	.st0{fill:url(#SVGID_1_);}
	.st1{fill:#F6B817;}
	.st2{fill:#FFFFFF;}
	.st3{fill:#F9EC31;}
</style>
<title>icon-free</title>
<linearGradient id="SVGID_1_" gradientUnits="userSpaceOnUse" x1="379.049" y1="470.0528" x2="132.6581" y2="43.2911">
	<stop  offset="7.255957e-02" style="stop-color:#F6B817"/>
	<stop  offset="0.2472" style="stop-color:#F8D325"/>
	<stop  offset="0.4083" style="stop-color:#F9E62E"/>
	<stop  offset="0.5235" style="stop-color:#F9EC31"/>
	<stop  offset="0.698" style="stop-color:#F8D324"/>
	<stop  offset="0.8771" style="stop-color:#F6BF1B"/>
	<stop  offset="1" style="stop-color:#F6B817"/>
</linearGradient>
<path class="st0" d="M497.3,249.4c7.7-12.6,5.7-28.8-4.8-39.2l-20-19.7c-6.6-6.5-10.1-15.6-9.4-24.8l2-28.1
	c1-14.8-8.3-28.3-22.5-32.6l-26.4-8c-8.9-2.7-16.2-9.2-19.9-17.7l-11.1-25.5c-5.9-13.7-20.6-21.4-35.2-18.5l-26.8,5.3
	c-9.2,1.8-18.7-0.5-26-6.4L275.9,17c-11.6-9.4-28.2-9.4-39.8,0l-21.3,17.3c-7.3,5.8-16.8,8.2-26,6.4L162,35.4
	c-14.6-2.9-29.3,4.8-35.2,18.5l-11.1,25.5c-3.7,8.5-11,15-19.9,17.7l-26.4,8c-14.2,4.3-23.6,17.8-22.5,32.6l2,28.1
	c0.6,9.2-2.8,18.3-9.4,24.8l-20,19.7C9,220.6,7,236.8,14.6,249.4l14.8,24c4.9,7.9,6,17.5,3.2,26.3L24,326.6
	c-4.5,14.1,1.3,29.4,14,37l23.9,14.2c8,4.7,13.5,12.7,15.1,21.9l4.7,27.6c2.5,14.6,14.9,25.6,29.7,26.3l27.4,1.4
	c9.3,0.5,18,5.1,23.7,12.5l16.7,22c9,11.8,25.1,15.8,38.6,9.5l24.8-11.5c8.4-4,18.2-4,26.7-0.1l24.8,11.6
	c13.5,6.4,29.6,2.4,38.6-9.5l16.7-22c5.7-7.4,14.3-12,23.7-12.5l27.4-1.4c14.8-0.7,27.2-11.6,29.7-26.3l4.7-27.6
	c1.6-9.2,7.1-17.2,15.1-21.9l23.9-14.2c12.7-7.6,18.5-22.9,14-37l-8.6-26.9c-2.8-8.8-1.7-18.4,3.2-26.3L497.3,249.4z M256,436
	c-99.4,0-180-80.6-180-180S156.6,76,256,76s180,80.6,180,180S355.4,436,256,436z"/>
<path d="M204.6,512c-13.1,0.1-25.4-6-33.3-16.4l-16.7-22c-3.9-5.1-9.8-8.2-16.2-8.5l-27.4-1.4c-19.5-0.9-35.8-15.3-39-34.6
	l-4.7-27.6c-1-6.3-4.8-11.8-10.3-15l-23.9-14.2c-16.8-9.9-24.4-30.1-18.4-48.6l8.6-26.9c1.9-6,1.1-12.6-2.2-18l-14.8-24
	c-10.2-16.5-7.7-38,6.2-51.6l20-19.7c4.5-4.5,6.9-10.7,6.4-17l-2-28.1c-1.5-19.5,10.9-37.3,29.6-42.9l26.4-8
	c6.1-1.8,11.1-6.3,13.6-12.1l11.1-25.5c7.9-17.9,27.1-28,46.3-24.3l26.8,5.3c6.3,1.2,12.8-0.4,17.8-4.4l21.3-17.2
	C245.1-3,266.9-3,282.2,9.2l21.3,17.2c5,4,11.5,5.6,17.8,4.4l26.8-5.3c19.2-3.6,38.4,6.4,46.3,24.3l11.1,25.5
	c2.5,5.9,7.5,10.3,13.6,12.1l26.4,8c18.7,5.6,31,23.4,29.6,42.9l-2,28.1c-0.5,6.3,1.9,12.5,6.4,17l20,19.7
	c13.9,13.6,16.5,35.1,6.2,51.6l-14.8,24c-3.3,5.4-4.1,12-2.2,18l8.6,26.9c6,18.5-1.6,38.7-18.4,48.6L455,386.4
	c-5.5,3.3-9.2,8.7-10.3,15L440,429c-3.2,19.3-19.5,33.7-39,34.6l-27.4,1.4c-6.4,0.3-12.3,3.4-16.2,8.5l-16.7,22
	c-11.9,15.5-33,20.8-50.8,12.6l-24.8-11.6c-5.8-2.7-12.6-2.7-18.4,0l0,0l-24.8,11.6C216.5,510.7,210.6,512,204.6,512z M155.9,44.8
	c-8.7,0-16.5,5.2-20,13.1l-11.1,25.5c-4.8,11.3-14.4,19.8-26.2,23.3l-26.4,8c-9.8,2.9-16.2,12.2-15.4,22.3l2,28.1
	c0.9,12.2-3.6,24.1-12.3,32.7l-20,19.7c-7.2,7.1-8.6,18.2-3.3,26.8l14.8,24c6.4,10.4,7.9,23,4.2,34.6l-8.6,26.9
	c-3.1,9.6,0.9,20.2,9.6,25.3l23.9,14.2c10.5,6.2,17.7,16.8,19.8,28.8l4.7,27.6c1.7,10,10.1,17.6,20.3,18l27.4,1.4
	c12.3,0.6,23.7,6.6,31.1,16.4l16.7,22c6.2,8.1,17.2,10.8,26.5,6.5l24.8-11.6l0,0c11.2-5.2,24.1-5.2,35.3,0l24.8,11.6
	c9.3,4.2,20.2,1.5,26.5-6.5l16.7-22c7.4-9.8,18.8-15.8,31.1-16.4l27.4-1.4c10.2-0.4,18.6-8,20.3-18l4.7-27.6
	c2.1-12,9.3-22.6,19.8-28.8l23.9-14.2c8.7-5.1,12.7-15.7,9.6-25.3l-8.6-26.9c-3.7-11.6-2.2-24.2,4.2-34.6l14.8-24
	c5.3-8.6,4-19.8-3.3-26.8l-20-19.7c-8.7-8.6-13.2-20.5-12.3-32.7l2-28.1c0.8-10.1-5.6-19.4-15.4-22.3l-26.4-8
	c-11.7-3.5-21.3-12.1-26.2-23.3l-11.1-25.5c-4.1-9.3-14.1-14.6-24.1-12.7l-26.8,5.3c-12.1,2.4-24.6-0.7-34.2-8.5l-21.3-17.2
	c-8-6.4-19.3-6.4-27.3,0L221,42c-9.6,7.8-22.1,10.9-34.2,8.5L160,45.2C158.7,44.9,157.3,44.8,155.9,44.8z"/>
<path d="M128.7,138.7c-2.7,0-5.2-1.1-7.1-3c-3.9-3.8-3.9-10.1,0-14l0.1-0.1l0.1-0.1c3.6-4.2,9.9-4.6,14.1-1s4.6,9.9,1,14.1
	c-0.3,0.4-0.7,0.7-1.1,1.1l-0.1,0.1C133.9,137.7,131.3,138.8,128.7,138.7z"/>
<path d="M421.8,336.2c-1.3,0-2.7-0.3-3.9-0.8c-5.1-2.2-7.4-8-5.3-13.1c36.6-86.5-3.8-186.2-90.2-222.8
	c-49.8-21.1-106.6-17.2-153.1,10.3c-4.8,2.7-10.9,1.1-13.6-3.7c-2.7-4.7-1.1-10.6,3.4-13.5c90.2-53.5,206.8-23.8,260.4,66.5
	c30.8,51.9,35.1,115.4,11.5,171C429.4,333.8,425.8,336.2,421.8,336.2z"/>
<path d="M383.1,393.4c-5.5,0-10-4.5-10-10c0-2.7,1.1-5.2,3-7.1l0.1-0.1c4.2-3.6,10.5-3,14.1,1.2c3.2,3.8,3.1,9.3-0.1,13l-0.1,0.1
	C388.2,392.3,385.7,393.4,383.1,393.4z"/>
<path d="M256.1,446c-104.9,0-190-85-190-190c0-25.5,5.1-50.7,15-74.1c2-5.2,7.7-7.8,12.9-5.8c5.2,2,7.8,7.7,5.8,12.9
	c-0.1,0.2-0.2,0.5-0.3,0.7c-36.6,86.5,3.8,186.2,90.2,222.8c49.8,21.1,106.6,17.2,153.1-10.3c4.8-2.7,10.9-1.1,13.6,3.7
	c2.7,4.7,1.1,10.6-3.4,13.5C323.7,436.8,290.2,446,256.1,446z"/>
<circle class="st1" cx="316.2" cy="351.3" r="32"/>
<circle class="st1" cx="195.8" cy="157.6" r="32"/>
<g>
	<path class="st2" d="M200,265.2c0,6.5-1.9,11.9-5.6,16c-3.9,4.3-9,6.5-15.5,6.5H166c-5.7,0-10.6-2.2-14.5-6.6
		c-3.8-4.2-5.7-9.2-5.7-15v-17.5h8.2V267c0,3.5,1.4,6.5,4.1,8.9c2.6,2.3,5.8,3.4,9.4,3.4h10.8c3.6,0,6.7-1.1,9.3-3.4
		s3.9-5.2,3.9-8.8v-26.8h8.4v24.9H200z M176.4,238.4c0,1.6-0.6,2.9-1.7,4c-1.1,1.1-2.5,1.7-4.1,1.7c-4.2,0-6.2-1.9-6.2-5.7
		c0-3.3,2-5,5.9-5C174.4,233.4,176.4,235.1,176.4,238.4z"/>
	<path class="st2" d="M228.3,266.6c-7.1,0-12-1.4-14.9-4.1c-1.9-1.8-2.9-4.7-2.9-8.7v-39.6h8.4v35.9c0,3.9,0.7,6.2,2,7.1
		c0.8,0.5,3.3,0.9,7.5,1v8.4H228.3z"/>
	<path class="st2" d="M275.5,266.6c-6.9,0-11.8-2.2-14.6-6.7c-1.9,4.5-5.4,6.7-10.6,6.7h-24.9v-8.3h25.1c2.9,0,4.3-1.1,4.3-3.2
		c0-1.1-0.7-2.3-2-3.6l-21.9-22.9l-1.4-9.4l30.7-11.1l1.3,8.3l-22.3,8.4l23.4,25.6c1.6,1.8,4.1,4.2,7.3,7c1.4,0.7,3.2,1,5.6,0.9
		V266.6z M258.1,203.3l-29.2,10.6l-0.4-3.2l29.4-10.6L258.1,203.3z"/>
	<path class="st2" d="M302.6,253c0,3.6-1.1,6.8-3.2,9.4c-2.3,2.8-5.2,4.2-8.7,4.2h-17.9v-8.3H288c2.3,0,3.9-0.5,4.8-1.4
		s1.3-2.6,1.3-5v-11.5h8.4V253H302.6z M285.1,282.6c0,1.4-0.5,2.6-1.6,3.5s-2.3,1.4-3.7,1.4c-1.5,0-2.9-0.4-4-1.3
		c-1.2-0.9-1.8-2.2-1.8-3.7c0-3.1,1.8-4.6,5.3-4.6C283.2,278,285.1,279.5,285.1,282.6z M301.1,282.6c0,1.4-0.5,2.6-1.6,3.5
		c-1,0.9-2.3,1.4-3.7,1.4c-1.5,0-2.9-0.4-4-1.3c-1.2-0.9-1.8-2.2-1.8-3.7c0-3.1,1.8-4.6,5.3-4.6C299.2,278,301.1,279.5,301.1,282.6z
		"/>
	<path class="st2" d="M323.4,266.6h-8.2V213h8.2V266.6z"/>
	<path class="st2" d="M368.3,265.1c0,6.2-1.9,11.4-5.8,15.8c-4,4.5-9,6.8-15.2,6.8h-11.2l-1.3-8.6h9.4c4,0,7.5-1,10.4-2.9
		c3.3-2.2,5-5.3,5-9.2v-26.8h8.6v24.9H368.3z"/>
</g>
<rect x="-207.2" y="57.8" class="st1" width="16.5" height="16.5"/>
<rect x="-157.9" y="57.8" class="st3" width="16.5" height="16.5"/>
<rect x="-181" y="57.8" class="st1" width="16.5" height="16.5"/>
<rect x="-133.5" y="57.8" class="st3" width="16.5" height="16.5"/>
</svg>
