<?xml version="1.0" encoding="utf-8"?>
<!-- Generator: Adobe Illustrator 23.0.6, SVG Export Plug-In . SVG Version: 6.00 Build 0)  -->
<svg version="1.1" id="Layer_1" xmlns="http://www.w3.org/2000/svg" xmlns:xlink="http://www.w3.org/1999/xlink" x="0px" y="0px"
	 viewBox="0 0 1000 1000" style="enable-background:new 0 0 1000 1000;" xml:space="preserve">
<style type="text/css">
	.st0{fill:url(#SVGID_1_);}
	.st1{fill:#F6B817;}
	.st2{fill:#F9EC31;}
</style>
<g>
	<g>
		<g id="Watch">
			<g>
				<linearGradient id="SVGID_1_" gradientUnits="userSpaceOnUse" x1="10" y1="500" x2="990" y2="500">
					<stop  offset="9.066680e-03" style="stop-color:#F6B817"/>
					<stop  offset="0.4728" style="stop-color:#F9EC31"/>
					<stop  offset="1" style="stop-color:#F6B817"/>
				</linearGradient>
				<path class="st0" d="M500,10C229.8,10,10,229.8,10,500s219.8,490,490,490s490-219.8,490-490S770.2,10,500,10z M500,928.8
					C263.6,928.8,71.3,736.4,71.3,500S263.6,71.3,500,71.3s428.8,192.3,428.8,428.8C928.8,736.4,736.4,928.8,500,928.8z M580,544.1
					c7.4-13.1,11.8-28.1,11.8-44.1c0-39.9-25.7-73.5-61.3-86.2V163.1c0-16.9-13.7-30.6-30.6-30.6s-30.6,13.7-30.6,30.6v250.7
					C433.7,426.5,408,460.2,408,500c0,50.7,41.2,91.9,91.9,91.9c12.1,0,23.7-2.5,34.3-6.8L662,712.9c6,6,13.8,9,21.7,9
					s15.7-3,21.7-9c12-12,12-31.3,0-43.3L580,544.1z M500,530.6c-16.9,0-30.6-13.7-30.6-30.6s13.7-30.6,30.6-30.6
					c16.9,0,30.6,13.8,30.6,30.6C530.6,516.9,516.9,530.6,500,530.6z"/>
			</g>
		</g>
	</g>
</g>
<rect x="-282.5" y="214.7" class="st1" width="16.5" height="16.5"/>
<rect x="-233.2" y="214.7" class="st2" width="16.5" height="16.5"/>
<rect x="-256.3" y="214.7" class="st1" width="16.5" height="16.5"/>
<rect x="-208.8" y="214.7" class="st2" width="16.5" height="16.5"/>
</svg>
