<svg xmlns="http://www.w3.org/2000/svg" viewBox="0 0 35.993 43.571">
  <defs>
    <style>
      .cls-1 {
        fill: #373939;
      }

      .cls-2 {
        fill: #fff;
      }

      .cls-3 {
        fill: #202020;
      }
    </style>
  </defs>
  <g id="Linux" transform="translate(-1.088 -1)">
    <path id="path3" class="cls-1" d="M35.769,35.37h0a4.136,4.136,0,0,1-.615-1.681,3.326,3.326,0,0,0-.9-1.9,0,0,0,0,1-.005-.005,2.892,2.892,0,0,0-.34-.249,2.2,2.2,0,0,0-.35-.168,9.847,9.847,0,0,0-.315-6.73A22.591,22.591,0,0,0,29.283,18.3c-1.448-1.828-2.865-3.56-2.839-6.125C26.484,8.263,26.875,1.01,19.988,1c-.279,0-.574.01-.874.036-7.685.62-5.648,8.746-5.76,11.469A9.833,9.833,0,0,1,11.44,18.01,27.225,27.225,0,0,0,6.5,26.238a9.771,9.771,0,0,0-.523,4.536,2.379,2.379,0,0,0-.2.193c-.472.5-.823,1.112-1.209,1.524A3.783,3.783,0,0,1,3.12,33.2a2.6,2.6,0,0,0-1.575,1.234h0v.005a2.192,2.192,0,0,0-.239,1.056,6.615,6.615,0,0,0,.1,1.006,4.364,4.364,0,0,1,.071,1.768,3.408,3.408,0,0,0-.193,2.7,2.3,2.3,0,0,0,1.707,1.046c1.478.31,3.474.234,5.049,1.067l.137-.254-.132.254a7.173,7.173,0,0,0,4.759.884,3.076,3.076,0,0,0,2.2-1.722c1.067-.005,2.235-.457,4.114-.559,1.27-.1,2.86.452,4.688.35a2.26,2.26,0,0,0,.213.569,0,0,0,0,0,.005.005,3.416,3.416,0,0,0,3.428,1.955,6.2,6.2,0,0,0,4.1-2.377l-.223-.188.223.183c1.153-1.4,3.063-1.976,4.327-2.738a2.045,2.045,0,0,0,1.189-1.554A3.79,3.79,0,0,0,35.769,35.37Z"/>
    <path id="path5" class="cls-2" d="M470.494,592.192c-.025.427-.335.747-.909,1.092-1.148.691-3.179,1.3-4.475,2.865a5.685,5.685,0,0,1-3.708,2.174,2.781,2.781,0,0,1-2.87-1.641h0v-.005a4.674,4.674,0,0,1,.1-3.078,20.617,20.617,0,0,0,.843-3.459v-.01a18.445,18.445,0,0,1,.356-3.291,2.556,2.556,0,0,1,1.163-1.793l.086-.046a2.624,2.624,0,0,0,1.6,2.509c1.072.284,2.616-.635,3.271-1.387l.381-.015a2.01,2.01,0,0,1,1.544.447h0a2.968,2.968,0,0,1,.711,1.6,4.234,4.234,0,0,0,.747,1.935h0C470.235,591.09,470.52,591.76,470.494,592.192Z" transform="translate(-433.999 -554.338)"/>
    <path id="path7" class="cls-2" d="M25.525,596.975h0v.005a2.424,2.424,0,0,1-2.047,2.367,6.673,6.673,0,0,1-4.363-.833h0c-1.762-.935-3.855-.838-5.2-1.122-.67-.142-1.112-.351-1.31-.742a2.943,2.943,0,0,1,.223-2.245v-.01a4.459,4.459,0,0,0-.046-2.037,2.891,2.891,0,0,1,.076-1.707v-.005a1.974,1.974,0,0,1,1.255-.96,4.021,4.021,0,0,0,1.666-.843h.01c.462-.488.808-1.1,1.214-1.534a1.569,1.569,0,0,1,1.2-.609h.015a1.968,1.968,0,0,1,.29.025,2.974,2.974,0,0,1,1.859,1.366l1.661,3.032h0A20.754,20.754,0,0,0,24.2,594.1,4.861,4.861,0,0,1,25.525,596.975Z" transform="translate(-10.804 -555.952)"/>
    <path id="path9" class="cls-2" d="M265.058,190.648a1.6,1.6,0,0,0-.869-.7h0a13.336,13.336,0,0,1-1.925-.792,4.038,4.038,0,0,0-2.2-.757,2.58,2.58,0,0,0-.848.142,4.146,4.146,0,0,0-1.524,1.067h0c-.061.056-.137.107-.325.244s-.472.345-.879.65a.89.89,0,0,0-.355,1.036,2.519,2.519,0,0,0,1.249,1.3h0a9.025,9.025,0,0,1,1.117.909,2.558,2.558,0,0,0,.589.366,2.288,2.288,0,0,0,.813.178,3.163,3.163,0,0,0,1.839-.472,8.471,8.471,0,0,1,1.412-.792h0a2.958,2.958,0,0,0,1.935-1.539A1,1,0,0,0,265.058,190.648Z" transform="translate(-242.043 -177.88)"/>
    <path id="path11" class="cls-3" d="M271.687,234.519a6.048,6.048,0,0,1-2.712.914,3.751,3.751,0,0,1-2.326-.9c-.279-.223-.508-.442-.681-.6-.3-.234-.264-.564-.142-.554.2.025.234.295.366.416.173.163.4.376.66.584a3.4,3.4,0,0,0,2.123.828,5.834,5.834,0,0,0,2.545-.874,13.046,13.046,0,0,0,1.183-.833c.284-.208.274-.457.508-.432s.061.279-.269.564A7.606,7.606,0,0,1,271.687,234.519Z" transform="translate(-251.207 -220.278)"/>
    <path id="path13" class="cls-2" d="M172.581,277.515c-.112-.005-.218-.005-.325,0h-.03c.274-.863-.33-1.5-1.94-2.225-1.666-.731-3-.66-3.22.828-.015.076-.025.157-.036.239a2.435,2.435,0,0,0-.376.168,3.156,3.156,0,0,0-1.448,2.159,18.618,18.618,0,0,0-.371,3.4h0a13.369,13.369,0,0,1-.579,2.463c-2.733,1.95-6.522,2.793-9.742.594-.218-.345-.467-.686-.726-1.026-.163-.213-.335-.432-.5-.64a2.056,2.056,0,0,0,.838-.157,1.047,1.047,0,0,0,.579-.6,2.391,2.391,0,0,0-.63-2.123,11.581,11.581,0,0,0-3.256-2.768h0a4.616,4.616,0,0,1-2.093-2.54,5.706,5.706,0,0,1-.025-3,17.883,17.883,0,0,1,2.316-5.033c.2-.142.071.269-.736,1.768-.726,1.371-2.077,4.541-.223,7.014a14.7,14.7,0,0,1,1.173-5.231c1.026-2.331,3.174-6.369,3.347-9.589.086.066.391.269.523.345h0a9.347,9.347,0,0,1,1.072.879,2.671,2.671,0,0,0,1.59.62c.071.005.137.005.2.005a3.557,3.557,0,0,0,1.818-.523,9.62,9.62,0,0,1,1.351-.767h0a3.657,3.657,0,0,0,1.9-1.275,43.981,43.981,0,0,0,3.164,8.147,18.876,18.876,0,0,1,2.006,5.5,3.259,3.259,0,0,1,.929.117c1.173-3.037-1-6.308-1.986-7.222-.4-.386-.416-.564-.218-.554a10.471,10.471,0,0,1,3,5.018,6.394,6.394,0,0,1,.03,3.037c.122.051.249.107.376.168C172.22,275.631,172.916,276.428,172.581,277.515Z" transform="translate(-139.936 -246.32)"/>
    <path id="path15" class="cls-2" d="M353.623,122.173a3.263,3.263,0,0,1-.279,1.392,2.693,2.693,0,0,1-.391.65,1.569,1.569,0,0,0-.163-.071c-.193-.081-.366-.152-.518-.208s-.274-.1-.4-.142a1.612,1.612,0,0,0,.33-.4,2.077,2.077,0,0,0,.157-.757c0-.01.005-.02.005-.036a2.191,2.191,0,0,0-.107-.736,1.331,1.331,0,0,0-.34-.574.721.721,0,0,0-.483-.223h-.025a.709.709,0,0,0-.472.188,1.323,1.323,0,0,0-.381.549,2.06,2.06,0,0,0-.157.762v.03a2.012,2.012,0,0,0,.03.437,5.822,5.822,0,0,0-1.107-.376,3.567,3.567,0,0,1-.03-.416V122.2a3.186,3.186,0,0,1,.274-1.392,2.483,2.483,0,0,1,.782-1.026,1.749,1.749,0,0,1,1.077-.386h.02a1.739,1.739,0,0,1,1.067.366,2.432,2.432,0,0,1,.8,1.011,3.268,3.268,0,0,1,.3,1.351c-.005.025-.005.036,0,.046Z" transform="translate(-330.522 -112.386)"/>
    <path id="path17" class="cls-2" d="M259.9,130.849l-.152.046a3.025,3.025,0,0,0-.716.345,1.788,1.788,0,0,0,.005-.467v-.025a2.034,2.034,0,0,0-.147-.6,1.129,1.129,0,0,0-.3-.442.5.5,0,0,0-.335-.142h-.036a.5.5,0,0,0-.345.2,1.139,1.139,0,0,0-.218.488,1.9,1.9,0,0,0-.041.64v.025a1.889,1.889,0,0,0,.147.6,1.168,1.168,0,0,0,.3.442.239.239,0,0,0,.061.046c-.127.1-.213.168-.32.249-.066.051-.147.107-.244.178a2.291,2.291,0,0,1-.5-.747,3.37,3.37,0,0,1-.279-1.189v-.005a3.3,3.3,0,0,1,.142-1.214,2.111,2.111,0,0,1,.518-.909A1.117,1.117,0,0,1,258.2,128h.066a1.122,1.122,0,0,1,.731.279,2.107,2.107,0,0,1,.62.848,3.37,3.37,0,0,1,.279,1.189v.005a2.3,2.3,0,0,1,.005.528Z" transform="translate(-242.692 -120.55)"/>
    <path id="path28396-7" class="cls-3" d="M344.067,202.245c.03.107.2.086.3.137s.157.142.254.142.239-.03.249-.122c.015-.122-.163-.2-.274-.244a.589.589,0,0,0-.472-.01c-.03.02-.066.061-.056.1Z" transform="translate(-325.557 -190.888)"/>
    <path id="path5461" class="cls-3" d="M309.285,202.245c-.03.107-.2.086-.3.137s-.157.142-.254.142-.239-.03-.249-.122c-.015-.122.163-.2.274-.244a.589.589,0,0,1,.472-.01c.036.02.066.061.056.1Z" transform="translate(-291.781 -190.888)"/>
  </g>
</svg>
