<svg xmlns="http://www.w3.org/2000/svg" viewBox="0 0 51.004 61.741">
  <defs>
    <style>
      .cls-1 {
        fill: #373939;
      }

      .cls-2 {
        fill: #fff;
      }

      .cls-3 {
        fill: #202020;
      }
    </style>
  </defs>
  <g id="Linux" transform="translate(-1.088 -1)">
    <path id="path3" class="cls-1" d="M50.232,49.7h0a5.861,5.861,0,0,1-.871-2.382,4.713,4.713,0,0,0-1.274-2.7.007.007,0,0,1-.007-.007,4.1,4.1,0,0,0-.482-.353,3.116,3.116,0,0,0-.5-.238,13.954,13.954,0,0,0-.446-9.536,32.012,32.012,0,0,0-5.614-8.975c-2.051-2.591-4.059-5.045-4.023-8.68.058-5.542.612-15.82-9.148-15.834-.4,0-.813.014-1.238.05-10.889.878-8,12.394-8.162,16.251a13.933,13.933,0,0,1-2.713,7.8c-2.274,2.706-5.484,7.1-7,11.66a13.846,13.846,0,0,0-.741,6.427,3.371,3.371,0,0,0-.281.273c-.669.713-1.166,1.576-1.713,2.159a5.36,5.36,0,0,1-2.051,1,3.683,3.683,0,0,0-2.231,1.749h0v.007a3.105,3.105,0,0,0-.338,1.5A9.374,9.374,0,0,0,1.542,51.3a6.183,6.183,0,0,1,.1,2.5C1,55.548.923,56.757,1.37,57.628a3.252,3.252,0,0,0,2.418,1.483c2.094.439,4.923.331,7.154,1.511l.194-.36-.187.36a10.164,10.164,0,0,0,6.744,1.252,4.359,4.359,0,0,0,3.124-2.44c1.511-.007,3.167-.648,5.83-.792,1.8-.144,4.052.641,6.643.5a3.2,3.2,0,0,0,.3.806.007.007,0,0,0,.007.007,4.84,4.84,0,0,0,4.858,2.771,8.791,8.791,0,0,0,5.815-3.368l-.317-.266.317.259c1.634-1.979,4.34-2.8,6.132-3.879a2.9,2.9,0,0,0,1.684-2.2C52.139,52.28,51.563,51.179,50.232,49.7Z"/>
    <path id="path5" class="cls-2" d="M475.576,595.191c-.036.6-.475,1.058-1.288,1.547-1.627.979-4.505,1.835-6.341,4.059a8.056,8.056,0,0,1-5.254,3.08,3.941,3.941,0,0,1-4.066-2.325h0v-.007c-.54-1.029-.317-2.649.137-4.362a29.21,29.21,0,0,0,1.195-4.9v-.014a26.142,26.142,0,0,1,.5-4.664,3.623,3.623,0,0,1,1.648-2.541c.043-.022.079-.043.122-.065.1,1.583.885,3.2,2.267,3.555,1.519.4,3.707-.9,4.635-1.965l.54-.022a2.848,2.848,0,0,1,2.188.633h0a4.206,4.206,0,0,1,1.008,2.267,6,6,0,0,0,1.058,2.742h0C475.209,593.63,475.612,594.58,475.576,595.191Z" transform="translate(-424.315 -541.968)"/>
    <path id="path7" class="cls-2" d="M30.97,601.26h0v.007a3.435,3.435,0,0,1-2.9,3.354,9.456,9.456,0,0,1-6.182-1.18h0c-2.5-1.324-5.463-1.188-7.37-1.591-.95-.2-1.576-.5-1.857-1.051s-.3-1.526.317-3.181V597.6a6.319,6.319,0,0,0-.065-2.886,4.1,4.1,0,0,1,.108-2.418v-.007a2.8,2.8,0,0,1,1.778-1.36,5.7,5.7,0,0,0,2.361-1.195h.014c.655-.691,1.144-1.555,1.72-2.174A2.223,2.223,0,0,1,20.6,586.7h.022a2.791,2.791,0,0,1,.41.036,4.215,4.215,0,0,1,2.634,1.936l2.353,4.3h0a29.408,29.408,0,0,0,3.073,4.218C30.214,598.655,31.085,600.13,30.97,601.26Z" transform="translate(-10.563 -543.546)"/>
    <path id="path9" class="cls-2" d="M268.8,191.587a2.267,2.267,0,0,0-1.231-.993h0a18.9,18.9,0,0,1-2.728-1.123,5.722,5.722,0,0,0-3.124-1.072,3.655,3.655,0,0,0-1.2.2,5.875,5.875,0,0,0-2.159,1.511h0c-.086.079-.194.151-.461.345s-.669.489-1.245.921a1.261,1.261,0,0,0-.5,1.468,3.57,3.57,0,0,0,1.771,1.842h0a12.794,12.794,0,0,1,1.583,1.288,3.624,3.624,0,0,0,.835.518,3.242,3.242,0,0,0,1.152.252,4.483,4.483,0,0,0,2.605-.669,12,12,0,0,1,2-1.123h0a4.192,4.192,0,0,0,2.742-2.181A1.421,1.421,0,0,0,268.8,191.587Z" transform="translate(-236.642 -173.911)"/>
    <path id="path11" class="cls-3" d="M274.169,235.126a8.57,8.57,0,0,1-3.843,1.3,5.316,5.316,0,0,1-3.3-1.274c-.4-.317-.72-.626-.964-.856-.425-.331-.374-.8-.2-.785.288.036.331.417.518.59.245.23.561.533.936.828a4.823,4.823,0,0,0,3.008,1.173,8.267,8.267,0,0,0,3.606-1.238,18.481,18.481,0,0,0,1.677-1.18c.4-.3.389-.648.72-.612s.086.4-.381.8A10.782,10.782,0,0,1,274.169,235.126Z" transform="translate(-245.601 -215.362)"/>
    <path id="path13" class="cls-2" d="M182.619,284.611c-.158-.007-.309-.007-.461,0h-.043c.389-1.224-.468-2.123-2.749-3.152-2.361-1.036-4.246-.936-4.563,1.173-.022.108-.036.223-.05.338a3.455,3.455,0,0,0-.533.237,4.472,4.472,0,0,0-2.051,3.059,26.383,26.383,0,0,0-.525,4.815h0a18.942,18.942,0,0,1-.82,3.491c-3.872,2.764-9.241,3.958-13.8.842-.309-.489-.662-.972-1.029-1.454-.23-.3-.475-.612-.713-.907a2.914,2.914,0,0,0,1.188-.223,1.484,1.484,0,0,0,.82-.849c.281-.749,0-1.8-.892-3.008a16.411,16.411,0,0,0-4.613-3.923h0a6.541,6.541,0,0,1-2.965-3.6,8.086,8.086,0,0,1-.036-4.246,25.341,25.341,0,0,1,3.282-7.132c.281-.2.1.381-1.044,2.5-1.029,1.943-2.944,6.434-.317,9.939a20.835,20.835,0,0,1,1.663-7.413c1.454-3.3,4.5-9.025,4.743-13.588.122.094.554.381.741.489h0a13.244,13.244,0,0,1,1.519,1.245,3.785,3.785,0,0,0,2.253.878c.1.007.194.007.288.007a5.04,5.04,0,0,0,2.577-.741,13.626,13.626,0,0,1,1.914-1.087h0a5.183,5.183,0,0,0,2.692-1.807,62.323,62.323,0,0,0,4.484,11.544,26.748,26.748,0,0,1,2.843,7.787,4.617,4.617,0,0,1,1.317.166c1.663-4.3-1.411-8.939-2.814-10.234-.569-.547-.59-.8-.309-.784a14.837,14.837,0,0,1,4.246,7.111,9.061,9.061,0,0,1,.043,4.3c.173.072.353.151.533.238C182.108,281.941,183.094,283.071,182.619,284.611Z" transform="translate(-136.813 -240.823)"/>
    <path id="path15" class="cls-2" d="M355.428,123.33a4.625,4.625,0,0,1-.4,1.972,3.816,3.816,0,0,1-.554.921,2.225,2.225,0,0,0-.23-.1c-.273-.115-.518-.216-.734-.3s-.389-.137-.561-.2a2.283,2.283,0,0,0,.468-.561,2.942,2.942,0,0,0,.223-1.072c0-.014.007-.029.007-.05a3.106,3.106,0,0,0-.151-1.044,1.885,1.885,0,0,0-.482-.813,1.022,1.022,0,0,0-.684-.317H352.3a1,1,0,0,0-.669.266,1.874,1.874,0,0,0-.54.777,2.918,2.918,0,0,0-.223,1.08v.043a2.852,2.852,0,0,0,.043.619,8.25,8.25,0,0,0-1.569-.533,5.055,5.055,0,0,1-.043-.59v-.058a4.515,4.515,0,0,1,.389-1.972,3.519,3.519,0,0,1,1.108-1.454,2.479,2.479,0,0,1,1.526-.547h.029a2.465,2.465,0,0,1,1.511.518A3.446,3.446,0,0,1,355,121.35a4.631,4.631,0,0,1,.432,1.914c-.007.036-.007.05,0,.065Z" transform="translate(-323.146 -109.878)"/>
    <path id="path17" class="cls-2" d="M261.2,132.038l-.216.065a4.287,4.287,0,0,0-1.015.489,2.534,2.534,0,0,0,.007-.662v-.036a2.883,2.883,0,0,0-.209-.849,1.6,1.6,0,0,0-.425-.626.711.711,0,0,0-.475-.2h-.05a.71.71,0,0,0-.489.281,1.615,1.615,0,0,0-.309.691,2.694,2.694,0,0,0-.058.907v.036a2.675,2.675,0,0,0,.209.849,1.655,1.655,0,0,0,.425.626.338.338,0,0,0,.086.065c-.18.137-.3.238-.453.353-.094.072-.209.151-.345.252a3.247,3.247,0,0,1-.713-1.058,4.775,4.775,0,0,1-.4-1.684v-.007a4.674,4.674,0,0,1,.2-1.72,2.991,2.991,0,0,1,.734-1.288,1.582,1.582,0,0,1,1.08-.518h.094a1.59,1.59,0,0,1,1.036.4,2.986,2.986,0,0,1,.878,1.2,4.776,4.776,0,0,1,.4,1.684v.007a3.264,3.264,0,0,1,.007.749Z" transform="translate(-237.277 -117.859)"/>
    <path id="path28396-7" class="cls-3" d="M344.068,202.3c.043.151.288.122.425.194s.223.2.36.2.338-.043.353-.173c.022-.173-.23-.281-.389-.345a.835.835,0,0,0-.669-.014c-.043.029-.094.086-.079.137Z" transform="translate(-318.292 -186.629)"/>
    <path id="path5461" class="cls-3" d="M309.62,202.3c-.043.151-.288.122-.425.194s-.223.2-.36.2-.338-.043-.353-.173c-.022-.173.23-.281.389-.345a.835.835,0,0,1,.669-.014c.05.029.094.086.079.137Z" transform="translate(-285.27 -186.629)"/>
  </g>
</svg>
