<svg xmlns="http://www.w3.org/2000/svg" xmlns:xlink="http://www.w3.org/1999/xlink" viewBox="0 0 366.425 300.628">
  <defs>
    <style>
      .cls-1 {
        fill: #e8e7e7;
        stroke: #707070;
      }

      .cls-2 {
        opacity: 0.33;
        fill: url(#linear-gradient);
      }

      .cls-3 {
        fill: url(#linear-gradient-2);
      }

      .cls-4 {
        fill: url(#linear-gradient-3);
      }

      .cls-5 {
        fill: url(#radial-gradient);
      }

      .cls-6 {
        fill: url(#radial-gradient-2);
      }

      .cls-7 {
        fill: url(#linear-gradient-4);
      }

      .cls-8 {
        fill: url(#linear-gradient-5);
      }

      .cls-9 {
        fill: #231f20;
      }

      .cls-10 {
        fill: url(#linear-gradient-6);
      }

      .cls-11 {
        fill: #feca7a;
      }

      .cls-12 {
        fill: #373939;
      }

      .cls-13 {
        fill: #d84774;
      }

      .cls-14 {
        fill: #e6e7e8;
      }

      .cls-15 {
        fill: #f72434;
      }

      .cls-16 {
        fill: #f79663;
      }

      .cls-17 {
        fill: #f24c88;
      }

      .cls-18 {
        fill: #bcbec0;
      }

      .cls-19 {
        stroke: none;
      }

      .cls-20 {
        fill: none;
      }
    </style>
    <linearGradient id="linear-gradient" x1="0.5" y1="1" x2="0.5" y2="0.004" gradientUnits="objectBoundingBox">
      <stop offset="0" stop-color="#4d4848"/>
      <stop offset="0.354" stop-color="#14130a"/>
      <stop offset="1" stop-color="#14130a"/>
    </linearGradient>
    <linearGradient id="linear-gradient-2" x1="-0.006" y1="0.533" x2="1.015" y2="0.533" gradientUnits="objectBoundingBox">
      <stop offset="0.006" stop-color="#58595b"/>
      <stop offset="0.28" stop-color="#757679"/>
      <stop offset="0.509" stop-color="#88898d"/>
      <stop offset="1" stop-color="#58595b"/>
    </linearGradient>
    <linearGradient id="linear-gradient-3" x1="0.5" y1="-0.071" x2="0.5" y2="1.144" gradientUnits="objectBoundingBox">
      <stop offset="0.085" stop-color="#6d6f73"/>
      <stop offset="0.127" stop-color="#97999c"/>
      <stop offset="0.184" stop-color="#cccdce"/>
      <stop offset="0.212" stop-color="#e0e1e2"/>
      <stop offset="0.315" stop-color="#a7a9ac"/>
      <stop offset="0.389" stop-color="#868789"/>
      <stop offset="0.461" stop-color="#636363"/>
      <stop offset="0.526" stop-color="#6e6f6f"/>
      <stop offset="0.645" stop-color="#8b8d8f"/>
      <stop offset="0.739" stop-color="#a6aaad"/>
    </linearGradient>
    <radialGradient id="radial-gradient" cx="107.405" cy="122.642" r="108.466" gradientTransform="translate(-37.811 -71.981) scale(0.386 0.386)" gradientUnits="userSpaceOnUse">
      <stop offset="0" stop-color="#fff"/>
      <stop offset="1" stop-color="#fff" stop-opacity="0"/>
    </radialGradient>
    <radialGradient id="radial-gradient-2" cx="-50.584" cy="122.642" r="108.466" gradientTransform="matrix(-0.386, 0, 0, 0.386, -226.909, -71.98)" xlink:href="#radial-gradient"/>
    <linearGradient id="linear-gradient-4" y1="0.513" x2="1" y2="0.513" gradientUnits="objectBoundingBox">
      <stop offset="0.006" stop-color="#fff" stop-opacity="0"/>
      <stop offset="0.509" stop-color="#fff"/>
      <stop offset="1" stop-color="#fff" stop-opacity="0"/>
    </linearGradient>
    <linearGradient id="linear-gradient-5" x1="-0.018" y1="0.881" x2="1.07" y2="0.059" gradientUnits="objectBoundingBox">
      <stop offset="0" stop-color="#78797d"/>
      <stop offset="0.317" stop-color="#737478"/>
      <stop offset="0.491" stop-color="#6d6f73"/>
      <stop offset="1" stop-color="#6d6f73"/>
    </linearGradient>
    <linearGradient id="linear-gradient-6" x1="-0.017" y1="0.88" x2="1.07" y2="0.058" gradientUnits="objectBoundingBox">
      <stop offset="0" stop-color="#898a8f"/>
      <stop offset="0.05" stop-color="#909196"/>
      <stop offset="0.314" stop-color="#b1b2b6"/>
      <stop offset="0.566" stop-color="#c8cacd"/>
      <stop offset="0.801" stop-color="#d6d8db"/>
      <stop offset="1" stop-color="#dbdde0"/>
    </linearGradient>
  </defs>
  <g id="Group_78" data-name="Group 78" transform="translate(-34.998 -189.646)">
    <g id="Rectangle_51" data-name="Rectangle 51" class="cls-1" transform="translate(42.404 203.771)">
      <rect class="cls-19" width="351.163" height="191.447"/>
      <rect class="cls-20" x="0.5" y="0.5" width="350.163" height="190.447"/>
    </g>
    <g id="Group_3" data-name="Group 3" transform="translate(34.998 189.646)">
      <g id="Group_2" data-name="Group 2">
        <ellipse id="Ellipse_1" data-name="Ellipse 1" class="cls-2" cx="92.003" cy="8.168" rx="92.003" ry="8.168" transform="translate(92.684 284.292)"/>
        <g id="Group_1" data-name="Group 1">
          <path id="Path_2" data-name="Path 2" class="cls-3" d="M113,255.013v.227h0c0,2.155,3.4,3.063,12.479,3.063h89.167c8.962,0,12.139-1.134,12.139-3.4H113Z" transform="translate(15.192 34.27)"/>
          <path id="Path_3" data-name="Path 3" class="cls-4" d="M215.138,246.752c-8.055-8.168-8.281-25.752-8.281-25.752H131.983s-.34,17.584-8.281,25.752c-8.055,8.168-20.647,15.088,1.248,15.088h89.167C235.785,261.84,223.192,254.92,215.138,246.752Z" transform="translate(15.154 29.712)"/>
          <path id="Path_4" data-name="Path 4" class="cls-5" d="M169,259.3c4.424-9.076,18.718-17.584,36.416-19.4a17.421,17.421,0,0,0,2.836,3.63c7.941,8.055,20.193,15.769-.113,15.769Z" transform="translate(22.721 32.253)"/>
          <path id="Path_5" data-name="Path 5" class="cls-6" d="M163.354,259.3c-4.424-9.076-18.718-17.584-36.416-19.4a17.419,17.419,0,0,1-2.836,3.63c-7.941,8.055-20.193,15.769.113,15.769Z" transform="translate(15.208 32.253)"/>
          <path id="Path_6" data-name="Path 6" class="cls-7" d="M123,257.54c7.487-.113,15.088-.227,22.575-.227l22.575-.113,22.575.113,11.231.113,11.231.113-11.231.113-11.231.113-22.575.113-22.575-.113C137.975,257.767,130.487,257.654,123,257.54Z" transform="translate(16.537 34.579)"/>
          <path id="Path_7" data-name="Path 7" class="cls-8" d="M0,214.1c0,6.013,5.672,10.664,11.685,10.664h343.85A10.605,10.605,0,0,0,366.312,214.1V193H0Z" transform="translate(0 25.948)"/>
          <path id="Path_8" data-name="Path 8" class="cls-9" d="M355.648,0H11.8C5.672,0,0,4.311,0,10.323V218.948H366.425V10.323C366.425,4.311,361.661,0,355.648,0Zm-5.1,203.065H15.882V13.613H350.543Z"/>
          <path id="Path_9" data-name="Path 9" class="cls-10" d="M0,212.853c0,6.013,5.672,11.912,11.685,11.912h343.85c6.013,0,10.777-5.9,10.777-11.912V193H0Z" transform="translate(0 25.948)"/>
        </g>
      </g>
    </g>
    <g id="Group_68" data-name="Group 68" transform="translate(101.954 346.563) rotate(-90)">
      <path id="Path_98" data-name="Path 98" class="cls-11" d="M0,48.577,34.366,82.943A49.507,49.507,0,0,0,47.183,49.6,49.683,49.683,0,0,0,0,0Z" transform="translate(52.199 1.95)"/>
      <path id="Path_99" data-name="Path 99" class="cls-12" d="M47.927,35.109,12.818,0A49.684,49.684,0,0,0,83.036,70.125Z" transform="translate(0 18.298)"/>
      <path id="Path_100" data-name="Path 100" class="cls-13" d="M30.836,0A49.609,49.609,0,0,0,0,12.725L30.836,43.561Z" transform="translate(15.325)"/>
    </g>
    <g id="Group_73" data-name="Group 73" transform="translate(252.023 338.101) rotate(-90)">
      <g id="Group_69" data-name="Group 69" transform="translate(9.608 2.402)">
        <rect id="Rectangle_52" data-name="Rectangle 52" class="cls-14" width="89.397" height="8.773"/>
        <rect id="Rectangle_53" data-name="Rectangle 53" class="cls-15" width="54.202" height="8.773"/>
        <rect id="Rectangle_54" data-name="Rectangle 54" class="cls-14" width="89.397" height="8.773" transform="translate(0 21.827)"/>
        <rect id="Rectangle_55" data-name="Rectangle 55" class="cls-16" width="63.706" height="8.773" transform="translate(0 21.827)"/>
        <rect id="Rectangle_56" data-name="Rectangle 56" class="cls-14" width="89.397" height="8.773" transform="translate(0 43.759)"/>
        <rect id="Rectangle_57" data-name="Rectangle 57" class="cls-17" width="42.505" height="8.773" transform="translate(0 43.759)"/>
        <rect id="Rectangle_58" data-name="Rectangle 58" class="cls-14" width="89.397" height="8.773" transform="translate(0 65.586)"/>
        <rect id="Rectangle_59" data-name="Rectangle 59" class="cls-11" width="67.361" height="8.773" transform="translate(0 65.586)"/>
        <rect id="Rectangle_60" data-name="Rectangle 60" class="cls-14" width="89.397" height="8.773" transform="translate(0 87.413)"/>
        <rect id="Rectangle_61" data-name="Rectangle 61" class="cls-12" width="59.215" height="8.773" transform="translate(0 87.413)"/>
      </g>
      <g id="Group_71" data-name="Group 71" transform="translate(1.044 6.788)">
        <g id="Group_70" data-name="Group 70" transform="translate(0)">
          <path id="Path_101" data-name="Path 101" class="cls-18" d="M0,.522H6.057V0H0" transform="translate(0 86.891)"/>
          <path id="Path_102" data-name="Path 102" class="cls-18" d="M0,.522H6.057V0H0" transform="translate(0 65.168)"/>
          <path id="Path_103" data-name="Path 103" class="cls-18" d="M0,.522H6.057V0H0" transform="translate(0 43.445)"/>
          <path id="Path_104" data-name="Path 104" class="cls-18" d="M0,.522H6.057V0H0" transform="translate(0 21.723)"/>
          <path id="Path_105" data-name="Path 105" class="cls-18" d="M0,.522H6.057V0H0"/>
        </g>
      </g>
      <g id="Group_72" data-name="Group 72">
        <rect id="Rectangle_62" data-name="Rectangle 62" class="cls-18" width="2.089" height="101.094"/>
      </g>
    </g>
  </g>
</svg>
