<?xml version="1.0" encoding="utf-8"?>
<!-- Generator: Adobe Illustrator 23.0.6, SVG Export Plug-In . SVG Version: 6.00 Build 0)  -->
<svg version="1.1" id="Layer_1" xmlns="http://www.w3.org/2000/svg" xmlns:xlink="http://www.w3.org/1999/xlink" x="0px" y="0px"
	 viewBox="0 0 58.6 58.6" style="enable-background:new 0 0 58.6 58.6;" xml:space="preserve">
<style type="text/css">
	.st0{fill:#373939;}
</style>

<g>
	<animate  accumulate="none" additive="replace" attributeName="opacity" calcMode="linear" dur="3s" fill="remove" repeatCount="indefinite" restart="always" values="0;1;0">
	</animate>
	<path class="st0" d="M31.5,44.1c-1.2,0.2-2.4,0.2-3.7,0.1l-0.2,3c9.9,0.9,18.6-6.3,19.5-16.2c0.1-1.5,0.1-3-0.1-4.4l0,0l-3,0.5
		C45.2,35.3,39.6,42.9,31.5,44.1z"/>
	<path class="st0" d="M14,14.2C18.5,9.6,24.8,7.4,31.2,8l-3.6-3.6C15.2,5.2,5.2,15,4.3,27.5L7.8,31C7.3,24.7,9.6,18.6,14,14.2z"/>
	<path class="st0" d="M18.6,18.8c3.4-3.4,8.2-4.9,12.9-4.2l0.5-3c-9.8-1.6-19,5-20.6,14.8c-0.3,1.5-0.3,3.1-0.2,4.7l3-0.3
		C13.9,26.4,15.4,22,18.6,18.8z"/>
	<path class="st0" d="M31.3,50.7c-1.3,0.1-2.5,0.1-3.8,0l3.5,3.5c12.4-0.9,22.3-10.9,23-23.4l-3.6-3.6
		C51.7,39.1,43.1,49.6,31.3,50.7z"/>
</g>
<path class="st0" d="M36.9,37.6c4.6-4.6,4.6-12,0-16.6c-4.6-4.6-12-4.6-16.6,0c-4.6,4.6-4.6,12,0,16.6C25,42.2,32.4,42.2,36.9,37.6z
	 M27.1,30.9c-0.9-0.9-0.9-2.3,0-3.2c0.9-0.9,2.3-0.9,3.2,0c0.9,0.9,0.9,2.3,0,3.2C29.4,31.7,28,31.7,27.1,30.9L27.1,30.9z"/>
</svg>
