<?xml version="1.0" encoding="utf-8"?>
<!-- Generator: Adobe Illustrator 23.0.6, SVG Export Plug-In . SVG Version: 6.00 Build 0)  -->
<svg version="1.1" id="Layer_1" xmlns="http://www.w3.org/2000/svg" xmlns:xlink="http://www.w3.org/1999/xlink" x="0px" y="0px"
	 viewBox="0 0 27.8 49.9" style="enable-background:new 0 0 27.8 49.9;" xml:space="preserve">
<style type="text/css">
	.st0{fill:#373939;}
</style>
<path id="Path_34" class="st0" d="M22.6,26.8l-0.3-0.2V7c-0.1-2-1.1-3.9-2.7-5.1c-3.7-2.6-8.7-2.6-12.4,0C5.5,3.1,4.5,5,4.5,7v19.5
	l-0.3,0.2c-5.4,5.1-5.7,13.5-0.6,18.9s13.5,5.7,18.9,0.6c0.1-0.1,0.2-0.2,0.3-0.3c5.2-5.2,5.2-13.7,0-19
	C22.7,26.9,22.7,26.9,22.6,26.8L22.6,26.8z M13.4,47.7c-6.2,0-11.2-5-11.2-11.2c0-3.3,1.5-6.5,4.1-8.6l0.4-0.3V7
	c0.1-1.4,0.9-2.8,2.1-3.5c2.8-1.8,6.4-1.8,9.3,0c1.2,0.7,2,2.1,2.1,3.5v20.5l0.4,0.3c4.8,3.9,5.4,11,1.5,15.8
	C19.9,46.2,16.7,47.7,13.4,47.7L13.4,47.7z M24.9,8.4H27c0.4,0,0.8-0.3,0.9-0.7c0-0.4-0.4-0.7-0.9-0.7h-2.1c-0.4,0-0.8,0.3-0.9,0.7
	C24.1,8.2,24.5,8.5,24.9,8.4z M27,10.1h-2.1c-0.4-0.1-0.8,0.2-0.8,0.5c-0.1,0.4,0.2,0.8,0.5,0.8c0.1,0,0.2,0,0.3,0H27
	c0.4,0.1,0.8-0.2,0.8-0.5c0.1-0.4-0.2-0.8-0.5-0.8C27.2,10.1,27.1,10.1,27,10.1z M27,13.1h-2.1c-0.4-0.1-0.8,0.2-0.8,0.5
	c-0.1,0.4,0.2,0.8,0.5,0.8c0.1,0,0.2,0,0.3,0H27c0.4,0.1,0.8-0.2,0.8-0.5c0.1-0.4-0.2-0.8-0.5-0.8C27.2,13.1,27.1,13.1,27,13.1z
	 M27,16.1h-2.1c-0.4-0.1-0.8,0.2-0.8,0.5c-0.1,0.4,0.2,0.8,0.5,0.8c0.1,0,0.2,0,0.3,0H27c0.4,0.1,0.8-0.2,0.8-0.5
	c0.1-0.4-0.2-0.8-0.5-0.8C27.2,16.1,27.1,16.1,27,16.1z M27,19.1h-2.1c-0.4-0.1-0.8,0.2-0.8,0.5c-0.1,0.4,0.2,0.8,0.5,0.8
	c0.1,0,0.2,0,0.3,0H27c0.4,0.1,0.8-0.2,0.8-0.5c0.1-0.4-0.2-0.8-0.5-0.8C27.2,19.1,27.1,19.1,27,19.1z M27,22.2h-2.1
	c-0.4-0.1-0.8,0.2-0.8,0.5c-0.1,0.4,0.2,0.8,0.5,0.8c0.1,0,0.2,0,0.3,0H27c0.4,0.1,0.8-0.2,0.8-0.5c0.1-0.4-0.2-0.8-0.5-0.8
	C27.2,22.1,27.1,22.1,27,22.2z"/>
<circle class="st0" cx="13.4" cy="35.6" r="6.4"/>
<rect x="11.3" y="21.2" class="st0" width="4.2" height="10.2"/>
<rect x="11.3" y="21.2" transform="matrix(-1 -1.224647e-16 1.224647e-16 -1 26.7827 58.9869)" class="st0" width="4.2" height="16.6">

	 <animate attributeName="height" values="0;30;0" dur="3s" repeatCount="indefinite" />


</rect>
</svg>
