<svg xmlns="http://www.w3.org/2000/svg" viewBox="0 0 50 50">
  <defs>
    <style>
      .cls-1 {
        fill: #373939;
      }
    </style>
  </defs>
  <path id="Path_31" data-name="Path 31" class="cls-1" d="M35,10A25,25,0,1,0,60,35,25.027,25.027,0,0,0,35,10Zm0,46.878A21.875,21.875,0,1,1,56.878,35.005,21.9,21.9,0,0,1,35,56.878ZM39.082,37.25a4.562,4.562,0,0,0,.6-2.25,4.677,4.677,0,0,0-3.128-4.4V17.811a1.561,1.561,0,1,0-3.122,0V30.6a4.675,4.675,0,1,0,3.311,8.74l6.52,6.52a1.564,1.564,0,0,0,2.214-2.209ZM35,36.561A1.561,1.561,0,1,1,36.561,35,1.561,1.561,0,0,1,35,36.561Z" transform="translate(-10 -10)"/>
</svg>
